%TF.GenerationSoftware,KiCad,Pcbnew,6.0.0*%
%TF.CreationDate,2022-04-16T14:37:19+02:00*%
%TF.ProjectId,cowdin-3a-pwrmon,636f7764-696e-42d3-9361-2d7077726d6f,1*%
%TF.SameCoordinates,Original*%
%TF.FileFunction,Copper,L3,Inr*%
%TF.FilePolarity,Positive*%
%FSLAX46Y46*%
G04 Gerber Fmt 4.6, Leading zero omitted, Abs format (unit mm)*
G04 Created by KiCad (PCBNEW 6.0.0) date 2022-04-16 14:37:19*
%MOMM*%
%LPD*%
G01*
G04 APERTURE LIST*
%TA.AperFunction,ComponentPad*%
%ADD10R,2.400000X2.400000*%
%TD*%
%TA.AperFunction,ComponentPad*%
%ADD11C,2.400000*%
%TD*%
%TA.AperFunction,ComponentPad*%
%ADD12C,1.200000*%
%TD*%
%TA.AperFunction,ComponentPad*%
%ADD13C,2.200000*%
%TD*%
%TA.AperFunction,ComponentPad*%
%ADD14C,2.000000*%
%TD*%
%TA.AperFunction,ComponentPad*%
%ADD15C,1.524000*%
%TD*%
%TA.AperFunction,ViaPad*%
%ADD16C,0.711200*%
%TD*%
%TA.AperFunction,Conductor*%
%ADD17C,0.406400*%
%TD*%
%TA.AperFunction,Conductor*%
%ADD18C,0.304800*%
%TD*%
%TA.AperFunction,Conductor*%
%ADD19C,0.711200*%
%TD*%
G04 APERTURE END LIST*
D10*
%TO.N,GND*%
%TO.C,P1*%
X128180000Y-67250000D03*
D11*
%TO.N,+VIn*%
X133260000Y-67250000D03*
%TO.N,unconnected-(P1-Pad3)*%
X138340000Y-67250000D03*
%TO.N,LINKY_I1*%
X143420000Y-67250000D03*
%TO.N,LINKY_I2*%
X148500000Y-67250000D03*
%TO.N,unconnected-(P1-Pad6)*%
X153580000Y-67250000D03*
%TO.N,GND*%
X158660000Y-67250000D03*
%TO.N,RS485_B*%
X163740000Y-67250000D03*
%TO.N,RS485_A*%
X168820000Y-67250000D03*
%TD*%
D12*
%TO.N,Net-(TP8-Pad1)*%
%TO.C,TP8*%
X165250000Y-103000000D03*
%TD*%
D10*
%TO.N,RL_NO*%
%TO.C,P2*%
X128180000Y-142750000D03*
D11*
%TO.N,RL_COM*%
X133260000Y-142750000D03*
%TO.N,RL_NC*%
X138340000Y-142750000D03*
%TO.N,CT5_A*%
X143420000Y-142750000D03*
%TO.N,CT2_B*%
X148500000Y-142750000D03*
%TO.N,CT2_A*%
X153580000Y-142750000D03*
%TO.N,CT4_A*%
X158660000Y-142750000D03*
%TO.N,CT1_B*%
X163740000Y-142750000D03*
%TO.N,CT1_A*%
X168820000Y-142750000D03*
%TD*%
D13*
%TO.N,RL_COM*%
%TO.C,RL1*%
X128700000Y-125600000D03*
%TO.N,RL_NC*%
X128700000Y-120600000D03*
%TO.N,RL_NO*%
X128700000Y-130600000D03*
D14*
%TO.N,Net-(D3-Pad1)*%
X128700000Y-109350000D03*
%TO.N,+5V*%
X128700000Y-105600000D03*
%TD*%
D12*
%TO.N,Net-(TP7-Pad1)*%
%TO.C,TP7*%
X162750000Y-103000000D03*
%TD*%
D15*
%TO.N,Net-(R1-Pad1)*%
%TO.C,SW1*%
X171000000Y-84540000D03*
%TO.N,RS485_A*%
X171000000Y-82000000D03*
%TO.N,N/C*%
X171000000Y-79460000D03*
%TD*%
D16*
%TO.N,/Power Supply/5V_RAW*%
X137500000Y-107500000D03*
%TO.N,CT1_B*%
X161500000Y-117750000D03*
X163750000Y-127000000D03*
%TO.N,CT2_B*%
X146500000Y-117750000D03*
X148500000Y-127000000D03*
%TO.N,GND*%
X137500000Y-88500000D03*
X124100000Y-101000000D03*
X172900000Y-119000000D03*
X142900000Y-120500000D03*
X146750000Y-112450000D03*
X124100000Y-97000000D03*
X145400000Y-96750000D03*
X172900000Y-127000000D03*
X159900000Y-123000000D03*
X130500000Y-113000000D03*
X145400000Y-95000000D03*
X137500000Y-114250000D03*
X137500000Y-113250000D03*
X129500000Y-97150000D03*
X124100000Y-113000000D03*
X155000000Y-83800000D03*
X140500000Y-81000000D03*
X154100000Y-120500000D03*
X168000000Y-105900000D03*
X160100000Y-99250000D03*
X126000000Y-79000000D03*
X152250000Y-93400000D03*
X172900000Y-121000000D03*
X152100000Y-123000000D03*
X170500000Y-109400000D03*
X172900000Y-101000000D03*
X143500000Y-92500000D03*
X137500000Y-115250000D03*
X143750000Y-114150000D03*
X172900000Y-89000000D03*
X172900000Y-117000000D03*
X124100000Y-87000000D03*
X124100000Y-83000000D03*
X124100000Y-91000000D03*
X124100000Y-109000000D03*
X140500000Y-91500000D03*
X124100000Y-107000000D03*
X149400000Y-89500000D03*
X145400000Y-98250000D03*
X172900000Y-111000000D03*
X172900000Y-125000000D03*
X172900000Y-105000000D03*
X162500000Y-78250000D03*
X172900000Y-97000000D03*
X130500000Y-89000000D03*
X128750000Y-89500000D03*
X158100000Y-120500000D03*
X124100000Y-115000000D03*
X140500000Y-90050000D03*
X167600000Y-123000000D03*
X172900000Y-113000000D03*
X140500000Y-105750000D03*
X172900000Y-87000000D03*
X161350000Y-89650000D03*
X140500000Y-77000000D03*
X171500000Y-104400000D03*
X150900000Y-96750000D03*
X127500000Y-97150000D03*
X157600000Y-106650000D03*
X172900000Y-85000000D03*
X154750000Y-102600000D03*
X124100000Y-103000000D03*
X159250000Y-93400000D03*
X124100000Y-81000000D03*
X124100000Y-99000000D03*
X153050000Y-78250000D03*
X172900000Y-93000000D03*
X124100000Y-89000000D03*
X168900000Y-116500000D03*
X127250000Y-90000000D03*
X126500000Y-103000000D03*
X172900000Y-107000000D03*
X139000000Y-88500000D03*
X124100000Y-85000000D03*
X172900000Y-79000000D03*
X172900000Y-83000000D03*
X124100000Y-111000000D03*
X161400000Y-113000000D03*
X146750000Y-107550000D03*
X148500000Y-114200000D03*
X124100000Y-79000000D03*
X128500000Y-103000000D03*
X172900000Y-75000000D03*
X126000000Y-83000000D03*
X172900000Y-123000000D03*
X130500000Y-103000000D03*
X168900000Y-118250000D03*
X172900000Y-103000000D03*
X163750000Y-123000000D03*
X130100000Y-98750000D03*
X172900000Y-129000000D03*
X124100000Y-77000000D03*
X172900000Y-95000000D03*
X124100000Y-75000000D03*
X128500000Y-113000000D03*
X140500000Y-88500000D03*
X164600000Y-105250000D03*
X172900000Y-81000000D03*
X133500000Y-88500000D03*
X140500000Y-79000000D03*
X172900000Y-131000000D03*
X136500000Y-112250000D03*
X172900000Y-77000000D03*
X124100000Y-95000000D03*
X138500000Y-81000000D03*
X168000000Y-113400000D03*
X167750000Y-103000000D03*
X157050000Y-83800000D03*
X166100000Y-99750000D03*
X172900000Y-109000000D03*
X126500000Y-113000000D03*
X172900000Y-115000000D03*
X168900000Y-114750000D03*
X150750000Y-108750000D03*
X134500000Y-112250000D03*
X144900000Y-123000000D03*
X172900000Y-133000000D03*
X131750000Y-103750000D03*
X125500000Y-90000000D03*
X163750000Y-114200000D03*
X132250000Y-88500000D03*
X128750000Y-88500000D03*
X169350000Y-120500000D03*
X168150000Y-81000000D03*
X172900000Y-91000000D03*
X172900000Y-99000000D03*
X132250000Y-89500000D03*
X148500000Y-123000000D03*
X166250000Y-76000000D03*
X135500000Y-112250000D03*
X131000000Y-93250000D03*
X124100000Y-105000000D03*
X124100000Y-93000000D03*
X165700000Y-106250000D03*
%TO.N,+5V*%
X158750000Y-90750000D03*
X155250000Y-105500000D03*
X131750000Y-107100000D03*
X158950000Y-88550000D03*
X147750000Y-99500000D03*
X140000000Y-114000000D03*
X140000000Y-113000000D03*
X139000000Y-113000000D03*
X139000000Y-114000000D03*
X161250000Y-81500000D03*
X145400000Y-93250000D03*
X143750000Y-109850000D03*
X159150000Y-109650000D03*
X148500000Y-119300000D03*
X154200000Y-80750000D03*
X169750000Y-104400000D03*
X151750000Y-90750000D03*
X162750000Y-99750000D03*
X163750000Y-119300000D03*
X148180000Y-106500000D03*
X170250000Y-103000000D03*
%TO.N,+2.5V*%
X171250000Y-119350000D03*
X171250000Y-120250000D03*
X162800000Y-114200000D03*
X147550000Y-114200000D03*
%TO.N,RST*%
X148750000Y-93250000D03*
X143500000Y-95000000D03*
%TO.N,SWCLK*%
X150900000Y-98250000D03*
X143500000Y-97500000D03*
%TO.N,SWDAT*%
X143500000Y-100000000D03*
%TO.N,Net-(R23-Pad1)*%
X153500000Y-114886900D03*
X142000000Y-113100000D03*
%TD*%
D17*
%TO.N,+5V*%
X140000000Y-113000000D02*
X140000000Y-111950000D01*
X140000000Y-111950000D02*
X145450000Y-106500000D01*
X145450000Y-106500000D02*
X148180000Y-106500000D01*
X147750000Y-99500000D02*
X145500000Y-99500000D01*
X145500000Y-99500000D02*
X139000000Y-106000000D01*
X139000000Y-106000000D02*
X139000000Y-113000000D01*
X148500000Y-119300000D02*
X145300000Y-119300000D01*
X145300000Y-119300000D02*
X140000000Y-114000000D01*
D18*
X161400000Y-93400000D02*
X158750000Y-90750000D01*
D17*
X158800000Y-108500000D02*
X162900000Y-104400000D01*
X134450000Y-107500000D02*
X134050000Y-107100000D01*
X146750000Y-96250000D02*
X147750000Y-97250000D01*
X145400000Y-93250000D02*
X146750000Y-94600000D01*
D19*
X148500000Y-119300000D02*
X163750000Y-119300000D01*
D17*
X170250000Y-103900000D02*
X169750000Y-104400000D01*
D19*
X153650000Y-81300000D02*
X153650000Y-84900000D01*
X158750000Y-88550000D02*
X156450000Y-86250000D01*
D17*
X147750000Y-99500000D02*
X147750000Y-97250000D01*
X158750000Y-90750000D02*
X151750000Y-90750000D01*
X148180000Y-106500000D02*
X152200000Y-106500000D01*
D19*
X158950000Y-88550000D02*
X158750000Y-88550000D01*
D18*
X158600000Y-103900000D02*
X162750000Y-99750000D01*
D17*
X170250000Y-103000000D02*
X170250000Y-103900000D01*
D18*
X158950000Y-88550000D02*
X158950000Y-89900000D01*
X156850000Y-103900000D02*
X158600000Y-103900000D01*
X161400000Y-98400000D02*
X161400000Y-93400000D01*
D17*
X134050000Y-107100000D02*
X131750000Y-107100000D01*
X146750000Y-94600000D02*
X146750000Y-96250000D01*
X150650000Y-94350000D02*
X150650000Y-87900000D01*
D18*
X155250000Y-105500000D02*
X156850000Y-103900000D01*
D19*
X156450000Y-86250000D02*
X155000000Y-86250000D01*
X154200000Y-80750000D02*
X153650000Y-81300000D01*
D18*
X158950000Y-89900000D02*
X158750000Y-90100000D01*
D17*
X150650000Y-87900000D02*
X153650000Y-84900000D01*
X152200000Y-106500000D02*
X154200000Y-108500000D01*
X162900000Y-104400000D02*
X169750000Y-104400000D01*
D18*
X162750000Y-99750000D02*
X161400000Y-98400000D01*
D19*
X159150000Y-88550000D02*
X161250000Y-86450000D01*
X158950000Y-88550000D02*
X159150000Y-88550000D01*
X161250000Y-86450000D02*
X161250000Y-81500000D01*
D18*
X158750000Y-90100000D02*
X158750000Y-90750000D01*
D19*
X155000000Y-86250000D02*
X153650000Y-84900000D01*
D17*
X147750000Y-97250000D02*
X150650000Y-94350000D01*
X154200000Y-108500000D02*
X158800000Y-108500000D01*
D19*
%TO.N,+2.5V*%
X162800000Y-115750000D02*
X166400000Y-119350000D01*
X147550000Y-114200000D02*
X147550000Y-115000000D01*
X162800000Y-114200000D02*
X162800000Y-115750000D01*
X147550000Y-115000000D02*
X148300000Y-115750000D01*
X166400000Y-119350000D02*
X171250000Y-119350000D01*
X148300000Y-115750000D02*
X162800000Y-115750000D01*
%TD*%
%TA.AperFunction,Conductor*%
%TO.N,+5V*%
G36*
X173238921Y-61973202D02*
G01*
X173285414Y-62026858D01*
X173296800Y-62079200D01*
X173296800Y-74370405D01*
X173276798Y-74438526D01*
X173223142Y-74485019D01*
X173152868Y-74495123D01*
X173122582Y-74486814D01*
X173053636Y-74458256D01*
X173053635Y-74458256D01*
X173046007Y-74455096D01*
X173037823Y-74454019D01*
X173037821Y-74454018D01*
X172908188Y-74436952D01*
X172900000Y-74435874D01*
X172891812Y-74436952D01*
X172762179Y-74454018D01*
X172762177Y-74454019D01*
X172753993Y-74455096D01*
X172617937Y-74511453D01*
X172501103Y-74601103D01*
X172411453Y-74717937D01*
X172355096Y-74853993D01*
X172335874Y-75000000D01*
X172355096Y-75146007D01*
X172411453Y-75282063D01*
X172501103Y-75398897D01*
X172617937Y-75488547D01*
X172753993Y-75544904D01*
X172762177Y-75545981D01*
X172762179Y-75545982D01*
X172891812Y-75563048D01*
X172900000Y-75564126D01*
X172908188Y-75563048D01*
X173037821Y-75545982D01*
X173037823Y-75545981D01*
X173046007Y-75544904D01*
X173064181Y-75537376D01*
X173122582Y-75513186D01*
X173193172Y-75505597D01*
X173256659Y-75537376D01*
X173292886Y-75598434D01*
X173296800Y-75629595D01*
X173296800Y-76370405D01*
X173276798Y-76438526D01*
X173223142Y-76485019D01*
X173152868Y-76495123D01*
X173122582Y-76486814D01*
X173053636Y-76458256D01*
X173053635Y-76458256D01*
X173046007Y-76455096D01*
X173037823Y-76454019D01*
X173037821Y-76454018D01*
X172908188Y-76436952D01*
X172900000Y-76435874D01*
X172891812Y-76436952D01*
X172762179Y-76454018D01*
X172762177Y-76454019D01*
X172753993Y-76455096D01*
X172617937Y-76511453D01*
X172501103Y-76601103D01*
X172411453Y-76717937D01*
X172355096Y-76853993D01*
X172335874Y-77000000D01*
X172355096Y-77146007D01*
X172411453Y-77282063D01*
X172501103Y-77398897D01*
X172617937Y-77488547D01*
X172753993Y-77544904D01*
X172762177Y-77545981D01*
X172762179Y-77545982D01*
X172891812Y-77563048D01*
X172900000Y-77564126D01*
X172908188Y-77563048D01*
X173037821Y-77545982D01*
X173037823Y-77545981D01*
X173046007Y-77544904D01*
X173064181Y-77537376D01*
X173122582Y-77513186D01*
X173193172Y-77505597D01*
X173256659Y-77537376D01*
X173292886Y-77598434D01*
X173296800Y-77629595D01*
X173296800Y-78370405D01*
X173276798Y-78438526D01*
X173223142Y-78485019D01*
X173152868Y-78495123D01*
X173122582Y-78486814D01*
X173053636Y-78458256D01*
X173053635Y-78458256D01*
X173046007Y-78455096D01*
X173037823Y-78454019D01*
X173037821Y-78454018D01*
X172908188Y-78436952D01*
X172900000Y-78435874D01*
X172891812Y-78436952D01*
X172762179Y-78454018D01*
X172762177Y-78454019D01*
X172753993Y-78455096D01*
X172617937Y-78511453D01*
X172501103Y-78601103D01*
X172411453Y-78717937D01*
X172355096Y-78853993D01*
X172354019Y-78862177D01*
X172354018Y-78862179D01*
X172345294Y-78928450D01*
X172335874Y-79000000D01*
X172336952Y-79008188D01*
X172347752Y-79090220D01*
X172355096Y-79146007D01*
X172411453Y-79282063D01*
X172501103Y-79398897D01*
X172617937Y-79488547D01*
X172753993Y-79544904D01*
X172762177Y-79545981D01*
X172762179Y-79545982D01*
X172891812Y-79563048D01*
X172900000Y-79564126D01*
X172908188Y-79563048D01*
X173037821Y-79545982D01*
X173037823Y-79545981D01*
X173046007Y-79544904D01*
X173064181Y-79537376D01*
X173122582Y-79513186D01*
X173193172Y-79505597D01*
X173256659Y-79537376D01*
X173292886Y-79598434D01*
X173296800Y-79629595D01*
X173296800Y-80370405D01*
X173276798Y-80438526D01*
X173223142Y-80485019D01*
X173152868Y-80495123D01*
X173122582Y-80486814D01*
X173053636Y-80458256D01*
X173053635Y-80458256D01*
X173046007Y-80455096D01*
X173037823Y-80454019D01*
X173037821Y-80454018D01*
X172908188Y-80436952D01*
X172900000Y-80435874D01*
X172891812Y-80436952D01*
X172762179Y-80454018D01*
X172762177Y-80454019D01*
X172753993Y-80455096D01*
X172617937Y-80511453D01*
X172501103Y-80601103D01*
X172411453Y-80717937D01*
X172355096Y-80853993D01*
X172335874Y-81000000D01*
X172336952Y-81008188D01*
X172349517Y-81103627D01*
X172355096Y-81146007D01*
X172411453Y-81282063D01*
X172501103Y-81398897D01*
X172617937Y-81488547D01*
X172753993Y-81544904D01*
X172762177Y-81545981D01*
X172762179Y-81545982D01*
X172891812Y-81563048D01*
X172900000Y-81564126D01*
X172908188Y-81563048D01*
X173037821Y-81545982D01*
X173037823Y-81545981D01*
X173046007Y-81544904D01*
X173064181Y-81537376D01*
X173122582Y-81513186D01*
X173193172Y-81505597D01*
X173256659Y-81537376D01*
X173292886Y-81598434D01*
X173296800Y-81629595D01*
X173296800Y-82370405D01*
X173276798Y-82438526D01*
X173223142Y-82485019D01*
X173152868Y-82495123D01*
X173122582Y-82486814D01*
X173053636Y-82458256D01*
X173053635Y-82458256D01*
X173046007Y-82455096D01*
X173037823Y-82454019D01*
X173037821Y-82454018D01*
X172908188Y-82436952D01*
X172900000Y-82435874D01*
X172891812Y-82436952D01*
X172762179Y-82454018D01*
X172762177Y-82454019D01*
X172753993Y-82455096D01*
X172617937Y-82511453D01*
X172501103Y-82601103D01*
X172411453Y-82717937D01*
X172355096Y-82853993D01*
X172354019Y-82862177D01*
X172354018Y-82862179D01*
X172348420Y-82904702D01*
X172335874Y-83000000D01*
X172355096Y-83146007D01*
X172411453Y-83282063D01*
X172501103Y-83398897D01*
X172617937Y-83488547D01*
X172753993Y-83544904D01*
X172762177Y-83545981D01*
X172762179Y-83545982D01*
X172891812Y-83563048D01*
X172900000Y-83564126D01*
X172908188Y-83563048D01*
X173037821Y-83545982D01*
X173037823Y-83545981D01*
X173046007Y-83544904D01*
X173064181Y-83537376D01*
X173122582Y-83513186D01*
X173193172Y-83505597D01*
X173256659Y-83537376D01*
X173292886Y-83598434D01*
X173296800Y-83629595D01*
X173296800Y-84370405D01*
X173276798Y-84438526D01*
X173223142Y-84485019D01*
X173152868Y-84495123D01*
X173122582Y-84486814D01*
X173053636Y-84458256D01*
X173053635Y-84458256D01*
X173046007Y-84455096D01*
X173037823Y-84454019D01*
X173037821Y-84454018D01*
X172908188Y-84436952D01*
X172900000Y-84435874D01*
X172891812Y-84436952D01*
X172762179Y-84454018D01*
X172762177Y-84454019D01*
X172753993Y-84455096D01*
X172617937Y-84511453D01*
X172501103Y-84601103D01*
X172411453Y-84717937D01*
X172355096Y-84853993D01*
X172354019Y-84862177D01*
X172354018Y-84862179D01*
X172349405Y-84897218D01*
X172335874Y-85000000D01*
X172336952Y-85008188D01*
X172343796Y-85060171D01*
X172355096Y-85146007D01*
X172411453Y-85282063D01*
X172501103Y-85398897D01*
X172617937Y-85488547D01*
X172753993Y-85544904D01*
X172762177Y-85545981D01*
X172762179Y-85545982D01*
X172891812Y-85563048D01*
X172900000Y-85564126D01*
X172908188Y-85563048D01*
X173037821Y-85545982D01*
X173037823Y-85545981D01*
X173046007Y-85544904D01*
X173064181Y-85537376D01*
X173122582Y-85513186D01*
X173193172Y-85505597D01*
X173256659Y-85537376D01*
X173292886Y-85598434D01*
X173296800Y-85629595D01*
X173296800Y-86370405D01*
X173276798Y-86438526D01*
X173223142Y-86485019D01*
X173152868Y-86495123D01*
X173122582Y-86486814D01*
X173053636Y-86458256D01*
X173053635Y-86458256D01*
X173046007Y-86455096D01*
X173037823Y-86454019D01*
X173037821Y-86454018D01*
X172908188Y-86436952D01*
X172900000Y-86435874D01*
X172891812Y-86436952D01*
X172762179Y-86454018D01*
X172762177Y-86454019D01*
X172753993Y-86455096D01*
X172617937Y-86511453D01*
X172501103Y-86601103D01*
X172411453Y-86717937D01*
X172355096Y-86853993D01*
X172335874Y-87000000D01*
X172355096Y-87146007D01*
X172411453Y-87282063D01*
X172501103Y-87398897D01*
X172617937Y-87488547D01*
X172753993Y-87544904D01*
X172762177Y-87545981D01*
X172762179Y-87545982D01*
X172891812Y-87563048D01*
X172900000Y-87564126D01*
X172908188Y-87563048D01*
X173037821Y-87545982D01*
X173037823Y-87545981D01*
X173046007Y-87544904D01*
X173064181Y-87537376D01*
X173122582Y-87513186D01*
X173193172Y-87505597D01*
X173256659Y-87537376D01*
X173292886Y-87598434D01*
X173296800Y-87629595D01*
X173296800Y-88370405D01*
X173276798Y-88438526D01*
X173223142Y-88485019D01*
X173152868Y-88495123D01*
X173122582Y-88486814D01*
X173053636Y-88458256D01*
X173053635Y-88458256D01*
X173046007Y-88455096D01*
X173037823Y-88454019D01*
X173037821Y-88454018D01*
X172908188Y-88436952D01*
X172900000Y-88435874D01*
X172891812Y-88436952D01*
X172762179Y-88454018D01*
X172762177Y-88454019D01*
X172753993Y-88455096D01*
X172617937Y-88511453D01*
X172501103Y-88601103D01*
X172411453Y-88717937D01*
X172355096Y-88853993D01*
X172335874Y-89000000D01*
X172336952Y-89008188D01*
X172350047Y-89107653D01*
X172355096Y-89146007D01*
X172411453Y-89282063D01*
X172501103Y-89398897D01*
X172617937Y-89488547D01*
X172753993Y-89544904D01*
X172762177Y-89545981D01*
X172762179Y-89545982D01*
X172891812Y-89563048D01*
X172900000Y-89564126D01*
X172908188Y-89563048D01*
X173037821Y-89545982D01*
X173037823Y-89545981D01*
X173046007Y-89544904D01*
X173064181Y-89537376D01*
X173122582Y-89513186D01*
X173193172Y-89505597D01*
X173256659Y-89537376D01*
X173292886Y-89598434D01*
X173296800Y-89629595D01*
X173296800Y-90370405D01*
X173276798Y-90438526D01*
X173223142Y-90485019D01*
X173152868Y-90495123D01*
X173122582Y-90486814D01*
X173053636Y-90458256D01*
X173053635Y-90458256D01*
X173046007Y-90455096D01*
X173037823Y-90454019D01*
X173037821Y-90454018D01*
X172908188Y-90436952D01*
X172900000Y-90435874D01*
X172891812Y-90436952D01*
X172762179Y-90454018D01*
X172762177Y-90454019D01*
X172753993Y-90455096D01*
X172617937Y-90511453D01*
X172501103Y-90601103D01*
X172411453Y-90717937D01*
X172355096Y-90853993D01*
X172335874Y-91000000D01*
X172336952Y-91008188D01*
X172350047Y-91107653D01*
X172355096Y-91146007D01*
X172411453Y-91282063D01*
X172501103Y-91398897D01*
X172617937Y-91488547D01*
X172753993Y-91544904D01*
X172762177Y-91545981D01*
X172762179Y-91545982D01*
X172891812Y-91563048D01*
X172900000Y-91564126D01*
X172908188Y-91563048D01*
X173037821Y-91545982D01*
X173037823Y-91545981D01*
X173046007Y-91544904D01*
X173064181Y-91537376D01*
X173122582Y-91513186D01*
X173193172Y-91505597D01*
X173256659Y-91537376D01*
X173292886Y-91598434D01*
X173296800Y-91629595D01*
X173296800Y-92370405D01*
X173276798Y-92438526D01*
X173223142Y-92485019D01*
X173152868Y-92495123D01*
X173122582Y-92486814D01*
X173053636Y-92458256D01*
X173053635Y-92458256D01*
X173046007Y-92455096D01*
X173037823Y-92454019D01*
X173037821Y-92454018D01*
X172908188Y-92436952D01*
X172900000Y-92435874D01*
X172891812Y-92436952D01*
X172762179Y-92454018D01*
X172762177Y-92454019D01*
X172753993Y-92455096D01*
X172617937Y-92511453D01*
X172501103Y-92601103D01*
X172411453Y-92717937D01*
X172355096Y-92853993D01*
X172354019Y-92862177D01*
X172354018Y-92862179D01*
X172340957Y-92961387D01*
X172335874Y-93000000D01*
X172336952Y-93008188D01*
X172351401Y-93117937D01*
X172355096Y-93146007D01*
X172411453Y-93282063D01*
X172501103Y-93398897D01*
X172617937Y-93488547D01*
X172753993Y-93544904D01*
X172762177Y-93545981D01*
X172762179Y-93545982D01*
X172891812Y-93563048D01*
X172900000Y-93564126D01*
X172908188Y-93563048D01*
X173037821Y-93545982D01*
X173037823Y-93545981D01*
X173046007Y-93544904D01*
X173064181Y-93537376D01*
X173122582Y-93513186D01*
X173193172Y-93505597D01*
X173256659Y-93537376D01*
X173292886Y-93598434D01*
X173296800Y-93629595D01*
X173296800Y-94370405D01*
X173276798Y-94438526D01*
X173223142Y-94485019D01*
X173152868Y-94495123D01*
X173122582Y-94486814D01*
X173053636Y-94458256D01*
X173053635Y-94458256D01*
X173046007Y-94455096D01*
X173037823Y-94454019D01*
X173037821Y-94454018D01*
X172908188Y-94436952D01*
X172900000Y-94435874D01*
X172891812Y-94436952D01*
X172762179Y-94454018D01*
X172762177Y-94454019D01*
X172753993Y-94455096D01*
X172617937Y-94511453D01*
X172501103Y-94601103D01*
X172411453Y-94717937D01*
X172355096Y-94853993D01*
X172335874Y-95000000D01*
X172355096Y-95146007D01*
X172411453Y-95282063D01*
X172501103Y-95398897D01*
X172617937Y-95488547D01*
X172753993Y-95544904D01*
X172762177Y-95545981D01*
X172762179Y-95545982D01*
X172891812Y-95563048D01*
X172900000Y-95564126D01*
X172908188Y-95563048D01*
X173037821Y-95545982D01*
X173037823Y-95545981D01*
X173046007Y-95544904D01*
X173064181Y-95537376D01*
X173122582Y-95513186D01*
X173193172Y-95505597D01*
X173256659Y-95537376D01*
X173292886Y-95598434D01*
X173296800Y-95629595D01*
X173296800Y-96370405D01*
X173276798Y-96438526D01*
X173223142Y-96485019D01*
X173152868Y-96495123D01*
X173122582Y-96486814D01*
X173053636Y-96458256D01*
X173053635Y-96458256D01*
X173046007Y-96455096D01*
X173037823Y-96454019D01*
X173037821Y-96454018D01*
X172908188Y-96436952D01*
X172900000Y-96435874D01*
X172891812Y-96436952D01*
X172762179Y-96454018D01*
X172762177Y-96454019D01*
X172753993Y-96455096D01*
X172617937Y-96511453D01*
X172501103Y-96601103D01*
X172411453Y-96717937D01*
X172355096Y-96853993D01*
X172354019Y-96862177D01*
X172354018Y-96862179D01*
X172349565Y-96896007D01*
X172335874Y-97000000D01*
X172336952Y-97008188D01*
X172350047Y-97107653D01*
X172355096Y-97146007D01*
X172411453Y-97282063D01*
X172501103Y-97398897D01*
X172617937Y-97488547D01*
X172753993Y-97544904D01*
X172762177Y-97545981D01*
X172762179Y-97545982D01*
X172891812Y-97563048D01*
X172900000Y-97564126D01*
X172908188Y-97563048D01*
X173037821Y-97545982D01*
X173037823Y-97545981D01*
X173046007Y-97544904D01*
X173064181Y-97537376D01*
X173122582Y-97513186D01*
X173193172Y-97505597D01*
X173256659Y-97537376D01*
X173292886Y-97598434D01*
X173296800Y-97629595D01*
X173296800Y-98370405D01*
X173276798Y-98438526D01*
X173223142Y-98485019D01*
X173152868Y-98495123D01*
X173122582Y-98486814D01*
X173053636Y-98458256D01*
X173053635Y-98458256D01*
X173046007Y-98455096D01*
X173037823Y-98454019D01*
X173037821Y-98454018D01*
X172908188Y-98436952D01*
X172900000Y-98435874D01*
X172891812Y-98436952D01*
X172762179Y-98454018D01*
X172762177Y-98454019D01*
X172753993Y-98455096D01*
X172617937Y-98511453D01*
X172501103Y-98601103D01*
X172411453Y-98717937D01*
X172355096Y-98853993D01*
X172354019Y-98862177D01*
X172354018Y-98862179D01*
X172349565Y-98896007D01*
X172335874Y-99000000D01*
X172336952Y-99008188D01*
X172350643Y-99112179D01*
X172355096Y-99146007D01*
X172411453Y-99282063D01*
X172501103Y-99398897D01*
X172617937Y-99488547D01*
X172753993Y-99544904D01*
X172762177Y-99545981D01*
X172762179Y-99545982D01*
X172891812Y-99563048D01*
X172900000Y-99564126D01*
X172908188Y-99563048D01*
X173037821Y-99545982D01*
X173037823Y-99545981D01*
X173046007Y-99544904D01*
X173064181Y-99537376D01*
X173122582Y-99513186D01*
X173193172Y-99505597D01*
X173256659Y-99537376D01*
X173292886Y-99598434D01*
X173296800Y-99629595D01*
X173296800Y-100370405D01*
X173276798Y-100438526D01*
X173223142Y-100485019D01*
X173152868Y-100495123D01*
X173122582Y-100486814D01*
X173053636Y-100458256D01*
X173053635Y-100458256D01*
X173046007Y-100455096D01*
X173037823Y-100454019D01*
X173037821Y-100454018D01*
X172908188Y-100436952D01*
X172900000Y-100435874D01*
X172891812Y-100436952D01*
X172762179Y-100454018D01*
X172762177Y-100454019D01*
X172753993Y-100455096D01*
X172617937Y-100511453D01*
X172501103Y-100601103D01*
X172411453Y-100717937D01*
X172355096Y-100853993D01*
X172335874Y-101000000D01*
X172355096Y-101146007D01*
X172411453Y-101282063D01*
X172501103Y-101398897D01*
X172617937Y-101488547D01*
X172753993Y-101544904D01*
X172762177Y-101545981D01*
X172762179Y-101545982D01*
X172891812Y-101563048D01*
X172900000Y-101564126D01*
X172908188Y-101563048D01*
X173037821Y-101545982D01*
X173037823Y-101545981D01*
X173046007Y-101544904D01*
X173064181Y-101537376D01*
X173122582Y-101513186D01*
X173193172Y-101505597D01*
X173256659Y-101537376D01*
X173292886Y-101598434D01*
X173296800Y-101629595D01*
X173296800Y-102370405D01*
X173276798Y-102438526D01*
X173223142Y-102485019D01*
X173152868Y-102495123D01*
X173122582Y-102486814D01*
X173053636Y-102458256D01*
X173053635Y-102458256D01*
X173046007Y-102455096D01*
X173037823Y-102454019D01*
X173037821Y-102454018D01*
X172908188Y-102436952D01*
X172900000Y-102435874D01*
X172891812Y-102436952D01*
X172762179Y-102454018D01*
X172762177Y-102454019D01*
X172753993Y-102455096D01*
X172617937Y-102511453D01*
X172501103Y-102601103D01*
X172411453Y-102717937D01*
X172355096Y-102853993D01*
X172354019Y-102862177D01*
X172354018Y-102862179D01*
X172350538Y-102888613D01*
X172335874Y-103000000D01*
X172336952Y-103008188D01*
X172346870Y-103083521D01*
X172355096Y-103146007D01*
X172411453Y-103282063D01*
X172501103Y-103398897D01*
X172617937Y-103488547D01*
X172753993Y-103544904D01*
X172762177Y-103545981D01*
X172762179Y-103545982D01*
X172891812Y-103563048D01*
X172900000Y-103564126D01*
X172908188Y-103563048D01*
X173037821Y-103545982D01*
X173037823Y-103545981D01*
X173046007Y-103544904D01*
X173064181Y-103537376D01*
X173122582Y-103513186D01*
X173193172Y-103505597D01*
X173256659Y-103537376D01*
X173292886Y-103598434D01*
X173296800Y-103629595D01*
X173296800Y-104370405D01*
X173276798Y-104438526D01*
X173223142Y-104485019D01*
X173152868Y-104495123D01*
X173122582Y-104486814D01*
X173053636Y-104458256D01*
X173053635Y-104458256D01*
X173046007Y-104455096D01*
X173037823Y-104454019D01*
X173037821Y-104454018D01*
X172908188Y-104436952D01*
X172900000Y-104435874D01*
X172891812Y-104436952D01*
X172762179Y-104454018D01*
X172762177Y-104454019D01*
X172753993Y-104455096D01*
X172617937Y-104511453D01*
X172501103Y-104601103D01*
X172411453Y-104717937D01*
X172355096Y-104853993D01*
X172354019Y-104862177D01*
X172354018Y-104862179D01*
X172340957Y-104961387D01*
X172335874Y-105000000D01*
X172336952Y-105008188D01*
X172350643Y-105112179D01*
X172355096Y-105146007D01*
X172411453Y-105282063D01*
X172501103Y-105398897D01*
X172617937Y-105488547D01*
X172753993Y-105544904D01*
X172762177Y-105545981D01*
X172762179Y-105545982D01*
X172891812Y-105563048D01*
X172900000Y-105564126D01*
X172908188Y-105563048D01*
X173037821Y-105545982D01*
X173037823Y-105545981D01*
X173046007Y-105544904D01*
X173064181Y-105537376D01*
X173122582Y-105513186D01*
X173193172Y-105505597D01*
X173256659Y-105537376D01*
X173292886Y-105598434D01*
X173296800Y-105629595D01*
X173296800Y-106370405D01*
X173276798Y-106438526D01*
X173223142Y-106485019D01*
X173152868Y-106495123D01*
X173122582Y-106486814D01*
X173053636Y-106458256D01*
X173053635Y-106458256D01*
X173046007Y-106455096D01*
X173037823Y-106454019D01*
X173037821Y-106454018D01*
X172908188Y-106436952D01*
X172900000Y-106435874D01*
X172891812Y-106436952D01*
X172762179Y-106454018D01*
X172762177Y-106454019D01*
X172753993Y-106455096D01*
X172617937Y-106511453D01*
X172501103Y-106601103D01*
X172411453Y-106717937D01*
X172355096Y-106853993D01*
X172335874Y-107000000D01*
X172336952Y-107008188D01*
X172350047Y-107107653D01*
X172355096Y-107146007D01*
X172411453Y-107282063D01*
X172501103Y-107398897D01*
X172617937Y-107488547D01*
X172753993Y-107544904D01*
X172762177Y-107545981D01*
X172762179Y-107545982D01*
X172891812Y-107563048D01*
X172900000Y-107564126D01*
X172908188Y-107563048D01*
X173037821Y-107545982D01*
X173037823Y-107545981D01*
X173046007Y-107544904D01*
X173064181Y-107537376D01*
X173122582Y-107513186D01*
X173193172Y-107505597D01*
X173256659Y-107537376D01*
X173292886Y-107598434D01*
X173296800Y-107629595D01*
X173296800Y-108370405D01*
X173276798Y-108438526D01*
X173223142Y-108485019D01*
X173152868Y-108495123D01*
X173122582Y-108486814D01*
X173053636Y-108458256D01*
X173053635Y-108458256D01*
X173046007Y-108455096D01*
X173037823Y-108454019D01*
X173037821Y-108454018D01*
X172908188Y-108436952D01*
X172900000Y-108435874D01*
X172891812Y-108436952D01*
X172762179Y-108454018D01*
X172762177Y-108454019D01*
X172753993Y-108455096D01*
X172617937Y-108511453D01*
X172501103Y-108601103D01*
X172411453Y-108717937D01*
X172355096Y-108853993D01*
X172354019Y-108862177D01*
X172354018Y-108862179D01*
X172338933Y-108976768D01*
X172335874Y-109000000D01*
X172336952Y-109008188D01*
X172352950Y-109129703D01*
X172355096Y-109146007D01*
X172411453Y-109282063D01*
X172501103Y-109398897D01*
X172617937Y-109488547D01*
X172753993Y-109544904D01*
X172762177Y-109545981D01*
X172762179Y-109545982D01*
X172891812Y-109563048D01*
X172900000Y-109564126D01*
X172908188Y-109563048D01*
X173037821Y-109545982D01*
X173037823Y-109545981D01*
X173046007Y-109544904D01*
X173064181Y-109537376D01*
X173122582Y-109513186D01*
X173193172Y-109505597D01*
X173256659Y-109537376D01*
X173292886Y-109598434D01*
X173296800Y-109629595D01*
X173296800Y-110370405D01*
X173276798Y-110438526D01*
X173223142Y-110485019D01*
X173152868Y-110495123D01*
X173122582Y-110486814D01*
X173053636Y-110458256D01*
X173053635Y-110458256D01*
X173046007Y-110455096D01*
X173037823Y-110454019D01*
X173037821Y-110454018D01*
X172908188Y-110436952D01*
X172900000Y-110435874D01*
X172891812Y-110436952D01*
X172762179Y-110454018D01*
X172762177Y-110454019D01*
X172753993Y-110455096D01*
X172617937Y-110511453D01*
X172501103Y-110601103D01*
X172411453Y-110717937D01*
X172355096Y-110853993D01*
X172335874Y-111000000D01*
X172355096Y-111146007D01*
X172411453Y-111282063D01*
X172501103Y-111398897D01*
X172617937Y-111488547D01*
X172753993Y-111544904D01*
X172762177Y-111545981D01*
X172762179Y-111545982D01*
X172891812Y-111563048D01*
X172900000Y-111564126D01*
X172908188Y-111563048D01*
X173037821Y-111545982D01*
X173037823Y-111545981D01*
X173046007Y-111544904D01*
X173064181Y-111537376D01*
X173122582Y-111513186D01*
X173193172Y-111505597D01*
X173256659Y-111537376D01*
X173292886Y-111598434D01*
X173296800Y-111629595D01*
X173296800Y-112370405D01*
X173276798Y-112438526D01*
X173223142Y-112485019D01*
X173152868Y-112495123D01*
X173122582Y-112486814D01*
X173053636Y-112458256D01*
X173053635Y-112458256D01*
X173046007Y-112455096D01*
X173037823Y-112454019D01*
X173037821Y-112454018D01*
X172908188Y-112436952D01*
X172900000Y-112435874D01*
X172891812Y-112436952D01*
X172762179Y-112454018D01*
X172762177Y-112454019D01*
X172753993Y-112455096D01*
X172617937Y-112511453D01*
X172501103Y-112601103D01*
X172411453Y-112717937D01*
X172355096Y-112853993D01*
X172354019Y-112862177D01*
X172354018Y-112862179D01*
X172344626Y-112933521D01*
X172335874Y-113000000D01*
X172336952Y-113008187D01*
X172336952Y-113008188D01*
X172351401Y-113117937D01*
X172355096Y-113146007D01*
X172411453Y-113282063D01*
X172501103Y-113398897D01*
X172617937Y-113488547D01*
X172753993Y-113544904D01*
X172762177Y-113545981D01*
X172762179Y-113545982D01*
X172891812Y-113563048D01*
X172900000Y-113564126D01*
X172908188Y-113563048D01*
X173037821Y-113545982D01*
X173037823Y-113545981D01*
X173046007Y-113544904D01*
X173064181Y-113537376D01*
X173122582Y-113513186D01*
X173193172Y-113505597D01*
X173256659Y-113537376D01*
X173292886Y-113598434D01*
X173296800Y-113629595D01*
X173296800Y-114370405D01*
X173276798Y-114438526D01*
X173223142Y-114485019D01*
X173152868Y-114495123D01*
X173122582Y-114486814D01*
X173053636Y-114458256D01*
X173053635Y-114458256D01*
X173046007Y-114455096D01*
X173037823Y-114454019D01*
X173037821Y-114454018D01*
X172908188Y-114436952D01*
X172900000Y-114435874D01*
X172891812Y-114436952D01*
X172762179Y-114454018D01*
X172762177Y-114454019D01*
X172753993Y-114455096D01*
X172617937Y-114511453D01*
X172501103Y-114601103D01*
X172411453Y-114717937D01*
X172355096Y-114853993D01*
X172354019Y-114862177D01*
X172354018Y-114862179D01*
X172349565Y-114896007D01*
X172335874Y-115000000D01*
X172336952Y-115008188D01*
X172350643Y-115112179D01*
X172355096Y-115146007D01*
X172411453Y-115282063D01*
X172501103Y-115398897D01*
X172617937Y-115488547D01*
X172753993Y-115544904D01*
X172762177Y-115545981D01*
X172762179Y-115545982D01*
X172891812Y-115563048D01*
X172900000Y-115564126D01*
X172908188Y-115563048D01*
X173037821Y-115545982D01*
X173037823Y-115545981D01*
X173046007Y-115544904D01*
X173064181Y-115537376D01*
X173122582Y-115513186D01*
X173193172Y-115505597D01*
X173256659Y-115537376D01*
X173292886Y-115598434D01*
X173296800Y-115629595D01*
X173296800Y-115874000D01*
X173276798Y-115942121D01*
X173223142Y-115988614D01*
X173170800Y-116000000D01*
X169179478Y-116000000D01*
X169131259Y-115990409D01*
X169053633Y-115958255D01*
X169053634Y-115958255D01*
X169046007Y-115955096D01*
X169037823Y-115954019D01*
X169037821Y-115954018D01*
X168908188Y-115936952D01*
X168900000Y-115935874D01*
X168891812Y-115936952D01*
X168762179Y-115954018D01*
X168762177Y-115954019D01*
X168753993Y-115955096D01*
X168746366Y-115958255D01*
X168746367Y-115958255D01*
X168668741Y-115990409D01*
X168620522Y-116000000D01*
X167552190Y-116000000D01*
X167484069Y-115979998D01*
X167463095Y-115963095D01*
X166250000Y-114750000D01*
X168335874Y-114750000D01*
X168336952Y-114758188D01*
X168350643Y-114862179D01*
X168355096Y-114896007D01*
X168411453Y-115032063D01*
X168501103Y-115148897D01*
X168617937Y-115238547D01*
X168753993Y-115294904D01*
X168762177Y-115295981D01*
X168762179Y-115295982D01*
X168891812Y-115313048D01*
X168900000Y-115314126D01*
X168908188Y-115313048D01*
X169037821Y-115295982D01*
X169037823Y-115295981D01*
X169046007Y-115294904D01*
X169182063Y-115238547D01*
X169298897Y-115148897D01*
X169388547Y-115032063D01*
X169444904Y-114896007D01*
X169449358Y-114862179D01*
X169463048Y-114758188D01*
X169464126Y-114750000D01*
X169458514Y-114707375D01*
X169445982Y-114612179D01*
X169445981Y-114612177D01*
X169444904Y-114603993D01*
X169388547Y-114467937D01*
X169298897Y-114351103D01*
X169182063Y-114261453D01*
X169046007Y-114205096D01*
X169037823Y-114204019D01*
X169037821Y-114204018D01*
X168908188Y-114186952D01*
X168900000Y-114185874D01*
X168891812Y-114186952D01*
X168762179Y-114204018D01*
X168762177Y-114204019D01*
X168753993Y-114205096D01*
X168617937Y-114261453D01*
X168501103Y-114351103D01*
X168411453Y-114467937D01*
X168355096Y-114603993D01*
X168354019Y-114612177D01*
X168354018Y-114612179D01*
X168341486Y-114707375D01*
X168335874Y-114750000D01*
X166250000Y-114750000D01*
X164900000Y-113400000D01*
X167435874Y-113400000D01*
X167436952Y-113408188D01*
X167453960Y-113537376D01*
X167455096Y-113546007D01*
X167511453Y-113682063D01*
X167601103Y-113798897D01*
X167717937Y-113888547D01*
X167853993Y-113944904D01*
X167862177Y-113945981D01*
X167862179Y-113945982D01*
X167991812Y-113963048D01*
X168000000Y-113964126D01*
X168008188Y-113963048D01*
X168137821Y-113945982D01*
X168137823Y-113945981D01*
X168146007Y-113944904D01*
X168282063Y-113888547D01*
X168398897Y-113798897D01*
X168488547Y-113682063D01*
X168544904Y-113546007D01*
X168546041Y-113537376D01*
X168563048Y-113408188D01*
X168564126Y-113400000D01*
X168549462Y-113288613D01*
X168545982Y-113262179D01*
X168545981Y-113262177D01*
X168544904Y-113253993D01*
X168488547Y-113117937D01*
X168398897Y-113001103D01*
X168282063Y-112911453D01*
X168146007Y-112855096D01*
X168137823Y-112854019D01*
X168137821Y-112854018D01*
X168008188Y-112836952D01*
X168000000Y-112835874D01*
X167991812Y-112836952D01*
X167862179Y-112854018D01*
X167862177Y-112854019D01*
X167853993Y-112855096D01*
X167717937Y-112911453D01*
X167601103Y-113001103D01*
X167511453Y-113117937D01*
X167455096Y-113253993D01*
X167454019Y-113262177D01*
X167454018Y-113262179D01*
X167450538Y-113288613D01*
X167435874Y-113400000D01*
X164900000Y-113400000D01*
X164750000Y-113250000D01*
X162074888Y-113250000D01*
X162006767Y-113229998D01*
X161960274Y-113176342D01*
X161949966Y-113107555D01*
X161964126Y-113000000D01*
X161955374Y-112933521D01*
X161945982Y-112862179D01*
X161945981Y-112862177D01*
X161944904Y-112853993D01*
X161888547Y-112717937D01*
X161798897Y-112601103D01*
X161682063Y-112511453D01*
X161546007Y-112455096D01*
X161537823Y-112454019D01*
X161537821Y-112454018D01*
X161408188Y-112436952D01*
X161400000Y-112435874D01*
X161391812Y-112436952D01*
X161262179Y-112454018D01*
X161262177Y-112454019D01*
X161253993Y-112455096D01*
X161117937Y-112511453D01*
X161001103Y-112601103D01*
X160911453Y-112717937D01*
X160855096Y-112853993D01*
X160854019Y-112862177D01*
X160854018Y-112862179D01*
X160844626Y-112933521D01*
X160835874Y-113000000D01*
X160850034Y-113107555D01*
X160839095Y-113177702D01*
X160791967Y-113230801D01*
X160725112Y-113250000D01*
X146880748Y-113250000D01*
X146812627Y-113229998D01*
X146766134Y-113176342D01*
X146756030Y-113106068D01*
X146785524Y-113041488D01*
X146845250Y-113003104D01*
X146864302Y-112999078D01*
X146887821Y-112995982D01*
X146887823Y-112995981D01*
X146896007Y-112994904D01*
X147032063Y-112938547D01*
X147148897Y-112848897D01*
X147238547Y-112732063D01*
X147294904Y-112596007D01*
X147306963Y-112504413D01*
X147313048Y-112458188D01*
X147314126Y-112450000D01*
X147294904Y-112303993D01*
X147238547Y-112167937D01*
X147148897Y-112051103D01*
X147032063Y-111961453D01*
X146896007Y-111905096D01*
X146887823Y-111904019D01*
X146887821Y-111904018D01*
X146758188Y-111886952D01*
X146750000Y-111885874D01*
X146741812Y-111886952D01*
X146612179Y-111904018D01*
X146612177Y-111904019D01*
X146603993Y-111905096D01*
X146467937Y-111961453D01*
X146351103Y-112051103D01*
X146261453Y-112167937D01*
X146205096Y-112303993D01*
X146185874Y-112450000D01*
X146186952Y-112458188D01*
X146193038Y-112504413D01*
X146205096Y-112596007D01*
X146261453Y-112732063D01*
X146351103Y-112848897D01*
X146467937Y-112938547D01*
X146603993Y-112994904D01*
X146612177Y-112995981D01*
X146612179Y-112995982D01*
X146635698Y-112999078D01*
X146700625Y-113027800D01*
X146739717Y-113087065D01*
X146740562Y-113158057D01*
X146702892Y-113218236D01*
X146638667Y-113248495D01*
X146619252Y-113250000D01*
X145000000Y-113250000D01*
X145000000Y-117750000D01*
X146000000Y-118750000D01*
X163947810Y-118750000D01*
X164015931Y-118770002D01*
X164036905Y-118786905D01*
X167250000Y-122000000D01*
X173170800Y-122000000D01*
X173238921Y-122020002D01*
X173285414Y-122073658D01*
X173296800Y-122126000D01*
X173296800Y-122370405D01*
X173276798Y-122438526D01*
X173223142Y-122485019D01*
X173152868Y-122495123D01*
X173122582Y-122486814D01*
X173053636Y-122458256D01*
X173053635Y-122458256D01*
X173046007Y-122455096D01*
X173037823Y-122454019D01*
X173037821Y-122454018D01*
X172908188Y-122436952D01*
X172900000Y-122435874D01*
X172891812Y-122436952D01*
X172762179Y-122454018D01*
X172762177Y-122454019D01*
X172753993Y-122455096D01*
X172617937Y-122511453D01*
X172501103Y-122601103D01*
X172411453Y-122717937D01*
X172355096Y-122853993D01*
X172335874Y-123000000D01*
X172355096Y-123146007D01*
X172411453Y-123282063D01*
X172501103Y-123398897D01*
X172617937Y-123488547D01*
X172753993Y-123544904D01*
X172762177Y-123545981D01*
X172762179Y-123545982D01*
X172891812Y-123563048D01*
X172900000Y-123564126D01*
X172908188Y-123563048D01*
X173037821Y-123545982D01*
X173037823Y-123545981D01*
X173046007Y-123544904D01*
X173064181Y-123537376D01*
X173122582Y-123513186D01*
X173193172Y-123505597D01*
X173256659Y-123537376D01*
X173292886Y-123598434D01*
X173296800Y-123629595D01*
X173296800Y-124370405D01*
X173276798Y-124438526D01*
X173223142Y-124485019D01*
X173152868Y-124495123D01*
X173122582Y-124486814D01*
X173053636Y-124458256D01*
X173053635Y-124458256D01*
X173046007Y-124455096D01*
X173037823Y-124454019D01*
X173037821Y-124454018D01*
X172908188Y-124436952D01*
X172900000Y-124435874D01*
X172891812Y-124436952D01*
X172762179Y-124454018D01*
X172762177Y-124454019D01*
X172753993Y-124455096D01*
X172617937Y-124511453D01*
X172501103Y-124601103D01*
X172411453Y-124717937D01*
X172355096Y-124853993D01*
X172335874Y-125000000D01*
X172355096Y-125146007D01*
X172411453Y-125282063D01*
X172501103Y-125398897D01*
X172617937Y-125488547D01*
X172753993Y-125544904D01*
X172762177Y-125545981D01*
X172762179Y-125545982D01*
X172891812Y-125563048D01*
X172900000Y-125564126D01*
X172908188Y-125563048D01*
X173037821Y-125545982D01*
X173037823Y-125545981D01*
X173046007Y-125544904D01*
X173064181Y-125537376D01*
X173122582Y-125513186D01*
X173193172Y-125505597D01*
X173256659Y-125537376D01*
X173292886Y-125598434D01*
X173296800Y-125629595D01*
X173296800Y-126370405D01*
X173276798Y-126438526D01*
X173223142Y-126485019D01*
X173152868Y-126495123D01*
X173122582Y-126486814D01*
X173053636Y-126458256D01*
X173053635Y-126458256D01*
X173046007Y-126455096D01*
X173037823Y-126454019D01*
X173037821Y-126454018D01*
X172908188Y-126436952D01*
X172900000Y-126435874D01*
X172891812Y-126436952D01*
X172762179Y-126454018D01*
X172762177Y-126454019D01*
X172753993Y-126455096D01*
X172617937Y-126511453D01*
X172501103Y-126601103D01*
X172411453Y-126717937D01*
X172355096Y-126853993D01*
X172335874Y-127000000D01*
X172355096Y-127146007D01*
X172411453Y-127282063D01*
X172501103Y-127398897D01*
X172617937Y-127488547D01*
X172753993Y-127544904D01*
X172762177Y-127545981D01*
X172762179Y-127545982D01*
X172891812Y-127563048D01*
X172900000Y-127564126D01*
X172908188Y-127563048D01*
X173037821Y-127545982D01*
X173037823Y-127545981D01*
X173046007Y-127544904D01*
X173064181Y-127537376D01*
X173122582Y-127513186D01*
X173193172Y-127505597D01*
X173256659Y-127537376D01*
X173292886Y-127598434D01*
X173296800Y-127629595D01*
X173296800Y-128370405D01*
X173276798Y-128438526D01*
X173223142Y-128485019D01*
X173152868Y-128495123D01*
X173122582Y-128486814D01*
X173053636Y-128458256D01*
X173053635Y-128458256D01*
X173046007Y-128455096D01*
X173037823Y-128454019D01*
X173037821Y-128454018D01*
X172908188Y-128436952D01*
X172900000Y-128435874D01*
X172891812Y-128436952D01*
X172762179Y-128454018D01*
X172762177Y-128454019D01*
X172753993Y-128455096D01*
X172617937Y-128511453D01*
X172501103Y-128601103D01*
X172411453Y-128717937D01*
X172355096Y-128853993D01*
X172335874Y-129000000D01*
X172355096Y-129146007D01*
X172411453Y-129282063D01*
X172501103Y-129398897D01*
X172617937Y-129488547D01*
X172753993Y-129544904D01*
X172762177Y-129545981D01*
X172762179Y-129545982D01*
X172891812Y-129563048D01*
X172900000Y-129564126D01*
X172908188Y-129563048D01*
X173037821Y-129545982D01*
X173037823Y-129545981D01*
X173046007Y-129544904D01*
X173064181Y-129537376D01*
X173122582Y-129513186D01*
X173193172Y-129505597D01*
X173256659Y-129537376D01*
X173292886Y-129598434D01*
X173296800Y-129629595D01*
X173296800Y-130370405D01*
X173276798Y-130438526D01*
X173223142Y-130485019D01*
X173152868Y-130495123D01*
X173122582Y-130486814D01*
X173053636Y-130458256D01*
X173053635Y-130458256D01*
X173046007Y-130455096D01*
X173037823Y-130454019D01*
X173037821Y-130454018D01*
X172908188Y-130436952D01*
X172900000Y-130435874D01*
X172891812Y-130436952D01*
X172762179Y-130454018D01*
X172762177Y-130454019D01*
X172753993Y-130455096D01*
X172617937Y-130511453D01*
X172501103Y-130601103D01*
X172411453Y-130717937D01*
X172355096Y-130853993D01*
X172335874Y-131000000D01*
X172355096Y-131146007D01*
X172411453Y-131282063D01*
X172501103Y-131398897D01*
X172617937Y-131488547D01*
X172753993Y-131544904D01*
X172762177Y-131545981D01*
X172762179Y-131545982D01*
X172891812Y-131563048D01*
X172900000Y-131564126D01*
X172908188Y-131563048D01*
X173037821Y-131545982D01*
X173037823Y-131545981D01*
X173046007Y-131544904D01*
X173064181Y-131537376D01*
X173122582Y-131513186D01*
X173193172Y-131505597D01*
X173256659Y-131537376D01*
X173292886Y-131598434D01*
X173296800Y-131629595D01*
X173296800Y-132370405D01*
X173276798Y-132438526D01*
X173223142Y-132485019D01*
X173152868Y-132495123D01*
X173122582Y-132486814D01*
X173053636Y-132458256D01*
X173053635Y-132458256D01*
X173046007Y-132455096D01*
X173037823Y-132454019D01*
X173037821Y-132454018D01*
X172908188Y-132436952D01*
X172900000Y-132435874D01*
X172891812Y-132436952D01*
X172762179Y-132454018D01*
X172762177Y-132454019D01*
X172753993Y-132455096D01*
X172617937Y-132511453D01*
X172501103Y-132601103D01*
X172411453Y-132717937D01*
X172355096Y-132853993D01*
X172335874Y-133000000D01*
X172355096Y-133146007D01*
X172411453Y-133282063D01*
X172501103Y-133398897D01*
X172617937Y-133488547D01*
X172753993Y-133544904D01*
X172762177Y-133545981D01*
X172762179Y-133545982D01*
X172891812Y-133563048D01*
X172900000Y-133564126D01*
X172908188Y-133563048D01*
X173037821Y-133545982D01*
X173037823Y-133545981D01*
X173046007Y-133544904D01*
X173064181Y-133537376D01*
X173122582Y-133513186D01*
X173193172Y-133505597D01*
X173256659Y-133537376D01*
X173292886Y-133598434D01*
X173296800Y-133629595D01*
X173296800Y-147920800D01*
X173276798Y-147988921D01*
X173223142Y-148035414D01*
X173170800Y-148046800D01*
X143126000Y-148046800D01*
X143057879Y-148026798D01*
X143011386Y-147973142D01*
X143000000Y-147920800D01*
X143000000Y-144251299D01*
X143020002Y-144183178D01*
X143073658Y-144136685D01*
X143143932Y-144126581D01*
X143151116Y-144127828D01*
X143253227Y-144148603D01*
X143258402Y-144148793D01*
X143258404Y-144148793D01*
X143478730Y-144156872D01*
X143478734Y-144156872D01*
X143483894Y-144157061D01*
X143489014Y-144156405D01*
X143489016Y-144156405D01*
X143707718Y-144128389D01*
X143707719Y-144128389D01*
X143712846Y-144127732D01*
X143717796Y-144126247D01*
X143928978Y-144062889D01*
X143928982Y-144062887D01*
X143933933Y-144061402D01*
X144141218Y-143959854D01*
X144224458Y-143900480D01*
X144324931Y-143828813D01*
X144329134Y-143825815D01*
X144395536Y-143759645D01*
X144488975Y-143666531D01*
X144492635Y-143662884D01*
X144627330Y-143475437D01*
X144729600Y-143268507D01*
X144760698Y-143166153D01*
X144795197Y-143052605D01*
X144795198Y-143052599D01*
X144796701Y-143047653D01*
X144826829Y-142818805D01*
X144828511Y-142750000D01*
X144825682Y-142715587D01*
X147091909Y-142715587D01*
X147092206Y-142720739D01*
X147092206Y-142720743D01*
X147104899Y-142940868D01*
X147104900Y-142940874D01*
X147105197Y-142946027D01*
X147155942Y-143171202D01*
X147242783Y-143385066D01*
X147363388Y-143581875D01*
X147514516Y-143756343D01*
X147692111Y-143903785D01*
X147891402Y-144020241D01*
X147896222Y-144022081D01*
X147896227Y-144022084D01*
X148039241Y-144076695D01*
X148107038Y-144102584D01*
X148112106Y-144103615D01*
X148112109Y-144103616D01*
X148223345Y-144126247D01*
X148333227Y-144148603D01*
X148338402Y-144148793D01*
X148338404Y-144148793D01*
X148558730Y-144156872D01*
X148558734Y-144156872D01*
X148563894Y-144157061D01*
X148569014Y-144156405D01*
X148569016Y-144156405D01*
X148787718Y-144128389D01*
X148787719Y-144128389D01*
X148792846Y-144127732D01*
X148797796Y-144126247D01*
X149008978Y-144062889D01*
X149008982Y-144062887D01*
X149013933Y-144061402D01*
X149221218Y-143959854D01*
X149304458Y-143900480D01*
X149404931Y-143828813D01*
X149409134Y-143825815D01*
X149475536Y-143759645D01*
X149568975Y-143666531D01*
X149572635Y-143662884D01*
X149707330Y-143475437D01*
X149809600Y-143268507D01*
X149840698Y-143166153D01*
X149875197Y-143052605D01*
X149875198Y-143052599D01*
X149876701Y-143047653D01*
X149906829Y-142818805D01*
X149908511Y-142750000D01*
X149905682Y-142715587D01*
X152171909Y-142715587D01*
X152172206Y-142720739D01*
X152172206Y-142720743D01*
X152184899Y-142940868D01*
X152184900Y-142940874D01*
X152185197Y-142946027D01*
X152235942Y-143171202D01*
X152322783Y-143385066D01*
X152443388Y-143581875D01*
X152594516Y-143756343D01*
X152772111Y-143903785D01*
X152971402Y-144020241D01*
X152976222Y-144022081D01*
X152976227Y-144022084D01*
X153119241Y-144076695D01*
X153187038Y-144102584D01*
X153192106Y-144103615D01*
X153192109Y-144103616D01*
X153303345Y-144126247D01*
X153413227Y-144148603D01*
X153418402Y-144148793D01*
X153418404Y-144148793D01*
X153638730Y-144156872D01*
X153638734Y-144156872D01*
X153643894Y-144157061D01*
X153649014Y-144156405D01*
X153649016Y-144156405D01*
X153867718Y-144128389D01*
X153867719Y-144128389D01*
X153872846Y-144127732D01*
X153877796Y-144126247D01*
X154088978Y-144062889D01*
X154088982Y-144062887D01*
X154093933Y-144061402D01*
X154301218Y-143959854D01*
X154384458Y-143900480D01*
X154484931Y-143828813D01*
X154489134Y-143825815D01*
X154555536Y-143759645D01*
X154648975Y-143666531D01*
X154652635Y-143662884D01*
X154787330Y-143475437D01*
X154889600Y-143268507D01*
X154920698Y-143166153D01*
X154955197Y-143052605D01*
X154955198Y-143052599D01*
X154956701Y-143047653D01*
X154986829Y-142818805D01*
X154988511Y-142750000D01*
X154985682Y-142715587D01*
X157251909Y-142715587D01*
X157252206Y-142720739D01*
X157252206Y-142720743D01*
X157264899Y-142940868D01*
X157264900Y-142940874D01*
X157265197Y-142946027D01*
X157315942Y-143171202D01*
X157402783Y-143385066D01*
X157523388Y-143581875D01*
X157674516Y-143756343D01*
X157852111Y-143903785D01*
X158051402Y-144020241D01*
X158056222Y-144022081D01*
X158056227Y-144022084D01*
X158199241Y-144076695D01*
X158267038Y-144102584D01*
X158272106Y-144103615D01*
X158272109Y-144103616D01*
X158383345Y-144126247D01*
X158493227Y-144148603D01*
X158498402Y-144148793D01*
X158498404Y-144148793D01*
X158718730Y-144156872D01*
X158718734Y-144156872D01*
X158723894Y-144157061D01*
X158729014Y-144156405D01*
X158729016Y-144156405D01*
X158947718Y-144128389D01*
X158947719Y-144128389D01*
X158952846Y-144127732D01*
X158957796Y-144126247D01*
X159168978Y-144062889D01*
X159168982Y-144062887D01*
X159173933Y-144061402D01*
X159381218Y-143959854D01*
X159464458Y-143900480D01*
X159564931Y-143828813D01*
X159569134Y-143825815D01*
X159635536Y-143759645D01*
X159728975Y-143666531D01*
X159732635Y-143662884D01*
X159867330Y-143475437D01*
X159969600Y-143268507D01*
X160000698Y-143166153D01*
X160035197Y-143052605D01*
X160035198Y-143052599D01*
X160036701Y-143047653D01*
X160066829Y-142818805D01*
X160068511Y-142750000D01*
X160065682Y-142715587D01*
X162331909Y-142715587D01*
X162332206Y-142720739D01*
X162332206Y-142720743D01*
X162344899Y-142940868D01*
X162344900Y-142940874D01*
X162345197Y-142946027D01*
X162395942Y-143171202D01*
X162482783Y-143385066D01*
X162603388Y-143581875D01*
X162754516Y-143756343D01*
X162932111Y-143903785D01*
X163131402Y-144020241D01*
X163136222Y-144022081D01*
X163136227Y-144022084D01*
X163279241Y-144076695D01*
X163347038Y-144102584D01*
X163352106Y-144103615D01*
X163352109Y-144103616D01*
X163463345Y-144126247D01*
X163573227Y-144148603D01*
X163578402Y-144148793D01*
X163578404Y-144148793D01*
X163798730Y-144156872D01*
X163798734Y-144156872D01*
X163803894Y-144157061D01*
X163809014Y-144156405D01*
X163809016Y-144156405D01*
X164027718Y-144128389D01*
X164027719Y-144128389D01*
X164032846Y-144127732D01*
X164037796Y-144126247D01*
X164248978Y-144062889D01*
X164248982Y-144062887D01*
X164253933Y-144061402D01*
X164461218Y-143959854D01*
X164544458Y-143900480D01*
X164644931Y-143828813D01*
X164649134Y-143825815D01*
X164715536Y-143759645D01*
X164808975Y-143666531D01*
X164812635Y-143662884D01*
X164947330Y-143475437D01*
X165049600Y-143268507D01*
X165080698Y-143166153D01*
X165115197Y-143052605D01*
X165115198Y-143052599D01*
X165116701Y-143047653D01*
X165146829Y-142818805D01*
X165148511Y-142750000D01*
X165145682Y-142715587D01*
X167411909Y-142715587D01*
X167412206Y-142720739D01*
X167412206Y-142720743D01*
X167424899Y-142940868D01*
X167424900Y-142940874D01*
X167425197Y-142946027D01*
X167475942Y-143171202D01*
X167562783Y-143385066D01*
X167683388Y-143581875D01*
X167834516Y-143756343D01*
X168012111Y-143903785D01*
X168211402Y-144020241D01*
X168216222Y-144022081D01*
X168216227Y-144022084D01*
X168359241Y-144076695D01*
X168427038Y-144102584D01*
X168432106Y-144103615D01*
X168432109Y-144103616D01*
X168543345Y-144126247D01*
X168653227Y-144148603D01*
X168658402Y-144148793D01*
X168658404Y-144148793D01*
X168878730Y-144156872D01*
X168878734Y-144156872D01*
X168883894Y-144157061D01*
X168889014Y-144156405D01*
X168889016Y-144156405D01*
X169107718Y-144128389D01*
X169107719Y-144128389D01*
X169112846Y-144127732D01*
X169117796Y-144126247D01*
X169328978Y-144062889D01*
X169328982Y-144062887D01*
X169333933Y-144061402D01*
X169541218Y-143959854D01*
X169624458Y-143900480D01*
X169724931Y-143828813D01*
X169729134Y-143825815D01*
X169795536Y-143759645D01*
X169888975Y-143666531D01*
X169892635Y-143662884D01*
X170027330Y-143475437D01*
X170129600Y-143268507D01*
X170160698Y-143166153D01*
X170195197Y-143052605D01*
X170195198Y-143052599D01*
X170196701Y-143047653D01*
X170226829Y-142818805D01*
X170228511Y-142750000D01*
X170209598Y-142519954D01*
X170153366Y-142296085D01*
X170141423Y-142268617D01*
X170063386Y-142089144D01*
X170063384Y-142089141D01*
X170061326Y-142084407D01*
X169935949Y-141890604D01*
X169907973Y-141859858D01*
X169784080Y-141723702D01*
X169784078Y-141723700D01*
X169780602Y-141719880D01*
X169776551Y-141716681D01*
X169776547Y-141716677D01*
X169603513Y-141580023D01*
X169603509Y-141580021D01*
X169599458Y-141576821D01*
X169397381Y-141465269D01*
X169392512Y-141463545D01*
X169392508Y-141463543D01*
X169184673Y-141389945D01*
X169184669Y-141389944D01*
X169179798Y-141388219D01*
X169174705Y-141387312D01*
X169174702Y-141387311D01*
X168957641Y-141348646D01*
X168957637Y-141348646D01*
X168952553Y-141347740D01*
X168864183Y-141346660D01*
X168726916Y-141344983D01*
X168726914Y-141344983D01*
X168721747Y-141344920D01*
X168569729Y-141368182D01*
X168498690Y-141379052D01*
X168498687Y-141379053D01*
X168493581Y-141379834D01*
X168462647Y-141389945D01*
X168279093Y-141449940D01*
X168279091Y-141449941D01*
X168274180Y-141451546D01*
X168069438Y-141558128D01*
X168065305Y-141561231D01*
X168065302Y-141561233D01*
X167888988Y-141693613D01*
X167884853Y-141696718D01*
X167725381Y-141863595D01*
X167595307Y-142054277D01*
X167498122Y-142263644D01*
X167436438Y-142486071D01*
X167435890Y-142491199D01*
X167435889Y-142491204D01*
X167432817Y-142519954D01*
X167411909Y-142715587D01*
X165145682Y-142715587D01*
X165129598Y-142519954D01*
X165073366Y-142296085D01*
X165061423Y-142268617D01*
X164983386Y-142089144D01*
X164983384Y-142089141D01*
X164981326Y-142084407D01*
X164855949Y-141890604D01*
X164827973Y-141859858D01*
X164704080Y-141723702D01*
X164704078Y-141723700D01*
X164700602Y-141719880D01*
X164696551Y-141716681D01*
X164696547Y-141716677D01*
X164523513Y-141580023D01*
X164523509Y-141580021D01*
X164519458Y-141576821D01*
X164317381Y-141465269D01*
X164312512Y-141463545D01*
X164312508Y-141463543D01*
X164104673Y-141389945D01*
X164104669Y-141389944D01*
X164099798Y-141388219D01*
X164094705Y-141387312D01*
X164094702Y-141387311D01*
X163877641Y-141348646D01*
X163877637Y-141348646D01*
X163872553Y-141347740D01*
X163784183Y-141346660D01*
X163646916Y-141344983D01*
X163646914Y-141344983D01*
X163641747Y-141344920D01*
X163489729Y-141368182D01*
X163418690Y-141379052D01*
X163418687Y-141379053D01*
X163413581Y-141379834D01*
X163382647Y-141389945D01*
X163199093Y-141449940D01*
X163199091Y-141449941D01*
X163194180Y-141451546D01*
X162989438Y-141558128D01*
X162985305Y-141561231D01*
X162985302Y-141561233D01*
X162808988Y-141693613D01*
X162804853Y-141696718D01*
X162645381Y-141863595D01*
X162515307Y-142054277D01*
X162418122Y-142263644D01*
X162356438Y-142486071D01*
X162355890Y-142491199D01*
X162355889Y-142491204D01*
X162352817Y-142519954D01*
X162331909Y-142715587D01*
X160065682Y-142715587D01*
X160049598Y-142519954D01*
X159993366Y-142296085D01*
X159981423Y-142268617D01*
X159903386Y-142089144D01*
X159903384Y-142089141D01*
X159901326Y-142084407D01*
X159775949Y-141890604D01*
X159747973Y-141859858D01*
X159624080Y-141723702D01*
X159624078Y-141723700D01*
X159620602Y-141719880D01*
X159616551Y-141716681D01*
X159616547Y-141716677D01*
X159443513Y-141580023D01*
X159443509Y-141580021D01*
X159439458Y-141576821D01*
X159237381Y-141465269D01*
X159232512Y-141463545D01*
X159232508Y-141463543D01*
X159024673Y-141389945D01*
X159024669Y-141389944D01*
X159019798Y-141388219D01*
X159014705Y-141387312D01*
X159014702Y-141387311D01*
X158797641Y-141348646D01*
X158797637Y-141348646D01*
X158792553Y-141347740D01*
X158704183Y-141346660D01*
X158566916Y-141344983D01*
X158566914Y-141344983D01*
X158561747Y-141344920D01*
X158409729Y-141368182D01*
X158338690Y-141379052D01*
X158338687Y-141379053D01*
X158333581Y-141379834D01*
X158302647Y-141389945D01*
X158119093Y-141449940D01*
X158119091Y-141449941D01*
X158114180Y-141451546D01*
X157909438Y-141558128D01*
X157905305Y-141561231D01*
X157905302Y-141561233D01*
X157728988Y-141693613D01*
X157724853Y-141696718D01*
X157565381Y-141863595D01*
X157435307Y-142054277D01*
X157338122Y-142263644D01*
X157276438Y-142486071D01*
X157275890Y-142491199D01*
X157275889Y-142491204D01*
X157272817Y-142519954D01*
X157251909Y-142715587D01*
X154985682Y-142715587D01*
X154969598Y-142519954D01*
X154913366Y-142296085D01*
X154901423Y-142268617D01*
X154823386Y-142089144D01*
X154823384Y-142089141D01*
X154821326Y-142084407D01*
X154695949Y-141890604D01*
X154667973Y-141859858D01*
X154544080Y-141723702D01*
X154544078Y-141723700D01*
X154540602Y-141719880D01*
X154536551Y-141716681D01*
X154536547Y-141716677D01*
X154363513Y-141580023D01*
X154363509Y-141580021D01*
X154359458Y-141576821D01*
X154157381Y-141465269D01*
X154152512Y-141463545D01*
X154152508Y-141463543D01*
X153944673Y-141389945D01*
X153944669Y-141389944D01*
X153939798Y-141388219D01*
X153934705Y-141387312D01*
X153934702Y-141387311D01*
X153717641Y-141348646D01*
X153717637Y-141348646D01*
X153712553Y-141347740D01*
X153624183Y-141346660D01*
X153486916Y-141344983D01*
X153486914Y-141344983D01*
X153481747Y-141344920D01*
X153329729Y-141368182D01*
X153258690Y-141379052D01*
X153258687Y-141379053D01*
X153253581Y-141379834D01*
X153222647Y-141389945D01*
X153039093Y-141449940D01*
X153039091Y-141449941D01*
X153034180Y-141451546D01*
X152829438Y-141558128D01*
X152825305Y-141561231D01*
X152825302Y-141561233D01*
X152648988Y-141693613D01*
X152644853Y-141696718D01*
X152485381Y-141863595D01*
X152355307Y-142054277D01*
X152258122Y-142263644D01*
X152196438Y-142486071D01*
X152195890Y-142491199D01*
X152195889Y-142491204D01*
X152192817Y-142519954D01*
X152171909Y-142715587D01*
X149905682Y-142715587D01*
X149889598Y-142519954D01*
X149833366Y-142296085D01*
X149821423Y-142268617D01*
X149743386Y-142089144D01*
X149743384Y-142089141D01*
X149741326Y-142084407D01*
X149615949Y-141890604D01*
X149587973Y-141859858D01*
X149464080Y-141723702D01*
X149464078Y-141723700D01*
X149460602Y-141719880D01*
X149456551Y-141716681D01*
X149456547Y-141716677D01*
X149283513Y-141580023D01*
X149283509Y-141580021D01*
X149279458Y-141576821D01*
X149077381Y-141465269D01*
X149072512Y-141463545D01*
X149072508Y-141463543D01*
X148864673Y-141389945D01*
X148864669Y-141389944D01*
X148859798Y-141388219D01*
X148854705Y-141387312D01*
X148854702Y-141387311D01*
X148637641Y-141348646D01*
X148637637Y-141348646D01*
X148632553Y-141347740D01*
X148544183Y-141346660D01*
X148406916Y-141344983D01*
X148406914Y-141344983D01*
X148401747Y-141344920D01*
X148249729Y-141368182D01*
X148178690Y-141379052D01*
X148178687Y-141379053D01*
X148173581Y-141379834D01*
X148142647Y-141389945D01*
X147959093Y-141449940D01*
X147959091Y-141449941D01*
X147954180Y-141451546D01*
X147749438Y-141558128D01*
X147745305Y-141561231D01*
X147745302Y-141561233D01*
X147568988Y-141693613D01*
X147564853Y-141696718D01*
X147405381Y-141863595D01*
X147275307Y-142054277D01*
X147178122Y-142263644D01*
X147116438Y-142486071D01*
X147115890Y-142491199D01*
X147115889Y-142491204D01*
X147112817Y-142519954D01*
X147091909Y-142715587D01*
X144825682Y-142715587D01*
X144809598Y-142519954D01*
X144753366Y-142296085D01*
X144741423Y-142268617D01*
X144663386Y-142089144D01*
X144663384Y-142089141D01*
X144661326Y-142084407D01*
X144535949Y-141890604D01*
X144507973Y-141859858D01*
X144384080Y-141723702D01*
X144384078Y-141723700D01*
X144380602Y-141719880D01*
X144376551Y-141716681D01*
X144376547Y-141716677D01*
X144203513Y-141580023D01*
X144203509Y-141580021D01*
X144199458Y-141576821D01*
X143997381Y-141465269D01*
X143992512Y-141463545D01*
X143992508Y-141463543D01*
X143784673Y-141389945D01*
X143784669Y-141389944D01*
X143779798Y-141388219D01*
X143774705Y-141387312D01*
X143774702Y-141387311D01*
X143557641Y-141348646D01*
X143557637Y-141348646D01*
X143552553Y-141347740D01*
X143464183Y-141346660D01*
X143326916Y-141344983D01*
X143326914Y-141344983D01*
X143321747Y-141344920D01*
X143145058Y-141371957D01*
X143074696Y-141362489D01*
X143020622Y-141316484D01*
X143000000Y-141247407D01*
X143000000Y-127000000D01*
X147935874Y-127000000D01*
X147955096Y-127146007D01*
X148011453Y-127282063D01*
X148101103Y-127398897D01*
X148217937Y-127488547D01*
X148353993Y-127544904D01*
X148362177Y-127545981D01*
X148362179Y-127545982D01*
X148491812Y-127563048D01*
X148500000Y-127564126D01*
X148508188Y-127563048D01*
X148637821Y-127545982D01*
X148637823Y-127545981D01*
X148646007Y-127544904D01*
X148782063Y-127488547D01*
X148898897Y-127398897D01*
X148988547Y-127282063D01*
X149044904Y-127146007D01*
X149064126Y-127000000D01*
X163185874Y-127000000D01*
X163205096Y-127146007D01*
X163261453Y-127282063D01*
X163351103Y-127398897D01*
X163467937Y-127488547D01*
X163603993Y-127544904D01*
X163612177Y-127545981D01*
X163612179Y-127545982D01*
X163741812Y-127563048D01*
X163750000Y-127564126D01*
X163758188Y-127563048D01*
X163887821Y-127545982D01*
X163887823Y-127545981D01*
X163896007Y-127544904D01*
X164032063Y-127488547D01*
X164148897Y-127398897D01*
X164238547Y-127282063D01*
X164294904Y-127146007D01*
X164314126Y-127000000D01*
X164294904Y-126853993D01*
X164238547Y-126717937D01*
X164148897Y-126601103D01*
X164032063Y-126511453D01*
X163896007Y-126455096D01*
X163887823Y-126454019D01*
X163887821Y-126454018D01*
X163758188Y-126436952D01*
X163750000Y-126435874D01*
X163741812Y-126436952D01*
X163612179Y-126454018D01*
X163612177Y-126454019D01*
X163603993Y-126455096D01*
X163467937Y-126511453D01*
X163351103Y-126601103D01*
X163261453Y-126717937D01*
X163205096Y-126853993D01*
X163185874Y-127000000D01*
X149064126Y-127000000D01*
X149044904Y-126853993D01*
X148988547Y-126717937D01*
X148898897Y-126601103D01*
X148782063Y-126511453D01*
X148646007Y-126455096D01*
X148637823Y-126454019D01*
X148637821Y-126454018D01*
X148508188Y-126436952D01*
X148500000Y-126435874D01*
X148491812Y-126436952D01*
X148362179Y-126454018D01*
X148362177Y-126454019D01*
X148353993Y-126455096D01*
X148217937Y-126511453D01*
X148101103Y-126601103D01*
X148011453Y-126717937D01*
X147955096Y-126853993D01*
X147935874Y-127000000D01*
X143000000Y-127000000D01*
X143000000Y-126000000D01*
X140000000Y-123000000D01*
X144335874Y-123000000D01*
X144355096Y-123146007D01*
X144411453Y-123282063D01*
X144501103Y-123398897D01*
X144617937Y-123488547D01*
X144753993Y-123544904D01*
X144762177Y-123545981D01*
X144762179Y-123545982D01*
X144891812Y-123563048D01*
X144900000Y-123564126D01*
X144908188Y-123563048D01*
X145037821Y-123545982D01*
X145037823Y-123545981D01*
X145046007Y-123544904D01*
X145182063Y-123488547D01*
X145298897Y-123398897D01*
X145388547Y-123282063D01*
X145444904Y-123146007D01*
X145464126Y-123000000D01*
X147935874Y-123000000D01*
X147955096Y-123146007D01*
X148011453Y-123282063D01*
X148101103Y-123398897D01*
X148217937Y-123488547D01*
X148353993Y-123544904D01*
X148362177Y-123545981D01*
X148362179Y-123545982D01*
X148491812Y-123563048D01*
X148500000Y-123564126D01*
X148508188Y-123563048D01*
X148637821Y-123545982D01*
X148637823Y-123545981D01*
X148646007Y-123544904D01*
X148782063Y-123488547D01*
X148898897Y-123398897D01*
X148988547Y-123282063D01*
X149044904Y-123146007D01*
X149064126Y-123000000D01*
X151535874Y-123000000D01*
X151555096Y-123146007D01*
X151611453Y-123282063D01*
X151701103Y-123398897D01*
X151817937Y-123488547D01*
X151953993Y-123544904D01*
X151962177Y-123545981D01*
X151962179Y-123545982D01*
X152091812Y-123563048D01*
X152100000Y-123564126D01*
X152108188Y-123563048D01*
X152237821Y-123545982D01*
X152237823Y-123545981D01*
X152246007Y-123544904D01*
X152382063Y-123488547D01*
X152498897Y-123398897D01*
X152588547Y-123282063D01*
X152644904Y-123146007D01*
X152664126Y-123000000D01*
X159335874Y-123000000D01*
X159355096Y-123146007D01*
X159411453Y-123282063D01*
X159501103Y-123398897D01*
X159617937Y-123488547D01*
X159753993Y-123544904D01*
X159762177Y-123545981D01*
X159762179Y-123545982D01*
X159891812Y-123563048D01*
X159900000Y-123564126D01*
X159908188Y-123563048D01*
X160037821Y-123545982D01*
X160037823Y-123545981D01*
X160046007Y-123544904D01*
X160182063Y-123488547D01*
X160298897Y-123398897D01*
X160388547Y-123282063D01*
X160444904Y-123146007D01*
X160464126Y-123000000D01*
X163185874Y-123000000D01*
X163205096Y-123146007D01*
X163261453Y-123282063D01*
X163351103Y-123398897D01*
X163467937Y-123488547D01*
X163603993Y-123544904D01*
X163612177Y-123545981D01*
X163612179Y-123545982D01*
X163741812Y-123563048D01*
X163750000Y-123564126D01*
X163758188Y-123563048D01*
X163887821Y-123545982D01*
X163887823Y-123545981D01*
X163896007Y-123544904D01*
X164032063Y-123488547D01*
X164148897Y-123398897D01*
X164238547Y-123282063D01*
X164294904Y-123146007D01*
X164314126Y-123000000D01*
X167035874Y-123000000D01*
X167055096Y-123146007D01*
X167111453Y-123282063D01*
X167201103Y-123398897D01*
X167317937Y-123488547D01*
X167453993Y-123544904D01*
X167462177Y-123545981D01*
X167462179Y-123545982D01*
X167591812Y-123563048D01*
X167600000Y-123564126D01*
X167608188Y-123563048D01*
X167737821Y-123545982D01*
X167737823Y-123545981D01*
X167746007Y-123544904D01*
X167882063Y-123488547D01*
X167998897Y-123398897D01*
X168088547Y-123282063D01*
X168144904Y-123146007D01*
X168164126Y-123000000D01*
X168144904Y-122853993D01*
X168088547Y-122717937D01*
X167998897Y-122601103D01*
X167882063Y-122511453D01*
X167746007Y-122455096D01*
X167737823Y-122454019D01*
X167737821Y-122454018D01*
X167608188Y-122436952D01*
X167600000Y-122435874D01*
X167591812Y-122436952D01*
X167462179Y-122454018D01*
X167462177Y-122454019D01*
X167453993Y-122455096D01*
X167317937Y-122511453D01*
X167201103Y-122601103D01*
X167111453Y-122717937D01*
X167055096Y-122853993D01*
X167035874Y-123000000D01*
X164314126Y-123000000D01*
X164294904Y-122853993D01*
X164238547Y-122717937D01*
X164148897Y-122601103D01*
X164032063Y-122511453D01*
X163896007Y-122455096D01*
X163887823Y-122454019D01*
X163887821Y-122454018D01*
X163758188Y-122436952D01*
X163750000Y-122435874D01*
X163741812Y-122436952D01*
X163612179Y-122454018D01*
X163612177Y-122454019D01*
X163603993Y-122455096D01*
X163467937Y-122511453D01*
X163351103Y-122601103D01*
X163261453Y-122717937D01*
X163205096Y-122853993D01*
X163185874Y-123000000D01*
X160464126Y-123000000D01*
X160444904Y-122853993D01*
X160388547Y-122717937D01*
X160298897Y-122601103D01*
X160182063Y-122511453D01*
X160046007Y-122455096D01*
X160037823Y-122454019D01*
X160037821Y-122454018D01*
X159908188Y-122436952D01*
X159900000Y-122435874D01*
X159891812Y-122436952D01*
X159762179Y-122454018D01*
X159762177Y-122454019D01*
X159753993Y-122455096D01*
X159617937Y-122511453D01*
X159501103Y-122601103D01*
X159411453Y-122717937D01*
X159355096Y-122853993D01*
X159335874Y-123000000D01*
X152664126Y-123000000D01*
X152644904Y-122853993D01*
X152588547Y-122717937D01*
X152498897Y-122601103D01*
X152382063Y-122511453D01*
X152246007Y-122455096D01*
X152237823Y-122454019D01*
X152237821Y-122454018D01*
X152108188Y-122436952D01*
X152100000Y-122435874D01*
X152091812Y-122436952D01*
X151962179Y-122454018D01*
X151962177Y-122454019D01*
X151953993Y-122455096D01*
X151817937Y-122511453D01*
X151701103Y-122601103D01*
X151611453Y-122717937D01*
X151555096Y-122853993D01*
X151535874Y-123000000D01*
X149064126Y-123000000D01*
X149044904Y-122853993D01*
X148988547Y-122717937D01*
X148898897Y-122601103D01*
X148782063Y-122511453D01*
X148646007Y-122455096D01*
X148637823Y-122454019D01*
X148637821Y-122454018D01*
X148508188Y-122436952D01*
X148500000Y-122435874D01*
X148491812Y-122436952D01*
X148362179Y-122454018D01*
X148362177Y-122454019D01*
X148353993Y-122455096D01*
X148217937Y-122511453D01*
X148101103Y-122601103D01*
X148011453Y-122717937D01*
X147955096Y-122853993D01*
X147935874Y-123000000D01*
X145464126Y-123000000D01*
X145444904Y-122853993D01*
X145388547Y-122717937D01*
X145298897Y-122601103D01*
X145182063Y-122511453D01*
X145046007Y-122455096D01*
X145037823Y-122454019D01*
X145037821Y-122454018D01*
X144908188Y-122436952D01*
X144900000Y-122435874D01*
X144891812Y-122436952D01*
X144762179Y-122454018D01*
X144762177Y-122454019D01*
X144753993Y-122455096D01*
X144617937Y-122511453D01*
X144501103Y-122601103D01*
X144411453Y-122717937D01*
X144355096Y-122853993D01*
X144335874Y-123000000D01*
X140000000Y-123000000D01*
X137500000Y-120500000D01*
X142335874Y-120500000D01*
X142336952Y-120508188D01*
X142348973Y-120599494D01*
X142355096Y-120646007D01*
X142411453Y-120782063D01*
X142501103Y-120898897D01*
X142617937Y-120988547D01*
X142753993Y-121044904D01*
X142762177Y-121045981D01*
X142762179Y-121045982D01*
X142891812Y-121063048D01*
X142900000Y-121064126D01*
X142908188Y-121063048D01*
X143037821Y-121045982D01*
X143037823Y-121045981D01*
X143046007Y-121044904D01*
X143182063Y-120988547D01*
X143298897Y-120898897D01*
X143388547Y-120782063D01*
X143444904Y-120646007D01*
X143451028Y-120599494D01*
X143463048Y-120508188D01*
X143464126Y-120500000D01*
X153535874Y-120500000D01*
X153536952Y-120508188D01*
X153548973Y-120599494D01*
X153555096Y-120646007D01*
X153611453Y-120782063D01*
X153701103Y-120898897D01*
X153817937Y-120988547D01*
X153953993Y-121044904D01*
X153962177Y-121045981D01*
X153962179Y-121045982D01*
X154091812Y-121063048D01*
X154100000Y-121064126D01*
X154108188Y-121063048D01*
X154237821Y-121045982D01*
X154237823Y-121045981D01*
X154246007Y-121044904D01*
X154382063Y-120988547D01*
X154498897Y-120898897D01*
X154588547Y-120782063D01*
X154644904Y-120646007D01*
X154651028Y-120599494D01*
X154663048Y-120508188D01*
X154664126Y-120500000D01*
X157535874Y-120500000D01*
X157536952Y-120508188D01*
X157548973Y-120599494D01*
X157555096Y-120646007D01*
X157611453Y-120782063D01*
X157701103Y-120898897D01*
X157817937Y-120988547D01*
X157953993Y-121044904D01*
X157962177Y-121045981D01*
X157962179Y-121045982D01*
X158091812Y-121063048D01*
X158100000Y-121064126D01*
X158108188Y-121063048D01*
X158237821Y-121045982D01*
X158237823Y-121045981D01*
X158246007Y-121044904D01*
X158382063Y-120988547D01*
X158498897Y-120898897D01*
X158588547Y-120782063D01*
X158644904Y-120646007D01*
X158651028Y-120599494D01*
X158663048Y-120508188D01*
X158664126Y-120500000D01*
X158650435Y-120396007D01*
X158645982Y-120362179D01*
X158645981Y-120362177D01*
X158644904Y-120353993D01*
X158588547Y-120217937D01*
X158498897Y-120101103D01*
X158382063Y-120011453D01*
X158246007Y-119955096D01*
X158237823Y-119954019D01*
X158237821Y-119954018D01*
X158108188Y-119936952D01*
X158100000Y-119935874D01*
X158091812Y-119936952D01*
X157962179Y-119954018D01*
X157962177Y-119954019D01*
X157953993Y-119955096D01*
X157817937Y-120011453D01*
X157701103Y-120101103D01*
X157611453Y-120217937D01*
X157555096Y-120353993D01*
X157554019Y-120362177D01*
X157554018Y-120362179D01*
X157549565Y-120396007D01*
X157535874Y-120500000D01*
X154664126Y-120500000D01*
X154650435Y-120396007D01*
X154645982Y-120362179D01*
X154645981Y-120362177D01*
X154644904Y-120353993D01*
X154588547Y-120217937D01*
X154498897Y-120101103D01*
X154382063Y-120011453D01*
X154246007Y-119955096D01*
X154237823Y-119954019D01*
X154237821Y-119954018D01*
X154108188Y-119936952D01*
X154100000Y-119935874D01*
X154091812Y-119936952D01*
X153962179Y-119954018D01*
X153962177Y-119954019D01*
X153953993Y-119955096D01*
X153817937Y-120011453D01*
X153701103Y-120101103D01*
X153611453Y-120217937D01*
X153555096Y-120353993D01*
X153554019Y-120362177D01*
X153554018Y-120362179D01*
X153549565Y-120396007D01*
X153535874Y-120500000D01*
X143464126Y-120500000D01*
X143450435Y-120396007D01*
X143445982Y-120362179D01*
X143445981Y-120362177D01*
X143444904Y-120353993D01*
X143388547Y-120217937D01*
X143298897Y-120101103D01*
X143182063Y-120011453D01*
X143046007Y-119955096D01*
X143037823Y-119954019D01*
X143037821Y-119954018D01*
X142908188Y-119936952D01*
X142900000Y-119935874D01*
X142891812Y-119936952D01*
X142762179Y-119954018D01*
X142762177Y-119954019D01*
X142753993Y-119955096D01*
X142617937Y-120011453D01*
X142501103Y-120101103D01*
X142411453Y-120217937D01*
X142355096Y-120353993D01*
X142354019Y-120362177D01*
X142354018Y-120362179D01*
X142349565Y-120396007D01*
X142335874Y-120500000D01*
X137500000Y-120500000D01*
X132250000Y-115250000D01*
X136935874Y-115250000D01*
X136936952Y-115258188D01*
X136947276Y-115336604D01*
X136955096Y-115396007D01*
X137011453Y-115532063D01*
X137101103Y-115648897D01*
X137217937Y-115738547D01*
X137353993Y-115794904D01*
X137362177Y-115795981D01*
X137362179Y-115795982D01*
X137491812Y-115813048D01*
X137500000Y-115814126D01*
X137508188Y-115813048D01*
X137637821Y-115795982D01*
X137637823Y-115795981D01*
X137646007Y-115794904D01*
X137782063Y-115738547D01*
X137898897Y-115648897D01*
X137988547Y-115532063D01*
X138044904Y-115396007D01*
X138052725Y-115336604D01*
X138063048Y-115258188D01*
X138064126Y-115250000D01*
X138054427Y-115176326D01*
X138045982Y-115112179D01*
X138045981Y-115112177D01*
X138044904Y-115103993D01*
X137988547Y-114967937D01*
X137898897Y-114851103D01*
X137892347Y-114846077D01*
X137886506Y-114840236D01*
X137888704Y-114838038D01*
X137855543Y-114792625D01*
X137851321Y-114721754D01*
X137886084Y-114659851D01*
X137888592Y-114657678D01*
X137892347Y-114653923D01*
X137898897Y-114648897D01*
X137988547Y-114532063D01*
X138044904Y-114396007D01*
X138049954Y-114357653D01*
X138063048Y-114258188D01*
X138064126Y-114250000D01*
X138058072Y-114204018D01*
X138050961Y-114150000D01*
X143185874Y-114150000D01*
X143186952Y-114158188D01*
X143201209Y-114266479D01*
X143205096Y-114296007D01*
X143261453Y-114432063D01*
X143351103Y-114548897D01*
X143467937Y-114638547D01*
X143603993Y-114694904D01*
X143612177Y-114695981D01*
X143612179Y-114695982D01*
X143741812Y-114713048D01*
X143750000Y-114714126D01*
X143758188Y-114713048D01*
X143887821Y-114695982D01*
X143887823Y-114695981D01*
X143896007Y-114694904D01*
X144032063Y-114638547D01*
X144148897Y-114548897D01*
X144238547Y-114432063D01*
X144294904Y-114296007D01*
X144298792Y-114266479D01*
X144313048Y-114158188D01*
X144314126Y-114150000D01*
X144307065Y-114096367D01*
X144295982Y-114012179D01*
X144295981Y-114012177D01*
X144294904Y-114003993D01*
X144238547Y-113867937D01*
X144148897Y-113751103D01*
X144032063Y-113661453D01*
X143896007Y-113605096D01*
X143887823Y-113604019D01*
X143887821Y-113604018D01*
X143758188Y-113586952D01*
X143750000Y-113585874D01*
X143741812Y-113586952D01*
X143612179Y-113604018D01*
X143612177Y-113604019D01*
X143603993Y-113605096D01*
X143467937Y-113661453D01*
X143351103Y-113751103D01*
X143261453Y-113867937D01*
X143205096Y-114003993D01*
X143204019Y-114012177D01*
X143204018Y-114012179D01*
X143192935Y-114096367D01*
X143185874Y-114150000D01*
X138050961Y-114150000D01*
X138045982Y-114112179D01*
X138045981Y-114112177D01*
X138044904Y-114103993D01*
X137988547Y-113967937D01*
X137898897Y-113851103D01*
X137892347Y-113846077D01*
X137886506Y-113840236D01*
X137888704Y-113838038D01*
X137855543Y-113792625D01*
X137851321Y-113721754D01*
X137886084Y-113659851D01*
X137888592Y-113657678D01*
X137892347Y-113653923D01*
X137898897Y-113648897D01*
X137988547Y-113532063D01*
X138044904Y-113396007D01*
X138064126Y-113250000D01*
X138050435Y-113146007D01*
X138045982Y-113112179D01*
X138045981Y-113112177D01*
X138044904Y-113103993D01*
X138043250Y-113100000D01*
X141435874Y-113100000D01*
X141436952Y-113108188D01*
X141446104Y-113177702D01*
X141455096Y-113246007D01*
X141511453Y-113382063D01*
X141601103Y-113498897D01*
X141717937Y-113588547D01*
X141853993Y-113644904D01*
X141862177Y-113645981D01*
X141862179Y-113645982D01*
X141966867Y-113659764D01*
X141986951Y-113662408D01*
X141991812Y-113663048D01*
X142000000Y-113664126D01*
X142008188Y-113663048D01*
X142013050Y-113662408D01*
X142033133Y-113659764D01*
X142137821Y-113645982D01*
X142137823Y-113645981D01*
X142146007Y-113644904D01*
X142282063Y-113588547D01*
X142398897Y-113498897D01*
X142488547Y-113382063D01*
X142544904Y-113246007D01*
X142553897Y-113177702D01*
X142563048Y-113108188D01*
X142564126Y-113100000D01*
X142552039Y-113008187D01*
X142545982Y-112962179D01*
X142545981Y-112962177D01*
X142544904Y-112953993D01*
X142488547Y-112817937D01*
X142398897Y-112701103D01*
X142282063Y-112611453D01*
X142146007Y-112555096D01*
X142137823Y-112554019D01*
X142137821Y-112554018D01*
X142008188Y-112536952D01*
X142000000Y-112535874D01*
X141991812Y-112536952D01*
X141862179Y-112554018D01*
X141862177Y-112554019D01*
X141853993Y-112555096D01*
X141717937Y-112611453D01*
X141601103Y-112701103D01*
X141511453Y-112817937D01*
X141455096Y-112953993D01*
X141454019Y-112962177D01*
X141454018Y-112962179D01*
X141447961Y-113008187D01*
X141435874Y-113100000D01*
X138043250Y-113100000D01*
X137988547Y-112967937D01*
X137898897Y-112851103D01*
X137782063Y-112761453D01*
X137646007Y-112705096D01*
X137637823Y-112704019D01*
X137637821Y-112704018D01*
X137508188Y-112686952D01*
X137500000Y-112685874D01*
X137491812Y-112686952D01*
X137362179Y-112704018D01*
X137362177Y-112704019D01*
X137353993Y-112705096D01*
X137217937Y-112761453D01*
X137101103Y-112851103D01*
X137011453Y-112967937D01*
X136955096Y-113103993D01*
X136954019Y-113112177D01*
X136954018Y-113112179D01*
X136949565Y-113146007D01*
X136935874Y-113250000D01*
X136955096Y-113396007D01*
X137011453Y-113532063D01*
X137101103Y-113648897D01*
X137107653Y-113653923D01*
X137113494Y-113659764D01*
X137111296Y-113661962D01*
X137144457Y-113707375D01*
X137148679Y-113778246D01*
X137113916Y-113840149D01*
X137111408Y-113842322D01*
X137107653Y-113846077D01*
X137101103Y-113851103D01*
X137011453Y-113967937D01*
X136955096Y-114103993D01*
X136954019Y-114112177D01*
X136954018Y-114112179D01*
X136941928Y-114204018D01*
X136935874Y-114250000D01*
X136936952Y-114258188D01*
X136950047Y-114357653D01*
X136955096Y-114396007D01*
X137011453Y-114532063D01*
X137101103Y-114648897D01*
X137107653Y-114653923D01*
X137113494Y-114659764D01*
X137111296Y-114661962D01*
X137144457Y-114707375D01*
X137148679Y-114778246D01*
X137113916Y-114840149D01*
X137111408Y-114842322D01*
X137107653Y-114846077D01*
X137101103Y-114851103D01*
X137011453Y-114967937D01*
X136955096Y-115103993D01*
X136954019Y-115112177D01*
X136954018Y-115112179D01*
X136945573Y-115176326D01*
X136935874Y-115250000D01*
X132250000Y-115250000D01*
X131000000Y-114000000D01*
X123829200Y-114000000D01*
X123761079Y-113979998D01*
X123714586Y-113926342D01*
X123703200Y-113874000D01*
X123703200Y-113629595D01*
X123723202Y-113561474D01*
X123776858Y-113514981D01*
X123847132Y-113504877D01*
X123877418Y-113513186D01*
X123935819Y-113537376D01*
X123953993Y-113544904D01*
X123962177Y-113545981D01*
X123962179Y-113545982D01*
X124091812Y-113563048D01*
X124100000Y-113564126D01*
X124108188Y-113563048D01*
X124237821Y-113545982D01*
X124237823Y-113545981D01*
X124246007Y-113544904D01*
X124382063Y-113488547D01*
X124498897Y-113398897D01*
X124588547Y-113282063D01*
X124644904Y-113146007D01*
X124648600Y-113117937D01*
X124663048Y-113008188D01*
X124663048Y-113008187D01*
X124664126Y-113000000D01*
X125935874Y-113000000D01*
X125936952Y-113008187D01*
X125936952Y-113008188D01*
X125951401Y-113117937D01*
X125955096Y-113146007D01*
X126011453Y-113282063D01*
X126101103Y-113398897D01*
X126217937Y-113488547D01*
X126353993Y-113544904D01*
X126362177Y-113545981D01*
X126362179Y-113545982D01*
X126491812Y-113563048D01*
X126500000Y-113564126D01*
X126508188Y-113563048D01*
X126637821Y-113545982D01*
X126637823Y-113545981D01*
X126646007Y-113544904D01*
X126782063Y-113488547D01*
X126898897Y-113398897D01*
X126988547Y-113282063D01*
X127044904Y-113146007D01*
X127048600Y-113117937D01*
X127063048Y-113008188D01*
X127063048Y-113008187D01*
X127064126Y-113000000D01*
X127935874Y-113000000D01*
X127936952Y-113008187D01*
X127936952Y-113008188D01*
X127951401Y-113117937D01*
X127955096Y-113146007D01*
X128011453Y-113282063D01*
X128101103Y-113398897D01*
X128217937Y-113488547D01*
X128353993Y-113544904D01*
X128362177Y-113545981D01*
X128362179Y-113545982D01*
X128491812Y-113563048D01*
X128500000Y-113564126D01*
X128508188Y-113563048D01*
X128637821Y-113545982D01*
X128637823Y-113545981D01*
X128646007Y-113544904D01*
X128782063Y-113488547D01*
X128898897Y-113398897D01*
X128988547Y-113282063D01*
X129044904Y-113146007D01*
X129048600Y-113117937D01*
X129063048Y-113008188D01*
X129063048Y-113008187D01*
X129064126Y-113000000D01*
X129935874Y-113000000D01*
X129936952Y-113008187D01*
X129936952Y-113008188D01*
X129951401Y-113117937D01*
X129955096Y-113146007D01*
X130011453Y-113282063D01*
X130101103Y-113398897D01*
X130217937Y-113488547D01*
X130353993Y-113544904D01*
X130362177Y-113545981D01*
X130362179Y-113545982D01*
X130491812Y-113563048D01*
X130500000Y-113564126D01*
X130508188Y-113563048D01*
X130637821Y-113545982D01*
X130637823Y-113545981D01*
X130646007Y-113544904D01*
X130782063Y-113488547D01*
X130898897Y-113398897D01*
X130988547Y-113282063D01*
X131044904Y-113146007D01*
X131048600Y-113117937D01*
X131063048Y-113008188D01*
X131063048Y-113008187D01*
X131064126Y-113000000D01*
X131055374Y-112933521D01*
X131045982Y-112862179D01*
X131045981Y-112862177D01*
X131044904Y-112853993D01*
X130988547Y-112717937D01*
X130898897Y-112601103D01*
X130782063Y-112511453D01*
X130646007Y-112455096D01*
X130637823Y-112454019D01*
X130637821Y-112454018D01*
X130508188Y-112436952D01*
X130500000Y-112435874D01*
X130491812Y-112436952D01*
X130362179Y-112454018D01*
X130362177Y-112454019D01*
X130353993Y-112455096D01*
X130217937Y-112511453D01*
X130101103Y-112601103D01*
X130011453Y-112717937D01*
X129955096Y-112853993D01*
X129954019Y-112862177D01*
X129954018Y-112862179D01*
X129944626Y-112933521D01*
X129935874Y-113000000D01*
X129064126Y-113000000D01*
X129055374Y-112933521D01*
X129045982Y-112862179D01*
X129045981Y-112862177D01*
X129044904Y-112853993D01*
X128988547Y-112717937D01*
X128898897Y-112601103D01*
X128782063Y-112511453D01*
X128646007Y-112455096D01*
X128637823Y-112454019D01*
X128637821Y-112454018D01*
X128508188Y-112436952D01*
X128500000Y-112435874D01*
X128491812Y-112436952D01*
X128362179Y-112454018D01*
X128362177Y-112454019D01*
X128353993Y-112455096D01*
X128217937Y-112511453D01*
X128101103Y-112601103D01*
X128011453Y-112717937D01*
X127955096Y-112853993D01*
X127954019Y-112862177D01*
X127954018Y-112862179D01*
X127944626Y-112933521D01*
X127935874Y-113000000D01*
X127064126Y-113000000D01*
X127055374Y-112933521D01*
X127045982Y-112862179D01*
X127045981Y-112862177D01*
X127044904Y-112853993D01*
X126988547Y-112717937D01*
X126898897Y-112601103D01*
X126782063Y-112511453D01*
X126646007Y-112455096D01*
X126637823Y-112454019D01*
X126637821Y-112454018D01*
X126508188Y-112436952D01*
X126500000Y-112435874D01*
X126491812Y-112436952D01*
X126362179Y-112454018D01*
X126362177Y-112454019D01*
X126353993Y-112455096D01*
X126217937Y-112511453D01*
X126101103Y-112601103D01*
X126011453Y-112717937D01*
X125955096Y-112853993D01*
X125954019Y-112862177D01*
X125954018Y-112862179D01*
X125944626Y-112933521D01*
X125935874Y-113000000D01*
X124664126Y-113000000D01*
X124655374Y-112933521D01*
X124645982Y-112862179D01*
X124645981Y-112862177D01*
X124644904Y-112853993D01*
X124588547Y-112717937D01*
X124498897Y-112601103D01*
X124382063Y-112511453D01*
X124246007Y-112455096D01*
X124237823Y-112454019D01*
X124237821Y-112454018D01*
X124108188Y-112436952D01*
X124100000Y-112435874D01*
X124091812Y-112436952D01*
X123962179Y-112454018D01*
X123962177Y-112454019D01*
X123953993Y-112455096D01*
X123946365Y-112458256D01*
X123946364Y-112458256D01*
X123877418Y-112486814D01*
X123806828Y-112494403D01*
X123743341Y-112462624D01*
X123707114Y-112401566D01*
X123703200Y-112370405D01*
X123703200Y-112250000D01*
X133935874Y-112250000D01*
X133955096Y-112396007D01*
X134011453Y-112532063D01*
X134101103Y-112648897D01*
X134217937Y-112738547D01*
X134353993Y-112794904D01*
X134362177Y-112795981D01*
X134362179Y-112795982D01*
X134491812Y-112813048D01*
X134500000Y-112814126D01*
X134508188Y-112813048D01*
X134637821Y-112795982D01*
X134637823Y-112795981D01*
X134646007Y-112794904D01*
X134782063Y-112738547D01*
X134898897Y-112648897D01*
X134903923Y-112642347D01*
X134909764Y-112636506D01*
X134911962Y-112638704D01*
X134957375Y-112605543D01*
X135028246Y-112601321D01*
X135090149Y-112636084D01*
X135092322Y-112638592D01*
X135096077Y-112642347D01*
X135101103Y-112648897D01*
X135217937Y-112738547D01*
X135353993Y-112794904D01*
X135362177Y-112795981D01*
X135362179Y-112795982D01*
X135491812Y-112813048D01*
X135500000Y-112814126D01*
X135508188Y-112813048D01*
X135637821Y-112795982D01*
X135637823Y-112795981D01*
X135646007Y-112794904D01*
X135782063Y-112738547D01*
X135898897Y-112648897D01*
X135903923Y-112642347D01*
X135909764Y-112636506D01*
X135911962Y-112638704D01*
X135957375Y-112605543D01*
X136028246Y-112601321D01*
X136090149Y-112636084D01*
X136092322Y-112638592D01*
X136096077Y-112642347D01*
X136101103Y-112648897D01*
X136217937Y-112738547D01*
X136353993Y-112794904D01*
X136362177Y-112795981D01*
X136362179Y-112795982D01*
X136491812Y-112813048D01*
X136500000Y-112814126D01*
X136508188Y-112813048D01*
X136637821Y-112795982D01*
X136637823Y-112795981D01*
X136646007Y-112794904D01*
X136782063Y-112738547D01*
X136898897Y-112648897D01*
X136988547Y-112532063D01*
X137044904Y-112396007D01*
X137064126Y-112250000D01*
X137044904Y-112103993D01*
X136988547Y-111967937D01*
X136898897Y-111851103D01*
X136782063Y-111761453D01*
X136646007Y-111705096D01*
X136637823Y-111704019D01*
X136637821Y-111704018D01*
X136508188Y-111686952D01*
X136500000Y-111685874D01*
X136491812Y-111686952D01*
X136362179Y-111704018D01*
X136362177Y-111704019D01*
X136353993Y-111705096D01*
X136217937Y-111761453D01*
X136101103Y-111851103D01*
X136096077Y-111857653D01*
X136090236Y-111863494D01*
X136088038Y-111861296D01*
X136042625Y-111894457D01*
X135971754Y-111898679D01*
X135909851Y-111863916D01*
X135907678Y-111861408D01*
X135903923Y-111857653D01*
X135898897Y-111851103D01*
X135782063Y-111761453D01*
X135646007Y-111705096D01*
X135637823Y-111704019D01*
X135637821Y-111704018D01*
X135508188Y-111686952D01*
X135500000Y-111685874D01*
X135491812Y-111686952D01*
X135362179Y-111704018D01*
X135362177Y-111704019D01*
X135353993Y-111705096D01*
X135217937Y-111761453D01*
X135101103Y-111851103D01*
X135096077Y-111857653D01*
X135090236Y-111863494D01*
X135088038Y-111861296D01*
X135042625Y-111894457D01*
X134971754Y-111898679D01*
X134909851Y-111863916D01*
X134907678Y-111861408D01*
X134903923Y-111857653D01*
X134898897Y-111851103D01*
X134782063Y-111761453D01*
X134646007Y-111705096D01*
X134637823Y-111704019D01*
X134637821Y-111704018D01*
X134508188Y-111686952D01*
X134500000Y-111685874D01*
X134491812Y-111686952D01*
X134362179Y-111704018D01*
X134362177Y-111704019D01*
X134353993Y-111705096D01*
X134217937Y-111761453D01*
X134101103Y-111851103D01*
X134011453Y-111967937D01*
X133955096Y-112103993D01*
X133935874Y-112250000D01*
X123703200Y-112250000D01*
X123703200Y-111629595D01*
X123723202Y-111561474D01*
X123776858Y-111514981D01*
X123847132Y-111504877D01*
X123877418Y-111513186D01*
X123935819Y-111537376D01*
X123953993Y-111544904D01*
X123962177Y-111545981D01*
X123962179Y-111545982D01*
X124091812Y-111563048D01*
X124100000Y-111564126D01*
X124108188Y-111563048D01*
X124237821Y-111545982D01*
X124237823Y-111545981D01*
X124246007Y-111544904D01*
X124382063Y-111488547D01*
X124498897Y-111398897D01*
X124588547Y-111282063D01*
X124644904Y-111146007D01*
X124664126Y-111000000D01*
X124644904Y-110853993D01*
X124588547Y-110717937D01*
X124498897Y-110601103D01*
X124382063Y-110511453D01*
X124246007Y-110455096D01*
X124237823Y-110454019D01*
X124237821Y-110454018D01*
X124108188Y-110436952D01*
X124100000Y-110435874D01*
X124091812Y-110436952D01*
X123962179Y-110454018D01*
X123962177Y-110454019D01*
X123953993Y-110455096D01*
X123946365Y-110458256D01*
X123946364Y-110458256D01*
X123877418Y-110486814D01*
X123806828Y-110494403D01*
X123743341Y-110462624D01*
X123707114Y-110401566D01*
X123703200Y-110370405D01*
X123703200Y-109629595D01*
X123723202Y-109561474D01*
X123776858Y-109514981D01*
X123847132Y-109504877D01*
X123877418Y-109513186D01*
X123935819Y-109537376D01*
X123953993Y-109544904D01*
X123962177Y-109545981D01*
X123962179Y-109545982D01*
X124091812Y-109563048D01*
X124100000Y-109564126D01*
X124108188Y-109563048D01*
X124237821Y-109545982D01*
X124237823Y-109545981D01*
X124246007Y-109544904D01*
X124382063Y-109488547D01*
X124498897Y-109398897D01*
X124560698Y-109318356D01*
X127491557Y-109318356D01*
X127506026Y-109539107D01*
X127560481Y-109753525D01*
X127653099Y-109954428D01*
X127780778Y-110135090D01*
X127939242Y-110289458D01*
X128123183Y-110412364D01*
X128128486Y-110414642D01*
X128128489Y-110414644D01*
X128321136Y-110497411D01*
X128326443Y-110499691D01*
X128400635Y-110516479D01*
X128536576Y-110547240D01*
X128536579Y-110547240D01*
X128542212Y-110548515D01*
X128547983Y-110548742D01*
X128547985Y-110548742D01*
X128616461Y-110551432D01*
X128763267Y-110557200D01*
X128872735Y-110541328D01*
X128976488Y-110526285D01*
X128976493Y-110526284D01*
X128982202Y-110525456D01*
X128987666Y-110523601D01*
X128987671Y-110523600D01*
X129186218Y-110456202D01*
X129191686Y-110454346D01*
X129384704Y-110346251D01*
X129449131Y-110292668D01*
X129550353Y-110208482D01*
X129554791Y-110204791D01*
X129696251Y-110034704D01*
X129804346Y-109841686D01*
X129834273Y-109753525D01*
X129873600Y-109637671D01*
X129873601Y-109637666D01*
X129875456Y-109632202D01*
X129876284Y-109626493D01*
X129876285Y-109626488D01*
X129906667Y-109416941D01*
X129907200Y-109413267D01*
X129907547Y-109400000D01*
X169935874Y-109400000D01*
X169936952Y-109408188D01*
X169953960Y-109537376D01*
X169955096Y-109546007D01*
X170011453Y-109682063D01*
X170101103Y-109798897D01*
X170217937Y-109888547D01*
X170353993Y-109944904D01*
X170362177Y-109945981D01*
X170362179Y-109945982D01*
X170491812Y-109963048D01*
X170500000Y-109964126D01*
X170508188Y-109963048D01*
X170637821Y-109945982D01*
X170637823Y-109945981D01*
X170646007Y-109944904D01*
X170782063Y-109888547D01*
X170898897Y-109798897D01*
X170988547Y-109682063D01*
X171044904Y-109546007D01*
X171046041Y-109537376D01*
X171063048Y-109408188D01*
X171064126Y-109400000D01*
X171058031Y-109353704D01*
X171045982Y-109262179D01*
X171045981Y-109262177D01*
X171044904Y-109253993D01*
X170988547Y-109117937D01*
X170898897Y-109001103D01*
X170782063Y-108911453D01*
X170646007Y-108855096D01*
X170637823Y-108854019D01*
X170637821Y-108854018D01*
X170508188Y-108836952D01*
X170500000Y-108835874D01*
X170491812Y-108836952D01*
X170362179Y-108854018D01*
X170362177Y-108854019D01*
X170353993Y-108855096D01*
X170217937Y-108911453D01*
X170101103Y-109001103D01*
X170011453Y-109117937D01*
X169955096Y-109253993D01*
X169954019Y-109262177D01*
X169954018Y-109262179D01*
X169941969Y-109353704D01*
X169935874Y-109400000D01*
X129907547Y-109400000D01*
X129908857Y-109350000D01*
X129896449Y-109214964D01*
X129889144Y-109135457D01*
X129889143Y-109135454D01*
X129888615Y-109129703D01*
X129862925Y-109038613D01*
X129830133Y-108922343D01*
X129830132Y-108922341D01*
X129828565Y-108916784D01*
X129825937Y-108911453D01*
X129746316Y-108750000D01*
X150185874Y-108750000D01*
X150186952Y-108758188D01*
X150203962Y-108887390D01*
X150205096Y-108896007D01*
X150261453Y-109032063D01*
X150351103Y-109148897D01*
X150467937Y-109238547D01*
X150603993Y-109294904D01*
X150612177Y-109295981D01*
X150612179Y-109295982D01*
X150726768Y-109311067D01*
X150738569Y-109312621D01*
X150741812Y-109313048D01*
X150750000Y-109314126D01*
X150758188Y-109313048D01*
X150761432Y-109312621D01*
X150773232Y-109311067D01*
X150887821Y-109295982D01*
X150887823Y-109295981D01*
X150896007Y-109294904D01*
X151032063Y-109238547D01*
X151148897Y-109148897D01*
X151238547Y-109032063D01*
X151294904Y-108896007D01*
X151296039Y-108887390D01*
X151313048Y-108758188D01*
X151314126Y-108750000D01*
X151294904Y-108603993D01*
X151238547Y-108467937D01*
X151148897Y-108351103D01*
X151032063Y-108261453D01*
X150896007Y-108205096D01*
X150887823Y-108204019D01*
X150887821Y-108204018D01*
X150758188Y-108186952D01*
X150750000Y-108185874D01*
X150741812Y-108186952D01*
X150612179Y-108204018D01*
X150612177Y-108204019D01*
X150603993Y-108205096D01*
X150467937Y-108261453D01*
X150351103Y-108351103D01*
X150261453Y-108467937D01*
X150205096Y-108603993D01*
X150185874Y-108750000D01*
X129746316Y-108750000D01*
X129733275Y-108723555D01*
X129730720Y-108718374D01*
X129598356Y-108541117D01*
X129435906Y-108390949D01*
X129351848Y-108337913D01*
X129253694Y-108275982D01*
X129253689Y-108275980D01*
X129248810Y-108272901D01*
X129043334Y-108190924D01*
X129037674Y-108189798D01*
X129037670Y-108189797D01*
X128832027Y-108148892D01*
X128832024Y-108148892D01*
X128826360Y-108147765D01*
X128820585Y-108147689D01*
X128820581Y-108147689D01*
X128709855Y-108146240D01*
X128605154Y-108144870D01*
X128599457Y-108145849D01*
X128599456Y-108145849D01*
X128392815Y-108181356D01*
X128392812Y-108181357D01*
X128387125Y-108182334D01*
X128179574Y-108258903D01*
X128166840Y-108266479D01*
X127994420Y-108369058D01*
X127994417Y-108369060D01*
X127989452Y-108372014D01*
X127823126Y-108517878D01*
X127819551Y-108522413D01*
X127819550Y-108522414D01*
X127761479Y-108596077D01*
X127686167Y-108691609D01*
X127583162Y-108887390D01*
X127581449Y-108892907D01*
X127536206Y-109038613D01*
X127517559Y-109098664D01*
X127491557Y-109318356D01*
X124560698Y-109318356D01*
X124588547Y-109282063D01*
X124644904Y-109146007D01*
X124647051Y-109129703D01*
X124663048Y-109008188D01*
X124664126Y-109000000D01*
X124661067Y-108976768D01*
X124645982Y-108862179D01*
X124645981Y-108862177D01*
X124644904Y-108853993D01*
X124588547Y-108717937D01*
X124498897Y-108601103D01*
X124382063Y-108511453D01*
X124246007Y-108455096D01*
X124237823Y-108454019D01*
X124237821Y-108454018D01*
X124108188Y-108436952D01*
X124100000Y-108435874D01*
X124091812Y-108436952D01*
X123962179Y-108454018D01*
X123962177Y-108454019D01*
X123953993Y-108455096D01*
X123946365Y-108458256D01*
X123946364Y-108458256D01*
X123877418Y-108486814D01*
X123806828Y-108494403D01*
X123743341Y-108462624D01*
X123707114Y-108401566D01*
X123703200Y-108370405D01*
X123703200Y-107629595D01*
X123723202Y-107561474D01*
X123776858Y-107514981D01*
X123847132Y-107504877D01*
X123877418Y-107513186D01*
X123935819Y-107537376D01*
X123953993Y-107544904D01*
X123962177Y-107545981D01*
X123962179Y-107545982D01*
X124091812Y-107563048D01*
X124100000Y-107564126D01*
X124108188Y-107563048D01*
X124237821Y-107545982D01*
X124237823Y-107545981D01*
X124246007Y-107544904D01*
X124354413Y-107500000D01*
X136935874Y-107500000D01*
X136936952Y-107508188D01*
X136943535Y-107558188D01*
X136955096Y-107646007D01*
X137011453Y-107782063D01*
X137101103Y-107898897D01*
X137217937Y-107988547D01*
X137353993Y-108044904D01*
X137362177Y-108045981D01*
X137362179Y-108045982D01*
X137491812Y-108063048D01*
X137500000Y-108064126D01*
X137508188Y-108063048D01*
X137637821Y-108045982D01*
X137637823Y-108045981D01*
X137646007Y-108044904D01*
X137782063Y-107988547D01*
X137898897Y-107898897D01*
X137988547Y-107782063D01*
X138044904Y-107646007D01*
X138056466Y-107558188D01*
X138057544Y-107550000D01*
X146185874Y-107550000D01*
X146205096Y-107696007D01*
X146261453Y-107832063D01*
X146351103Y-107948897D01*
X146467937Y-108038547D01*
X146603993Y-108094904D01*
X146612177Y-108095981D01*
X146612179Y-108095982D01*
X146741812Y-108113048D01*
X146750000Y-108114126D01*
X146758188Y-108113048D01*
X146887821Y-108095982D01*
X146887823Y-108095981D01*
X146896007Y-108094904D01*
X147032063Y-108038547D01*
X147148897Y-107948897D01*
X147238547Y-107832063D01*
X147294904Y-107696007D01*
X147314126Y-107550000D01*
X147308186Y-107504877D01*
X147295982Y-107412179D01*
X147295981Y-107412177D01*
X147294904Y-107403993D01*
X147238547Y-107267937D01*
X147148897Y-107151103D01*
X147032063Y-107061453D01*
X146896007Y-107005096D01*
X146887823Y-107004019D01*
X146887821Y-107004018D01*
X146758188Y-106986952D01*
X146750000Y-106985874D01*
X146741812Y-106986952D01*
X146612179Y-107004018D01*
X146612177Y-107004019D01*
X146603993Y-107005096D01*
X146467937Y-107061453D01*
X146351103Y-107151103D01*
X146261453Y-107267937D01*
X146205096Y-107403993D01*
X146204019Y-107412177D01*
X146204018Y-107412179D01*
X146191814Y-107504877D01*
X146185874Y-107550000D01*
X138057544Y-107550000D01*
X138063048Y-107508188D01*
X138064126Y-107500000D01*
X138051487Y-107403993D01*
X138045982Y-107362179D01*
X138045981Y-107362177D01*
X138044904Y-107353993D01*
X137988547Y-107217937D01*
X137898897Y-107101103D01*
X137782063Y-107011453D01*
X137646007Y-106955096D01*
X137637823Y-106954019D01*
X137637821Y-106954018D01*
X137508188Y-106936952D01*
X137500000Y-106935874D01*
X137491812Y-106936952D01*
X137362179Y-106954018D01*
X137362177Y-106954019D01*
X137353993Y-106955096D01*
X137217937Y-107011453D01*
X137101103Y-107101103D01*
X137011453Y-107217937D01*
X136955096Y-107353993D01*
X136954019Y-107362177D01*
X136954018Y-107362179D01*
X136948513Y-107403993D01*
X136935874Y-107500000D01*
X124354413Y-107500000D01*
X124382063Y-107488547D01*
X124498897Y-107398897D01*
X124588547Y-107282063D01*
X124644904Y-107146007D01*
X124649954Y-107107653D01*
X124663048Y-107008188D01*
X124664126Y-107000000D01*
X124644904Y-106853993D01*
X124588547Y-106717937D01*
X124534337Y-106647289D01*
X128017265Y-106647289D01*
X128026561Y-106659304D01*
X128066100Y-106686989D01*
X128075590Y-106692469D01*
X128264486Y-106780553D01*
X128274778Y-106784299D01*
X128476098Y-106838242D01*
X128486893Y-106840145D01*
X128694525Y-106858311D01*
X128705475Y-106858311D01*
X128913107Y-106840145D01*
X128923902Y-106838242D01*
X129125222Y-106784299D01*
X129135514Y-106780553D01*
X129324410Y-106692469D01*
X129333900Y-106686989D01*
X129374278Y-106658717D01*
X129381247Y-106650000D01*
X157035874Y-106650000D01*
X157036952Y-106658188D01*
X157053555Y-106784299D01*
X157055096Y-106796007D01*
X157111453Y-106932063D01*
X157201103Y-107048897D01*
X157317937Y-107138547D01*
X157453993Y-107194904D01*
X157462177Y-107195981D01*
X157462179Y-107195982D01*
X157591812Y-107213048D01*
X157600000Y-107214126D01*
X157608188Y-107213048D01*
X157737821Y-107195982D01*
X157737823Y-107195981D01*
X157746007Y-107194904D01*
X157882063Y-107138547D01*
X157998897Y-107048897D01*
X158088547Y-106932063D01*
X158144904Y-106796007D01*
X158146446Y-106784299D01*
X158163048Y-106658188D01*
X158164126Y-106650000D01*
X158149462Y-106538613D01*
X158145982Y-106512179D01*
X158145981Y-106512177D01*
X158144904Y-106503993D01*
X158088547Y-106367937D01*
X157998897Y-106251103D01*
X157997460Y-106250000D01*
X165135874Y-106250000D01*
X165136952Y-106258188D01*
X165151401Y-106367937D01*
X165155096Y-106396007D01*
X165211453Y-106532063D01*
X165301103Y-106648897D01*
X165417937Y-106738547D01*
X165553993Y-106794904D01*
X165562177Y-106795981D01*
X165562179Y-106795982D01*
X165691812Y-106813048D01*
X165700000Y-106814126D01*
X165708188Y-106813048D01*
X165837821Y-106795982D01*
X165837823Y-106795981D01*
X165846007Y-106794904D01*
X165982063Y-106738547D01*
X166098897Y-106648897D01*
X166188547Y-106532063D01*
X166244904Y-106396007D01*
X166248600Y-106367937D01*
X166263048Y-106258188D01*
X166264126Y-106250000D01*
X166254178Y-106174438D01*
X166245982Y-106112179D01*
X166245981Y-106112177D01*
X166244904Y-106103993D01*
X166188547Y-105967937D01*
X166136417Y-105900000D01*
X167435874Y-105900000D01*
X167436952Y-105908188D01*
X167453715Y-106035514D01*
X167455096Y-106046007D01*
X167511453Y-106182063D01*
X167601103Y-106298897D01*
X167717937Y-106388547D01*
X167853993Y-106444904D01*
X167862177Y-106445981D01*
X167862179Y-106445982D01*
X167991812Y-106463048D01*
X168000000Y-106464126D01*
X168008188Y-106463048D01*
X168137821Y-106445982D01*
X168137823Y-106445981D01*
X168146007Y-106444904D01*
X168282063Y-106388547D01*
X168398897Y-106298897D01*
X168488547Y-106182063D01*
X168544904Y-106046007D01*
X168546286Y-106035514D01*
X168563048Y-105908188D01*
X168564126Y-105900000D01*
X168552821Y-105814126D01*
X168545982Y-105762179D01*
X168545981Y-105762177D01*
X168544904Y-105753993D01*
X168488547Y-105617937D01*
X168398897Y-105501103D01*
X168282063Y-105411453D01*
X168146007Y-105355096D01*
X168137823Y-105354019D01*
X168137821Y-105354018D01*
X168008188Y-105336952D01*
X168000000Y-105335874D01*
X167991812Y-105336952D01*
X167862179Y-105354018D01*
X167862177Y-105354019D01*
X167853993Y-105355096D01*
X167717937Y-105411453D01*
X167601103Y-105501103D01*
X167511453Y-105617937D01*
X167455096Y-105753993D01*
X167454019Y-105762177D01*
X167454018Y-105762179D01*
X167447179Y-105814126D01*
X167435874Y-105900000D01*
X166136417Y-105900000D01*
X166098897Y-105851103D01*
X165982063Y-105761453D01*
X165846007Y-105705096D01*
X165837823Y-105704019D01*
X165837821Y-105704018D01*
X165708188Y-105686952D01*
X165700000Y-105685874D01*
X165691812Y-105686952D01*
X165562179Y-105704018D01*
X165562177Y-105704019D01*
X165553993Y-105705096D01*
X165417937Y-105761453D01*
X165301103Y-105851103D01*
X165211453Y-105967937D01*
X165155096Y-106103993D01*
X165154019Y-106112177D01*
X165154018Y-106112179D01*
X165145822Y-106174438D01*
X165135874Y-106250000D01*
X157997460Y-106250000D01*
X157882063Y-106161453D01*
X157746007Y-106105096D01*
X157737823Y-106104019D01*
X157737821Y-106104018D01*
X157608188Y-106086952D01*
X157600000Y-106085874D01*
X157591812Y-106086952D01*
X157462179Y-106104018D01*
X157462177Y-106104019D01*
X157453993Y-106105096D01*
X157317937Y-106161453D01*
X157201103Y-106251103D01*
X157111453Y-106367937D01*
X157055096Y-106503993D01*
X157054019Y-106512177D01*
X157054018Y-106512179D01*
X157050538Y-106538613D01*
X157035874Y-106650000D01*
X129381247Y-106650000D01*
X129382652Y-106648242D01*
X129375583Y-106634793D01*
X128712812Y-105972022D01*
X128698868Y-105964408D01*
X128697035Y-105964539D01*
X128690420Y-105968790D01*
X128023695Y-106635515D01*
X128017265Y-106647289D01*
X124534337Y-106647289D01*
X124498897Y-106601103D01*
X124382063Y-106511453D01*
X124246007Y-106455096D01*
X124237823Y-106454019D01*
X124237821Y-106454018D01*
X124108188Y-106436952D01*
X124100000Y-106435874D01*
X124091812Y-106436952D01*
X123962179Y-106454018D01*
X123962177Y-106454019D01*
X123953993Y-106455096D01*
X123946365Y-106458256D01*
X123946364Y-106458256D01*
X123877418Y-106486814D01*
X123806828Y-106494403D01*
X123743341Y-106462624D01*
X123707114Y-106401566D01*
X123703200Y-106370405D01*
X123703200Y-105629595D01*
X123710282Y-105605475D01*
X127441689Y-105605475D01*
X127459855Y-105813107D01*
X127461758Y-105823902D01*
X127515701Y-106025222D01*
X127519447Y-106035514D01*
X127607531Y-106224410D01*
X127613011Y-106233900D01*
X127641283Y-106274278D01*
X127651758Y-106282652D01*
X127665207Y-106275583D01*
X128327978Y-105612812D01*
X128334356Y-105601132D01*
X129064408Y-105601132D01*
X129064539Y-105602965D01*
X129068790Y-105609580D01*
X129735515Y-106276305D01*
X129747289Y-106282735D01*
X129759304Y-106273439D01*
X129786989Y-106233900D01*
X129792469Y-106224410D01*
X129880553Y-106035514D01*
X129884299Y-106025222D01*
X129938242Y-105823902D01*
X129940145Y-105813107D01*
X129945666Y-105750000D01*
X139935874Y-105750000D01*
X139936952Y-105758188D01*
X139950047Y-105857653D01*
X139955096Y-105896007D01*
X140011453Y-106032063D01*
X140101103Y-106148897D01*
X140217937Y-106238547D01*
X140353993Y-106294904D01*
X140362177Y-106295981D01*
X140362179Y-106295982D01*
X140491812Y-106313048D01*
X140500000Y-106314126D01*
X140508188Y-106313048D01*
X140637821Y-106295982D01*
X140637823Y-106295981D01*
X140646007Y-106294904D01*
X140782063Y-106238547D01*
X140898897Y-106148897D01*
X140988547Y-106032063D01*
X141044904Y-105896007D01*
X141049954Y-105857653D01*
X141063048Y-105758188D01*
X141064126Y-105750000D01*
X141055684Y-105685874D01*
X141045982Y-105612179D01*
X141045981Y-105612177D01*
X141044904Y-105603993D01*
X140988547Y-105467937D01*
X140898897Y-105351103D01*
X140782063Y-105261453D01*
X140754413Y-105250000D01*
X164035874Y-105250000D01*
X164036952Y-105258188D01*
X164050047Y-105357653D01*
X164055096Y-105396007D01*
X164111453Y-105532063D01*
X164201103Y-105648897D01*
X164317937Y-105738547D01*
X164453993Y-105794904D01*
X164462177Y-105795981D01*
X164462179Y-105795982D01*
X164591812Y-105813048D01*
X164600000Y-105814126D01*
X164608188Y-105813048D01*
X164737821Y-105795982D01*
X164737823Y-105795981D01*
X164746007Y-105794904D01*
X164882063Y-105738547D01*
X164998897Y-105648897D01*
X165088547Y-105532063D01*
X165144904Y-105396007D01*
X165149954Y-105357653D01*
X165163048Y-105258188D01*
X165164126Y-105250000D01*
X165150435Y-105146007D01*
X165145982Y-105112179D01*
X165145981Y-105112177D01*
X165144904Y-105103993D01*
X165088547Y-104967937D01*
X164998897Y-104851103D01*
X164882063Y-104761453D01*
X164746007Y-104705096D01*
X164737823Y-104704019D01*
X164737821Y-104704018D01*
X164608188Y-104686952D01*
X164600000Y-104685874D01*
X164591812Y-104686952D01*
X164462179Y-104704018D01*
X164462177Y-104704019D01*
X164453993Y-104705096D01*
X164317937Y-104761453D01*
X164201103Y-104851103D01*
X164111453Y-104967937D01*
X164055096Y-105103993D01*
X164054019Y-105112177D01*
X164054018Y-105112179D01*
X164049565Y-105146007D01*
X164035874Y-105250000D01*
X140754413Y-105250000D01*
X140646007Y-105205096D01*
X140637823Y-105204019D01*
X140637821Y-105204018D01*
X140508188Y-105186952D01*
X140500000Y-105185874D01*
X140491812Y-105186952D01*
X140362179Y-105204018D01*
X140362177Y-105204019D01*
X140353993Y-105205096D01*
X140217937Y-105261453D01*
X140101103Y-105351103D01*
X140011453Y-105467937D01*
X139955096Y-105603993D01*
X139954019Y-105612177D01*
X139954018Y-105612179D01*
X139944316Y-105685874D01*
X139935874Y-105750000D01*
X129945666Y-105750000D01*
X129958311Y-105605475D01*
X129958311Y-105594525D01*
X129940145Y-105386893D01*
X129938242Y-105376098D01*
X129884299Y-105174778D01*
X129880553Y-105164486D01*
X129792469Y-104975590D01*
X129786989Y-104966100D01*
X129758717Y-104925722D01*
X129748242Y-104917348D01*
X129734793Y-104924417D01*
X129072022Y-105587188D01*
X129064408Y-105601132D01*
X128334356Y-105601132D01*
X128335592Y-105598868D01*
X128335461Y-105597035D01*
X128331210Y-105590420D01*
X127664485Y-104923695D01*
X127652711Y-104917265D01*
X127640696Y-104926561D01*
X127613011Y-104966100D01*
X127607531Y-104975590D01*
X127519447Y-105164486D01*
X127515701Y-105174778D01*
X127461758Y-105376098D01*
X127459855Y-105386893D01*
X127441689Y-105594525D01*
X127441689Y-105605475D01*
X123710282Y-105605475D01*
X123723202Y-105561474D01*
X123776858Y-105514981D01*
X123847132Y-105504877D01*
X123877418Y-105513186D01*
X123935819Y-105537376D01*
X123953993Y-105544904D01*
X123962177Y-105545981D01*
X123962179Y-105545982D01*
X124091812Y-105563048D01*
X124100000Y-105564126D01*
X124108188Y-105563048D01*
X124237821Y-105545982D01*
X124237823Y-105545981D01*
X124246007Y-105544904D01*
X124382063Y-105488547D01*
X124498897Y-105398897D01*
X124588547Y-105282063D01*
X124644904Y-105146007D01*
X124649358Y-105112179D01*
X124663048Y-105008188D01*
X124664126Y-105000000D01*
X124659043Y-104961387D01*
X124645982Y-104862179D01*
X124645981Y-104862177D01*
X124644904Y-104853993D01*
X124588547Y-104717937D01*
X124498897Y-104601103D01*
X124434589Y-104551758D01*
X128017348Y-104551758D01*
X128024417Y-104565207D01*
X128687188Y-105227978D01*
X128701132Y-105235592D01*
X128702965Y-105235461D01*
X128709580Y-105231210D01*
X129376305Y-104564485D01*
X129382735Y-104552711D01*
X129373439Y-104540696D01*
X129333900Y-104513011D01*
X129324410Y-104507531D01*
X129135514Y-104419447D01*
X129125222Y-104415701D01*
X129066624Y-104400000D01*
X170935874Y-104400000D01*
X170936952Y-104408188D01*
X170951209Y-104516479D01*
X170955096Y-104546007D01*
X171011453Y-104682063D01*
X171101103Y-104798897D01*
X171217937Y-104888547D01*
X171353993Y-104944904D01*
X171362177Y-104945981D01*
X171362179Y-104945982D01*
X171491812Y-104963048D01*
X171500000Y-104964126D01*
X171508188Y-104963048D01*
X171637821Y-104945982D01*
X171637823Y-104945981D01*
X171646007Y-104944904D01*
X171782063Y-104888547D01*
X171898897Y-104798897D01*
X171988547Y-104682063D01*
X172044904Y-104546007D01*
X172048792Y-104516479D01*
X172063048Y-104408188D01*
X172064126Y-104400000D01*
X172044904Y-104253993D01*
X171988547Y-104117937D01*
X171898897Y-104001103D01*
X171782063Y-103911453D01*
X171646007Y-103855096D01*
X171637823Y-103854019D01*
X171637821Y-103854018D01*
X171508188Y-103836952D01*
X171500000Y-103835874D01*
X171491812Y-103836952D01*
X171362179Y-103854018D01*
X171362177Y-103854019D01*
X171353993Y-103855096D01*
X171217937Y-103911453D01*
X171101103Y-104001103D01*
X171011453Y-104117937D01*
X170955096Y-104253993D01*
X170935874Y-104400000D01*
X129066624Y-104400000D01*
X128923902Y-104361758D01*
X128913107Y-104359855D01*
X128705475Y-104341689D01*
X128694525Y-104341689D01*
X128486893Y-104359855D01*
X128476098Y-104361758D01*
X128274778Y-104415701D01*
X128264486Y-104419447D01*
X128075590Y-104507531D01*
X128066100Y-104513011D01*
X128025722Y-104541283D01*
X128017348Y-104551758D01*
X124434589Y-104551758D01*
X124382063Y-104511453D01*
X124246007Y-104455096D01*
X124237823Y-104454019D01*
X124237821Y-104454018D01*
X124108188Y-104436952D01*
X124100000Y-104435874D01*
X124091812Y-104436952D01*
X123962179Y-104454018D01*
X123962177Y-104454019D01*
X123953993Y-104455096D01*
X123946365Y-104458256D01*
X123946364Y-104458256D01*
X123877418Y-104486814D01*
X123806828Y-104494403D01*
X123743341Y-104462624D01*
X123707114Y-104401566D01*
X123703200Y-104370405D01*
X123703200Y-103750000D01*
X131185874Y-103750000D01*
X131205096Y-103896007D01*
X131261453Y-104032063D01*
X131351103Y-104148897D01*
X131467937Y-104238547D01*
X131603993Y-104294904D01*
X131612177Y-104295981D01*
X131612179Y-104295982D01*
X131741812Y-104313048D01*
X131750000Y-104314126D01*
X131758188Y-104313048D01*
X131887821Y-104295982D01*
X131887823Y-104295981D01*
X131896007Y-104294904D01*
X132032063Y-104238547D01*
X132148897Y-104148897D01*
X132238547Y-104032063D01*
X132294904Y-103896007D01*
X132314126Y-103750000D01*
X132294904Y-103603993D01*
X132238547Y-103467937D01*
X132148897Y-103351103D01*
X132032063Y-103261453D01*
X131896007Y-103205096D01*
X131887823Y-103204019D01*
X131887821Y-103204018D01*
X131758188Y-103186952D01*
X131750000Y-103185874D01*
X131741812Y-103186952D01*
X131612179Y-103204018D01*
X131612177Y-103204019D01*
X131603993Y-103205096D01*
X131467937Y-103261453D01*
X131351103Y-103351103D01*
X131261453Y-103467937D01*
X131205096Y-103603993D01*
X131185874Y-103750000D01*
X123703200Y-103750000D01*
X123703200Y-103629595D01*
X123723202Y-103561474D01*
X123776858Y-103514981D01*
X123847132Y-103504877D01*
X123877418Y-103513186D01*
X123935819Y-103537376D01*
X123953993Y-103544904D01*
X123962177Y-103545981D01*
X123962179Y-103545982D01*
X124091812Y-103563048D01*
X124100000Y-103564126D01*
X124108188Y-103563048D01*
X124237821Y-103545982D01*
X124237823Y-103545981D01*
X124246007Y-103544904D01*
X124382063Y-103488547D01*
X124498897Y-103398897D01*
X124588547Y-103282063D01*
X124644904Y-103146007D01*
X124653131Y-103083521D01*
X124663048Y-103008188D01*
X124664126Y-103000000D01*
X125935874Y-103000000D01*
X125936952Y-103008188D01*
X125946870Y-103083521D01*
X125955096Y-103146007D01*
X126011453Y-103282063D01*
X126101103Y-103398897D01*
X126217937Y-103488547D01*
X126353993Y-103544904D01*
X126362177Y-103545981D01*
X126362179Y-103545982D01*
X126491812Y-103563048D01*
X126500000Y-103564126D01*
X126508188Y-103563048D01*
X126637821Y-103545982D01*
X126637823Y-103545981D01*
X126646007Y-103544904D01*
X126782063Y-103488547D01*
X126898897Y-103398897D01*
X126988547Y-103282063D01*
X127044904Y-103146007D01*
X127053131Y-103083521D01*
X127063048Y-103008188D01*
X127064126Y-103000000D01*
X127935874Y-103000000D01*
X127936952Y-103008188D01*
X127946870Y-103083521D01*
X127955096Y-103146007D01*
X128011453Y-103282063D01*
X128101103Y-103398897D01*
X128217937Y-103488547D01*
X128353993Y-103544904D01*
X128362177Y-103545981D01*
X128362179Y-103545982D01*
X128491812Y-103563048D01*
X128500000Y-103564126D01*
X128508188Y-103563048D01*
X128637821Y-103545982D01*
X128637823Y-103545981D01*
X128646007Y-103544904D01*
X128782063Y-103488547D01*
X128898897Y-103398897D01*
X128988547Y-103282063D01*
X129044904Y-103146007D01*
X129053131Y-103083521D01*
X129063048Y-103008188D01*
X129064126Y-103000000D01*
X129935874Y-103000000D01*
X129936952Y-103008188D01*
X129946870Y-103083521D01*
X129955096Y-103146007D01*
X130011453Y-103282063D01*
X130101103Y-103398897D01*
X130217937Y-103488547D01*
X130353993Y-103544904D01*
X130362177Y-103545981D01*
X130362179Y-103545982D01*
X130491812Y-103563048D01*
X130500000Y-103564126D01*
X130508188Y-103563048D01*
X130637821Y-103545982D01*
X130637823Y-103545981D01*
X130646007Y-103544904D01*
X130782063Y-103488547D01*
X130898897Y-103398897D01*
X130988547Y-103282063D01*
X131044904Y-103146007D01*
X131053131Y-103083521D01*
X131063048Y-103008188D01*
X131064126Y-103000000D01*
X131049462Y-102888613D01*
X131045982Y-102862179D01*
X131045981Y-102862177D01*
X131044904Y-102853993D01*
X130988547Y-102717937D01*
X130898897Y-102601103D01*
X130897460Y-102600000D01*
X154185874Y-102600000D01*
X154186952Y-102608188D01*
X154201401Y-102717937D01*
X154205096Y-102746007D01*
X154261453Y-102882063D01*
X154351103Y-102998897D01*
X154467937Y-103088547D01*
X154603993Y-103144904D01*
X154612177Y-103145981D01*
X154612179Y-103145982D01*
X154741812Y-103163048D01*
X154750000Y-103164126D01*
X154758188Y-103163048D01*
X154887821Y-103145982D01*
X154887823Y-103145981D01*
X154896007Y-103144904D01*
X155032063Y-103088547D01*
X155148897Y-102998897D01*
X155156715Y-102988708D01*
X161941294Y-102988708D01*
X161958889Y-103168156D01*
X162015803Y-103339247D01*
X162109208Y-103493476D01*
X162114099Y-103498541D01*
X162114100Y-103498542D01*
X162155820Y-103541744D01*
X162234461Y-103623180D01*
X162385337Y-103721910D01*
X162391941Y-103724366D01*
X162391943Y-103724367D01*
X162424694Y-103736547D01*
X162554337Y-103784761D01*
X162733062Y-103808608D01*
X162740073Y-103807970D01*
X162740077Y-103807970D01*
X162905608Y-103792905D01*
X162912629Y-103792266D01*
X162919331Y-103790088D01*
X162919333Y-103790088D01*
X163077413Y-103738724D01*
X163084113Y-103736547D01*
X163238991Y-103644221D01*
X163343284Y-103544904D01*
X163364465Y-103524734D01*
X163364466Y-103524732D01*
X163369565Y-103519877D01*
X163469347Y-103369694D01*
X163476409Y-103351103D01*
X163530876Y-103207720D01*
X163530877Y-103207715D01*
X163533376Y-103201137D01*
X163541124Y-103146007D01*
X163557919Y-103026506D01*
X163557919Y-103026501D01*
X163558470Y-103022583D01*
X163558785Y-103000000D01*
X163557518Y-102988708D01*
X164441294Y-102988708D01*
X164458889Y-103168156D01*
X164515803Y-103339247D01*
X164609208Y-103493476D01*
X164614099Y-103498541D01*
X164614100Y-103498542D01*
X164655820Y-103541744D01*
X164734461Y-103623180D01*
X164885337Y-103721910D01*
X164891941Y-103724366D01*
X164891943Y-103724367D01*
X164924694Y-103736547D01*
X165054337Y-103784761D01*
X165233062Y-103808608D01*
X165240073Y-103807970D01*
X165240077Y-103807970D01*
X165405608Y-103792905D01*
X165412629Y-103792266D01*
X165419331Y-103790088D01*
X165419333Y-103790088D01*
X165577413Y-103738724D01*
X165584113Y-103736547D01*
X165738991Y-103644221D01*
X165843284Y-103544904D01*
X165864465Y-103524734D01*
X165864466Y-103524732D01*
X165869565Y-103519877D01*
X165969347Y-103369694D01*
X165976409Y-103351103D01*
X166030876Y-103207720D01*
X166030877Y-103207715D01*
X166033376Y-103201137D01*
X166041124Y-103146007D01*
X166057919Y-103026506D01*
X166057919Y-103026501D01*
X166058470Y-103022583D01*
X166058785Y-103000000D01*
X167185874Y-103000000D01*
X167186952Y-103008188D01*
X167196870Y-103083521D01*
X167205096Y-103146007D01*
X167261453Y-103282063D01*
X167351103Y-103398897D01*
X167467937Y-103488547D01*
X167603993Y-103544904D01*
X167612177Y-103545981D01*
X167612179Y-103545982D01*
X167741812Y-103563048D01*
X167750000Y-103564126D01*
X167758188Y-103563048D01*
X167887821Y-103545982D01*
X167887823Y-103545981D01*
X167896007Y-103544904D01*
X168032063Y-103488547D01*
X168148897Y-103398897D01*
X168238547Y-103282063D01*
X168294904Y-103146007D01*
X168303131Y-103083521D01*
X168313048Y-103008188D01*
X168314126Y-103000000D01*
X168299462Y-102888613D01*
X168295982Y-102862179D01*
X168295981Y-102862177D01*
X168294904Y-102853993D01*
X168238547Y-102717937D01*
X168148897Y-102601103D01*
X168032063Y-102511453D01*
X167896007Y-102455096D01*
X167887823Y-102454019D01*
X167887821Y-102454018D01*
X167758188Y-102436952D01*
X167750000Y-102435874D01*
X167741812Y-102436952D01*
X167612179Y-102454018D01*
X167612177Y-102454019D01*
X167603993Y-102455096D01*
X167467937Y-102511453D01*
X167351103Y-102601103D01*
X167261453Y-102717937D01*
X167205096Y-102853993D01*
X167204019Y-102862177D01*
X167204018Y-102862179D01*
X167200538Y-102888613D01*
X167185874Y-103000000D01*
X166058785Y-103000000D01*
X166038686Y-102820815D01*
X166005516Y-102725562D01*
X165981704Y-102657183D01*
X165981703Y-102657181D01*
X165979389Y-102650536D01*
X165883840Y-102497625D01*
X165870207Y-102483896D01*
X165761751Y-102374680D01*
X165761747Y-102374677D01*
X165756788Y-102369683D01*
X165604548Y-102273069D01*
X165550144Y-102253697D01*
X165441321Y-102214946D01*
X165441319Y-102214945D01*
X165434687Y-102212584D01*
X165427701Y-102211751D01*
X165427697Y-102211750D01*
X165296253Y-102196077D01*
X165255646Y-102191235D01*
X165248643Y-102191971D01*
X165248642Y-102191971D01*
X165083333Y-102209345D01*
X165083329Y-102209346D01*
X165076325Y-102210082D01*
X164905636Y-102268189D01*
X164752062Y-102362669D01*
X164747030Y-102367596D01*
X164747027Y-102367599D01*
X164628269Y-102483896D01*
X164623237Y-102488824D01*
X164525562Y-102640386D01*
X164523151Y-102647009D01*
X164523150Y-102647012D01*
X164466303Y-102803198D01*
X164466302Y-102803203D01*
X164463893Y-102809821D01*
X164441294Y-102988708D01*
X163557518Y-102988708D01*
X163538686Y-102820815D01*
X163505516Y-102725562D01*
X163481704Y-102657183D01*
X163481703Y-102657181D01*
X163479389Y-102650536D01*
X163383840Y-102497625D01*
X163370207Y-102483896D01*
X163261751Y-102374680D01*
X163261747Y-102374677D01*
X163256788Y-102369683D01*
X163104548Y-102273069D01*
X163050144Y-102253697D01*
X162941321Y-102214946D01*
X162941319Y-102214945D01*
X162934687Y-102212584D01*
X162927701Y-102211751D01*
X162927697Y-102211750D01*
X162796253Y-102196077D01*
X162755646Y-102191235D01*
X162748643Y-102191971D01*
X162748642Y-102191971D01*
X162583333Y-102209345D01*
X162583329Y-102209346D01*
X162576325Y-102210082D01*
X162405636Y-102268189D01*
X162252062Y-102362669D01*
X162247030Y-102367596D01*
X162247027Y-102367599D01*
X162128269Y-102483896D01*
X162123237Y-102488824D01*
X162025562Y-102640386D01*
X162023151Y-102647009D01*
X162023150Y-102647012D01*
X161966303Y-102803198D01*
X161966302Y-102803203D01*
X161963893Y-102809821D01*
X161941294Y-102988708D01*
X155156715Y-102988708D01*
X155238547Y-102882063D01*
X155294904Y-102746007D01*
X155298600Y-102717937D01*
X155313048Y-102608188D01*
X155314126Y-102600000D01*
X155311067Y-102576768D01*
X155295982Y-102462179D01*
X155295981Y-102462177D01*
X155294904Y-102453993D01*
X155238547Y-102317937D01*
X155148897Y-102201103D01*
X155032063Y-102111453D01*
X154896007Y-102055096D01*
X154887823Y-102054019D01*
X154887821Y-102054018D01*
X154758188Y-102036952D01*
X154750000Y-102035874D01*
X154741812Y-102036952D01*
X154612179Y-102054018D01*
X154612177Y-102054019D01*
X154603993Y-102055096D01*
X154467937Y-102111453D01*
X154351103Y-102201103D01*
X154261453Y-102317937D01*
X154205096Y-102453993D01*
X154204019Y-102462177D01*
X154204018Y-102462179D01*
X154188933Y-102576768D01*
X154185874Y-102600000D01*
X130897460Y-102600000D01*
X130782063Y-102511453D01*
X130646007Y-102455096D01*
X130637823Y-102454019D01*
X130637821Y-102454018D01*
X130508188Y-102436952D01*
X130500000Y-102435874D01*
X130491812Y-102436952D01*
X130362179Y-102454018D01*
X130362177Y-102454019D01*
X130353993Y-102455096D01*
X130217937Y-102511453D01*
X130101103Y-102601103D01*
X130011453Y-102717937D01*
X129955096Y-102853993D01*
X129954019Y-102862177D01*
X129954018Y-102862179D01*
X129950538Y-102888613D01*
X129935874Y-103000000D01*
X129064126Y-103000000D01*
X129049462Y-102888613D01*
X129045982Y-102862179D01*
X129045981Y-102862177D01*
X129044904Y-102853993D01*
X128988547Y-102717937D01*
X128898897Y-102601103D01*
X128782063Y-102511453D01*
X128646007Y-102455096D01*
X128637823Y-102454019D01*
X128637821Y-102454018D01*
X128508188Y-102436952D01*
X128500000Y-102435874D01*
X128491812Y-102436952D01*
X128362179Y-102454018D01*
X128362177Y-102454019D01*
X128353993Y-102455096D01*
X128217937Y-102511453D01*
X128101103Y-102601103D01*
X128011453Y-102717937D01*
X127955096Y-102853993D01*
X127954019Y-102862177D01*
X127954018Y-102862179D01*
X127950538Y-102888613D01*
X127935874Y-103000000D01*
X127064126Y-103000000D01*
X127049462Y-102888613D01*
X127045982Y-102862179D01*
X127045981Y-102862177D01*
X127044904Y-102853993D01*
X126988547Y-102717937D01*
X126898897Y-102601103D01*
X126782063Y-102511453D01*
X126646007Y-102455096D01*
X126637823Y-102454019D01*
X126637821Y-102454018D01*
X126508188Y-102436952D01*
X126500000Y-102435874D01*
X126491812Y-102436952D01*
X126362179Y-102454018D01*
X126362177Y-102454019D01*
X126353993Y-102455096D01*
X126217937Y-102511453D01*
X126101103Y-102601103D01*
X126011453Y-102717937D01*
X125955096Y-102853993D01*
X125954019Y-102862177D01*
X125954018Y-102862179D01*
X125950538Y-102888613D01*
X125935874Y-103000000D01*
X124664126Y-103000000D01*
X124649462Y-102888613D01*
X124645982Y-102862179D01*
X124645981Y-102862177D01*
X124644904Y-102853993D01*
X124588547Y-102717937D01*
X124498897Y-102601103D01*
X124382063Y-102511453D01*
X124246007Y-102455096D01*
X124237823Y-102454019D01*
X124237821Y-102454018D01*
X124108188Y-102436952D01*
X124100000Y-102435874D01*
X124091812Y-102436952D01*
X123962179Y-102454018D01*
X123962177Y-102454019D01*
X123953993Y-102455096D01*
X123946365Y-102458256D01*
X123946364Y-102458256D01*
X123877418Y-102486814D01*
X123806828Y-102494403D01*
X123743341Y-102462624D01*
X123707114Y-102401566D01*
X123703200Y-102370405D01*
X123703200Y-101629595D01*
X123723202Y-101561474D01*
X123776858Y-101514981D01*
X123847132Y-101504877D01*
X123877418Y-101513186D01*
X123935819Y-101537376D01*
X123953993Y-101544904D01*
X123962177Y-101545981D01*
X123962179Y-101545982D01*
X124091812Y-101563048D01*
X124100000Y-101564126D01*
X124108188Y-101563048D01*
X124237821Y-101545982D01*
X124237823Y-101545981D01*
X124246007Y-101544904D01*
X124382063Y-101488547D01*
X124498897Y-101398897D01*
X124588547Y-101282063D01*
X124644904Y-101146007D01*
X124664126Y-101000000D01*
X124644904Y-100853993D01*
X124588547Y-100717937D01*
X124498897Y-100601103D01*
X124382063Y-100511453D01*
X124246007Y-100455096D01*
X124237823Y-100454019D01*
X124237821Y-100454018D01*
X124108188Y-100436952D01*
X124100000Y-100435874D01*
X124091812Y-100436952D01*
X123962179Y-100454018D01*
X123962177Y-100454019D01*
X123953993Y-100455096D01*
X123946365Y-100458256D01*
X123946364Y-100458256D01*
X123877418Y-100486814D01*
X123806828Y-100494403D01*
X123743341Y-100462624D01*
X123707114Y-100401566D01*
X123703200Y-100370405D01*
X123703200Y-100000000D01*
X142935874Y-100000000D01*
X142955096Y-100146007D01*
X143011453Y-100282063D01*
X143101103Y-100398897D01*
X143217937Y-100488547D01*
X143353993Y-100544904D01*
X143362177Y-100545981D01*
X143362179Y-100545982D01*
X143491812Y-100563048D01*
X143500000Y-100564126D01*
X143508188Y-100563048D01*
X143637821Y-100545982D01*
X143637823Y-100545981D01*
X143646007Y-100544904D01*
X143782063Y-100488547D01*
X143898897Y-100398897D01*
X143988547Y-100282063D01*
X144044904Y-100146007D01*
X144064126Y-100000000D01*
X144050435Y-99896007D01*
X144045982Y-99862179D01*
X144045981Y-99862177D01*
X144044904Y-99853993D01*
X143988547Y-99717937D01*
X143898897Y-99601103D01*
X143782063Y-99511453D01*
X143646007Y-99455096D01*
X143637823Y-99454019D01*
X143637821Y-99454018D01*
X143508188Y-99436952D01*
X143500000Y-99435874D01*
X143491812Y-99436952D01*
X143362179Y-99454018D01*
X143362177Y-99454019D01*
X143353993Y-99455096D01*
X143217937Y-99511453D01*
X143101103Y-99601103D01*
X143011453Y-99717937D01*
X142955096Y-99853993D01*
X142954019Y-99862177D01*
X142954018Y-99862179D01*
X142949565Y-99896007D01*
X142935874Y-100000000D01*
X123703200Y-100000000D01*
X123703200Y-99629595D01*
X123723202Y-99561474D01*
X123776858Y-99514981D01*
X123847132Y-99504877D01*
X123877418Y-99513186D01*
X123935819Y-99537376D01*
X123953993Y-99544904D01*
X123962177Y-99545981D01*
X123962179Y-99545982D01*
X124091812Y-99563048D01*
X124100000Y-99564126D01*
X124108188Y-99563048D01*
X124237821Y-99545982D01*
X124237823Y-99545981D01*
X124246007Y-99544904D01*
X124382063Y-99488547D01*
X124498897Y-99398897D01*
X124588547Y-99282063D01*
X124644904Y-99146007D01*
X124649358Y-99112179D01*
X124663048Y-99008188D01*
X124664126Y-99000000D01*
X124650435Y-98896007D01*
X124645982Y-98862179D01*
X124645981Y-98862177D01*
X124644904Y-98853993D01*
X124601828Y-98750000D01*
X129535874Y-98750000D01*
X129536952Y-98758188D01*
X129550643Y-98862179D01*
X129555096Y-98896007D01*
X129611453Y-99032063D01*
X129701103Y-99148897D01*
X129817937Y-99238547D01*
X129953993Y-99294904D01*
X129962177Y-99295981D01*
X129962179Y-99295982D01*
X130091812Y-99313048D01*
X130100000Y-99314126D01*
X130108188Y-99313048D01*
X130237821Y-99295982D01*
X130237823Y-99295981D01*
X130246007Y-99294904D01*
X130354413Y-99250000D01*
X159535874Y-99250000D01*
X159536952Y-99258188D01*
X159550047Y-99357653D01*
X159555096Y-99396007D01*
X159611453Y-99532063D01*
X159701103Y-99648897D01*
X159817937Y-99738547D01*
X159953993Y-99794904D01*
X159962177Y-99795981D01*
X159962179Y-99795982D01*
X160091812Y-99813048D01*
X160100000Y-99814126D01*
X160108188Y-99813048D01*
X160237821Y-99795982D01*
X160237823Y-99795981D01*
X160246007Y-99794904D01*
X160354413Y-99750000D01*
X165535874Y-99750000D01*
X165536952Y-99758188D01*
X165550643Y-99862179D01*
X165555096Y-99896007D01*
X165611453Y-100032063D01*
X165701103Y-100148897D01*
X165817937Y-100238547D01*
X165953993Y-100294904D01*
X165962177Y-100295981D01*
X165962179Y-100295982D01*
X166091812Y-100313048D01*
X166100000Y-100314126D01*
X166108188Y-100313048D01*
X166237821Y-100295982D01*
X166237823Y-100295981D01*
X166246007Y-100294904D01*
X166382063Y-100238547D01*
X166498897Y-100148897D01*
X166588547Y-100032063D01*
X166644904Y-99896007D01*
X166649358Y-99862179D01*
X166663048Y-99758188D01*
X166664126Y-99750000D01*
X166659043Y-99711387D01*
X166645982Y-99612179D01*
X166645981Y-99612177D01*
X166644904Y-99603993D01*
X166588547Y-99467937D01*
X166498897Y-99351103D01*
X166382063Y-99261453D01*
X166246007Y-99205096D01*
X166237823Y-99204019D01*
X166237821Y-99204018D01*
X166108188Y-99186952D01*
X166100000Y-99185874D01*
X166091812Y-99186952D01*
X165962179Y-99204018D01*
X165962177Y-99204019D01*
X165953993Y-99205096D01*
X165817937Y-99261453D01*
X165701103Y-99351103D01*
X165611453Y-99467937D01*
X165555096Y-99603993D01*
X165554019Y-99612177D01*
X165554018Y-99612179D01*
X165540957Y-99711387D01*
X165535874Y-99750000D01*
X160354413Y-99750000D01*
X160382063Y-99738547D01*
X160498897Y-99648897D01*
X160588547Y-99532063D01*
X160644904Y-99396007D01*
X160649954Y-99357653D01*
X160663048Y-99258188D01*
X160664126Y-99250000D01*
X160655684Y-99185874D01*
X160645982Y-99112179D01*
X160645981Y-99112177D01*
X160644904Y-99103993D01*
X160588547Y-98967937D01*
X160498897Y-98851103D01*
X160382063Y-98761453D01*
X160246007Y-98705096D01*
X160237823Y-98704019D01*
X160237821Y-98704018D01*
X160108188Y-98686952D01*
X160100000Y-98685874D01*
X160091812Y-98686952D01*
X159962179Y-98704018D01*
X159962177Y-98704019D01*
X159953993Y-98705096D01*
X159817937Y-98761453D01*
X159701103Y-98851103D01*
X159611453Y-98967937D01*
X159555096Y-99103993D01*
X159554019Y-99112177D01*
X159554018Y-99112179D01*
X159544316Y-99185874D01*
X159535874Y-99250000D01*
X130354413Y-99250000D01*
X130382063Y-99238547D01*
X130498897Y-99148897D01*
X130588547Y-99032063D01*
X130644904Y-98896007D01*
X130649358Y-98862179D01*
X130663048Y-98758188D01*
X130664126Y-98750000D01*
X130655684Y-98685874D01*
X130645982Y-98612179D01*
X130645981Y-98612177D01*
X130644904Y-98603993D01*
X130588547Y-98467937D01*
X130498897Y-98351103D01*
X130382063Y-98261453D01*
X130354413Y-98250000D01*
X144835874Y-98250000D01*
X144836952Y-98258188D01*
X144850047Y-98357653D01*
X144855096Y-98396007D01*
X144911453Y-98532063D01*
X145001103Y-98648897D01*
X145117937Y-98738547D01*
X145253993Y-98794904D01*
X145262177Y-98795981D01*
X145262179Y-98795982D01*
X145391812Y-98813048D01*
X145400000Y-98814126D01*
X145408188Y-98813048D01*
X145537821Y-98795982D01*
X145537823Y-98795981D01*
X145546007Y-98794904D01*
X145682063Y-98738547D01*
X145798897Y-98648897D01*
X145888547Y-98532063D01*
X145944904Y-98396007D01*
X145949954Y-98357653D01*
X145963048Y-98258188D01*
X145964126Y-98250000D01*
X150335874Y-98250000D01*
X150336952Y-98258188D01*
X150350047Y-98357653D01*
X150355096Y-98396007D01*
X150411453Y-98532063D01*
X150501103Y-98648897D01*
X150617937Y-98738547D01*
X150753993Y-98794904D01*
X150762177Y-98795981D01*
X150762179Y-98795982D01*
X150891812Y-98813048D01*
X150900000Y-98814126D01*
X150908188Y-98813048D01*
X151037821Y-98795982D01*
X151037823Y-98795981D01*
X151046007Y-98794904D01*
X151182063Y-98738547D01*
X151298897Y-98648897D01*
X151388547Y-98532063D01*
X151444904Y-98396007D01*
X151449954Y-98357653D01*
X151463048Y-98258188D01*
X151464126Y-98250000D01*
X151444904Y-98103993D01*
X151388547Y-97967937D01*
X151298897Y-97851103D01*
X151182063Y-97761453D01*
X151046007Y-97705096D01*
X151037823Y-97704019D01*
X151037821Y-97704018D01*
X150908188Y-97686952D01*
X150900000Y-97685874D01*
X150891812Y-97686952D01*
X150762179Y-97704018D01*
X150762177Y-97704019D01*
X150753993Y-97705096D01*
X150617937Y-97761453D01*
X150501103Y-97851103D01*
X150411453Y-97967937D01*
X150355096Y-98103993D01*
X150335874Y-98250000D01*
X145964126Y-98250000D01*
X145944904Y-98103993D01*
X145888547Y-97967937D01*
X145798897Y-97851103D01*
X145682063Y-97761453D01*
X145546007Y-97705096D01*
X145537823Y-97704019D01*
X145537821Y-97704018D01*
X145408188Y-97686952D01*
X145400000Y-97685874D01*
X145391812Y-97686952D01*
X145262179Y-97704018D01*
X145262177Y-97704019D01*
X145253993Y-97705096D01*
X145117937Y-97761453D01*
X145001103Y-97851103D01*
X144911453Y-97967937D01*
X144855096Y-98103993D01*
X144835874Y-98250000D01*
X130354413Y-98250000D01*
X130246007Y-98205096D01*
X130237823Y-98204019D01*
X130237821Y-98204018D01*
X130108188Y-98186952D01*
X130100000Y-98185874D01*
X130091812Y-98186952D01*
X129962179Y-98204018D01*
X129962177Y-98204019D01*
X129953993Y-98205096D01*
X129817937Y-98261453D01*
X129701103Y-98351103D01*
X129611453Y-98467937D01*
X129555096Y-98603993D01*
X129554019Y-98612177D01*
X129554018Y-98612179D01*
X129544316Y-98685874D01*
X129535874Y-98750000D01*
X124601828Y-98750000D01*
X124588547Y-98717937D01*
X124498897Y-98601103D01*
X124382063Y-98511453D01*
X124246007Y-98455096D01*
X124237823Y-98454019D01*
X124237821Y-98454018D01*
X124108188Y-98436952D01*
X124100000Y-98435874D01*
X124091812Y-98436952D01*
X123962179Y-98454018D01*
X123962177Y-98454019D01*
X123953993Y-98455096D01*
X123946365Y-98458256D01*
X123946364Y-98458256D01*
X123877418Y-98486814D01*
X123806828Y-98494403D01*
X123743341Y-98462624D01*
X123707114Y-98401566D01*
X123703200Y-98370405D01*
X123703200Y-97629595D01*
X123723202Y-97561474D01*
X123776858Y-97514981D01*
X123847132Y-97504877D01*
X123877418Y-97513186D01*
X123935819Y-97537376D01*
X123953993Y-97544904D01*
X123962177Y-97545981D01*
X123962179Y-97545982D01*
X124091812Y-97563048D01*
X124100000Y-97564126D01*
X124108188Y-97563048D01*
X124237821Y-97545982D01*
X124237823Y-97545981D01*
X124246007Y-97544904D01*
X124382063Y-97488547D01*
X124498897Y-97398897D01*
X124588547Y-97282063D01*
X124643250Y-97150000D01*
X126935874Y-97150000D01*
X126936952Y-97158188D01*
X126946870Y-97233521D01*
X126955096Y-97296007D01*
X127011453Y-97432063D01*
X127101103Y-97548897D01*
X127217937Y-97638547D01*
X127353993Y-97694904D01*
X127362177Y-97695981D01*
X127362179Y-97695982D01*
X127491812Y-97713048D01*
X127500000Y-97714126D01*
X127508188Y-97713048D01*
X127637821Y-97695982D01*
X127637823Y-97695981D01*
X127646007Y-97694904D01*
X127782063Y-97638547D01*
X127898897Y-97548897D01*
X127988547Y-97432063D01*
X128044904Y-97296007D01*
X128053131Y-97233521D01*
X128063048Y-97158188D01*
X128064126Y-97150000D01*
X128935874Y-97150000D01*
X128936952Y-97158188D01*
X128946870Y-97233521D01*
X128955096Y-97296007D01*
X129011453Y-97432063D01*
X129101103Y-97548897D01*
X129217937Y-97638547D01*
X129353993Y-97694904D01*
X129362177Y-97695981D01*
X129362179Y-97695982D01*
X129491812Y-97713048D01*
X129500000Y-97714126D01*
X129508188Y-97713048D01*
X129637821Y-97695982D01*
X129637823Y-97695981D01*
X129646007Y-97694904D01*
X129782063Y-97638547D01*
X129898897Y-97548897D01*
X129936417Y-97500000D01*
X142935874Y-97500000D01*
X142955096Y-97646007D01*
X143011453Y-97782063D01*
X143101103Y-97898897D01*
X143217937Y-97988547D01*
X143353993Y-98044904D01*
X143362177Y-98045981D01*
X143362179Y-98045982D01*
X143491812Y-98063048D01*
X143500000Y-98064126D01*
X143508188Y-98063048D01*
X143637821Y-98045982D01*
X143637823Y-98045981D01*
X143646007Y-98044904D01*
X143782063Y-97988547D01*
X143898897Y-97898897D01*
X143988547Y-97782063D01*
X144044904Y-97646007D01*
X144064126Y-97500000D01*
X144054178Y-97424438D01*
X144045982Y-97362179D01*
X144045981Y-97362177D01*
X144044904Y-97353993D01*
X143988547Y-97217937D01*
X143898897Y-97101103D01*
X143782063Y-97011453D01*
X143646007Y-96955096D01*
X143637823Y-96954019D01*
X143637821Y-96954018D01*
X143508188Y-96936952D01*
X143500000Y-96935874D01*
X143491812Y-96936952D01*
X143362179Y-96954018D01*
X143362177Y-96954019D01*
X143353993Y-96955096D01*
X143217937Y-97011453D01*
X143101103Y-97101103D01*
X143011453Y-97217937D01*
X142955096Y-97353993D01*
X142954019Y-97362177D01*
X142954018Y-97362179D01*
X142945822Y-97424438D01*
X142935874Y-97500000D01*
X129936417Y-97500000D01*
X129988547Y-97432063D01*
X130044904Y-97296007D01*
X130053131Y-97233521D01*
X130063048Y-97158188D01*
X130064126Y-97150000D01*
X130049462Y-97038613D01*
X130045982Y-97012179D01*
X130045981Y-97012177D01*
X130044904Y-97003993D01*
X129988547Y-96867937D01*
X129898897Y-96751103D01*
X129897460Y-96750000D01*
X144835874Y-96750000D01*
X144836952Y-96758188D01*
X144851401Y-96867937D01*
X144855096Y-96896007D01*
X144911453Y-97032063D01*
X145001103Y-97148897D01*
X145117937Y-97238547D01*
X145253993Y-97294904D01*
X145262177Y-97295981D01*
X145262179Y-97295982D01*
X145391812Y-97313048D01*
X145400000Y-97314126D01*
X145408188Y-97313048D01*
X145537821Y-97295982D01*
X145537823Y-97295981D01*
X145546007Y-97294904D01*
X145682063Y-97238547D01*
X145798897Y-97148897D01*
X145888547Y-97032063D01*
X145944904Y-96896007D01*
X145948600Y-96867937D01*
X145963048Y-96758188D01*
X145964126Y-96750000D01*
X150335874Y-96750000D01*
X150336952Y-96758188D01*
X150351401Y-96867937D01*
X150355096Y-96896007D01*
X150411453Y-97032063D01*
X150501103Y-97148897D01*
X150617937Y-97238547D01*
X150753993Y-97294904D01*
X150762177Y-97295981D01*
X150762179Y-97295982D01*
X150891812Y-97313048D01*
X150900000Y-97314126D01*
X150908188Y-97313048D01*
X151037821Y-97295982D01*
X151037823Y-97295981D01*
X151046007Y-97294904D01*
X151182063Y-97238547D01*
X151298897Y-97148897D01*
X151388547Y-97032063D01*
X151444904Y-96896007D01*
X151448600Y-96867937D01*
X151463048Y-96758188D01*
X151464126Y-96750000D01*
X151459043Y-96711387D01*
X151445982Y-96612179D01*
X151445981Y-96612177D01*
X151444904Y-96603993D01*
X151388547Y-96467937D01*
X151298897Y-96351103D01*
X151182063Y-96261453D01*
X151046007Y-96205096D01*
X151037823Y-96204019D01*
X151037821Y-96204018D01*
X150908188Y-96186952D01*
X150900000Y-96185874D01*
X150891812Y-96186952D01*
X150762179Y-96204018D01*
X150762177Y-96204019D01*
X150753993Y-96205096D01*
X150617937Y-96261453D01*
X150501103Y-96351103D01*
X150411453Y-96467937D01*
X150355096Y-96603993D01*
X150354019Y-96612177D01*
X150354018Y-96612179D01*
X150340957Y-96711387D01*
X150335874Y-96750000D01*
X145964126Y-96750000D01*
X145959043Y-96711387D01*
X145945982Y-96612179D01*
X145945981Y-96612177D01*
X145944904Y-96603993D01*
X145888547Y-96467937D01*
X145798897Y-96351103D01*
X145682063Y-96261453D01*
X145546007Y-96205096D01*
X145537823Y-96204019D01*
X145537821Y-96204018D01*
X145408188Y-96186952D01*
X145400000Y-96185874D01*
X145391812Y-96186952D01*
X145262179Y-96204018D01*
X145262177Y-96204019D01*
X145253993Y-96205096D01*
X145117937Y-96261453D01*
X145001103Y-96351103D01*
X144911453Y-96467937D01*
X144855096Y-96603993D01*
X144854019Y-96612177D01*
X144854018Y-96612179D01*
X144840957Y-96711387D01*
X144835874Y-96750000D01*
X129897460Y-96750000D01*
X129782063Y-96661453D01*
X129646007Y-96605096D01*
X129637823Y-96604019D01*
X129637821Y-96604018D01*
X129508188Y-96586952D01*
X129500000Y-96585874D01*
X129491812Y-96586952D01*
X129362179Y-96604018D01*
X129362177Y-96604019D01*
X129353993Y-96605096D01*
X129217937Y-96661453D01*
X129101103Y-96751103D01*
X129011453Y-96867937D01*
X128955096Y-97003993D01*
X128954019Y-97012177D01*
X128954018Y-97012179D01*
X128950538Y-97038613D01*
X128935874Y-97150000D01*
X128064126Y-97150000D01*
X128049462Y-97038613D01*
X128045982Y-97012179D01*
X128045981Y-97012177D01*
X128044904Y-97003993D01*
X127988547Y-96867937D01*
X127898897Y-96751103D01*
X127782063Y-96661453D01*
X127646007Y-96605096D01*
X127637823Y-96604019D01*
X127637821Y-96604018D01*
X127508188Y-96586952D01*
X127500000Y-96585874D01*
X127491812Y-96586952D01*
X127362179Y-96604018D01*
X127362177Y-96604019D01*
X127353993Y-96605096D01*
X127217937Y-96661453D01*
X127101103Y-96751103D01*
X127011453Y-96867937D01*
X126955096Y-97003993D01*
X126954019Y-97012177D01*
X126954018Y-97012179D01*
X126950538Y-97038613D01*
X126935874Y-97150000D01*
X124643250Y-97150000D01*
X124644904Y-97146007D01*
X124649954Y-97107653D01*
X124663048Y-97008188D01*
X124664126Y-97000000D01*
X124650435Y-96896007D01*
X124645982Y-96862179D01*
X124645981Y-96862177D01*
X124644904Y-96853993D01*
X124588547Y-96717937D01*
X124498897Y-96601103D01*
X124382063Y-96511453D01*
X124246007Y-96455096D01*
X124237823Y-96454019D01*
X124237821Y-96454018D01*
X124108188Y-96436952D01*
X124100000Y-96435874D01*
X124091812Y-96436952D01*
X123962179Y-96454018D01*
X123962177Y-96454019D01*
X123953993Y-96455096D01*
X123946365Y-96458256D01*
X123946364Y-96458256D01*
X123877418Y-96486814D01*
X123806828Y-96494403D01*
X123743341Y-96462624D01*
X123707114Y-96401566D01*
X123703200Y-96370405D01*
X123703200Y-95629595D01*
X123723202Y-95561474D01*
X123776858Y-95514981D01*
X123847132Y-95504877D01*
X123877418Y-95513186D01*
X123935819Y-95537376D01*
X123953993Y-95544904D01*
X123962177Y-95545981D01*
X123962179Y-95545982D01*
X124091812Y-95563048D01*
X124100000Y-95564126D01*
X124108188Y-95563048D01*
X124237821Y-95545982D01*
X124237823Y-95545981D01*
X124246007Y-95544904D01*
X124382063Y-95488547D01*
X124498897Y-95398897D01*
X124588547Y-95282063D01*
X124644904Y-95146007D01*
X124664126Y-95000000D01*
X142935874Y-95000000D01*
X142955096Y-95146007D01*
X143011453Y-95282063D01*
X143101103Y-95398897D01*
X143217937Y-95488547D01*
X143353993Y-95544904D01*
X143362177Y-95545981D01*
X143362179Y-95545982D01*
X143491812Y-95563048D01*
X143500000Y-95564126D01*
X143508188Y-95563048D01*
X143637821Y-95545982D01*
X143637823Y-95545981D01*
X143646007Y-95544904D01*
X143782063Y-95488547D01*
X143898897Y-95398897D01*
X143988547Y-95282063D01*
X144044904Y-95146007D01*
X144064126Y-95000000D01*
X144835874Y-95000000D01*
X144855096Y-95146007D01*
X144911453Y-95282063D01*
X145001103Y-95398897D01*
X145117937Y-95488547D01*
X145253993Y-95544904D01*
X145262177Y-95545981D01*
X145262179Y-95545982D01*
X145391812Y-95563048D01*
X145400000Y-95564126D01*
X145408188Y-95563048D01*
X145537821Y-95545982D01*
X145537823Y-95545981D01*
X145546007Y-95544904D01*
X145682063Y-95488547D01*
X145798897Y-95398897D01*
X145888547Y-95282063D01*
X145944904Y-95146007D01*
X145964126Y-95000000D01*
X145944904Y-94853993D01*
X145888547Y-94717937D01*
X145798897Y-94601103D01*
X145682063Y-94511453D01*
X145546007Y-94455096D01*
X145537823Y-94454019D01*
X145537821Y-94454018D01*
X145408188Y-94436952D01*
X145400000Y-94435874D01*
X145391812Y-94436952D01*
X145262179Y-94454018D01*
X145262177Y-94454019D01*
X145253993Y-94455096D01*
X145117937Y-94511453D01*
X145001103Y-94601103D01*
X144911453Y-94717937D01*
X144855096Y-94853993D01*
X144835874Y-95000000D01*
X144064126Y-95000000D01*
X144044904Y-94853993D01*
X143988547Y-94717937D01*
X143898897Y-94601103D01*
X143782063Y-94511453D01*
X143646007Y-94455096D01*
X143637823Y-94454019D01*
X143637821Y-94454018D01*
X143508188Y-94436952D01*
X143500000Y-94435874D01*
X143491812Y-94436952D01*
X143362179Y-94454018D01*
X143362177Y-94454019D01*
X143353993Y-94455096D01*
X143217937Y-94511453D01*
X143101103Y-94601103D01*
X143011453Y-94717937D01*
X142955096Y-94853993D01*
X142935874Y-95000000D01*
X124664126Y-95000000D01*
X124644904Y-94853993D01*
X124588547Y-94717937D01*
X124498897Y-94601103D01*
X124382063Y-94511453D01*
X124246007Y-94455096D01*
X124237823Y-94454019D01*
X124237821Y-94454018D01*
X124108188Y-94436952D01*
X124100000Y-94435874D01*
X124091812Y-94436952D01*
X123962179Y-94454018D01*
X123962177Y-94454019D01*
X123953993Y-94455096D01*
X123946365Y-94458256D01*
X123946364Y-94458256D01*
X123877418Y-94486814D01*
X123806828Y-94494403D01*
X123743341Y-94462624D01*
X123707114Y-94401566D01*
X123703200Y-94370405D01*
X123703200Y-93629595D01*
X123723202Y-93561474D01*
X123776858Y-93514981D01*
X123847132Y-93504877D01*
X123877418Y-93513186D01*
X123935819Y-93537376D01*
X123953993Y-93544904D01*
X123962177Y-93545981D01*
X123962179Y-93545982D01*
X124091812Y-93563048D01*
X124100000Y-93564126D01*
X124108188Y-93563048D01*
X124237821Y-93545982D01*
X124237823Y-93545981D01*
X124246007Y-93544904D01*
X124382063Y-93488547D01*
X124498897Y-93398897D01*
X124588547Y-93282063D01*
X124601828Y-93250000D01*
X130435874Y-93250000D01*
X130455096Y-93396007D01*
X130511453Y-93532063D01*
X130601103Y-93648897D01*
X130717937Y-93738547D01*
X130853993Y-93794904D01*
X130862177Y-93795981D01*
X130862179Y-93795982D01*
X130991812Y-93813048D01*
X131000000Y-93814126D01*
X131008188Y-93813048D01*
X131137821Y-93795982D01*
X131137823Y-93795981D01*
X131146007Y-93794904D01*
X131282063Y-93738547D01*
X131398897Y-93648897D01*
X131488547Y-93532063D01*
X131544904Y-93396007D01*
X131564126Y-93250000D01*
X148185874Y-93250000D01*
X148205096Y-93396007D01*
X148261453Y-93532063D01*
X148351103Y-93648897D01*
X148467937Y-93738547D01*
X148603993Y-93794904D01*
X148612177Y-93795981D01*
X148612179Y-93795982D01*
X148741812Y-93813048D01*
X148750000Y-93814126D01*
X148758188Y-93813048D01*
X148887821Y-93795982D01*
X148887823Y-93795981D01*
X148896007Y-93794904D01*
X149032063Y-93738547D01*
X149148897Y-93648897D01*
X149238547Y-93532063D01*
X149293250Y-93400000D01*
X151685874Y-93400000D01*
X151686952Y-93408188D01*
X151703960Y-93537376D01*
X151705096Y-93546007D01*
X151761453Y-93682063D01*
X151851103Y-93798897D01*
X151967937Y-93888547D01*
X152103993Y-93944904D01*
X152112177Y-93945981D01*
X152112179Y-93945982D01*
X152241812Y-93963048D01*
X152250000Y-93964126D01*
X152258188Y-93963048D01*
X152387821Y-93945982D01*
X152387823Y-93945981D01*
X152396007Y-93944904D01*
X152532063Y-93888547D01*
X152648897Y-93798897D01*
X152738547Y-93682063D01*
X152794904Y-93546007D01*
X152796041Y-93537376D01*
X152813048Y-93408188D01*
X152814126Y-93400000D01*
X158685874Y-93400000D01*
X158686952Y-93408188D01*
X158703960Y-93537376D01*
X158705096Y-93546007D01*
X158761453Y-93682063D01*
X158851103Y-93798897D01*
X158967937Y-93888547D01*
X159103993Y-93944904D01*
X159112177Y-93945981D01*
X159112179Y-93945982D01*
X159241812Y-93963048D01*
X159250000Y-93964126D01*
X159258188Y-93963048D01*
X159387821Y-93945982D01*
X159387823Y-93945981D01*
X159396007Y-93944904D01*
X159532063Y-93888547D01*
X159648897Y-93798897D01*
X159738547Y-93682063D01*
X159794904Y-93546007D01*
X159796041Y-93537376D01*
X159813048Y-93408188D01*
X159814126Y-93400000D01*
X159799462Y-93288613D01*
X159795982Y-93262179D01*
X159795981Y-93262177D01*
X159794904Y-93253993D01*
X159738547Y-93117937D01*
X159648897Y-93001103D01*
X159532063Y-92911453D01*
X159396007Y-92855096D01*
X159387823Y-92854019D01*
X159387821Y-92854018D01*
X159258188Y-92836952D01*
X159250000Y-92835874D01*
X159241812Y-92836952D01*
X159112179Y-92854018D01*
X159112177Y-92854019D01*
X159103993Y-92855096D01*
X158967937Y-92911453D01*
X158851103Y-93001103D01*
X158761453Y-93117937D01*
X158705096Y-93253993D01*
X158704019Y-93262177D01*
X158704018Y-93262179D01*
X158700538Y-93288613D01*
X158685874Y-93400000D01*
X152814126Y-93400000D01*
X152799462Y-93288613D01*
X152795982Y-93262179D01*
X152795981Y-93262177D01*
X152794904Y-93253993D01*
X152738547Y-93117937D01*
X152648897Y-93001103D01*
X152532063Y-92911453D01*
X152396007Y-92855096D01*
X152387823Y-92854019D01*
X152387821Y-92854018D01*
X152258188Y-92836952D01*
X152250000Y-92835874D01*
X152241812Y-92836952D01*
X152112179Y-92854018D01*
X152112177Y-92854019D01*
X152103993Y-92855096D01*
X151967937Y-92911453D01*
X151851103Y-93001103D01*
X151761453Y-93117937D01*
X151705096Y-93253993D01*
X151704019Y-93262177D01*
X151704018Y-93262179D01*
X151700538Y-93288613D01*
X151685874Y-93400000D01*
X149293250Y-93400000D01*
X149294904Y-93396007D01*
X149314126Y-93250000D01*
X149300435Y-93146007D01*
X149295982Y-93112179D01*
X149295981Y-93112177D01*
X149294904Y-93103993D01*
X149238547Y-92967937D01*
X149148897Y-92851103D01*
X149032063Y-92761453D01*
X148896007Y-92705096D01*
X148887823Y-92704019D01*
X148887821Y-92704018D01*
X148758188Y-92686952D01*
X148750000Y-92685874D01*
X148741812Y-92686952D01*
X148612179Y-92704018D01*
X148612177Y-92704019D01*
X148603993Y-92705096D01*
X148467937Y-92761453D01*
X148351103Y-92851103D01*
X148261453Y-92967937D01*
X148205096Y-93103993D01*
X148204019Y-93112177D01*
X148204018Y-93112179D01*
X148199565Y-93146007D01*
X148185874Y-93250000D01*
X131564126Y-93250000D01*
X131550435Y-93146007D01*
X131545982Y-93112179D01*
X131545981Y-93112177D01*
X131544904Y-93103993D01*
X131488547Y-92967937D01*
X131398897Y-92851103D01*
X131282063Y-92761453D01*
X131146007Y-92705096D01*
X131137823Y-92704019D01*
X131137821Y-92704018D01*
X131008188Y-92686952D01*
X131000000Y-92685874D01*
X130991812Y-92686952D01*
X130862179Y-92704018D01*
X130862177Y-92704019D01*
X130853993Y-92705096D01*
X130717937Y-92761453D01*
X130601103Y-92851103D01*
X130511453Y-92967937D01*
X130455096Y-93103993D01*
X130454019Y-93112177D01*
X130454018Y-93112179D01*
X130449565Y-93146007D01*
X130435874Y-93250000D01*
X124601828Y-93250000D01*
X124644904Y-93146007D01*
X124648600Y-93117937D01*
X124663048Y-93008188D01*
X124664126Y-93000000D01*
X124659043Y-92961387D01*
X124645982Y-92862179D01*
X124645981Y-92862177D01*
X124644904Y-92853993D01*
X124588547Y-92717937D01*
X124498897Y-92601103D01*
X124382063Y-92511453D01*
X124354413Y-92500000D01*
X142935874Y-92500000D01*
X142936952Y-92508188D01*
X142950047Y-92607653D01*
X142955096Y-92646007D01*
X143011453Y-92782063D01*
X143101103Y-92898897D01*
X143217937Y-92988547D01*
X143353993Y-93044904D01*
X143362177Y-93045981D01*
X143362179Y-93045982D01*
X143491812Y-93063048D01*
X143500000Y-93064126D01*
X143508188Y-93063048D01*
X143637821Y-93045982D01*
X143637823Y-93045981D01*
X143646007Y-93044904D01*
X143782063Y-92988547D01*
X143898897Y-92898897D01*
X143988547Y-92782063D01*
X144044904Y-92646007D01*
X144049954Y-92607653D01*
X144063048Y-92508188D01*
X144064126Y-92500000D01*
X144044904Y-92353993D01*
X143988547Y-92217937D01*
X143898897Y-92101103D01*
X143782063Y-92011453D01*
X143646007Y-91955096D01*
X143637823Y-91954019D01*
X143637821Y-91954018D01*
X143508188Y-91936952D01*
X143500000Y-91935874D01*
X143491812Y-91936952D01*
X143362179Y-91954018D01*
X143362177Y-91954019D01*
X143353993Y-91955096D01*
X143217937Y-92011453D01*
X143101103Y-92101103D01*
X143011453Y-92217937D01*
X142955096Y-92353993D01*
X142935874Y-92500000D01*
X124354413Y-92500000D01*
X124246007Y-92455096D01*
X124237823Y-92454019D01*
X124237821Y-92454018D01*
X124108188Y-92436952D01*
X124100000Y-92435874D01*
X124091812Y-92436952D01*
X123962179Y-92454018D01*
X123962177Y-92454019D01*
X123953993Y-92455096D01*
X123946365Y-92458256D01*
X123946364Y-92458256D01*
X123877418Y-92486814D01*
X123806828Y-92494403D01*
X123743341Y-92462624D01*
X123707114Y-92401566D01*
X123703200Y-92370405D01*
X123703200Y-91629595D01*
X123723202Y-91561474D01*
X123776858Y-91514981D01*
X123847132Y-91504877D01*
X123877418Y-91513186D01*
X123935819Y-91537376D01*
X123953993Y-91544904D01*
X123962177Y-91545981D01*
X123962179Y-91545982D01*
X124091812Y-91563048D01*
X124100000Y-91564126D01*
X124108188Y-91563048D01*
X124237821Y-91545982D01*
X124237823Y-91545981D01*
X124246007Y-91544904D01*
X124354413Y-91500000D01*
X139935874Y-91500000D01*
X139955096Y-91646007D01*
X140011453Y-91782063D01*
X140101103Y-91898897D01*
X140217937Y-91988547D01*
X140353993Y-92044904D01*
X140362177Y-92045981D01*
X140362179Y-92045982D01*
X140491812Y-92063048D01*
X140500000Y-92064126D01*
X140508188Y-92063048D01*
X140637821Y-92045982D01*
X140637823Y-92045981D01*
X140646007Y-92044904D01*
X140782063Y-91988547D01*
X140898897Y-91898897D01*
X140988547Y-91782063D01*
X141044904Y-91646007D01*
X141064126Y-91500000D01*
X141061067Y-91476768D01*
X141045982Y-91362179D01*
X141045981Y-91362177D01*
X141044904Y-91353993D01*
X140988547Y-91217937D01*
X140898897Y-91101103D01*
X140782063Y-91011453D01*
X140646007Y-90955096D01*
X140637823Y-90954019D01*
X140637821Y-90954018D01*
X140508188Y-90936952D01*
X140500000Y-90935874D01*
X140491812Y-90936952D01*
X140362179Y-90954018D01*
X140362177Y-90954019D01*
X140353993Y-90955096D01*
X140217937Y-91011453D01*
X140101103Y-91101103D01*
X140011453Y-91217937D01*
X139955096Y-91353993D01*
X139954019Y-91362177D01*
X139954018Y-91362179D01*
X139938933Y-91476768D01*
X139935874Y-91500000D01*
X124354413Y-91500000D01*
X124382063Y-91488547D01*
X124498897Y-91398897D01*
X124588547Y-91282063D01*
X124644904Y-91146007D01*
X124649954Y-91107653D01*
X124663048Y-91008188D01*
X124664126Y-91000000D01*
X124644904Y-90853993D01*
X124588547Y-90717937D01*
X124498897Y-90601103D01*
X124382063Y-90511453D01*
X124246007Y-90455096D01*
X124237823Y-90454019D01*
X124237821Y-90454018D01*
X124108188Y-90436952D01*
X124100000Y-90435874D01*
X124091812Y-90436952D01*
X123962179Y-90454018D01*
X123962177Y-90454019D01*
X123953993Y-90455096D01*
X123946365Y-90458256D01*
X123946364Y-90458256D01*
X123877418Y-90486814D01*
X123806828Y-90494403D01*
X123743341Y-90462624D01*
X123707114Y-90401566D01*
X123703200Y-90370405D01*
X123703200Y-90000000D01*
X124935874Y-90000000D01*
X124936952Y-90008188D01*
X124943535Y-90058188D01*
X124955096Y-90146007D01*
X125011453Y-90282063D01*
X125101103Y-90398897D01*
X125217937Y-90488547D01*
X125353993Y-90544904D01*
X125362177Y-90545981D01*
X125362179Y-90545982D01*
X125491812Y-90563048D01*
X125500000Y-90564126D01*
X125508188Y-90563048D01*
X125637821Y-90545982D01*
X125637823Y-90545981D01*
X125646007Y-90544904D01*
X125782063Y-90488547D01*
X125898897Y-90398897D01*
X125988547Y-90282063D01*
X126044904Y-90146007D01*
X126056466Y-90058188D01*
X126063048Y-90008188D01*
X126064126Y-90000000D01*
X126685874Y-90000000D01*
X126686952Y-90008188D01*
X126693535Y-90058188D01*
X126705096Y-90146007D01*
X126761453Y-90282063D01*
X126851103Y-90398897D01*
X126967937Y-90488547D01*
X127103993Y-90544904D01*
X127112177Y-90545981D01*
X127112179Y-90545982D01*
X127241812Y-90563048D01*
X127250000Y-90564126D01*
X127258188Y-90563048D01*
X127387821Y-90545982D01*
X127387823Y-90545981D01*
X127396007Y-90544904D01*
X127532063Y-90488547D01*
X127648897Y-90398897D01*
X127738547Y-90282063D01*
X127794904Y-90146007D01*
X127806466Y-90058188D01*
X127813048Y-90008188D01*
X127814126Y-90000000D01*
X127801487Y-89903993D01*
X127795982Y-89862179D01*
X127795981Y-89862177D01*
X127794904Y-89853993D01*
X127738547Y-89717937D01*
X127648897Y-89601103D01*
X127532063Y-89511453D01*
X127396007Y-89455096D01*
X127387823Y-89454019D01*
X127387821Y-89454018D01*
X127258188Y-89436952D01*
X127250000Y-89435874D01*
X127241812Y-89436952D01*
X127112179Y-89454018D01*
X127112177Y-89454019D01*
X127103993Y-89455096D01*
X126967937Y-89511453D01*
X126851103Y-89601103D01*
X126761453Y-89717937D01*
X126705096Y-89853993D01*
X126704019Y-89862177D01*
X126704018Y-89862179D01*
X126698513Y-89903993D01*
X126685874Y-90000000D01*
X126064126Y-90000000D01*
X126051487Y-89903993D01*
X126045982Y-89862179D01*
X126045981Y-89862177D01*
X126044904Y-89853993D01*
X125988547Y-89717937D01*
X125898897Y-89601103D01*
X125782063Y-89511453D01*
X125646007Y-89455096D01*
X125637823Y-89454019D01*
X125637821Y-89454018D01*
X125508188Y-89436952D01*
X125500000Y-89435874D01*
X125491812Y-89436952D01*
X125362179Y-89454018D01*
X125362177Y-89454019D01*
X125353993Y-89455096D01*
X125217937Y-89511453D01*
X125101103Y-89601103D01*
X125011453Y-89717937D01*
X124955096Y-89853993D01*
X124954019Y-89862177D01*
X124954018Y-89862179D01*
X124948513Y-89903993D01*
X124935874Y-90000000D01*
X123703200Y-90000000D01*
X123703200Y-89629595D01*
X123723202Y-89561474D01*
X123776858Y-89514981D01*
X123847132Y-89504877D01*
X123877418Y-89513186D01*
X123935819Y-89537376D01*
X123953993Y-89544904D01*
X123962177Y-89545981D01*
X123962179Y-89545982D01*
X124091812Y-89563048D01*
X124100000Y-89564126D01*
X124108188Y-89563048D01*
X124237821Y-89545982D01*
X124237823Y-89545981D01*
X124246007Y-89544904D01*
X124382063Y-89488547D01*
X124498897Y-89398897D01*
X124588547Y-89282063D01*
X124644904Y-89146007D01*
X124649703Y-89109554D01*
X124678425Y-89044627D01*
X124737690Y-89005535D01*
X124774625Y-89000000D01*
X128173180Y-89000000D01*
X128241301Y-89020002D01*
X128287794Y-89073658D01*
X128297898Y-89143932D01*
X128273143Y-89202702D01*
X128261453Y-89217937D01*
X128205096Y-89353993D01*
X128204019Y-89362177D01*
X128204018Y-89362179D01*
X128194316Y-89435874D01*
X128185874Y-89500000D01*
X128186952Y-89508188D01*
X128200047Y-89607653D01*
X128205096Y-89646007D01*
X128261453Y-89782063D01*
X128351103Y-89898897D01*
X128467937Y-89988547D01*
X128603993Y-90044904D01*
X128612177Y-90045981D01*
X128612179Y-90045982D01*
X128741812Y-90063048D01*
X128750000Y-90064126D01*
X128758188Y-90063048D01*
X128887821Y-90045982D01*
X128887823Y-90045981D01*
X128896007Y-90044904D01*
X129032063Y-89988547D01*
X129148897Y-89898897D01*
X129238547Y-89782063D01*
X129294904Y-89646007D01*
X129299954Y-89607653D01*
X129313048Y-89508188D01*
X129314126Y-89500000D01*
X129305684Y-89435874D01*
X129295982Y-89362179D01*
X129295981Y-89362177D01*
X129294904Y-89353993D01*
X129238547Y-89217937D01*
X129226857Y-89202702D01*
X129201257Y-89136485D01*
X129215521Y-89066936D01*
X129265122Y-89016140D01*
X129326820Y-89000000D01*
X129825375Y-89000000D01*
X129893496Y-89020002D01*
X129939989Y-89073658D01*
X129950297Y-89109553D01*
X129955096Y-89146007D01*
X130011453Y-89282063D01*
X130101103Y-89398897D01*
X130217937Y-89488547D01*
X130353993Y-89544904D01*
X130362177Y-89545981D01*
X130362179Y-89545982D01*
X130491812Y-89563048D01*
X130500000Y-89564126D01*
X130508188Y-89563048D01*
X130637821Y-89545982D01*
X130637823Y-89545981D01*
X130646007Y-89544904D01*
X130782063Y-89488547D01*
X130898897Y-89398897D01*
X130988547Y-89282063D01*
X131044904Y-89146007D01*
X131049703Y-89109554D01*
X131078425Y-89044627D01*
X131137690Y-89005535D01*
X131174625Y-89000000D01*
X131673180Y-89000000D01*
X131741301Y-89020002D01*
X131787794Y-89073658D01*
X131797898Y-89143932D01*
X131773143Y-89202702D01*
X131761453Y-89217937D01*
X131705096Y-89353993D01*
X131704019Y-89362177D01*
X131704018Y-89362179D01*
X131694316Y-89435874D01*
X131685874Y-89500000D01*
X131686952Y-89508188D01*
X131700047Y-89607653D01*
X131705096Y-89646007D01*
X131761453Y-89782063D01*
X131851103Y-89898897D01*
X131967937Y-89988547D01*
X132103993Y-90044904D01*
X132112177Y-90045981D01*
X132112179Y-90045982D01*
X132241812Y-90063048D01*
X132250000Y-90064126D01*
X132258188Y-90063048D01*
X132357300Y-90050000D01*
X139935874Y-90050000D01*
X139936952Y-90058188D01*
X139946870Y-90133521D01*
X139955096Y-90196007D01*
X140011453Y-90332063D01*
X140101103Y-90448897D01*
X140217937Y-90538547D01*
X140353993Y-90594904D01*
X140362177Y-90595981D01*
X140362179Y-90595982D01*
X140491812Y-90613048D01*
X140500000Y-90614126D01*
X140508188Y-90613048D01*
X140637821Y-90595982D01*
X140637823Y-90595981D01*
X140646007Y-90594904D01*
X140782063Y-90538547D01*
X140898897Y-90448897D01*
X140988547Y-90332063D01*
X141044904Y-90196007D01*
X141053131Y-90133521D01*
X141063048Y-90058188D01*
X141064126Y-90050000D01*
X141058621Y-90008188D01*
X141045982Y-89912179D01*
X141045981Y-89912177D01*
X141044904Y-89903993D01*
X140988547Y-89767937D01*
X140898897Y-89651103D01*
X140782063Y-89561453D01*
X140646007Y-89505096D01*
X140637823Y-89504019D01*
X140637821Y-89504018D01*
X140607300Y-89500000D01*
X148835874Y-89500000D01*
X148836952Y-89508188D01*
X148850047Y-89607653D01*
X148855096Y-89646007D01*
X148911453Y-89782063D01*
X149001103Y-89898897D01*
X149117937Y-89988547D01*
X149253993Y-90044904D01*
X149262177Y-90045981D01*
X149262179Y-90045982D01*
X149391812Y-90063048D01*
X149400000Y-90064126D01*
X149408188Y-90063048D01*
X149537821Y-90045982D01*
X149537823Y-90045981D01*
X149546007Y-90044904D01*
X149682063Y-89988547D01*
X149798897Y-89898897D01*
X149888547Y-89782063D01*
X149943250Y-89650000D01*
X160785874Y-89650000D01*
X160786952Y-89658188D01*
X160801401Y-89767937D01*
X160805096Y-89796007D01*
X160861453Y-89932063D01*
X160951103Y-90048897D01*
X161067937Y-90138547D01*
X161203993Y-90194904D01*
X161212177Y-90195981D01*
X161212179Y-90195982D01*
X161341812Y-90213048D01*
X161350000Y-90214126D01*
X161358188Y-90213048D01*
X161487821Y-90195982D01*
X161487823Y-90195981D01*
X161496007Y-90194904D01*
X161632063Y-90138547D01*
X161748897Y-90048897D01*
X161838547Y-89932063D01*
X161894904Y-89796007D01*
X161898600Y-89767937D01*
X161913048Y-89658188D01*
X161914126Y-89650000D01*
X161907027Y-89596077D01*
X161895982Y-89512179D01*
X161895981Y-89512177D01*
X161894904Y-89503993D01*
X161838547Y-89367937D01*
X161748897Y-89251103D01*
X161632063Y-89161453D01*
X161496007Y-89105096D01*
X161487823Y-89104019D01*
X161487821Y-89104018D01*
X161358188Y-89086952D01*
X161350000Y-89085874D01*
X161341812Y-89086952D01*
X161212179Y-89104018D01*
X161212177Y-89104019D01*
X161203993Y-89105096D01*
X161067937Y-89161453D01*
X160951103Y-89251103D01*
X160861453Y-89367937D01*
X160805096Y-89503993D01*
X160804019Y-89512177D01*
X160804018Y-89512179D01*
X160792973Y-89596077D01*
X160785874Y-89650000D01*
X149943250Y-89650000D01*
X149944904Y-89646007D01*
X149949954Y-89607653D01*
X149963048Y-89508188D01*
X149964126Y-89500000D01*
X149955684Y-89435874D01*
X149945982Y-89362179D01*
X149945981Y-89362177D01*
X149944904Y-89353993D01*
X149888547Y-89217937D01*
X149798897Y-89101103D01*
X149682063Y-89011453D01*
X149546007Y-88955096D01*
X149537823Y-88954019D01*
X149537821Y-88954018D01*
X149408188Y-88936952D01*
X149400000Y-88935874D01*
X149391812Y-88936952D01*
X149262179Y-88954018D01*
X149262177Y-88954019D01*
X149253993Y-88955096D01*
X149117937Y-89011453D01*
X149001103Y-89101103D01*
X148911453Y-89217937D01*
X148855096Y-89353993D01*
X148854019Y-89362177D01*
X148854018Y-89362179D01*
X148844316Y-89435874D01*
X148835874Y-89500000D01*
X140607300Y-89500000D01*
X140508188Y-89486952D01*
X140500000Y-89485874D01*
X140491812Y-89486952D01*
X140362179Y-89504018D01*
X140362177Y-89504019D01*
X140353993Y-89505096D01*
X140217937Y-89561453D01*
X140101103Y-89651103D01*
X140011453Y-89767937D01*
X139955096Y-89903993D01*
X139954019Y-89912177D01*
X139954018Y-89912179D01*
X139941379Y-90008188D01*
X139935874Y-90050000D01*
X132357300Y-90050000D01*
X132387821Y-90045982D01*
X132387823Y-90045981D01*
X132396007Y-90044904D01*
X132532063Y-89988547D01*
X132648897Y-89898897D01*
X132738547Y-89782063D01*
X132794904Y-89646007D01*
X132799954Y-89607653D01*
X132813048Y-89508188D01*
X132814126Y-89500000D01*
X132805684Y-89435874D01*
X132795982Y-89362179D01*
X132795981Y-89362177D01*
X132794904Y-89353993D01*
X132738547Y-89217937D01*
X132726857Y-89202702D01*
X132701257Y-89136485D01*
X132715521Y-89066936D01*
X132765122Y-89016140D01*
X132826820Y-89000000D01*
X133220522Y-89000000D01*
X133268741Y-89009591D01*
X133353993Y-89044904D01*
X133362177Y-89045981D01*
X133362179Y-89045982D01*
X133491812Y-89063048D01*
X133500000Y-89064126D01*
X133508188Y-89063048D01*
X133637821Y-89045982D01*
X133637823Y-89045981D01*
X133646007Y-89044904D01*
X133731259Y-89009591D01*
X133779478Y-89000000D01*
X137220522Y-89000000D01*
X137268741Y-89009591D01*
X137353993Y-89044904D01*
X137362177Y-89045981D01*
X137362179Y-89045982D01*
X137491812Y-89063048D01*
X137500000Y-89064126D01*
X137508188Y-89063048D01*
X137637821Y-89045982D01*
X137637823Y-89045981D01*
X137646007Y-89044904D01*
X137731259Y-89009591D01*
X137779478Y-89000000D01*
X138720522Y-89000000D01*
X138768741Y-89009591D01*
X138853993Y-89044904D01*
X138862177Y-89045981D01*
X138862179Y-89045982D01*
X138991812Y-89063048D01*
X139000000Y-89064126D01*
X139008188Y-89063048D01*
X139137821Y-89045982D01*
X139137823Y-89045981D01*
X139146007Y-89044904D01*
X139231259Y-89009591D01*
X139279478Y-89000000D01*
X140220522Y-89000000D01*
X140268741Y-89009591D01*
X140353993Y-89044904D01*
X140362177Y-89045981D01*
X140362179Y-89045982D01*
X140491812Y-89063048D01*
X140500000Y-89064126D01*
X140508188Y-89063048D01*
X140637821Y-89045982D01*
X140637823Y-89045981D01*
X140646007Y-89044904D01*
X140731259Y-89009591D01*
X140779478Y-89000000D01*
X148500000Y-89000000D01*
X148500000Y-84526451D01*
X170029722Y-84526451D01*
X170030238Y-84532595D01*
X170035569Y-84596077D01*
X170045569Y-84715171D01*
X170097770Y-84897218D01*
X170100588Y-84902700D01*
X170100589Y-84902704D01*
X170181516Y-85060171D01*
X170181519Y-85060175D01*
X170184337Y-85065659D01*
X170188168Y-85070492D01*
X170298143Y-85209248D01*
X170298147Y-85209253D01*
X170301972Y-85214078D01*
X170306665Y-85218072D01*
X170306666Y-85218073D01*
X170389551Y-85288613D01*
X170446195Y-85336821D01*
X170611512Y-85429214D01*
X170791627Y-85487736D01*
X170979678Y-85510160D01*
X170985813Y-85509688D01*
X170985815Y-85509688D01*
X171162362Y-85496104D01*
X171162366Y-85496103D01*
X171168504Y-85495631D01*
X171174436Y-85493975D01*
X171174440Y-85493974D01*
X171259707Y-85470167D01*
X171350911Y-85444702D01*
X171519952Y-85359313D01*
X171544895Y-85339826D01*
X171664327Y-85246515D01*
X171664328Y-85246514D01*
X171669188Y-85242717D01*
X171792935Y-85099354D01*
X171886480Y-84934686D01*
X171946259Y-84754985D01*
X171951767Y-84711387D01*
X171969553Y-84570597D01*
X171969554Y-84570588D01*
X171969995Y-84567094D01*
X171970373Y-84540000D01*
X171951892Y-84351520D01*
X171949733Y-84344367D01*
X171898936Y-84176120D01*
X171897155Y-84170220D01*
X171887645Y-84152334D01*
X171811140Y-84008450D01*
X171811139Y-84008448D01*
X171808244Y-84003004D01*
X171755082Y-83937821D01*
X171692443Y-83861017D01*
X171692440Y-83861014D01*
X171688548Y-83856242D01*
X171542626Y-83735524D01*
X171537209Y-83732595D01*
X171537206Y-83732593D01*
X171381455Y-83648379D01*
X171381450Y-83648377D01*
X171376035Y-83645449D01*
X171324819Y-83629595D01*
X171201008Y-83591269D01*
X171201005Y-83591268D01*
X171195121Y-83589447D01*
X171188996Y-83588803D01*
X171188995Y-83588803D01*
X171012902Y-83570295D01*
X171012901Y-83570295D01*
X171006774Y-83569651D01*
X170927232Y-83576890D01*
X170824309Y-83586256D01*
X170824306Y-83586257D01*
X170818170Y-83586815D01*
X170812264Y-83588553D01*
X170812260Y-83588554D01*
X170680832Y-83627236D01*
X170636492Y-83640286D01*
X170468659Y-83728027D01*
X170321066Y-83846695D01*
X170199332Y-83991771D01*
X170196369Y-83997160D01*
X170196366Y-83997165D01*
X170146093Y-84088613D01*
X170108096Y-84157729D01*
X170106235Y-84163596D01*
X170106234Y-84163598D01*
X170095037Y-84198897D01*
X170050832Y-84338248D01*
X170029722Y-84526451D01*
X148500000Y-84526451D01*
X148500000Y-83800000D01*
X154435874Y-83800000D01*
X154455096Y-83946007D01*
X154511453Y-84082063D01*
X154601103Y-84198897D01*
X154717937Y-84288547D01*
X154853993Y-84344904D01*
X154862177Y-84345981D01*
X154862179Y-84345982D01*
X154991812Y-84363048D01*
X155000000Y-84364126D01*
X155008188Y-84363048D01*
X155137821Y-84345982D01*
X155137823Y-84345981D01*
X155146007Y-84344904D01*
X155282063Y-84288547D01*
X155398897Y-84198897D01*
X155488547Y-84082063D01*
X155544904Y-83946007D01*
X155564126Y-83800000D01*
X156485874Y-83800000D01*
X156505096Y-83946007D01*
X156561453Y-84082063D01*
X156651103Y-84198897D01*
X156767937Y-84288547D01*
X156903993Y-84344904D01*
X156912177Y-84345981D01*
X156912179Y-84345982D01*
X157041812Y-84363048D01*
X157050000Y-84364126D01*
X157058188Y-84363048D01*
X157187821Y-84345982D01*
X157187823Y-84345981D01*
X157196007Y-84344904D01*
X157332063Y-84288547D01*
X157448897Y-84198897D01*
X157538547Y-84082063D01*
X157594904Y-83946007D01*
X157614126Y-83800000D01*
X157594904Y-83653993D01*
X157538547Y-83517937D01*
X157448897Y-83401103D01*
X157332063Y-83311453D01*
X157196007Y-83255096D01*
X157187823Y-83254019D01*
X157187821Y-83254018D01*
X157058188Y-83236952D01*
X157050000Y-83235874D01*
X157041812Y-83236952D01*
X156912179Y-83254018D01*
X156912177Y-83254019D01*
X156903993Y-83255096D01*
X156767937Y-83311453D01*
X156651103Y-83401103D01*
X156561453Y-83517937D01*
X156505096Y-83653993D01*
X156485874Y-83800000D01*
X155564126Y-83800000D01*
X155544904Y-83653993D01*
X155488547Y-83517937D01*
X155398897Y-83401103D01*
X155282063Y-83311453D01*
X155146007Y-83255096D01*
X155137823Y-83254019D01*
X155137821Y-83254018D01*
X155008188Y-83236952D01*
X155000000Y-83235874D01*
X154991812Y-83236952D01*
X154862179Y-83254018D01*
X154862177Y-83254019D01*
X154853993Y-83255096D01*
X154717937Y-83311453D01*
X154601103Y-83401103D01*
X154511453Y-83517937D01*
X154455096Y-83653993D01*
X154435874Y-83800000D01*
X148500000Y-83800000D01*
X148500000Y-81986451D01*
X170029722Y-81986451D01*
X170045569Y-82175171D01*
X170097770Y-82357218D01*
X170100588Y-82362700D01*
X170100589Y-82362704D01*
X170181516Y-82520171D01*
X170181519Y-82520175D01*
X170184337Y-82525659D01*
X170188168Y-82530492D01*
X170298143Y-82669248D01*
X170298147Y-82669253D01*
X170301972Y-82674078D01*
X170446195Y-82796821D01*
X170611512Y-82889214D01*
X170791627Y-82947736D01*
X170979678Y-82970160D01*
X170985813Y-82969688D01*
X170985815Y-82969688D01*
X171162362Y-82956104D01*
X171162366Y-82956103D01*
X171168504Y-82955631D01*
X171174436Y-82953975D01*
X171174440Y-82953974D01*
X171259708Y-82930166D01*
X171350911Y-82904702D01*
X171519952Y-82819313D01*
X171544895Y-82799826D01*
X171664327Y-82706515D01*
X171664328Y-82706514D01*
X171669188Y-82702717D01*
X171792935Y-82559354D01*
X171886480Y-82394686D01*
X171946259Y-82214985D01*
X171951289Y-82175171D01*
X171969553Y-82030597D01*
X171969554Y-82030588D01*
X171969995Y-82027094D01*
X171970373Y-82000000D01*
X171951892Y-81811520D01*
X171949733Y-81804367D01*
X171898936Y-81636120D01*
X171897155Y-81630220D01*
X171852365Y-81545982D01*
X171811140Y-81468450D01*
X171811139Y-81468448D01*
X171808244Y-81463004D01*
X171750618Y-81392347D01*
X171692443Y-81321017D01*
X171692440Y-81321014D01*
X171688548Y-81316242D01*
X171542626Y-81195524D01*
X171537209Y-81192595D01*
X171537206Y-81192593D01*
X171381455Y-81108379D01*
X171381450Y-81108377D01*
X171376035Y-81105449D01*
X171353738Y-81098547D01*
X171201008Y-81051269D01*
X171201005Y-81051268D01*
X171195121Y-81049447D01*
X171188996Y-81048803D01*
X171188995Y-81048803D01*
X171012902Y-81030295D01*
X171012901Y-81030295D01*
X171006774Y-81029651D01*
X170927232Y-81036890D01*
X170824309Y-81046256D01*
X170824306Y-81046257D01*
X170818170Y-81046815D01*
X170812264Y-81048553D01*
X170812260Y-81048554D01*
X170680832Y-81087236D01*
X170636492Y-81100286D01*
X170468659Y-81188027D01*
X170321066Y-81306695D01*
X170199332Y-81451771D01*
X170196369Y-81457160D01*
X170196366Y-81457165D01*
X170181877Y-81483521D01*
X170108096Y-81617729D01*
X170106235Y-81623596D01*
X170106234Y-81623598D01*
X170102262Y-81636120D01*
X170050832Y-81798248D01*
X170029722Y-81986451D01*
X148500000Y-81986451D01*
X148500000Y-81000000D01*
X167585874Y-81000000D01*
X167586952Y-81008188D01*
X167599517Y-81103627D01*
X167605096Y-81146007D01*
X167661453Y-81282063D01*
X167751103Y-81398897D01*
X167867937Y-81488547D01*
X168003993Y-81544904D01*
X168012177Y-81545981D01*
X168012179Y-81545982D01*
X168141812Y-81563048D01*
X168150000Y-81564126D01*
X168158188Y-81563048D01*
X168287821Y-81545982D01*
X168287823Y-81545981D01*
X168296007Y-81544904D01*
X168432063Y-81488547D01*
X168548897Y-81398897D01*
X168638547Y-81282063D01*
X168694904Y-81146007D01*
X168700484Y-81103627D01*
X168713048Y-81008188D01*
X168714126Y-81000000D01*
X168694904Y-80853993D01*
X168638547Y-80717937D01*
X168548897Y-80601103D01*
X168432063Y-80511453D01*
X168296007Y-80455096D01*
X168287823Y-80454019D01*
X168287821Y-80454018D01*
X168158188Y-80436952D01*
X168150000Y-80435874D01*
X168141812Y-80436952D01*
X168012179Y-80454018D01*
X168012177Y-80454019D01*
X168003993Y-80455096D01*
X167867937Y-80511453D01*
X167751103Y-80601103D01*
X167661453Y-80717937D01*
X167605096Y-80853993D01*
X167585874Y-81000000D01*
X148500000Y-81000000D01*
X148500000Y-79446451D01*
X170029722Y-79446451D01*
X170045569Y-79635171D01*
X170097770Y-79817218D01*
X170100588Y-79822700D01*
X170100589Y-79822704D01*
X170181516Y-79980171D01*
X170181519Y-79980175D01*
X170184337Y-79985659D01*
X170188168Y-79990492D01*
X170298143Y-80129248D01*
X170298147Y-80129253D01*
X170301972Y-80134078D01*
X170446195Y-80256821D01*
X170611512Y-80349214D01*
X170791627Y-80407736D01*
X170979678Y-80430160D01*
X170985813Y-80429688D01*
X170985815Y-80429688D01*
X171162362Y-80416104D01*
X171162366Y-80416103D01*
X171168504Y-80415631D01*
X171174436Y-80413975D01*
X171174440Y-80413974D01*
X171259707Y-80390167D01*
X171350911Y-80364702D01*
X171519952Y-80279313D01*
X171544895Y-80259826D01*
X171664327Y-80166515D01*
X171664328Y-80166514D01*
X171669188Y-80162717D01*
X171792935Y-80019354D01*
X171886480Y-79854686D01*
X171946259Y-79674985D01*
X171951993Y-79629595D01*
X171969553Y-79490597D01*
X171969554Y-79490588D01*
X171969995Y-79487094D01*
X171970373Y-79460000D01*
X171951892Y-79271520D01*
X171949733Y-79264367D01*
X171898936Y-79096120D01*
X171897155Y-79090220D01*
X171887645Y-79072334D01*
X171811140Y-78928450D01*
X171811139Y-78928448D01*
X171808244Y-78923004D01*
X171751960Y-78853993D01*
X171692443Y-78781017D01*
X171692440Y-78781014D01*
X171688548Y-78776242D01*
X171542626Y-78655524D01*
X171537209Y-78652595D01*
X171537206Y-78652593D01*
X171381455Y-78568379D01*
X171381450Y-78568377D01*
X171376035Y-78565449D01*
X171268182Y-78532063D01*
X171201008Y-78511269D01*
X171201005Y-78511268D01*
X171195121Y-78509447D01*
X171188996Y-78508803D01*
X171188995Y-78508803D01*
X171012902Y-78490295D01*
X171012901Y-78490295D01*
X171006774Y-78489651D01*
X170946646Y-78495123D01*
X170824309Y-78506256D01*
X170824306Y-78506257D01*
X170818170Y-78506815D01*
X170812264Y-78508553D01*
X170812260Y-78508554D01*
X170758292Y-78524438D01*
X170636492Y-78560286D01*
X170468659Y-78648027D01*
X170321066Y-78766695D01*
X170317107Y-78771413D01*
X170317106Y-78771414D01*
X170296491Y-78795982D01*
X170199332Y-78911771D01*
X170196369Y-78917160D01*
X170196366Y-78917165D01*
X170155329Y-78991812D01*
X170108096Y-79077729D01*
X170106235Y-79083596D01*
X170106234Y-79083598D01*
X170102262Y-79096120D01*
X170050832Y-79258248D01*
X170029722Y-79446451D01*
X148500000Y-79446451D01*
X148500000Y-78250000D01*
X152485874Y-78250000D01*
X152505096Y-78396007D01*
X152561453Y-78532063D01*
X152651103Y-78648897D01*
X152767937Y-78738547D01*
X152903993Y-78794904D01*
X152912177Y-78795981D01*
X152912179Y-78795982D01*
X153041812Y-78813048D01*
X153050000Y-78814126D01*
X153058188Y-78813048D01*
X153187821Y-78795982D01*
X153187823Y-78795981D01*
X153196007Y-78794904D01*
X153332063Y-78738547D01*
X153448897Y-78648897D01*
X153538547Y-78532063D01*
X153594904Y-78396007D01*
X153614126Y-78250000D01*
X161935874Y-78250000D01*
X161955096Y-78396007D01*
X162011453Y-78532063D01*
X162101103Y-78648897D01*
X162217937Y-78738547D01*
X162353993Y-78794904D01*
X162362177Y-78795981D01*
X162362179Y-78795982D01*
X162491812Y-78813048D01*
X162500000Y-78814126D01*
X162508188Y-78813048D01*
X162637821Y-78795982D01*
X162637823Y-78795981D01*
X162646007Y-78794904D01*
X162782063Y-78738547D01*
X162898897Y-78648897D01*
X162988547Y-78532063D01*
X163044904Y-78396007D01*
X163064126Y-78250000D01*
X163044904Y-78103993D01*
X162988547Y-77967937D01*
X162898897Y-77851103D01*
X162782063Y-77761453D01*
X162646007Y-77705096D01*
X162637823Y-77704019D01*
X162637821Y-77704018D01*
X162508188Y-77686952D01*
X162500000Y-77685874D01*
X162491812Y-77686952D01*
X162362179Y-77704018D01*
X162362177Y-77704019D01*
X162353993Y-77705096D01*
X162217937Y-77761453D01*
X162101103Y-77851103D01*
X162011453Y-77967937D01*
X161955096Y-78103993D01*
X161935874Y-78250000D01*
X153614126Y-78250000D01*
X153594904Y-78103993D01*
X153538547Y-77967937D01*
X153448897Y-77851103D01*
X153332063Y-77761453D01*
X153196007Y-77705096D01*
X153187823Y-77704019D01*
X153187821Y-77704018D01*
X153058188Y-77686952D01*
X153050000Y-77685874D01*
X153041812Y-77686952D01*
X152912179Y-77704018D01*
X152912177Y-77704019D01*
X152903993Y-77705096D01*
X152767937Y-77761453D01*
X152651103Y-77851103D01*
X152561453Y-77967937D01*
X152505096Y-78103993D01*
X152485874Y-78250000D01*
X148500000Y-78250000D01*
X148500000Y-76552190D01*
X148520002Y-76484069D01*
X148536905Y-76463095D01*
X149000000Y-76000000D01*
X165685874Y-76000000D01*
X165705096Y-76146007D01*
X165761453Y-76282063D01*
X165851103Y-76398897D01*
X165967937Y-76488547D01*
X166103993Y-76544904D01*
X166112177Y-76545981D01*
X166112179Y-76545982D01*
X166241812Y-76563048D01*
X166250000Y-76564126D01*
X166258188Y-76563048D01*
X166387821Y-76545982D01*
X166387823Y-76545981D01*
X166396007Y-76544904D01*
X166532063Y-76488547D01*
X166648897Y-76398897D01*
X166738547Y-76282063D01*
X166794904Y-76146007D01*
X166814126Y-76000000D01*
X166794904Y-75853993D01*
X166738547Y-75717937D01*
X166648897Y-75601103D01*
X166532063Y-75511453D01*
X166396007Y-75455096D01*
X166387823Y-75454019D01*
X166387821Y-75454018D01*
X166258188Y-75436952D01*
X166250000Y-75435874D01*
X166241812Y-75436952D01*
X166112179Y-75454018D01*
X166112177Y-75454019D01*
X166103993Y-75455096D01*
X165967937Y-75511453D01*
X165851103Y-75601103D01*
X165761453Y-75717937D01*
X165705096Y-75853993D01*
X165685874Y-76000000D01*
X149000000Y-76000000D01*
X151000000Y-74000000D01*
X151000000Y-67215587D01*
X152171909Y-67215587D01*
X152172206Y-67220739D01*
X152172206Y-67220743D01*
X152184899Y-67440868D01*
X152184900Y-67440874D01*
X152185197Y-67446027D01*
X152235942Y-67671202D01*
X152322783Y-67885066D01*
X152443388Y-68081875D01*
X152594516Y-68256343D01*
X152772111Y-68403785D01*
X152971402Y-68520241D01*
X152976222Y-68522081D01*
X152976227Y-68522084D01*
X153119241Y-68576695D01*
X153187038Y-68602584D01*
X153192106Y-68603615D01*
X153192109Y-68603616D01*
X153303345Y-68626247D01*
X153413227Y-68648603D01*
X153418402Y-68648793D01*
X153418404Y-68648793D01*
X153638730Y-68656872D01*
X153638734Y-68656872D01*
X153643894Y-68657061D01*
X153649014Y-68656405D01*
X153649016Y-68656405D01*
X153867718Y-68628389D01*
X153867719Y-68628389D01*
X153872846Y-68627732D01*
X153877796Y-68626247D01*
X154088978Y-68562889D01*
X154088982Y-68562887D01*
X154093933Y-68561402D01*
X154301218Y-68459854D01*
X154384458Y-68400480D01*
X154484931Y-68328813D01*
X154489134Y-68325815D01*
X154555536Y-68259645D01*
X154648975Y-68166531D01*
X154652635Y-68162884D01*
X154787330Y-67975437D01*
X154889600Y-67768507D01*
X154920698Y-67666153D01*
X154955197Y-67552605D01*
X154955198Y-67552599D01*
X154956701Y-67547653D01*
X154986829Y-67318805D01*
X154988511Y-67250000D01*
X154985682Y-67215587D01*
X157251909Y-67215587D01*
X157252206Y-67220739D01*
X157252206Y-67220743D01*
X157264899Y-67440868D01*
X157264900Y-67440874D01*
X157265197Y-67446027D01*
X157315942Y-67671202D01*
X157402783Y-67885066D01*
X157523388Y-68081875D01*
X157674516Y-68256343D01*
X157852111Y-68403785D01*
X158051402Y-68520241D01*
X158056222Y-68522081D01*
X158056227Y-68522084D01*
X158199241Y-68576695D01*
X158267038Y-68602584D01*
X158272106Y-68603615D01*
X158272109Y-68603616D01*
X158383345Y-68626247D01*
X158493227Y-68648603D01*
X158498402Y-68648793D01*
X158498404Y-68648793D01*
X158718730Y-68656872D01*
X158718734Y-68656872D01*
X158723894Y-68657061D01*
X158729014Y-68656405D01*
X158729016Y-68656405D01*
X158947718Y-68628389D01*
X158947719Y-68628389D01*
X158952846Y-68627732D01*
X158957796Y-68626247D01*
X159168978Y-68562889D01*
X159168982Y-68562887D01*
X159173933Y-68561402D01*
X159381218Y-68459854D01*
X159464458Y-68400480D01*
X159564931Y-68328813D01*
X159569134Y-68325815D01*
X159635536Y-68259645D01*
X159728975Y-68166531D01*
X159732635Y-68162884D01*
X159867330Y-67975437D01*
X159969600Y-67768507D01*
X160000698Y-67666153D01*
X160035197Y-67552605D01*
X160035198Y-67552599D01*
X160036701Y-67547653D01*
X160066829Y-67318805D01*
X160068511Y-67250000D01*
X160065682Y-67215587D01*
X162331909Y-67215587D01*
X162332206Y-67220739D01*
X162332206Y-67220743D01*
X162344899Y-67440868D01*
X162344900Y-67440874D01*
X162345197Y-67446027D01*
X162395942Y-67671202D01*
X162482783Y-67885066D01*
X162603388Y-68081875D01*
X162754516Y-68256343D01*
X162932111Y-68403785D01*
X163131402Y-68520241D01*
X163136222Y-68522081D01*
X163136227Y-68522084D01*
X163279241Y-68576695D01*
X163347038Y-68602584D01*
X163352106Y-68603615D01*
X163352109Y-68603616D01*
X163463345Y-68626247D01*
X163573227Y-68648603D01*
X163578402Y-68648793D01*
X163578404Y-68648793D01*
X163798730Y-68656872D01*
X163798734Y-68656872D01*
X163803894Y-68657061D01*
X163809014Y-68656405D01*
X163809016Y-68656405D01*
X164027718Y-68628389D01*
X164027719Y-68628389D01*
X164032846Y-68627732D01*
X164037796Y-68626247D01*
X164248978Y-68562889D01*
X164248982Y-68562887D01*
X164253933Y-68561402D01*
X164461218Y-68459854D01*
X164544458Y-68400480D01*
X164644931Y-68328813D01*
X164649134Y-68325815D01*
X164715536Y-68259645D01*
X164808975Y-68166531D01*
X164812635Y-68162884D01*
X164947330Y-67975437D01*
X165049600Y-67768507D01*
X165080698Y-67666153D01*
X165115197Y-67552605D01*
X165115198Y-67552599D01*
X165116701Y-67547653D01*
X165146829Y-67318805D01*
X165148511Y-67250000D01*
X165145682Y-67215587D01*
X167411909Y-67215587D01*
X167412206Y-67220739D01*
X167412206Y-67220743D01*
X167424899Y-67440868D01*
X167424900Y-67440874D01*
X167425197Y-67446027D01*
X167475942Y-67671202D01*
X167562783Y-67885066D01*
X167683388Y-68081875D01*
X167834516Y-68256343D01*
X168012111Y-68403785D01*
X168211402Y-68520241D01*
X168216222Y-68522081D01*
X168216227Y-68522084D01*
X168359241Y-68576695D01*
X168427038Y-68602584D01*
X168432106Y-68603615D01*
X168432109Y-68603616D01*
X168543345Y-68626247D01*
X168653227Y-68648603D01*
X168658402Y-68648793D01*
X168658404Y-68648793D01*
X168878730Y-68656872D01*
X168878734Y-68656872D01*
X168883894Y-68657061D01*
X168889014Y-68656405D01*
X168889016Y-68656405D01*
X169107718Y-68628389D01*
X169107719Y-68628389D01*
X169112846Y-68627732D01*
X169117796Y-68626247D01*
X169328978Y-68562889D01*
X169328982Y-68562887D01*
X169333933Y-68561402D01*
X169541218Y-68459854D01*
X169624458Y-68400480D01*
X169724931Y-68328813D01*
X169729134Y-68325815D01*
X169795536Y-68259645D01*
X169888975Y-68166531D01*
X169892635Y-68162884D01*
X170027330Y-67975437D01*
X170129600Y-67768507D01*
X170160698Y-67666153D01*
X170195197Y-67552605D01*
X170195198Y-67552599D01*
X170196701Y-67547653D01*
X170226829Y-67318805D01*
X170228511Y-67250000D01*
X170209598Y-67019954D01*
X170153366Y-66796085D01*
X170141423Y-66768617D01*
X170063386Y-66589144D01*
X170063384Y-66589141D01*
X170061326Y-66584407D01*
X169935949Y-66390604D01*
X169907973Y-66359858D01*
X169784080Y-66223702D01*
X169784078Y-66223700D01*
X169780602Y-66219880D01*
X169776551Y-66216681D01*
X169776547Y-66216677D01*
X169603513Y-66080023D01*
X169603509Y-66080021D01*
X169599458Y-66076821D01*
X169397381Y-65965269D01*
X169392512Y-65963545D01*
X169392508Y-65963543D01*
X169184673Y-65889945D01*
X169184669Y-65889944D01*
X169179798Y-65888219D01*
X169174705Y-65887312D01*
X169174702Y-65887311D01*
X168957641Y-65848646D01*
X168957637Y-65848646D01*
X168952553Y-65847740D01*
X168864183Y-65846660D01*
X168726916Y-65844983D01*
X168726914Y-65844983D01*
X168721747Y-65844920D01*
X168569729Y-65868182D01*
X168498690Y-65879052D01*
X168498687Y-65879053D01*
X168493581Y-65879834D01*
X168462647Y-65889945D01*
X168279093Y-65949940D01*
X168279091Y-65949941D01*
X168274180Y-65951546D01*
X168069438Y-66058128D01*
X168065305Y-66061231D01*
X168065302Y-66061233D01*
X167888988Y-66193613D01*
X167884853Y-66196718D01*
X167725381Y-66363595D01*
X167595307Y-66554277D01*
X167498122Y-66763644D01*
X167436438Y-66986071D01*
X167435890Y-66991199D01*
X167435889Y-66991204D01*
X167432817Y-67019954D01*
X167411909Y-67215587D01*
X165145682Y-67215587D01*
X165129598Y-67019954D01*
X165073366Y-66796085D01*
X165061423Y-66768617D01*
X164983386Y-66589144D01*
X164983384Y-66589141D01*
X164981326Y-66584407D01*
X164855949Y-66390604D01*
X164827973Y-66359858D01*
X164704080Y-66223702D01*
X164704078Y-66223700D01*
X164700602Y-66219880D01*
X164696551Y-66216681D01*
X164696547Y-66216677D01*
X164523513Y-66080023D01*
X164523509Y-66080021D01*
X164519458Y-66076821D01*
X164317381Y-65965269D01*
X164312512Y-65963545D01*
X164312508Y-65963543D01*
X164104673Y-65889945D01*
X164104669Y-65889944D01*
X164099798Y-65888219D01*
X164094705Y-65887312D01*
X164094702Y-65887311D01*
X163877641Y-65848646D01*
X163877637Y-65848646D01*
X163872553Y-65847740D01*
X163784183Y-65846660D01*
X163646916Y-65844983D01*
X163646914Y-65844983D01*
X163641747Y-65844920D01*
X163489729Y-65868182D01*
X163418690Y-65879052D01*
X163418687Y-65879053D01*
X163413581Y-65879834D01*
X163382647Y-65889945D01*
X163199093Y-65949940D01*
X163199091Y-65949941D01*
X163194180Y-65951546D01*
X162989438Y-66058128D01*
X162985305Y-66061231D01*
X162985302Y-66061233D01*
X162808988Y-66193613D01*
X162804853Y-66196718D01*
X162645381Y-66363595D01*
X162515307Y-66554277D01*
X162418122Y-66763644D01*
X162356438Y-66986071D01*
X162355890Y-66991199D01*
X162355889Y-66991204D01*
X162352817Y-67019954D01*
X162331909Y-67215587D01*
X160065682Y-67215587D01*
X160049598Y-67019954D01*
X159993366Y-66796085D01*
X159981423Y-66768617D01*
X159903386Y-66589144D01*
X159903384Y-66589141D01*
X159901326Y-66584407D01*
X159775949Y-66390604D01*
X159747973Y-66359858D01*
X159624080Y-66223702D01*
X159624078Y-66223700D01*
X159620602Y-66219880D01*
X159616551Y-66216681D01*
X159616547Y-66216677D01*
X159443513Y-66080023D01*
X159443509Y-66080021D01*
X159439458Y-66076821D01*
X159237381Y-65965269D01*
X159232512Y-65963545D01*
X159232508Y-65963543D01*
X159024673Y-65889945D01*
X159024669Y-65889944D01*
X159019798Y-65888219D01*
X159014705Y-65887312D01*
X159014702Y-65887311D01*
X158797641Y-65848646D01*
X158797637Y-65848646D01*
X158792553Y-65847740D01*
X158704183Y-65846660D01*
X158566916Y-65844983D01*
X158566914Y-65844983D01*
X158561747Y-65844920D01*
X158409729Y-65868182D01*
X158338690Y-65879052D01*
X158338687Y-65879053D01*
X158333581Y-65879834D01*
X158302647Y-65889945D01*
X158119093Y-65949940D01*
X158119091Y-65949941D01*
X158114180Y-65951546D01*
X157909438Y-66058128D01*
X157905305Y-66061231D01*
X157905302Y-66061233D01*
X157728988Y-66193613D01*
X157724853Y-66196718D01*
X157565381Y-66363595D01*
X157435307Y-66554277D01*
X157338122Y-66763644D01*
X157276438Y-66986071D01*
X157275890Y-66991199D01*
X157275889Y-66991204D01*
X157272817Y-67019954D01*
X157251909Y-67215587D01*
X154985682Y-67215587D01*
X154969598Y-67019954D01*
X154913366Y-66796085D01*
X154901423Y-66768617D01*
X154823386Y-66589144D01*
X154823384Y-66589141D01*
X154821326Y-66584407D01*
X154695949Y-66390604D01*
X154667973Y-66359858D01*
X154544080Y-66223702D01*
X154544078Y-66223700D01*
X154540602Y-66219880D01*
X154536551Y-66216681D01*
X154536547Y-66216677D01*
X154363513Y-66080023D01*
X154363509Y-66080021D01*
X154359458Y-66076821D01*
X154157381Y-65965269D01*
X154152512Y-65963545D01*
X154152508Y-65963543D01*
X153944673Y-65889945D01*
X153944669Y-65889944D01*
X153939798Y-65888219D01*
X153934705Y-65887312D01*
X153934702Y-65887311D01*
X153717641Y-65848646D01*
X153717637Y-65848646D01*
X153712553Y-65847740D01*
X153624183Y-65846660D01*
X153486916Y-65844983D01*
X153486914Y-65844983D01*
X153481747Y-65844920D01*
X153329729Y-65868182D01*
X153258690Y-65879052D01*
X153258687Y-65879053D01*
X153253581Y-65879834D01*
X153222647Y-65889945D01*
X153039093Y-65949940D01*
X153039091Y-65949941D01*
X153034180Y-65951546D01*
X152829438Y-66058128D01*
X152825305Y-66061231D01*
X152825302Y-66061233D01*
X152648988Y-66193613D01*
X152644853Y-66196718D01*
X152485381Y-66363595D01*
X152355307Y-66554277D01*
X152258122Y-66763644D01*
X152196438Y-66986071D01*
X152195890Y-66991199D01*
X152195889Y-66991204D01*
X152192817Y-67019954D01*
X152171909Y-67215587D01*
X151000000Y-67215587D01*
X151000000Y-62079200D01*
X151020002Y-62011079D01*
X151073658Y-61964586D01*
X151126000Y-61953200D01*
X173170800Y-61953200D01*
X173238921Y-61973202D01*
G37*
%TD.AperFunction*%
%TD*%
%TA.AperFunction,Conductor*%
%TO.N,+2.5V*%
G36*
X147960563Y-113770002D02*
G01*
X148007056Y-113823658D01*
X148017160Y-113893932D01*
X148008851Y-113924218D01*
X147955096Y-114053993D01*
X147935874Y-114200000D01*
X147955096Y-114346007D01*
X148011453Y-114482063D01*
X148101103Y-114598897D01*
X148217937Y-114688547D01*
X148353993Y-114744904D01*
X148362177Y-114745981D01*
X148362179Y-114745982D01*
X148491812Y-114763048D01*
X148500000Y-114764126D01*
X148508188Y-114763048D01*
X148637821Y-114745982D01*
X148637823Y-114745981D01*
X148646007Y-114744904D01*
X148782063Y-114688547D01*
X148898897Y-114598897D01*
X148988547Y-114482063D01*
X149044904Y-114346007D01*
X149064126Y-114200000D01*
X149044904Y-114053993D01*
X148991149Y-113924219D01*
X148983560Y-113853629D01*
X149015339Y-113790142D01*
X149076397Y-113753914D01*
X149107558Y-113750000D01*
X163142442Y-113750000D01*
X163210563Y-113770002D01*
X163257056Y-113823658D01*
X163267160Y-113893932D01*
X163258851Y-113924218D01*
X163205096Y-114053993D01*
X163185874Y-114200000D01*
X163205096Y-114346007D01*
X163261453Y-114482063D01*
X163351103Y-114598897D01*
X163467937Y-114688547D01*
X163603993Y-114744904D01*
X163612177Y-114745981D01*
X163612179Y-114745982D01*
X163741812Y-114763048D01*
X163750000Y-114764126D01*
X163758188Y-114763048D01*
X163887821Y-114745982D01*
X163887823Y-114745981D01*
X163896007Y-114744904D01*
X164032063Y-114688547D01*
X164148897Y-114598897D01*
X164238547Y-114482063D01*
X164294904Y-114346007D01*
X164305155Y-114268143D01*
X164333877Y-114203216D01*
X164393143Y-114164124D01*
X164464134Y-114163279D01*
X164512077Y-114188923D01*
X167500000Y-116750000D01*
X168324714Y-116750000D01*
X168392835Y-116770002D01*
X168424676Y-116799296D01*
X168501103Y-116898897D01*
X168617937Y-116988547D01*
X168753993Y-117044904D01*
X168762177Y-117045981D01*
X168762179Y-117045982D01*
X168891812Y-117063048D01*
X168900000Y-117064126D01*
X168908188Y-117063048D01*
X169037821Y-117045982D01*
X169037823Y-117045981D01*
X169046007Y-117044904D01*
X169182063Y-116988547D01*
X169298897Y-116898897D01*
X169375324Y-116799296D01*
X169432662Y-116757429D01*
X169475286Y-116750000D01*
X172225112Y-116750000D01*
X172293233Y-116770002D01*
X172339726Y-116823658D01*
X172350034Y-116892445D01*
X172335874Y-117000000D01*
X172355096Y-117146007D01*
X172411453Y-117282063D01*
X172501103Y-117398897D01*
X172617937Y-117488547D01*
X172753993Y-117544904D01*
X172762177Y-117545981D01*
X172762179Y-117545982D01*
X172891812Y-117563048D01*
X172900000Y-117564126D01*
X172908188Y-117563048D01*
X173037821Y-117545982D01*
X173037823Y-117545981D01*
X173046007Y-117544904D01*
X173064181Y-117537376D01*
X173122582Y-117513186D01*
X173193172Y-117505597D01*
X173256659Y-117537376D01*
X173292886Y-117598434D01*
X173296800Y-117629595D01*
X173296800Y-118370405D01*
X173276798Y-118438526D01*
X173223142Y-118485019D01*
X173152868Y-118495123D01*
X173122582Y-118486814D01*
X173053636Y-118458256D01*
X173053635Y-118458256D01*
X173046007Y-118455096D01*
X173037823Y-118454019D01*
X173037821Y-118454018D01*
X172908188Y-118436952D01*
X172900000Y-118435874D01*
X172891812Y-118436952D01*
X172762179Y-118454018D01*
X172762177Y-118454019D01*
X172753993Y-118455096D01*
X172617937Y-118511453D01*
X172501103Y-118601103D01*
X172411453Y-118717937D01*
X172355096Y-118853993D01*
X172354019Y-118862177D01*
X172354018Y-118862179D01*
X172348894Y-118901103D01*
X172335874Y-119000000D01*
X172355096Y-119146007D01*
X172411453Y-119282063D01*
X172501103Y-119398897D01*
X172617937Y-119488547D01*
X172753993Y-119544904D01*
X172762177Y-119545981D01*
X172762179Y-119545982D01*
X172891812Y-119563048D01*
X172900000Y-119564126D01*
X172908188Y-119563048D01*
X173037821Y-119545982D01*
X173037823Y-119545981D01*
X173046007Y-119544904D01*
X173064181Y-119537376D01*
X173122582Y-119513186D01*
X173193172Y-119505597D01*
X173256659Y-119537376D01*
X173292886Y-119598434D01*
X173296800Y-119629595D01*
X173296800Y-120370405D01*
X173276798Y-120438526D01*
X173223142Y-120485019D01*
X173152868Y-120495123D01*
X173122582Y-120486814D01*
X173053636Y-120458256D01*
X173053635Y-120458256D01*
X173046007Y-120455096D01*
X173037823Y-120454019D01*
X173037821Y-120454018D01*
X172908188Y-120436952D01*
X172900000Y-120435874D01*
X172891812Y-120436952D01*
X172762179Y-120454018D01*
X172762177Y-120454019D01*
X172753993Y-120455096D01*
X172617937Y-120511453D01*
X172501103Y-120601103D01*
X172411453Y-120717937D01*
X172355096Y-120853993D01*
X172354019Y-120862177D01*
X172354018Y-120862179D01*
X172338933Y-120976768D01*
X172335874Y-121000000D01*
X172350034Y-121107555D01*
X172339095Y-121177702D01*
X172291967Y-121230801D01*
X172225112Y-121250000D01*
X169634306Y-121250000D01*
X169566185Y-121229998D01*
X169519692Y-121176342D01*
X169509588Y-121106068D01*
X169539082Y-121041488D01*
X169586088Y-121007591D01*
X169624436Y-120991707D01*
X169624441Y-120991704D01*
X169632063Y-120988547D01*
X169748897Y-120898897D01*
X169838547Y-120782063D01*
X169894904Y-120646007D01*
X169899954Y-120607653D01*
X169913048Y-120508188D01*
X169914126Y-120500000D01*
X169894904Y-120353993D01*
X169838547Y-120217937D01*
X169748897Y-120101103D01*
X169632063Y-120011453D01*
X169496007Y-119955096D01*
X169487823Y-119954019D01*
X169487821Y-119954018D01*
X169358188Y-119936952D01*
X169350000Y-119935874D01*
X169341812Y-119936952D01*
X169212179Y-119954018D01*
X169212177Y-119954019D01*
X169203993Y-119955096D01*
X169067937Y-120011453D01*
X168951103Y-120101103D01*
X168861453Y-120217937D01*
X168805096Y-120353993D01*
X168785874Y-120500000D01*
X168786952Y-120508188D01*
X168800047Y-120607653D01*
X168805096Y-120646007D01*
X168861453Y-120782063D01*
X168951103Y-120898897D01*
X169067937Y-120988547D01*
X169075559Y-120991704D01*
X169075564Y-120991707D01*
X169113912Y-121007591D01*
X169169193Y-121052140D01*
X169191614Y-121119503D01*
X169174056Y-121188294D01*
X169122094Y-121236673D01*
X169065694Y-121250000D01*
X167302190Y-121250000D01*
X167234069Y-121229998D01*
X167213095Y-121213095D01*
X164250000Y-118250000D01*
X168335874Y-118250000D01*
X168355096Y-118396007D01*
X168411453Y-118532063D01*
X168501103Y-118648897D01*
X168617937Y-118738547D01*
X168753993Y-118794904D01*
X168762177Y-118795981D01*
X168762179Y-118795982D01*
X168891812Y-118813048D01*
X168900000Y-118814126D01*
X168908188Y-118813048D01*
X169037821Y-118795982D01*
X169037823Y-118795981D01*
X169046007Y-118794904D01*
X169182063Y-118738547D01*
X169298897Y-118648897D01*
X169388547Y-118532063D01*
X169444904Y-118396007D01*
X169464126Y-118250000D01*
X169444904Y-118103993D01*
X169388547Y-117967937D01*
X169298897Y-117851103D01*
X169182063Y-117761453D01*
X169046007Y-117705096D01*
X169037823Y-117704019D01*
X169037821Y-117704018D01*
X168908188Y-117686952D01*
X168900000Y-117685874D01*
X168891812Y-117686952D01*
X168762179Y-117704018D01*
X168762177Y-117704019D01*
X168753993Y-117705096D01*
X168617937Y-117761453D01*
X168501103Y-117851103D01*
X168411453Y-117967937D01*
X168355096Y-118103993D01*
X168335874Y-118250000D01*
X164250000Y-118250000D01*
X164000000Y-118000000D01*
X162174888Y-118000000D01*
X162106767Y-117979998D01*
X162060274Y-117926342D01*
X162049966Y-117857555D01*
X162064126Y-117750000D01*
X162044904Y-117603993D01*
X161988547Y-117467937D01*
X161898897Y-117351103D01*
X161782063Y-117261453D01*
X161646007Y-117205096D01*
X161637823Y-117204019D01*
X161637821Y-117204018D01*
X161508188Y-117186952D01*
X161500000Y-117185874D01*
X161491812Y-117186952D01*
X161362179Y-117204018D01*
X161362177Y-117204019D01*
X161353993Y-117205096D01*
X161217937Y-117261453D01*
X161101103Y-117351103D01*
X161011453Y-117467937D01*
X160955096Y-117603993D01*
X160935874Y-117750000D01*
X160950034Y-117857555D01*
X160939095Y-117927702D01*
X160891967Y-117980801D01*
X160825112Y-118000000D01*
X147174888Y-118000000D01*
X147106767Y-117979998D01*
X147060274Y-117926342D01*
X147049966Y-117857555D01*
X147064126Y-117750000D01*
X147044904Y-117603993D01*
X146988547Y-117467937D01*
X146898897Y-117351103D01*
X146782063Y-117261453D01*
X146646007Y-117205096D01*
X146637823Y-117204019D01*
X146637821Y-117204018D01*
X146508188Y-117186952D01*
X146500000Y-117185874D01*
X146491812Y-117186952D01*
X146362179Y-117204018D01*
X146362177Y-117204019D01*
X146353993Y-117205096D01*
X146217937Y-117261453D01*
X146101103Y-117351103D01*
X146080022Y-117378577D01*
X146022686Y-117420442D01*
X145951815Y-117424664D01*
X145890966Y-117390966D01*
X145786905Y-117286905D01*
X145752879Y-117224593D01*
X145750000Y-117197810D01*
X145750000Y-114886900D01*
X152935874Y-114886900D01*
X152955096Y-115032907D01*
X153011453Y-115168963D01*
X153101103Y-115285797D01*
X153217937Y-115375447D01*
X153353993Y-115431804D01*
X153362177Y-115432881D01*
X153362179Y-115432882D01*
X153491812Y-115449948D01*
X153500000Y-115451026D01*
X153508188Y-115449948D01*
X153637821Y-115432882D01*
X153637823Y-115432881D01*
X153646007Y-115431804D01*
X153782063Y-115375447D01*
X153898897Y-115285797D01*
X153988547Y-115168963D01*
X154044904Y-115032907D01*
X154064126Y-114886900D01*
X154044904Y-114740893D01*
X153988547Y-114604837D01*
X153898897Y-114488003D01*
X153782063Y-114398353D01*
X153646007Y-114341996D01*
X153637823Y-114340919D01*
X153637821Y-114340918D01*
X153508188Y-114323852D01*
X153500000Y-114322774D01*
X153491812Y-114323852D01*
X153362179Y-114340918D01*
X153362177Y-114340919D01*
X153353993Y-114341996D01*
X153217937Y-114398353D01*
X153101103Y-114488003D01*
X153011453Y-114604837D01*
X152955096Y-114740893D01*
X152935874Y-114886900D01*
X145750000Y-114886900D01*
X145750000Y-113876000D01*
X145770002Y-113807879D01*
X145823658Y-113761386D01*
X145876000Y-113750000D01*
X147892442Y-113750000D01*
X147960563Y-113770002D01*
G37*
%TD.AperFunction*%
%TD*%
M02*
