M48
; DRILL file {KiCad 6.0.0} date sam. 16 avril 2022 14:37:28
; FORMAT={-:-/ absolute / inch / decimal}
; #@! TF.CreationDate,2022-04-16T14:37:28+02:00
; #@! TF.GenerationSoftware,Kicad,Pcbnew,6.0.0
; #@! TF.FileFunction,Plated,1,4,PTH
FMAT,2
INCH
; #@! TA.AperFunction,Plated,PTH,ViaDrill
T1C0.0120
; #@! TA.AperFunction,Plated,PTH,ComponentDrill
T2C0.0120
; #@! TA.AperFunction,Plated,PTH,ComponentDrill
T3C0.0315
; #@! TA.AperFunction,Plated,PTH,ComponentDrill
T4C0.0394
; #@! TA.AperFunction,Plated,PTH,ComponentDrill
T5C0.0512
; #@! TA.AperFunction,Plated,PTH,ComponentDrill
T6C0.0591
%
G90
G05
T1
X4.8858Y-2.9528
X4.8858Y-3.0315
X4.8858Y-3.1102
X4.8858Y-3.189
X4.8858Y-3.2677
X4.8858Y-3.3465
X4.8858Y-3.4252
X4.8858Y-3.5039
X4.8858Y-3.5827
X4.8858Y-3.6614
X4.8858Y-3.7402
X4.8858Y-3.8189
X4.8858Y-3.8976
X4.8858Y-3.9764
X4.8858Y-4.0551
X4.8858Y-4.1339
X4.8858Y-4.2126
X4.8858Y-4.2913
X4.8858Y-4.3701
X4.8858Y-4.4488
X4.8858Y-4.5276
X4.9409Y-3.5433
X4.9606Y-3.1102
X4.9606Y-3.2677
X4.9803Y-4.0551
X4.9803Y-4.4488
X5.0098Y-3.5433
X5.0197Y-3.8248
X5.0591Y-4.0551
X5.0591Y-4.4488
X5.0689Y-3.4843
X5.0689Y-3.5236
X5.0984Y-3.8248
X5.122Y-3.8878
X5.1378Y-3.5039
X5.1378Y-4.0551
X5.1378Y-4.4488
X5.1575Y-3.6713
X5.187Y-4.0846
X5.187Y-4.2165
X5.2067Y-3.4843
X5.2067Y-3.5236
X5.2559Y-3.4843
X5.2953Y-4.4193
X5.3346Y-4.4193
X5.374Y-4.4193
X5.4134Y-3.4843
X5.4134Y-4.2323
X5.4134Y-4.4587
X5.4134Y-4.498
X5.4134Y-4.5374
X5.4528Y-3.189
X5.4724Y-3.4843
X5.4724Y-4.4488
X5.4724Y-4.4882
X5.5118Y-4.4488
X5.5118Y-4.4882
X5.5315Y-3.0315
X5.5315Y-3.1102
X5.5315Y-3.189
X5.5315Y-3.4843
X5.5315Y-3.5453
X5.5315Y-3.6024
X5.5315Y-4.1634
X5.5906Y-4.4528
X5.626Y-4.7441
X5.6496Y-3.6417
X5.6496Y-3.7402
X5.6496Y-3.8386
X5.6496Y-3.937
X5.6594Y-4.3248
X5.6594Y-4.4941
X5.7047Y-4.8425
X5.7244Y-3.6713
X5.7244Y-3.7402
X5.7244Y-3.8091
X5.7244Y-3.8681
X5.7677Y-4.6358
X5.7776Y-4.2343
X5.7776Y-4.4272
X5.8091Y-4.4961
X5.8169Y-3.9173
X5.8339Y-4.1929
X5.8465Y-4.4961
X5.8465Y-4.6969
X5.8465Y-4.8425
X5.8465Y-5.0
X5.8563Y-3.6713
X5.8819Y-3.5236
X5.935Y-4.2815
X5.9409Y-3.8091
X5.9409Y-3.8681
X5.9744Y-3.5728
X5.9882Y-4.8425
X5.9941Y-3.6772
X6.0256Y-3.0807
X6.0433Y-4.5231
X6.0669Y-4.7441
X6.0709Y-3.1791
X6.0925Y-4.0394
X6.1024Y-3.2992
X6.1122Y-4.1535
X6.1831Y-3.2992
X6.2047Y-4.1988
X6.2244Y-4.7441
X6.25Y-3.5728
X6.2579Y-3.4862
X6.2657Y-4.3169
X6.2697Y-3.6772
X6.2953Y-4.8425
X6.3031Y-3.9075
X6.3484Y-3.2087
X6.3524Y-3.5295
X6.3543Y-4.4488
X6.3583Y-4.6358
X6.3976Y-3.0807
X6.4075Y-3.9272
X6.4094Y-4.4961
X6.4469Y-4.4961
X6.4469Y-4.6969
X6.4469Y-4.8425
X6.4469Y-5.0
X6.4803Y-4.1437
X6.5236Y-4.1831
X6.5394Y-3.9272
X6.5453Y-2.9921
X6.5984Y-4.8425
X6.6043Y-4.0551
X6.6142Y-4.1693
X6.6142Y-4.4646
X6.6201Y-3.189
X6.6496Y-4.5177
X6.6496Y-4.5866
X6.6496Y-4.6555
X6.6673Y-4.7441
X6.6831Y-4.1102
X6.7028Y-4.0551
X6.7126Y-4.3071
X6.7421Y-4.6988
X6.7421Y-4.7343
X6.752Y-4.1102
X6.8071Y-2.9528
X6.8071Y-3.0315
X6.8071Y-3.1102
X6.8071Y-3.189
X6.8071Y-3.2677
X6.8071Y-3.3465
X6.8071Y-3.4252
X6.8071Y-3.5039
X6.8071Y-3.5827
X6.8071Y-3.6614
X6.8071Y-3.7402
X6.8071Y-3.8189
X6.8071Y-3.8976
X6.8071Y-3.9764
X6.8071Y-4.0551
X6.8071Y-4.1339
X6.8071Y-4.2126
X6.8071Y-4.2913
X6.8071Y-4.3701
X6.8071Y-4.4488
X6.8071Y-4.5276
X6.8071Y-4.6063
X6.8071Y-4.685
X6.8071Y-4.7638
X6.8071Y-4.8425
X6.8071Y-4.9213
X6.8071Y-5.0
X6.8071Y-5.0787
X6.8071Y-5.1575
X6.8071Y-5.2362
T2
X6.4075Y-4.0551
X6.5059Y-4.0551
T3
X6.7323Y-3.1283
X6.7323Y-3.2283
X6.7323Y-3.3283
T4
X5.0669Y-4.1575
X5.0669Y-4.3051
T5
X5.0669Y-4.748
X5.0669Y-4.9449
X5.0669Y-5.1417
T6
X5.0465Y-2.6476
X5.0465Y-5.6201
X5.2465Y-2.6476
X5.2465Y-5.6201
X5.4465Y-2.6476
X5.4465Y-5.6201
X5.6465Y-2.6476
X5.6465Y-5.6201
X5.8465Y-2.6476
X5.8465Y-5.6201
X6.0465Y-2.6476
X6.0465Y-5.6201
X6.2465Y-2.6476
X6.2465Y-5.6201
X6.4465Y-2.6476
X6.4465Y-5.6201
X6.6465Y-2.6476
X6.6465Y-5.6201
T0
M30
