%TF.GenerationSoftware,KiCad,Pcbnew,6.0.0*%
%TF.CreationDate,2022-04-16T14:37:20+02:00*%
%TF.ProjectId,cowdin-3a-pwrmon,636f7764-696e-42d3-9361-2d7077726d6f,1*%
%TF.SameCoordinates,Original*%
%TF.FileFunction,Copper,L4,Bot*%
%TF.FilePolarity,Positive*%
%FSLAX46Y46*%
G04 Gerber Fmt 4.6, Leading zero omitted, Abs format (unit mm)*
G04 Created by KiCad (PCBNEW 6.0.0) date 2022-04-16 14:37:20*
%MOMM*%
%LPD*%
G01*
G04 APERTURE LIST*
%ADD10C,0.101600*%
%TA.AperFunction,NonConductor*%
%ADD11C,0.101600*%
%TD*%
%TA.AperFunction,ComponentPad*%
%ADD12R,2.400000X2.400000*%
%TD*%
%TA.AperFunction,ComponentPad*%
%ADD13C,2.400000*%
%TD*%
%TA.AperFunction,ComponentPad*%
%ADD14C,1.200000*%
%TD*%
%TA.AperFunction,ComponentPad*%
%ADD15C,2.200000*%
%TD*%
%TA.AperFunction,ComponentPad*%
%ADD16C,2.000000*%
%TD*%
%TA.AperFunction,ComponentPad*%
%ADD17C,1.524000*%
%TD*%
%TA.AperFunction,SMDPad,CuDef*%
%ADD18C,1.198880*%
%TD*%
%TA.AperFunction,ViaPad*%
%ADD19C,0.711200*%
%TD*%
%TA.AperFunction,Conductor*%
%ADD20C,1.016000*%
%TD*%
%TA.AperFunction,Conductor*%
%ADD21C,0.304800*%
%TD*%
%TA.AperFunction,Conductor*%
%ADD22C,0.406400*%
%TD*%
G04 APERTURE END LIST*
D10*
D11*
X172479571Y-147322142D02*
X172515857Y-147358428D01*
X172624714Y-147394714D01*
X172697285Y-147394714D01*
X172806142Y-147358428D01*
X172878714Y-147285857D01*
X172915000Y-147213285D01*
X172951285Y-147068142D01*
X172951285Y-146959285D01*
X172915000Y-146814142D01*
X172878714Y-146741571D01*
X172806142Y-146669000D01*
X172697285Y-146632714D01*
X172624714Y-146632714D01*
X172515857Y-146669000D01*
X172479571Y-146705285D01*
X172044142Y-147394714D02*
X172116714Y-147358428D01*
X172153000Y-147322142D01*
X172189285Y-147249571D01*
X172189285Y-147031857D01*
X172153000Y-146959285D01*
X172116714Y-146923000D01*
X172044142Y-146886714D01*
X171935285Y-146886714D01*
X171862714Y-146923000D01*
X171826428Y-146959285D01*
X171790142Y-147031857D01*
X171790142Y-147249571D01*
X171826428Y-147322142D01*
X171862714Y-147358428D01*
X171935285Y-147394714D01*
X172044142Y-147394714D01*
X171536142Y-146886714D02*
X171391000Y-147394714D01*
X171245857Y-147031857D01*
X171100714Y-147394714D01*
X170955571Y-146886714D01*
X170665285Y-147394714D02*
X170665285Y-146632714D01*
X170483857Y-146632714D01*
X170375000Y-146669000D01*
X170302428Y-146741571D01*
X170266142Y-146814142D01*
X170229857Y-146959285D01*
X170229857Y-147068142D01*
X170266142Y-147213285D01*
X170302428Y-147285857D01*
X170375000Y-147358428D01*
X170483857Y-147394714D01*
X170665285Y-147394714D01*
X169903285Y-147394714D02*
X169903285Y-146632714D01*
X169540428Y-147394714D02*
X169540428Y-146632714D01*
X169105000Y-147394714D01*
X169105000Y-146632714D01*
X168742142Y-147104428D02*
X168161571Y-147104428D01*
X167871285Y-146632714D02*
X167399571Y-146632714D01*
X167653571Y-146923000D01*
X167544714Y-146923000D01*
X167472142Y-146959285D01*
X167435857Y-146995571D01*
X167399571Y-147068142D01*
X167399571Y-147249571D01*
X167435857Y-147322142D01*
X167472142Y-147358428D01*
X167544714Y-147394714D01*
X167762428Y-147394714D01*
X167835000Y-147358428D01*
X167871285Y-147322142D01*
X167109285Y-147177000D02*
X166746428Y-147177000D01*
X167181857Y-147394714D02*
X166927857Y-146632714D01*
X166673857Y-147394714D01*
X166419857Y-147104428D02*
X165839285Y-147104428D01*
X165476428Y-146886714D02*
X165476428Y-147648714D01*
X165476428Y-146923000D02*
X165403857Y-146886714D01*
X165258714Y-146886714D01*
X165186142Y-146923000D01*
X165149857Y-146959285D01*
X165113571Y-147031857D01*
X165113571Y-147249571D01*
X165149857Y-147322142D01*
X165186142Y-147358428D01*
X165258714Y-147394714D01*
X165403857Y-147394714D01*
X165476428Y-147358428D01*
X164859571Y-146886714D02*
X164714428Y-147394714D01*
X164569285Y-147031857D01*
X164424142Y-147394714D01*
X164279000Y-146886714D01*
X163988714Y-147394714D02*
X163988714Y-146886714D01*
X163988714Y-147031857D02*
X163952428Y-146959285D01*
X163916142Y-146923000D01*
X163843571Y-146886714D01*
X163771000Y-146886714D01*
X163517000Y-147394714D02*
X163517000Y-146886714D01*
X163517000Y-146959285D02*
X163480714Y-146923000D01*
X163408142Y-146886714D01*
X163299285Y-146886714D01*
X163226714Y-146923000D01*
X163190428Y-146995571D01*
X163190428Y-147394714D01*
X163190428Y-146995571D02*
X163154142Y-146923000D01*
X163081571Y-146886714D01*
X162972714Y-146886714D01*
X162900142Y-146923000D01*
X162863857Y-146995571D01*
X162863857Y-147394714D01*
X162392142Y-147394714D02*
X162464714Y-147358428D01*
X162501000Y-147322142D01*
X162537285Y-147249571D01*
X162537285Y-147031857D01*
X162501000Y-146959285D01*
X162464714Y-146923000D01*
X162392142Y-146886714D01*
X162283285Y-146886714D01*
X162210714Y-146923000D01*
X162174428Y-146959285D01*
X162138142Y-147031857D01*
X162138142Y-147249571D01*
X162174428Y-147322142D01*
X162210714Y-147358428D01*
X162283285Y-147394714D01*
X162392142Y-147394714D01*
X161811571Y-146886714D02*
X161811571Y-147394714D01*
X161811571Y-146959285D02*
X161775285Y-146923000D01*
X161702714Y-146886714D01*
X161593857Y-146886714D01*
X161521285Y-146923000D01*
X161485000Y-146995571D01*
X161485000Y-147394714D01*
D12*
%TO.P,P1,1*%
%TO.N,GND*%
X128180000Y-67250000D03*
D13*
%TO.P,P1,2*%
%TO.N,+VIn*%
X133260000Y-67250000D03*
%TO.P,P1,3*%
%TO.N,unconnected-(P1-Pad3)*%
X138340000Y-67250000D03*
%TO.P,P1,4*%
%TO.N,LINKY_I1*%
X143420000Y-67250000D03*
%TO.P,P1,5*%
%TO.N,LINKY_I2*%
X148500000Y-67250000D03*
%TO.P,P1,6*%
%TO.N,unconnected-(P1-Pad6)*%
X153580000Y-67250000D03*
%TO.P,P1,7*%
%TO.N,GND*%
X158660000Y-67250000D03*
%TO.P,P1,8*%
%TO.N,RS485_B*%
X163740000Y-67250000D03*
%TO.P,P1,9*%
%TO.N,RS485_A*%
X168820000Y-67250000D03*
%TD*%
D14*
%TO.P,TP8,1,1*%
%TO.N,Net-(TP8-Pad1)*%
X165250000Y-103000000D03*
%TD*%
D12*
%TO.P,P2,1*%
%TO.N,RL_NO*%
X128180000Y-142750000D03*
D13*
%TO.P,P2,2*%
%TO.N,RL_COM*%
X133260000Y-142750000D03*
%TO.P,P2,3*%
%TO.N,RL_NC*%
X138340000Y-142750000D03*
%TO.P,P2,4*%
%TO.N,CT5_A*%
X143420000Y-142750000D03*
%TO.P,P2,5*%
%TO.N,CT2_B*%
X148500000Y-142750000D03*
%TO.P,P2,6*%
%TO.N,CT2_A*%
X153580000Y-142750000D03*
%TO.P,P2,7*%
%TO.N,CT4_A*%
X158660000Y-142750000D03*
%TO.P,P2,8*%
%TO.N,CT1_B*%
X163740000Y-142750000D03*
%TO.P,P2,9*%
%TO.N,CT1_A*%
X168820000Y-142750000D03*
%TD*%
D15*
%TO.P,RL1,11*%
%TO.N,RL_COM*%
X128700000Y-125600000D03*
%TO.P,RL1,12*%
%TO.N,RL_NC*%
X128700000Y-120600000D03*
%TO.P,RL1,14*%
%TO.N,RL_NO*%
X128700000Y-130600000D03*
D16*
%TO.P,RL1,A1*%
%TO.N,Net-(D3-Pad1)*%
X128700000Y-109350000D03*
%TO.P,RL1,A2*%
%TO.N,+5V*%
X128700000Y-105600000D03*
%TD*%
D14*
%TO.P,TP7,1,1*%
%TO.N,Net-(TP7-Pad1)*%
X162750000Y-103000000D03*
%TD*%
D17*
%TO.P,SW1,1*%
%TO.N,Net-(R1-Pad1)*%
X171000000Y-84540000D03*
%TO.P,SW1,2*%
%TO.N,RS485_A*%
X171000000Y-82000000D03*
%TO.P,SW1,3*%
%TO.N,N/C*%
X171000000Y-79460000D03*
%TD*%
D18*
%TO.P,TP2,1,1*%
%TO.N,/Power Supply/5V_RAW*%
X137500000Y-107500000D03*
%TD*%
%TO.P,TP1,1,1*%
%TO.N,GND*%
X167750000Y-103000000D03*
%TD*%
D19*
%TO.N,/Power Supply/5V_RAW*%
X137500000Y-107500000D03*
%TO.N,CT1_B*%
X161500000Y-117750000D03*
X163750000Y-127000000D03*
%TO.N,CT2_B*%
X146500000Y-117750000D03*
X148500000Y-127000000D03*
%TO.N,GND*%
X137500000Y-88500000D03*
X124100000Y-101000000D03*
X172900000Y-119000000D03*
X142900000Y-120500000D03*
X146750000Y-112450000D03*
X124100000Y-97000000D03*
X145400000Y-96750000D03*
X172900000Y-127000000D03*
X159900000Y-123000000D03*
X130500000Y-113000000D03*
X145400000Y-95000000D03*
X137500000Y-114250000D03*
X137500000Y-113250000D03*
X129500000Y-97150000D03*
X124100000Y-113000000D03*
X155000000Y-83800000D03*
X140500000Y-81000000D03*
X154100000Y-120500000D03*
X168000000Y-105900000D03*
X160100000Y-99250000D03*
X126000000Y-79000000D03*
X152250000Y-93400000D03*
X172900000Y-121000000D03*
X152100000Y-123000000D03*
X170500000Y-109400000D03*
X172900000Y-101000000D03*
X143500000Y-92500000D03*
X137500000Y-115250000D03*
X143750000Y-114150000D03*
X172900000Y-89000000D03*
X172900000Y-117000000D03*
X124100000Y-87000000D03*
X124100000Y-83000000D03*
X124100000Y-91000000D03*
X124100000Y-109000000D03*
X140500000Y-91500000D03*
X124100000Y-107000000D03*
X149400000Y-89500000D03*
X145400000Y-98250000D03*
X172900000Y-111000000D03*
X172900000Y-125000000D03*
X172900000Y-105000000D03*
X162500000Y-78250000D03*
X172900000Y-97000000D03*
X130500000Y-89000000D03*
X128750000Y-89500000D03*
X158100000Y-120500000D03*
X124100000Y-115000000D03*
X140500000Y-90050000D03*
X167600000Y-123000000D03*
X172900000Y-113000000D03*
X140500000Y-105750000D03*
X172900000Y-87000000D03*
X161350000Y-89650000D03*
X140500000Y-77000000D03*
X171500000Y-104400000D03*
X150900000Y-96750000D03*
X127500000Y-97150000D03*
X157600000Y-106650000D03*
X172900000Y-85000000D03*
X154750000Y-102600000D03*
X124100000Y-103000000D03*
X159250000Y-93400000D03*
X124100000Y-81000000D03*
X124100000Y-99000000D03*
X153050000Y-78250000D03*
X172900000Y-93000000D03*
X124100000Y-89000000D03*
X168900000Y-116500000D03*
X127250000Y-90000000D03*
X126500000Y-103000000D03*
X172900000Y-107000000D03*
X139000000Y-88500000D03*
X124100000Y-85000000D03*
X172900000Y-79000000D03*
X172900000Y-83000000D03*
X124100000Y-111000000D03*
X161400000Y-113000000D03*
X146750000Y-107550000D03*
X148500000Y-114200000D03*
X124100000Y-79000000D03*
X128500000Y-103000000D03*
X172900000Y-75000000D03*
X126000000Y-83000000D03*
X172900000Y-123000000D03*
X130500000Y-103000000D03*
X168900000Y-118250000D03*
X172900000Y-103000000D03*
X163750000Y-123000000D03*
X130100000Y-98750000D03*
X172900000Y-129000000D03*
X124100000Y-77000000D03*
X172900000Y-95000000D03*
X124100000Y-75000000D03*
X128500000Y-113000000D03*
X140500000Y-88500000D03*
X164600000Y-105250000D03*
X172900000Y-81000000D03*
X133500000Y-88500000D03*
X140500000Y-79000000D03*
X172900000Y-131000000D03*
X136500000Y-112250000D03*
X172900000Y-77000000D03*
X124100000Y-95000000D03*
X138500000Y-81000000D03*
X168000000Y-113400000D03*
X167750000Y-103000000D03*
X157050000Y-83800000D03*
X166100000Y-99750000D03*
X172900000Y-109000000D03*
X126500000Y-113000000D03*
X172900000Y-115000000D03*
X168900000Y-114750000D03*
X150750000Y-108750000D03*
X134500000Y-112250000D03*
X144900000Y-123000000D03*
X172900000Y-133000000D03*
X131750000Y-103750000D03*
X125500000Y-90000000D03*
X163750000Y-114200000D03*
X132250000Y-88500000D03*
X128750000Y-88500000D03*
X169350000Y-120500000D03*
X168150000Y-81000000D03*
X172900000Y-91000000D03*
X172900000Y-99000000D03*
X132250000Y-89500000D03*
X148500000Y-123000000D03*
X166250000Y-76000000D03*
X135500000Y-112250000D03*
X131000000Y-93250000D03*
X124100000Y-105000000D03*
X124100000Y-93000000D03*
X165700000Y-106250000D03*
%TO.N,+5V*%
X158750000Y-90750000D03*
X155250000Y-105500000D03*
X131750000Y-107100000D03*
X158950000Y-88550000D03*
X147750000Y-99500000D03*
X140000000Y-114000000D03*
X140000000Y-113000000D03*
X139000000Y-113000000D03*
X139000000Y-114000000D03*
X161250000Y-81500000D03*
X145400000Y-93250000D03*
X143750000Y-109850000D03*
X159150000Y-109650000D03*
X148500000Y-119300000D03*
X154200000Y-80750000D03*
X169750000Y-104400000D03*
X151750000Y-90750000D03*
X162750000Y-99750000D03*
X163750000Y-119300000D03*
X148180000Y-106500000D03*
X170250000Y-103000000D03*
%TO.N,+2.5V*%
X171250000Y-119350000D03*
X171250000Y-120250000D03*
X162800000Y-114200000D03*
X147550000Y-114200000D03*
%TO.N,RST*%
X148750000Y-93250000D03*
X143500000Y-95000000D03*
%TO.N,SWCLK*%
X150900000Y-98250000D03*
X143500000Y-97500000D03*
%TO.N,SWDAT*%
X143500000Y-100000000D03*
%TO.N,Net-(R23-Pad1)*%
X153500000Y-114886900D03*
X142000000Y-113100000D03*
%TD*%
D20*
%TO.N,CT1_B*%
X161500000Y-124750000D02*
X163750000Y-127000000D01*
X161500000Y-117750000D02*
X161500000Y-124750000D01*
%TO.N,CT2_B*%
X146500000Y-117750000D02*
X146500000Y-125000000D01*
X146500000Y-125000000D02*
X148500000Y-127000000D01*
%TO.N,RL_NO*%
X128180000Y-134670000D02*
X128700000Y-134150000D01*
X128700000Y-134150000D02*
X128700000Y-130600000D01*
X128180000Y-142750000D02*
X128180000Y-134670000D01*
D21*
%TO.N,RST*%
X148750000Y-93250000D02*
X147550000Y-93250000D01*
X147550000Y-93250000D02*
X146650000Y-94150000D01*
X146650000Y-94150000D02*
X144350000Y-94150000D01*
X144350000Y-94150000D02*
X143500000Y-95000000D01*
%TO.N,SWCLK*%
X150900000Y-98250000D02*
X148900000Y-98250000D01*
X148150000Y-97500000D02*
X143500000Y-97500000D01*
X148900000Y-98250000D02*
X148150000Y-97500000D01*
D20*
%TO.N,RL_COM*%
X133260000Y-142750000D02*
X133260000Y-130160000D01*
X133260000Y-130160000D02*
X128700000Y-125600000D01*
%TO.N,RL_NC*%
X138340000Y-142750000D02*
X138340000Y-130240000D01*
X138340000Y-130240000D02*
X128700000Y-120600000D01*
D22*
%TO.N,Net-(R23-Pad1)*%
X145000000Y-113350000D02*
X144750000Y-113100000D01*
X151963100Y-113350000D02*
X145000000Y-113350000D01*
X144750000Y-113100000D02*
X142000000Y-113100000D01*
X153500000Y-114886900D02*
X151963100Y-113350000D01*
%TD*%
%TA.AperFunction,Conductor*%
%TO.N,GND*%
G36*
X173238921Y-61973202D02*
G01*
X173285414Y-62026858D01*
X173296800Y-62079200D01*
X173296800Y-145804990D01*
X173276798Y-145873111D01*
X173223142Y-145919604D01*
X173170800Y-145930990D01*
X160899572Y-145930990D01*
X160899572Y-147920800D01*
X160879570Y-147988921D01*
X160825914Y-148035414D01*
X160773572Y-148046800D01*
X143126000Y-148046800D01*
X143057879Y-148026798D01*
X143011386Y-147973142D01*
X143000000Y-147920800D01*
X143000000Y-144251299D01*
X143020002Y-144183178D01*
X143073658Y-144136685D01*
X143143932Y-144126581D01*
X143151116Y-144127828D01*
X143253227Y-144148603D01*
X143258402Y-144148793D01*
X143258404Y-144148793D01*
X143478730Y-144156872D01*
X143478734Y-144156872D01*
X143483894Y-144157061D01*
X143489014Y-144156405D01*
X143489016Y-144156405D01*
X143707718Y-144128389D01*
X143707719Y-144128389D01*
X143712846Y-144127732D01*
X143717796Y-144126247D01*
X143928978Y-144062889D01*
X143928982Y-144062887D01*
X143933933Y-144061402D01*
X144141218Y-143959854D01*
X144224458Y-143900480D01*
X144324931Y-143828813D01*
X144329134Y-143825815D01*
X144395536Y-143759645D01*
X144488975Y-143666531D01*
X144492635Y-143662884D01*
X144627330Y-143475437D01*
X144729600Y-143268507D01*
X144760698Y-143166153D01*
X144795197Y-143052605D01*
X144795198Y-143052599D01*
X144796701Y-143047653D01*
X144826829Y-142818805D01*
X144828511Y-142750000D01*
X144825682Y-142715587D01*
X147091909Y-142715587D01*
X147092206Y-142720739D01*
X147092206Y-142720743D01*
X147104899Y-142940868D01*
X147104900Y-142940874D01*
X147105197Y-142946027D01*
X147155942Y-143171202D01*
X147242783Y-143385066D01*
X147363388Y-143581875D01*
X147514516Y-143756343D01*
X147692111Y-143903785D01*
X147891402Y-144020241D01*
X147896222Y-144022081D01*
X147896227Y-144022084D01*
X148039241Y-144076695D01*
X148107038Y-144102584D01*
X148112106Y-144103615D01*
X148112109Y-144103616D01*
X148223345Y-144126247D01*
X148333227Y-144148603D01*
X148338402Y-144148793D01*
X148338404Y-144148793D01*
X148558730Y-144156872D01*
X148558734Y-144156872D01*
X148563894Y-144157061D01*
X148569014Y-144156405D01*
X148569016Y-144156405D01*
X148787718Y-144128389D01*
X148787719Y-144128389D01*
X148792846Y-144127732D01*
X148797796Y-144126247D01*
X149008978Y-144062889D01*
X149008982Y-144062887D01*
X149013933Y-144061402D01*
X149221218Y-143959854D01*
X149304458Y-143900480D01*
X149404931Y-143828813D01*
X149409134Y-143825815D01*
X149475536Y-143759645D01*
X149568975Y-143666531D01*
X149572635Y-143662884D01*
X149707330Y-143475437D01*
X149809600Y-143268507D01*
X149840698Y-143166153D01*
X149875197Y-143052605D01*
X149875198Y-143052599D01*
X149876701Y-143047653D01*
X149906829Y-142818805D01*
X149908511Y-142750000D01*
X149905682Y-142715587D01*
X152171909Y-142715587D01*
X152172206Y-142720739D01*
X152172206Y-142720743D01*
X152184899Y-142940868D01*
X152184900Y-142940874D01*
X152185197Y-142946027D01*
X152235942Y-143171202D01*
X152322783Y-143385066D01*
X152443388Y-143581875D01*
X152594516Y-143756343D01*
X152772111Y-143903785D01*
X152971402Y-144020241D01*
X152976222Y-144022081D01*
X152976227Y-144022084D01*
X153119241Y-144076695D01*
X153187038Y-144102584D01*
X153192106Y-144103615D01*
X153192109Y-144103616D01*
X153303345Y-144126247D01*
X153413227Y-144148603D01*
X153418402Y-144148793D01*
X153418404Y-144148793D01*
X153638730Y-144156872D01*
X153638734Y-144156872D01*
X153643894Y-144157061D01*
X153649014Y-144156405D01*
X153649016Y-144156405D01*
X153867718Y-144128389D01*
X153867719Y-144128389D01*
X153872846Y-144127732D01*
X153877796Y-144126247D01*
X154088978Y-144062889D01*
X154088982Y-144062887D01*
X154093933Y-144061402D01*
X154301218Y-143959854D01*
X154384458Y-143900480D01*
X154484931Y-143828813D01*
X154489134Y-143825815D01*
X154555536Y-143759645D01*
X154648975Y-143666531D01*
X154652635Y-143662884D01*
X154787330Y-143475437D01*
X154889600Y-143268507D01*
X154920698Y-143166153D01*
X154955197Y-143052605D01*
X154955198Y-143052599D01*
X154956701Y-143047653D01*
X154986829Y-142818805D01*
X154988511Y-142750000D01*
X154985682Y-142715587D01*
X157251909Y-142715587D01*
X157252206Y-142720739D01*
X157252206Y-142720743D01*
X157264899Y-142940868D01*
X157264900Y-142940874D01*
X157265197Y-142946027D01*
X157315942Y-143171202D01*
X157402783Y-143385066D01*
X157523388Y-143581875D01*
X157674516Y-143756343D01*
X157852111Y-143903785D01*
X158051402Y-144020241D01*
X158056222Y-144022081D01*
X158056227Y-144022084D01*
X158199241Y-144076695D01*
X158267038Y-144102584D01*
X158272106Y-144103615D01*
X158272109Y-144103616D01*
X158383345Y-144126247D01*
X158493227Y-144148603D01*
X158498402Y-144148793D01*
X158498404Y-144148793D01*
X158718730Y-144156872D01*
X158718734Y-144156872D01*
X158723894Y-144157061D01*
X158729014Y-144156405D01*
X158729016Y-144156405D01*
X158947718Y-144128389D01*
X158947719Y-144128389D01*
X158952846Y-144127732D01*
X158957796Y-144126247D01*
X159168978Y-144062889D01*
X159168982Y-144062887D01*
X159173933Y-144061402D01*
X159381218Y-143959854D01*
X159464458Y-143900480D01*
X159564931Y-143828813D01*
X159569134Y-143825815D01*
X159635536Y-143759645D01*
X159728975Y-143666531D01*
X159732635Y-143662884D01*
X159867330Y-143475437D01*
X159969600Y-143268507D01*
X160000698Y-143166153D01*
X160035197Y-143052605D01*
X160035198Y-143052599D01*
X160036701Y-143047653D01*
X160066829Y-142818805D01*
X160068511Y-142750000D01*
X160065682Y-142715587D01*
X162331909Y-142715587D01*
X162332206Y-142720739D01*
X162332206Y-142720743D01*
X162344899Y-142940868D01*
X162344900Y-142940874D01*
X162345197Y-142946027D01*
X162395942Y-143171202D01*
X162482783Y-143385066D01*
X162603388Y-143581875D01*
X162754516Y-143756343D01*
X162932111Y-143903785D01*
X163131402Y-144020241D01*
X163136222Y-144022081D01*
X163136227Y-144022084D01*
X163279241Y-144076695D01*
X163347038Y-144102584D01*
X163352106Y-144103615D01*
X163352109Y-144103616D01*
X163463345Y-144126247D01*
X163573227Y-144148603D01*
X163578402Y-144148793D01*
X163578404Y-144148793D01*
X163798730Y-144156872D01*
X163798734Y-144156872D01*
X163803894Y-144157061D01*
X163809014Y-144156405D01*
X163809016Y-144156405D01*
X164027718Y-144128389D01*
X164027719Y-144128389D01*
X164032846Y-144127732D01*
X164037796Y-144126247D01*
X164248978Y-144062889D01*
X164248982Y-144062887D01*
X164253933Y-144061402D01*
X164461218Y-143959854D01*
X164544458Y-143900480D01*
X164644931Y-143828813D01*
X164649134Y-143825815D01*
X164715536Y-143759645D01*
X164808975Y-143666531D01*
X164812635Y-143662884D01*
X164947330Y-143475437D01*
X165049600Y-143268507D01*
X165080698Y-143166153D01*
X165115197Y-143052605D01*
X165115198Y-143052599D01*
X165116701Y-143047653D01*
X165146829Y-142818805D01*
X165148511Y-142750000D01*
X165145682Y-142715587D01*
X167411909Y-142715587D01*
X167412206Y-142720739D01*
X167412206Y-142720743D01*
X167424899Y-142940868D01*
X167424900Y-142940874D01*
X167425197Y-142946027D01*
X167475942Y-143171202D01*
X167562783Y-143385066D01*
X167683388Y-143581875D01*
X167834516Y-143756343D01*
X168012111Y-143903785D01*
X168211402Y-144020241D01*
X168216222Y-144022081D01*
X168216227Y-144022084D01*
X168359241Y-144076695D01*
X168427038Y-144102584D01*
X168432106Y-144103615D01*
X168432109Y-144103616D01*
X168543345Y-144126247D01*
X168653227Y-144148603D01*
X168658402Y-144148793D01*
X168658404Y-144148793D01*
X168878730Y-144156872D01*
X168878734Y-144156872D01*
X168883894Y-144157061D01*
X168889014Y-144156405D01*
X168889016Y-144156405D01*
X169107718Y-144128389D01*
X169107719Y-144128389D01*
X169112846Y-144127732D01*
X169117796Y-144126247D01*
X169328978Y-144062889D01*
X169328982Y-144062887D01*
X169333933Y-144061402D01*
X169541218Y-143959854D01*
X169624458Y-143900480D01*
X169724931Y-143828813D01*
X169729134Y-143825815D01*
X169795536Y-143759645D01*
X169888975Y-143666531D01*
X169892635Y-143662884D01*
X170027330Y-143475437D01*
X170129600Y-143268507D01*
X170160698Y-143166153D01*
X170195197Y-143052605D01*
X170195198Y-143052599D01*
X170196701Y-143047653D01*
X170226829Y-142818805D01*
X170228511Y-142750000D01*
X170209598Y-142519954D01*
X170153366Y-142296085D01*
X170141423Y-142268617D01*
X170063386Y-142089144D01*
X170063384Y-142089141D01*
X170061326Y-142084407D01*
X169935949Y-141890604D01*
X169907973Y-141859858D01*
X169784080Y-141723702D01*
X169784078Y-141723700D01*
X169780602Y-141719880D01*
X169776551Y-141716681D01*
X169776547Y-141716677D01*
X169603513Y-141580023D01*
X169603509Y-141580021D01*
X169599458Y-141576821D01*
X169397381Y-141465269D01*
X169392512Y-141463545D01*
X169392508Y-141463543D01*
X169184673Y-141389945D01*
X169184669Y-141389944D01*
X169179798Y-141388219D01*
X169174705Y-141387312D01*
X169174702Y-141387311D01*
X168957641Y-141348646D01*
X168957637Y-141348646D01*
X168952553Y-141347740D01*
X168864183Y-141346660D01*
X168726916Y-141344983D01*
X168726914Y-141344983D01*
X168721747Y-141344920D01*
X168569729Y-141368182D01*
X168498690Y-141379052D01*
X168498687Y-141379053D01*
X168493581Y-141379834D01*
X168462647Y-141389945D01*
X168279093Y-141449940D01*
X168279091Y-141449941D01*
X168274180Y-141451546D01*
X168069438Y-141558128D01*
X168065305Y-141561231D01*
X168065302Y-141561233D01*
X167888988Y-141693613D01*
X167884853Y-141696718D01*
X167725381Y-141863595D01*
X167595307Y-142054277D01*
X167498122Y-142263644D01*
X167436438Y-142486071D01*
X167435890Y-142491199D01*
X167435889Y-142491204D01*
X167432817Y-142519954D01*
X167411909Y-142715587D01*
X165145682Y-142715587D01*
X165129598Y-142519954D01*
X165073366Y-142296085D01*
X165061423Y-142268617D01*
X164983386Y-142089144D01*
X164983384Y-142089141D01*
X164981326Y-142084407D01*
X164855949Y-141890604D01*
X164827973Y-141859858D01*
X164704080Y-141723702D01*
X164704078Y-141723700D01*
X164700602Y-141719880D01*
X164696551Y-141716681D01*
X164696547Y-141716677D01*
X164523513Y-141580023D01*
X164523509Y-141580021D01*
X164519458Y-141576821D01*
X164317381Y-141465269D01*
X164312512Y-141463545D01*
X164312508Y-141463543D01*
X164104673Y-141389945D01*
X164104669Y-141389944D01*
X164099798Y-141388219D01*
X164094705Y-141387312D01*
X164094702Y-141387311D01*
X163877641Y-141348646D01*
X163877637Y-141348646D01*
X163872553Y-141347740D01*
X163784183Y-141346660D01*
X163646916Y-141344983D01*
X163646914Y-141344983D01*
X163641747Y-141344920D01*
X163489729Y-141368182D01*
X163418690Y-141379052D01*
X163418687Y-141379053D01*
X163413581Y-141379834D01*
X163382647Y-141389945D01*
X163199093Y-141449940D01*
X163199091Y-141449941D01*
X163194180Y-141451546D01*
X162989438Y-141558128D01*
X162985305Y-141561231D01*
X162985302Y-141561233D01*
X162808988Y-141693613D01*
X162804853Y-141696718D01*
X162645381Y-141863595D01*
X162515307Y-142054277D01*
X162418122Y-142263644D01*
X162356438Y-142486071D01*
X162355890Y-142491199D01*
X162355889Y-142491204D01*
X162352817Y-142519954D01*
X162331909Y-142715587D01*
X160065682Y-142715587D01*
X160049598Y-142519954D01*
X159993366Y-142296085D01*
X159981423Y-142268617D01*
X159903386Y-142089144D01*
X159903384Y-142089141D01*
X159901326Y-142084407D01*
X159775949Y-141890604D01*
X159747973Y-141859858D01*
X159624080Y-141723702D01*
X159624078Y-141723700D01*
X159620602Y-141719880D01*
X159616551Y-141716681D01*
X159616547Y-141716677D01*
X159443513Y-141580023D01*
X159443509Y-141580021D01*
X159439458Y-141576821D01*
X159237381Y-141465269D01*
X159232512Y-141463545D01*
X159232508Y-141463543D01*
X159024673Y-141389945D01*
X159024669Y-141389944D01*
X159019798Y-141388219D01*
X159014705Y-141387312D01*
X159014702Y-141387311D01*
X158797641Y-141348646D01*
X158797637Y-141348646D01*
X158792553Y-141347740D01*
X158704183Y-141346660D01*
X158566916Y-141344983D01*
X158566914Y-141344983D01*
X158561747Y-141344920D01*
X158409729Y-141368182D01*
X158338690Y-141379052D01*
X158338687Y-141379053D01*
X158333581Y-141379834D01*
X158302647Y-141389945D01*
X158119093Y-141449940D01*
X158119091Y-141449941D01*
X158114180Y-141451546D01*
X157909438Y-141558128D01*
X157905305Y-141561231D01*
X157905302Y-141561233D01*
X157728988Y-141693613D01*
X157724853Y-141696718D01*
X157565381Y-141863595D01*
X157435307Y-142054277D01*
X157338122Y-142263644D01*
X157276438Y-142486071D01*
X157275890Y-142491199D01*
X157275889Y-142491204D01*
X157272817Y-142519954D01*
X157251909Y-142715587D01*
X154985682Y-142715587D01*
X154969598Y-142519954D01*
X154913366Y-142296085D01*
X154901423Y-142268617D01*
X154823386Y-142089144D01*
X154823384Y-142089141D01*
X154821326Y-142084407D01*
X154695949Y-141890604D01*
X154667973Y-141859858D01*
X154544080Y-141723702D01*
X154544078Y-141723700D01*
X154540602Y-141719880D01*
X154536551Y-141716681D01*
X154536547Y-141716677D01*
X154363513Y-141580023D01*
X154363509Y-141580021D01*
X154359458Y-141576821D01*
X154157381Y-141465269D01*
X154152512Y-141463545D01*
X154152508Y-141463543D01*
X153944673Y-141389945D01*
X153944669Y-141389944D01*
X153939798Y-141388219D01*
X153934705Y-141387312D01*
X153934702Y-141387311D01*
X153717641Y-141348646D01*
X153717637Y-141348646D01*
X153712553Y-141347740D01*
X153624183Y-141346660D01*
X153486916Y-141344983D01*
X153486914Y-141344983D01*
X153481747Y-141344920D01*
X153329729Y-141368182D01*
X153258690Y-141379052D01*
X153258687Y-141379053D01*
X153253581Y-141379834D01*
X153222647Y-141389945D01*
X153039093Y-141449940D01*
X153039091Y-141449941D01*
X153034180Y-141451546D01*
X152829438Y-141558128D01*
X152825305Y-141561231D01*
X152825302Y-141561233D01*
X152648988Y-141693613D01*
X152644853Y-141696718D01*
X152485381Y-141863595D01*
X152355307Y-142054277D01*
X152258122Y-142263644D01*
X152196438Y-142486071D01*
X152195890Y-142491199D01*
X152195889Y-142491204D01*
X152192817Y-142519954D01*
X152171909Y-142715587D01*
X149905682Y-142715587D01*
X149889598Y-142519954D01*
X149833366Y-142296085D01*
X149821423Y-142268617D01*
X149743386Y-142089144D01*
X149743384Y-142089141D01*
X149741326Y-142084407D01*
X149615949Y-141890604D01*
X149587973Y-141859858D01*
X149464080Y-141723702D01*
X149464078Y-141723700D01*
X149460602Y-141719880D01*
X149456551Y-141716681D01*
X149456547Y-141716677D01*
X149283513Y-141580023D01*
X149283509Y-141580021D01*
X149279458Y-141576821D01*
X149077381Y-141465269D01*
X149072512Y-141463545D01*
X149072508Y-141463543D01*
X148864673Y-141389945D01*
X148864669Y-141389944D01*
X148859798Y-141388219D01*
X148854705Y-141387312D01*
X148854702Y-141387311D01*
X148637641Y-141348646D01*
X148637637Y-141348646D01*
X148632553Y-141347740D01*
X148544183Y-141346660D01*
X148406916Y-141344983D01*
X148406914Y-141344983D01*
X148401747Y-141344920D01*
X148249729Y-141368182D01*
X148178690Y-141379052D01*
X148178687Y-141379053D01*
X148173581Y-141379834D01*
X148142647Y-141389945D01*
X147959093Y-141449940D01*
X147959091Y-141449941D01*
X147954180Y-141451546D01*
X147749438Y-141558128D01*
X147745305Y-141561231D01*
X147745302Y-141561233D01*
X147568988Y-141693613D01*
X147564853Y-141696718D01*
X147405381Y-141863595D01*
X147275307Y-142054277D01*
X147178122Y-142263644D01*
X147116438Y-142486071D01*
X147115890Y-142491199D01*
X147115889Y-142491204D01*
X147112817Y-142519954D01*
X147091909Y-142715587D01*
X144825682Y-142715587D01*
X144809598Y-142519954D01*
X144753366Y-142296085D01*
X144741423Y-142268617D01*
X144663386Y-142089144D01*
X144663384Y-142089141D01*
X144661326Y-142084407D01*
X144535949Y-141890604D01*
X144507973Y-141859858D01*
X144384080Y-141723702D01*
X144384078Y-141723700D01*
X144380602Y-141719880D01*
X144376551Y-141716681D01*
X144376547Y-141716677D01*
X144203513Y-141580023D01*
X144203509Y-141580021D01*
X144199458Y-141576821D01*
X143997381Y-141465269D01*
X143992512Y-141463545D01*
X143992508Y-141463543D01*
X143784673Y-141389945D01*
X143784669Y-141389944D01*
X143779798Y-141388219D01*
X143774705Y-141387312D01*
X143774702Y-141387311D01*
X143557641Y-141348646D01*
X143557637Y-141348646D01*
X143552553Y-141347740D01*
X143464183Y-141346660D01*
X143326916Y-141344983D01*
X143326914Y-141344983D01*
X143321747Y-141344920D01*
X143145058Y-141371957D01*
X143074696Y-141362489D01*
X143020622Y-141316484D01*
X143000000Y-141247407D01*
X143000000Y-126000000D01*
X142037521Y-125037521D01*
X145784055Y-125037521D01*
X145785360Y-125044997D01*
X145785360Y-125045000D01*
X145795096Y-125100783D01*
X145796059Y-125107308D01*
X145797713Y-125120976D01*
X145803768Y-125171011D01*
X145806454Y-125178119D01*
X145807019Y-125180419D01*
X145811686Y-125197480D01*
X145812366Y-125199734D01*
X145813672Y-125207215D01*
X145823309Y-125229167D01*
X145839475Y-125265995D01*
X145841967Y-125272102D01*
X145864657Y-125332149D01*
X145868956Y-125338404D01*
X145870049Y-125340495D01*
X145878655Y-125355957D01*
X145879858Y-125357991D01*
X145882911Y-125364946D01*
X145887534Y-125370971D01*
X145887537Y-125370976D01*
X145921988Y-125415874D01*
X145925864Y-125421209D01*
X145957918Y-125467847D01*
X145957923Y-125467853D01*
X145962225Y-125474112D01*
X145967899Y-125479167D01*
X146008973Y-125515763D01*
X146014249Y-125520744D01*
X148027294Y-127533790D01*
X148128613Y-127613233D01*
X148135531Y-127616357D01*
X148135535Y-127616359D01*
X148278685Y-127680994D01*
X148278687Y-127680995D01*
X148285609Y-127684120D01*
X148293080Y-127685505D01*
X148293081Y-127685505D01*
X148389428Y-127703362D01*
X148454983Y-127715512D01*
X148462563Y-127715075D01*
X148462564Y-127715075D01*
X148498107Y-127713025D01*
X148626957Y-127705596D01*
X148791600Y-127654946D01*
X148939410Y-127566484D01*
X149061851Y-127445317D01*
X149151856Y-127298443D01*
X149204228Y-127134338D01*
X149204745Y-127126757D01*
X149215429Y-126970055D01*
X149215429Y-126970051D01*
X149215945Y-126962479D01*
X149186328Y-126792785D01*
X149117088Y-126635054D01*
X149036420Y-126529925D01*
X149033500Y-126527005D01*
X149033493Y-126526997D01*
X147294017Y-124787521D01*
X160784055Y-124787521D01*
X160785360Y-124794997D01*
X160785360Y-124795000D01*
X160795096Y-124850783D01*
X160796059Y-124857308D01*
X160803768Y-124921011D01*
X160806454Y-124928119D01*
X160807019Y-124930419D01*
X160811686Y-124947480D01*
X160812366Y-124949734D01*
X160813672Y-124957215D01*
X160816724Y-124964167D01*
X160839475Y-125015995D01*
X160841967Y-125022102D01*
X160850620Y-125045000D01*
X160864657Y-125082149D01*
X160868956Y-125088404D01*
X160870049Y-125090495D01*
X160878655Y-125105957D01*
X160879858Y-125107991D01*
X160882911Y-125114946D01*
X160887534Y-125120971D01*
X160887537Y-125120976D01*
X160921988Y-125165874D01*
X160925864Y-125171209D01*
X160957918Y-125217847D01*
X160957923Y-125217853D01*
X160962225Y-125224112D01*
X160967899Y-125229167D01*
X161008973Y-125265763D01*
X161014249Y-125270744D01*
X163277295Y-127533790D01*
X163378613Y-127613234D01*
X163535610Y-127684120D01*
X163543076Y-127685504D01*
X163543080Y-127685505D01*
X163627040Y-127701066D01*
X163704984Y-127715513D01*
X163712564Y-127715076D01*
X163712565Y-127715076D01*
X163748517Y-127713003D01*
X163876957Y-127705597D01*
X164041601Y-127654946D01*
X164189410Y-127566484D01*
X164194803Y-127561147D01*
X164194807Y-127561144D01*
X164250631Y-127505901D01*
X164311852Y-127445318D01*
X164401857Y-127298443D01*
X164451918Y-127141578D01*
X164451919Y-127141576D01*
X164451920Y-127141572D01*
X164454228Y-127134339D01*
X164454745Y-127126757D01*
X164465429Y-126970054D01*
X164465429Y-126970050D01*
X164465945Y-126962479D01*
X164436328Y-126792786D01*
X164433277Y-126785835D01*
X164370142Y-126642009D01*
X164370140Y-126642006D01*
X164367089Y-126635055D01*
X164362467Y-126629032D01*
X164362465Y-126629028D01*
X164288937Y-126533204D01*
X164288936Y-126533203D01*
X164286421Y-126529925D01*
X162248605Y-124492109D01*
X162214579Y-124429797D01*
X162211700Y-124403014D01*
X162211700Y-120250000D01*
X170685874Y-120250000D01*
X170705096Y-120396007D01*
X170761453Y-120532063D01*
X170851103Y-120648897D01*
X170967937Y-120738547D01*
X171103993Y-120794904D01*
X171112177Y-120795981D01*
X171112179Y-120795982D01*
X171241812Y-120813048D01*
X171250000Y-120814126D01*
X171258188Y-120813048D01*
X171387821Y-120795982D01*
X171387823Y-120795981D01*
X171396007Y-120794904D01*
X171532063Y-120738547D01*
X171648897Y-120648897D01*
X171738547Y-120532063D01*
X171794904Y-120396007D01*
X171814126Y-120250000D01*
X171811067Y-120226768D01*
X171795982Y-120112179D01*
X171795981Y-120112177D01*
X171794904Y-120103993D01*
X171738547Y-119967937D01*
X171668541Y-119876703D01*
X171642940Y-119810484D01*
X171657205Y-119740935D01*
X171668541Y-119723296D01*
X171733521Y-119638613D01*
X171738547Y-119632063D01*
X171794904Y-119496007D01*
X171814126Y-119350000D01*
X171808621Y-119308188D01*
X171795982Y-119212179D01*
X171795981Y-119212177D01*
X171794904Y-119203993D01*
X171738547Y-119067937D01*
X171648897Y-118951103D01*
X171532063Y-118861453D01*
X171396007Y-118805096D01*
X171387823Y-118804019D01*
X171387821Y-118804018D01*
X171258188Y-118786952D01*
X171250000Y-118785874D01*
X171241812Y-118786952D01*
X171112179Y-118804018D01*
X171112177Y-118804019D01*
X171103993Y-118805096D01*
X170967937Y-118861453D01*
X170851103Y-118951103D01*
X170761453Y-119067937D01*
X170705096Y-119203993D01*
X170704019Y-119212177D01*
X170704018Y-119212179D01*
X170691379Y-119308188D01*
X170685874Y-119350000D01*
X170705096Y-119496007D01*
X170761453Y-119632063D01*
X170766479Y-119638613D01*
X170831459Y-119723296D01*
X170857060Y-119789516D01*
X170842795Y-119859065D01*
X170831461Y-119876701D01*
X170761453Y-119967937D01*
X170705096Y-120103993D01*
X170704019Y-120112177D01*
X170704018Y-120112179D01*
X170688933Y-120226768D01*
X170685874Y-120250000D01*
X162211700Y-120250000D01*
X162211700Y-119300000D01*
X163185874Y-119300000D01*
X163186952Y-119308188D01*
X163195122Y-119370243D01*
X163205096Y-119446007D01*
X163261453Y-119582063D01*
X163351103Y-119698897D01*
X163467937Y-119788547D01*
X163603993Y-119844904D01*
X163612177Y-119845981D01*
X163612179Y-119845982D01*
X163741812Y-119863048D01*
X163750000Y-119864126D01*
X163758188Y-119863048D01*
X163887821Y-119845982D01*
X163887823Y-119845981D01*
X163896007Y-119844904D01*
X164032063Y-119788547D01*
X164148897Y-119698897D01*
X164238547Y-119582063D01*
X164294904Y-119446007D01*
X164304879Y-119370243D01*
X164313048Y-119308188D01*
X164314126Y-119300000D01*
X164294904Y-119153993D01*
X164238547Y-119017937D01*
X164148897Y-118901103D01*
X164032063Y-118811453D01*
X163896007Y-118755096D01*
X163887823Y-118754019D01*
X163887821Y-118754018D01*
X163758188Y-118736952D01*
X163750000Y-118735874D01*
X163741812Y-118736952D01*
X163612179Y-118754018D01*
X163612177Y-118754019D01*
X163603993Y-118755096D01*
X163467937Y-118811453D01*
X163351103Y-118901103D01*
X163261453Y-119017937D01*
X163205096Y-119153993D01*
X163185874Y-119300000D01*
X162211700Y-119300000D01*
X162211700Y-117706807D01*
X162196232Y-117578989D01*
X162135343Y-117417851D01*
X162037775Y-117275888D01*
X162025876Y-117265286D01*
X161914832Y-117166349D01*
X161914829Y-117166347D01*
X161909160Y-117161296D01*
X161901130Y-117157044D01*
X161763638Y-117084246D01*
X161763639Y-117084246D01*
X161756924Y-117080691D01*
X161589855Y-117038726D01*
X161582257Y-117038686D01*
X161582255Y-117038686D01*
X161509347Y-117038304D01*
X161417598Y-117037824D01*
X161410218Y-117039596D01*
X161410216Y-117039596D01*
X161257479Y-117076265D01*
X161257477Y-117076266D01*
X161250099Y-117078037D01*
X161097027Y-117157044D01*
X160967219Y-117270282D01*
X160868170Y-117411216D01*
X160805597Y-117571708D01*
X160788300Y-117703087D01*
X160788300Y-124720970D01*
X160788008Y-124729540D01*
X160784055Y-124787521D01*
X147294017Y-124787521D01*
X147248605Y-124742109D01*
X147214579Y-124679797D01*
X147211700Y-124653014D01*
X147211700Y-119300000D01*
X147935874Y-119300000D01*
X147936952Y-119308188D01*
X147945122Y-119370243D01*
X147955096Y-119446007D01*
X148011453Y-119582063D01*
X148101103Y-119698897D01*
X148217937Y-119788547D01*
X148353993Y-119844904D01*
X148362177Y-119845981D01*
X148362179Y-119845982D01*
X148491812Y-119863048D01*
X148500000Y-119864126D01*
X148508188Y-119863048D01*
X148637821Y-119845982D01*
X148637823Y-119845981D01*
X148646007Y-119844904D01*
X148782063Y-119788547D01*
X148898897Y-119698897D01*
X148988547Y-119582063D01*
X149044904Y-119446007D01*
X149054879Y-119370243D01*
X149063048Y-119308188D01*
X149064126Y-119300000D01*
X149044904Y-119153993D01*
X148988547Y-119017937D01*
X148898897Y-118901103D01*
X148782063Y-118811453D01*
X148646007Y-118755096D01*
X148637823Y-118754019D01*
X148637821Y-118754018D01*
X148508188Y-118736952D01*
X148500000Y-118735874D01*
X148491812Y-118736952D01*
X148362179Y-118754018D01*
X148362177Y-118754019D01*
X148353993Y-118755096D01*
X148217937Y-118811453D01*
X148101103Y-118901103D01*
X148011453Y-119017937D01*
X147955096Y-119153993D01*
X147935874Y-119300000D01*
X147211700Y-119300000D01*
X147211700Y-117706807D01*
X147196232Y-117578989D01*
X147135343Y-117417851D01*
X147037775Y-117275888D01*
X147025876Y-117265286D01*
X146914832Y-117166349D01*
X146914829Y-117166347D01*
X146909160Y-117161296D01*
X146901130Y-117157044D01*
X146763638Y-117084246D01*
X146763639Y-117084246D01*
X146756924Y-117080691D01*
X146589855Y-117038726D01*
X146582257Y-117038686D01*
X146582255Y-117038686D01*
X146509347Y-117038304D01*
X146417598Y-117037824D01*
X146410218Y-117039596D01*
X146410216Y-117039596D01*
X146257479Y-117076265D01*
X146257477Y-117076266D01*
X146250099Y-117078037D01*
X146097027Y-117157044D01*
X145967219Y-117270282D01*
X145868170Y-117411216D01*
X145805597Y-117571708D01*
X145788300Y-117703087D01*
X145788300Y-124970970D01*
X145788008Y-124979540D01*
X145785523Y-125015995D01*
X145784055Y-125037521D01*
X142037521Y-125037521D01*
X131000000Y-114000000D01*
X138435874Y-114000000D01*
X138455096Y-114146007D01*
X138511453Y-114282063D01*
X138601103Y-114398897D01*
X138717937Y-114488547D01*
X138853993Y-114544904D01*
X138862177Y-114545981D01*
X138862179Y-114545982D01*
X138991812Y-114563048D01*
X139000000Y-114564126D01*
X139008188Y-114563048D01*
X139137821Y-114545982D01*
X139137823Y-114545981D01*
X139146007Y-114544904D01*
X139282063Y-114488547D01*
X139398897Y-114398897D01*
X139403923Y-114392347D01*
X139409764Y-114386506D01*
X139411962Y-114388704D01*
X139457375Y-114355543D01*
X139528246Y-114351321D01*
X139590149Y-114386084D01*
X139592322Y-114388592D01*
X139596077Y-114392347D01*
X139601103Y-114398897D01*
X139717937Y-114488547D01*
X139853993Y-114544904D01*
X139862177Y-114545981D01*
X139862179Y-114545982D01*
X139991812Y-114563048D01*
X140000000Y-114564126D01*
X140008188Y-114563048D01*
X140137821Y-114545982D01*
X140137823Y-114545981D01*
X140146007Y-114544904D01*
X140282063Y-114488547D01*
X140398897Y-114398897D01*
X140488547Y-114282063D01*
X140544904Y-114146007D01*
X140564126Y-114000000D01*
X140552460Y-113911387D01*
X140545982Y-113862179D01*
X140545981Y-113862177D01*
X140544904Y-113853993D01*
X140488547Y-113717937D01*
X140398897Y-113601103D01*
X140392347Y-113596077D01*
X140386506Y-113590236D01*
X140388704Y-113588038D01*
X140355543Y-113542625D01*
X140351321Y-113471754D01*
X140386084Y-113409851D01*
X140388592Y-113407678D01*
X140392347Y-113403923D01*
X140398897Y-113398897D01*
X140488547Y-113282063D01*
X140544904Y-113146007D01*
X140550961Y-113100000D01*
X141435874Y-113100000D01*
X141455096Y-113246007D01*
X141511453Y-113382063D01*
X141601103Y-113498897D01*
X141717937Y-113588547D01*
X141853993Y-113644904D01*
X141862177Y-113645981D01*
X141862179Y-113645982D01*
X141991812Y-113663048D01*
X142000000Y-113664126D01*
X142008188Y-113663048D01*
X142137821Y-113645982D01*
X142137823Y-113645981D01*
X142146007Y-113644904D01*
X142282063Y-113588547D01*
X142340372Y-113543805D01*
X142354534Y-113532938D01*
X142420754Y-113507337D01*
X142431238Y-113506900D01*
X144529266Y-113506900D01*
X144597387Y-113526902D01*
X144618361Y-113543804D01*
X144682209Y-113607653D01*
X144734921Y-113660365D01*
X144734936Y-113660379D01*
X144757849Y-113683292D01*
X144777907Y-113693512D01*
X144794759Y-113703840D01*
X144812968Y-113717069D01*
X144834368Y-113724022D01*
X144852633Y-113731587D01*
X144872694Y-113741809D01*
X144882485Y-113743360D01*
X144882489Y-113743361D01*
X144894937Y-113745333D01*
X144914157Y-113749947D01*
X144935553Y-113756899D01*
X144967972Y-113756899D01*
X144967976Y-113756900D01*
X146939584Y-113756900D01*
X147007705Y-113776902D01*
X147054198Y-113830558D01*
X147064302Y-113900832D01*
X147055993Y-113931117D01*
X147005096Y-114053993D01*
X146985874Y-114200000D01*
X146986952Y-114208188D01*
X146998282Y-114294246D01*
X147005096Y-114346007D01*
X147061453Y-114482063D01*
X147151103Y-114598897D01*
X147267937Y-114688547D01*
X147403993Y-114744904D01*
X147412177Y-114745981D01*
X147412179Y-114745982D01*
X147541812Y-114763048D01*
X147550000Y-114764126D01*
X147558188Y-114763048D01*
X147687821Y-114745982D01*
X147687823Y-114745981D01*
X147696007Y-114744904D01*
X147832063Y-114688547D01*
X147948897Y-114598897D01*
X148038547Y-114482063D01*
X148094904Y-114346007D01*
X148101719Y-114294246D01*
X148113048Y-114208188D01*
X148114126Y-114200000D01*
X148094904Y-114053993D01*
X148044007Y-113931118D01*
X148036418Y-113860529D01*
X148068197Y-113797042D01*
X148129255Y-113760814D01*
X148160416Y-113756900D01*
X151742367Y-113756900D01*
X151810488Y-113776902D01*
X151831462Y-113793805D01*
X152907346Y-114869689D01*
X152941372Y-114932001D01*
X152943172Y-114942333D01*
X152955096Y-115032907D01*
X153011453Y-115168963D01*
X153101103Y-115285797D01*
X153217937Y-115375447D01*
X153353993Y-115431804D01*
X153362177Y-115432881D01*
X153362179Y-115432882D01*
X153491812Y-115449948D01*
X153500000Y-115451026D01*
X153508188Y-115449948D01*
X153637821Y-115432882D01*
X153637823Y-115432881D01*
X153646007Y-115431804D01*
X153782063Y-115375447D01*
X153898897Y-115285797D01*
X153988547Y-115168963D01*
X154044904Y-115032907D01*
X154064126Y-114886900D01*
X154044904Y-114740893D01*
X153988547Y-114604837D01*
X153898897Y-114488003D01*
X153782063Y-114398353D01*
X153646007Y-114341996D01*
X153637821Y-114340918D01*
X153637820Y-114340918D01*
X153603679Y-114336424D01*
X153555438Y-114330073D01*
X153490511Y-114301351D01*
X153482789Y-114294246D01*
X153388543Y-114200000D01*
X162235874Y-114200000D01*
X162236952Y-114208188D01*
X162248282Y-114294246D01*
X162255096Y-114346007D01*
X162311453Y-114482063D01*
X162401103Y-114598897D01*
X162517937Y-114688547D01*
X162653993Y-114744904D01*
X162662177Y-114745981D01*
X162662179Y-114745982D01*
X162791812Y-114763048D01*
X162800000Y-114764126D01*
X162808188Y-114763048D01*
X162937821Y-114745982D01*
X162937823Y-114745981D01*
X162946007Y-114744904D01*
X163082063Y-114688547D01*
X163198897Y-114598897D01*
X163288547Y-114482063D01*
X163344904Y-114346007D01*
X163351719Y-114294246D01*
X163363048Y-114208188D01*
X163364126Y-114200000D01*
X163344904Y-114053993D01*
X163288547Y-113917937D01*
X163198897Y-113801103D01*
X163082063Y-113711453D01*
X162946007Y-113655096D01*
X162937823Y-113654019D01*
X162937821Y-113654018D01*
X162808188Y-113636952D01*
X162800000Y-113635874D01*
X162791812Y-113636952D01*
X162662179Y-113654018D01*
X162662177Y-113654019D01*
X162653993Y-113655096D01*
X162517937Y-113711453D01*
X162401103Y-113801103D01*
X162311453Y-113917937D01*
X162255096Y-114053993D01*
X162235874Y-114200000D01*
X153388543Y-114200000D01*
X152205251Y-113016708D01*
X152185196Y-113006490D01*
X152168341Y-112996160D01*
X152167275Y-112995385D01*
X152150132Y-112982930D01*
X152140699Y-112979865D01*
X152140697Y-112979864D01*
X152128720Y-112975972D01*
X152110458Y-112968408D01*
X152099240Y-112962692D01*
X152099239Y-112962692D01*
X152090406Y-112958191D01*
X152068174Y-112954670D01*
X152048948Y-112950054D01*
X152036979Y-112946165D01*
X152027546Y-112943100D01*
X145220735Y-112943100D01*
X145152614Y-112923098D01*
X145131640Y-112906196D01*
X145015077Y-112789634D01*
X144992151Y-112766708D01*
X144972096Y-112756490D01*
X144955241Y-112746160D01*
X144945057Y-112738761D01*
X144937032Y-112732930D01*
X144927599Y-112729865D01*
X144927597Y-112729864D01*
X144915620Y-112725972D01*
X144897358Y-112718408D01*
X144886140Y-112712692D01*
X144886139Y-112712692D01*
X144877306Y-112708191D01*
X144855074Y-112704670D01*
X144835848Y-112700054D01*
X144823879Y-112696165D01*
X144814446Y-112693100D01*
X142431238Y-112693100D01*
X142363117Y-112673098D01*
X142354534Y-112667062D01*
X142288613Y-112616479D01*
X142282063Y-112611453D01*
X142146007Y-112555096D01*
X142137823Y-112554019D01*
X142137821Y-112554018D01*
X142008188Y-112536952D01*
X142000000Y-112535874D01*
X141991812Y-112536952D01*
X141862179Y-112554018D01*
X141862177Y-112554019D01*
X141853993Y-112555096D01*
X141717937Y-112611453D01*
X141601103Y-112701103D01*
X141511453Y-112817937D01*
X141455096Y-112953993D01*
X141454019Y-112962177D01*
X141454018Y-112962179D01*
X141449039Y-113000000D01*
X141435874Y-113100000D01*
X140550961Y-113100000D01*
X140564126Y-113000000D01*
X140544904Y-112853993D01*
X140488547Y-112717937D01*
X140398897Y-112601103D01*
X140282063Y-112511453D01*
X140146007Y-112455096D01*
X140137823Y-112454019D01*
X140137821Y-112454018D01*
X140008188Y-112436952D01*
X140000000Y-112435874D01*
X139991812Y-112436952D01*
X139862179Y-112454018D01*
X139862177Y-112454019D01*
X139853993Y-112455096D01*
X139717937Y-112511453D01*
X139601103Y-112601103D01*
X139596077Y-112607653D01*
X139590236Y-112613494D01*
X139588038Y-112611296D01*
X139542625Y-112644457D01*
X139471754Y-112648679D01*
X139409851Y-112613916D01*
X139407678Y-112611408D01*
X139403923Y-112607653D01*
X139398897Y-112601103D01*
X139282063Y-112511453D01*
X139146007Y-112455096D01*
X139137823Y-112454019D01*
X139137821Y-112454018D01*
X139008188Y-112436952D01*
X139000000Y-112435874D01*
X138991812Y-112436952D01*
X138862179Y-112454018D01*
X138862177Y-112454019D01*
X138853993Y-112455096D01*
X138717937Y-112511453D01*
X138601103Y-112601103D01*
X138511453Y-112717937D01*
X138455096Y-112853993D01*
X138435874Y-113000000D01*
X138455096Y-113146007D01*
X138511453Y-113282063D01*
X138601103Y-113398897D01*
X138607653Y-113403923D01*
X138613494Y-113409764D01*
X138611296Y-113411962D01*
X138644457Y-113457375D01*
X138648679Y-113528246D01*
X138613916Y-113590149D01*
X138611408Y-113592322D01*
X138607653Y-113596077D01*
X138601103Y-113601103D01*
X138511453Y-113717937D01*
X138455096Y-113853993D01*
X138454019Y-113862177D01*
X138454018Y-113862179D01*
X138447540Y-113911387D01*
X138435874Y-114000000D01*
X131000000Y-114000000D01*
X126650000Y-114000000D01*
X125186905Y-115463095D01*
X125124593Y-115497121D01*
X125097810Y-115500000D01*
X123829200Y-115500000D01*
X123761079Y-115479998D01*
X123714586Y-115426342D01*
X123703200Y-115374000D01*
X123703200Y-109318356D01*
X127491557Y-109318356D01*
X127506026Y-109539107D01*
X127560481Y-109753525D01*
X127653099Y-109954428D01*
X127780778Y-110135090D01*
X127784920Y-110139125D01*
X127838936Y-110191745D01*
X127939242Y-110289458D01*
X128123183Y-110412364D01*
X128128486Y-110414642D01*
X128128489Y-110414644D01*
X128214335Y-110451526D01*
X128326443Y-110499691D01*
X128432105Y-110523600D01*
X128536576Y-110547240D01*
X128536579Y-110547240D01*
X128542212Y-110548515D01*
X128547983Y-110548742D01*
X128547985Y-110548742D01*
X128616461Y-110551432D01*
X128763267Y-110557200D01*
X128872735Y-110541328D01*
X128976488Y-110526285D01*
X128976493Y-110526284D01*
X128982202Y-110525456D01*
X128987666Y-110523601D01*
X128987671Y-110523600D01*
X129186218Y-110456202D01*
X129191686Y-110454346D01*
X129384704Y-110346251D01*
X129449131Y-110292668D01*
X129550353Y-110208482D01*
X129554791Y-110204791D01*
X129696251Y-110034704D01*
X129799690Y-109850000D01*
X143185874Y-109850000D01*
X143186952Y-109858188D01*
X143198932Y-109949183D01*
X143205096Y-109996007D01*
X143261453Y-110132063D01*
X143351103Y-110248897D01*
X143467937Y-110338547D01*
X143603993Y-110394904D01*
X143612177Y-110395981D01*
X143612179Y-110395982D01*
X143741812Y-110413048D01*
X143750000Y-110414126D01*
X143758188Y-110413048D01*
X143887821Y-110395982D01*
X143887823Y-110395981D01*
X143896007Y-110394904D01*
X144032063Y-110338547D01*
X144148897Y-110248897D01*
X144238547Y-110132063D01*
X144294904Y-109996007D01*
X144301069Y-109949183D01*
X144313048Y-109858188D01*
X144314126Y-109850000D01*
X144294904Y-109703993D01*
X144272539Y-109650000D01*
X158585874Y-109650000D01*
X158605096Y-109796007D01*
X158661453Y-109932063D01*
X158751103Y-110048897D01*
X158867937Y-110138547D01*
X159003993Y-110194904D01*
X159012177Y-110195981D01*
X159012179Y-110195982D01*
X159141812Y-110213048D01*
X159150000Y-110214126D01*
X159158188Y-110213048D01*
X159287821Y-110195982D01*
X159287823Y-110195981D01*
X159296007Y-110194904D01*
X159432063Y-110138547D01*
X159548897Y-110048897D01*
X159638547Y-109932063D01*
X159694904Y-109796007D01*
X159714126Y-109650000D01*
X159702460Y-109561387D01*
X159695982Y-109512179D01*
X159695981Y-109512177D01*
X159694904Y-109503993D01*
X159638547Y-109367937D01*
X159548897Y-109251103D01*
X159432063Y-109161453D01*
X159296007Y-109105096D01*
X159287823Y-109104019D01*
X159287821Y-109104018D01*
X159158188Y-109086952D01*
X159150000Y-109085874D01*
X159141812Y-109086952D01*
X159012179Y-109104018D01*
X159012177Y-109104019D01*
X159003993Y-109105096D01*
X158867937Y-109161453D01*
X158751103Y-109251103D01*
X158661453Y-109367937D01*
X158605096Y-109503993D01*
X158604019Y-109512177D01*
X158604018Y-109512179D01*
X158597540Y-109561387D01*
X158585874Y-109650000D01*
X144272539Y-109650000D01*
X144238547Y-109567937D01*
X144148897Y-109451103D01*
X144032063Y-109361453D01*
X143896007Y-109305096D01*
X143887823Y-109304019D01*
X143887821Y-109304018D01*
X143758188Y-109286952D01*
X143750000Y-109285874D01*
X143741812Y-109286952D01*
X143612179Y-109304018D01*
X143612177Y-109304019D01*
X143603993Y-109305096D01*
X143467937Y-109361453D01*
X143351103Y-109451103D01*
X143261453Y-109567937D01*
X143205096Y-109703993D01*
X143185874Y-109850000D01*
X129799690Y-109850000D01*
X129804346Y-109841686D01*
X129834273Y-109753525D01*
X129873600Y-109637671D01*
X129873601Y-109637666D01*
X129875456Y-109632202D01*
X129876284Y-109626493D01*
X129876285Y-109626488D01*
X129906667Y-109416941D01*
X129907200Y-109413267D01*
X129908857Y-109350000D01*
X129891994Y-109166479D01*
X129889144Y-109135457D01*
X129889143Y-109135454D01*
X129888615Y-109129703D01*
X129828565Y-108916784D01*
X129816791Y-108892907D01*
X129733275Y-108723555D01*
X129730720Y-108718374D01*
X129598356Y-108541117D01*
X129435906Y-108390949D01*
X129351848Y-108337913D01*
X129253694Y-108275982D01*
X129253689Y-108275980D01*
X129248810Y-108272901D01*
X129043334Y-108190924D01*
X129037674Y-108189798D01*
X129037670Y-108189797D01*
X128832027Y-108148892D01*
X128832024Y-108148892D01*
X128826360Y-108147765D01*
X128820585Y-108147689D01*
X128820581Y-108147689D01*
X128709855Y-108146240D01*
X128605154Y-108144870D01*
X128599457Y-108145849D01*
X128599456Y-108145849D01*
X128392815Y-108181356D01*
X128392812Y-108181357D01*
X128387125Y-108182334D01*
X128179574Y-108258903D01*
X128159643Y-108270761D01*
X127994420Y-108369058D01*
X127994417Y-108369060D01*
X127989452Y-108372014D01*
X127823126Y-108517878D01*
X127686167Y-108691609D01*
X127583162Y-108887390D01*
X127581449Y-108892907D01*
X127521196Y-109086952D01*
X127517559Y-109098664D01*
X127491557Y-109318356D01*
X123703200Y-109318356D01*
X123703200Y-107100000D01*
X131185874Y-107100000D01*
X131186952Y-107108188D01*
X131193436Y-107157436D01*
X131205096Y-107246007D01*
X131261453Y-107382063D01*
X131351103Y-107498897D01*
X131467937Y-107588547D01*
X131603993Y-107644904D01*
X131612177Y-107645981D01*
X131612179Y-107645982D01*
X131741812Y-107663048D01*
X131750000Y-107664126D01*
X131758188Y-107663048D01*
X131887821Y-107645982D01*
X131887823Y-107645981D01*
X131896007Y-107644904D01*
X132032063Y-107588547D01*
X132148897Y-107498897D01*
X132156710Y-107488715D01*
X136691857Y-107488715D01*
X136709440Y-107668039D01*
X136766314Y-107839010D01*
X136859654Y-107993133D01*
X136984820Y-108122746D01*
X137135591Y-108221407D01*
X137142195Y-108223863D01*
X137297863Y-108281756D01*
X137297865Y-108281757D01*
X137304473Y-108284214D01*
X137387774Y-108295329D01*
X137476093Y-108307114D01*
X137476097Y-108307114D01*
X137483074Y-108308045D01*
X137490085Y-108307407D01*
X137490089Y-108307407D01*
X137632100Y-108294482D01*
X137662516Y-108291714D01*
X137669216Y-108289537D01*
X137669221Y-108289536D01*
X137827181Y-108238212D01*
X137827184Y-108238211D01*
X137833880Y-108236035D01*
X137988650Y-108143773D01*
X137993744Y-108138922D01*
X137993748Y-108138919D01*
X138114034Y-108024372D01*
X138114035Y-108024370D01*
X138119134Y-108019515D01*
X138218846Y-107869437D01*
X138282830Y-107700997D01*
X138298634Y-107588547D01*
X138307356Y-107526490D01*
X138307356Y-107526485D01*
X138307907Y-107522567D01*
X138308222Y-107500000D01*
X138288137Y-107320940D01*
X138228881Y-107150779D01*
X138218840Y-107134709D01*
X138137131Y-107003949D01*
X138133398Y-106997975D01*
X138006435Y-106870122D01*
X137989575Y-106859422D01*
X137947777Y-106832897D01*
X137854301Y-106773575D01*
X137780824Y-106747411D01*
X137691192Y-106715494D01*
X137691190Y-106715493D01*
X137684558Y-106713132D01*
X137677572Y-106712299D01*
X137677568Y-106712298D01*
X137550586Y-106697157D01*
X137505642Y-106691798D01*
X137498639Y-106692534D01*
X137498638Y-106692534D01*
X137464929Y-106696077D01*
X137326446Y-106710632D01*
X137319778Y-106712902D01*
X137162543Y-106766429D01*
X137162540Y-106766430D01*
X137155876Y-106768699D01*
X137002409Y-106863112D01*
X136997376Y-106868041D01*
X136879452Y-106983521D01*
X136873673Y-106989180D01*
X136776066Y-107140636D01*
X136773655Y-107147259D01*
X136773654Y-107147262D01*
X136716850Y-107303330D01*
X136716849Y-107303335D01*
X136714440Y-107309953D01*
X136691857Y-107488715D01*
X132156710Y-107488715D01*
X132238547Y-107382063D01*
X132294904Y-107246007D01*
X132306565Y-107157436D01*
X132313048Y-107108188D01*
X132314126Y-107100000D01*
X132309261Y-107063048D01*
X132295982Y-106962179D01*
X132295981Y-106962177D01*
X132294904Y-106953993D01*
X132238547Y-106817937D01*
X132148897Y-106701103D01*
X132032063Y-106611453D01*
X131896007Y-106555096D01*
X131887823Y-106554019D01*
X131887821Y-106554018D01*
X131758188Y-106536952D01*
X131750000Y-106535874D01*
X131741812Y-106536952D01*
X131612179Y-106554018D01*
X131612177Y-106554019D01*
X131603993Y-106555096D01*
X131467937Y-106611453D01*
X131351103Y-106701103D01*
X131261453Y-106817937D01*
X131205096Y-106953993D01*
X131204019Y-106962177D01*
X131204018Y-106962179D01*
X131190739Y-107063048D01*
X131185874Y-107100000D01*
X123703200Y-107100000D01*
X123703200Y-105568356D01*
X127491557Y-105568356D01*
X127506026Y-105789107D01*
X127560481Y-106003525D01*
X127653099Y-106204428D01*
X127780778Y-106385090D01*
X127939242Y-106539458D01*
X128123183Y-106662364D01*
X128128486Y-106664642D01*
X128128489Y-106664644D01*
X128241349Y-106713132D01*
X128326443Y-106749691D01*
X128426757Y-106772390D01*
X128536576Y-106797240D01*
X128536579Y-106797240D01*
X128542212Y-106798515D01*
X128547983Y-106798742D01*
X128547985Y-106798742D01*
X128616461Y-106801432D01*
X128763267Y-106807200D01*
X128891460Y-106788613D01*
X128976488Y-106776285D01*
X128976493Y-106776284D01*
X128982202Y-106775456D01*
X128987666Y-106773601D01*
X128987671Y-106773600D01*
X129186218Y-106706202D01*
X129191686Y-106704346D01*
X129384704Y-106596251D01*
X129449131Y-106542668D01*
X129500433Y-106500000D01*
X147615874Y-106500000D01*
X147616952Y-106508188D01*
X147631209Y-106616479D01*
X147635096Y-106646007D01*
X147691453Y-106782063D01*
X147781103Y-106898897D01*
X147897937Y-106988547D01*
X148033993Y-107044904D01*
X148042177Y-107045981D01*
X148042179Y-107045982D01*
X148171812Y-107063048D01*
X148180000Y-107064126D01*
X148188188Y-107063048D01*
X148317821Y-107045982D01*
X148317823Y-107045981D01*
X148326007Y-107044904D01*
X148462063Y-106988547D01*
X148578897Y-106898897D01*
X148668547Y-106782063D01*
X148724904Y-106646007D01*
X148728792Y-106616479D01*
X148743048Y-106508188D01*
X148744126Y-106500000D01*
X148724904Y-106353993D01*
X148668547Y-106217937D01*
X148578897Y-106101103D01*
X148462063Y-106011453D01*
X148326007Y-105955096D01*
X148317823Y-105954019D01*
X148317821Y-105954018D01*
X148188188Y-105936952D01*
X148180000Y-105935874D01*
X148171812Y-105936952D01*
X148042179Y-105954018D01*
X148042177Y-105954019D01*
X148033993Y-105955096D01*
X147897937Y-106011453D01*
X147781103Y-106101103D01*
X147691453Y-106217937D01*
X147635096Y-106353993D01*
X147615874Y-106500000D01*
X129500433Y-106500000D01*
X129550353Y-106458482D01*
X129554791Y-106454791D01*
X129696251Y-106284704D01*
X129804346Y-106091686D01*
X129834273Y-106003525D01*
X129873600Y-105887671D01*
X129873601Y-105887666D01*
X129875456Y-105882202D01*
X129876284Y-105876493D01*
X129876285Y-105876488D01*
X129906667Y-105666941D01*
X129907200Y-105663267D01*
X129908857Y-105600000D01*
X129899668Y-105500000D01*
X154685874Y-105500000D01*
X154686952Y-105508188D01*
X154698553Y-105596305D01*
X154705096Y-105646007D01*
X154761453Y-105782063D01*
X154851103Y-105898897D01*
X154967937Y-105988547D01*
X155103993Y-106044904D01*
X155112177Y-106045981D01*
X155112179Y-106045982D01*
X155241812Y-106063048D01*
X155250000Y-106064126D01*
X155258188Y-106063048D01*
X155387821Y-106045982D01*
X155387823Y-106045981D01*
X155396007Y-106044904D01*
X155532063Y-105988547D01*
X155648897Y-105898897D01*
X155738547Y-105782063D01*
X155794904Y-105646007D01*
X155801448Y-105596305D01*
X155813048Y-105508188D01*
X155814126Y-105500000D01*
X155811067Y-105476768D01*
X155795982Y-105362179D01*
X155795981Y-105362177D01*
X155794904Y-105353993D01*
X155738547Y-105217937D01*
X155648897Y-105101103D01*
X155532063Y-105011453D01*
X155396007Y-104955096D01*
X155387823Y-104954019D01*
X155387821Y-104954018D01*
X155273232Y-104938933D01*
X155250000Y-104935874D01*
X155226768Y-104938933D01*
X155112179Y-104954018D01*
X155112177Y-104954019D01*
X155103993Y-104955096D01*
X154967937Y-105011453D01*
X154851103Y-105101103D01*
X154761453Y-105217937D01*
X154705096Y-105353993D01*
X154704019Y-105362177D01*
X154704018Y-105362179D01*
X154688933Y-105476768D01*
X154685874Y-105500000D01*
X129899668Y-105500000D01*
X129888615Y-105379703D01*
X129842992Y-105217937D01*
X129830133Y-105172343D01*
X129830132Y-105172341D01*
X129828565Y-105166784D01*
X129816791Y-105142907D01*
X129733275Y-104973555D01*
X129730720Y-104968374D01*
X129598356Y-104791117D01*
X129435906Y-104640949D01*
X129297518Y-104553633D01*
X129253694Y-104525982D01*
X129253689Y-104525980D01*
X129248810Y-104522901D01*
X129043334Y-104440924D01*
X129037674Y-104439798D01*
X129037670Y-104439797D01*
X128837597Y-104400000D01*
X169185874Y-104400000D01*
X169186952Y-104408188D01*
X169202460Y-104525982D01*
X169205096Y-104546007D01*
X169261453Y-104682063D01*
X169351103Y-104798897D01*
X169467937Y-104888547D01*
X169603993Y-104944904D01*
X169612177Y-104945981D01*
X169612179Y-104945982D01*
X169741812Y-104963048D01*
X169750000Y-104964126D01*
X169758188Y-104963048D01*
X169887821Y-104945982D01*
X169887823Y-104945981D01*
X169896007Y-104944904D01*
X170032063Y-104888547D01*
X170148897Y-104798897D01*
X170238547Y-104682063D01*
X170294904Y-104546007D01*
X170297541Y-104525982D01*
X170313048Y-104408188D01*
X170314126Y-104400000D01*
X170294904Y-104253993D01*
X170238547Y-104117937D01*
X170148897Y-104001103D01*
X170032063Y-103911453D01*
X169896007Y-103855096D01*
X169887823Y-103854019D01*
X169887821Y-103854018D01*
X169758188Y-103836952D01*
X169750000Y-103835874D01*
X169741812Y-103836952D01*
X169612179Y-103854018D01*
X169612177Y-103854019D01*
X169603993Y-103855096D01*
X169467937Y-103911453D01*
X169351103Y-104001103D01*
X169261453Y-104117937D01*
X169205096Y-104253993D01*
X169185874Y-104400000D01*
X128837597Y-104400000D01*
X128832027Y-104398892D01*
X128832024Y-104398892D01*
X128826360Y-104397765D01*
X128820585Y-104397689D01*
X128820581Y-104397689D01*
X128709855Y-104396240D01*
X128605154Y-104394870D01*
X128599457Y-104395849D01*
X128599456Y-104395849D01*
X128392815Y-104431356D01*
X128392812Y-104431357D01*
X128387125Y-104432334D01*
X128179574Y-104508903D01*
X128117208Y-104546007D01*
X127994420Y-104619058D01*
X127994417Y-104619060D01*
X127989452Y-104622014D01*
X127823126Y-104767878D01*
X127686167Y-104941609D01*
X127583162Y-105137390D01*
X127581449Y-105142907D01*
X127555784Y-105225562D01*
X127517559Y-105348664D01*
X127491557Y-105568356D01*
X123703200Y-105568356D01*
X123703200Y-103940890D01*
X167173470Y-103940890D01*
X167183352Y-103953379D01*
X167214511Y-103974198D01*
X167224616Y-103979685D01*
X167401009Y-104055470D01*
X167411952Y-104059025D01*
X167599194Y-104101394D01*
X167610604Y-104102896D01*
X167802439Y-104110433D01*
X167813921Y-104109831D01*
X168003920Y-104082283D01*
X168015103Y-104079598D01*
X168196894Y-104017889D01*
X168207409Y-104013207D01*
X168317618Y-103951487D01*
X168327482Y-103941410D01*
X168324527Y-103933738D01*
X167762811Y-103372021D01*
X167748868Y-103364408D01*
X167747034Y-103364539D01*
X167740420Y-103368790D01*
X167179663Y-103929548D01*
X167173470Y-103940890D01*
X123703200Y-103940890D01*
X123703200Y-102988708D01*
X161941294Y-102988708D01*
X161958889Y-103168156D01*
X162015803Y-103339247D01*
X162109208Y-103493476D01*
X162234461Y-103623180D01*
X162385337Y-103721910D01*
X162391941Y-103724366D01*
X162391943Y-103724367D01*
X162424694Y-103736547D01*
X162554337Y-103784761D01*
X162733062Y-103808608D01*
X162740073Y-103807970D01*
X162740077Y-103807970D01*
X162905608Y-103792905D01*
X162912629Y-103792266D01*
X162919331Y-103790088D01*
X162919333Y-103790088D01*
X163077413Y-103738724D01*
X163084113Y-103736547D01*
X163238991Y-103644221D01*
X163343284Y-103544904D01*
X163364465Y-103524734D01*
X163364466Y-103524732D01*
X163369565Y-103519877D01*
X163469347Y-103369694D01*
X163502635Y-103282063D01*
X163530876Y-103207720D01*
X163530877Y-103207715D01*
X163533376Y-103201137D01*
X163541124Y-103146007D01*
X163557919Y-103026506D01*
X163557919Y-103026501D01*
X163558470Y-103022583D01*
X163558785Y-103000000D01*
X163557518Y-102988708D01*
X164441294Y-102988708D01*
X164458889Y-103168156D01*
X164515803Y-103339247D01*
X164609208Y-103493476D01*
X164734461Y-103623180D01*
X164885337Y-103721910D01*
X164891941Y-103724366D01*
X164891943Y-103724367D01*
X164924694Y-103736547D01*
X165054337Y-103784761D01*
X165233062Y-103808608D01*
X165240073Y-103807970D01*
X165240077Y-103807970D01*
X165405608Y-103792905D01*
X165412629Y-103792266D01*
X165419331Y-103790088D01*
X165419333Y-103790088D01*
X165577413Y-103738724D01*
X165584113Y-103736547D01*
X165738991Y-103644221D01*
X165843284Y-103544904D01*
X165864465Y-103524734D01*
X165864466Y-103524732D01*
X165869565Y-103519877D01*
X165969347Y-103369694D01*
X166002635Y-103282063D01*
X166030876Y-103207720D01*
X166030877Y-103207715D01*
X166033376Y-103201137D01*
X166041124Y-103146007D01*
X166057919Y-103026506D01*
X166057919Y-103026501D01*
X166058470Y-103022583D01*
X166058785Y-103000000D01*
X166056166Y-102976652D01*
X166638575Y-102976652D01*
X166651131Y-103168216D01*
X166652932Y-103179586D01*
X166700187Y-103365655D01*
X166704028Y-103376502D01*
X166784402Y-103550847D01*
X166790153Y-103560808D01*
X166796189Y-103569350D01*
X166806779Y-103577739D01*
X166820077Y-103570712D01*
X167377979Y-103012811D01*
X167384356Y-103001132D01*
X168114408Y-103001132D01*
X168114539Y-103002966D01*
X168118790Y-103009580D01*
X168679827Y-103570616D01*
X168692202Y-103577373D01*
X168698782Y-103572447D01*
X168763207Y-103457409D01*
X168767889Y-103446894D01*
X168829598Y-103265103D01*
X168832283Y-103253920D01*
X168860127Y-103061881D01*
X168860757Y-103054498D01*
X168862087Y-103003704D01*
X168861965Y-103000000D01*
X169685874Y-103000000D01*
X169705096Y-103146007D01*
X169761453Y-103282063D01*
X169851103Y-103398897D01*
X169967937Y-103488547D01*
X170103993Y-103544904D01*
X170112177Y-103545981D01*
X170112179Y-103545982D01*
X170241812Y-103563048D01*
X170250000Y-103564126D01*
X170258188Y-103563048D01*
X170387821Y-103545982D01*
X170387823Y-103545981D01*
X170396007Y-103544904D01*
X170532063Y-103488547D01*
X170648897Y-103398897D01*
X170738547Y-103282063D01*
X170794904Y-103146007D01*
X170814126Y-103000000D01*
X170794904Y-102853993D01*
X170738547Y-102717937D01*
X170648897Y-102601103D01*
X170532063Y-102511453D01*
X170396007Y-102455096D01*
X170387823Y-102454019D01*
X170387821Y-102454018D01*
X170258188Y-102436952D01*
X170250000Y-102435874D01*
X170241812Y-102436952D01*
X170112179Y-102454018D01*
X170112177Y-102454019D01*
X170103993Y-102455096D01*
X169967937Y-102511453D01*
X169851103Y-102601103D01*
X169761453Y-102717937D01*
X169705096Y-102853993D01*
X169685874Y-103000000D01*
X168861965Y-103000000D01*
X168861844Y-102996305D01*
X168844089Y-102803078D01*
X168841991Y-102791757D01*
X168789882Y-102606993D01*
X168785757Y-102596246D01*
X168701719Y-102425832D01*
X168694467Y-102420390D01*
X168682051Y-102427160D01*
X168122021Y-102987189D01*
X168114408Y-103001132D01*
X167384356Y-103001132D01*
X167385592Y-102998868D01*
X167385461Y-102997034D01*
X167381210Y-102990420D01*
X166818953Y-102428164D01*
X166806578Y-102421407D01*
X166800612Y-102425873D01*
X166725165Y-102569276D01*
X166720764Y-102579900D01*
X166663833Y-102763247D01*
X166661441Y-102774501D01*
X166638876Y-102965151D01*
X166638575Y-102976652D01*
X166056166Y-102976652D01*
X166038686Y-102820815D01*
X166005516Y-102725562D01*
X165981704Y-102657183D01*
X165981703Y-102657181D01*
X165979389Y-102650536D01*
X165883840Y-102497625D01*
X165841607Y-102455096D01*
X165761751Y-102374680D01*
X165761747Y-102374677D01*
X165756788Y-102369683D01*
X165604548Y-102273069D01*
X165550144Y-102253697D01*
X165441321Y-102214946D01*
X165441319Y-102214945D01*
X165434687Y-102212584D01*
X165427701Y-102211751D01*
X165427697Y-102211750D01*
X165300114Y-102196537D01*
X165255646Y-102191235D01*
X165248643Y-102191971D01*
X165248642Y-102191971D01*
X165083333Y-102209345D01*
X165083329Y-102209346D01*
X165076325Y-102210082D01*
X164905636Y-102268189D01*
X164752062Y-102362669D01*
X164747030Y-102367596D01*
X164747027Y-102367599D01*
X164654453Y-102458255D01*
X164623237Y-102488824D01*
X164525562Y-102640386D01*
X164523151Y-102647009D01*
X164523150Y-102647012D01*
X164466303Y-102803198D01*
X164466302Y-102803203D01*
X164463893Y-102809821D01*
X164441294Y-102988708D01*
X163557518Y-102988708D01*
X163538686Y-102820815D01*
X163505516Y-102725562D01*
X163481704Y-102657183D01*
X163481703Y-102657181D01*
X163479389Y-102650536D01*
X163383840Y-102497625D01*
X163341607Y-102455096D01*
X163261751Y-102374680D01*
X163261747Y-102374677D01*
X163256788Y-102369683D01*
X163104548Y-102273069D01*
X163050144Y-102253697D01*
X162941321Y-102214946D01*
X162941319Y-102214945D01*
X162934687Y-102212584D01*
X162927701Y-102211751D01*
X162927697Y-102211750D01*
X162800114Y-102196537D01*
X162755646Y-102191235D01*
X162748643Y-102191971D01*
X162748642Y-102191971D01*
X162583333Y-102209345D01*
X162583329Y-102209346D01*
X162576325Y-102210082D01*
X162405636Y-102268189D01*
X162252062Y-102362669D01*
X162247030Y-102367596D01*
X162247027Y-102367599D01*
X162154453Y-102458255D01*
X162123237Y-102488824D01*
X162025562Y-102640386D01*
X162023151Y-102647009D01*
X162023150Y-102647012D01*
X161966303Y-102803198D01*
X161966302Y-102803203D01*
X161963893Y-102809821D01*
X161941294Y-102988708D01*
X123703200Y-102988708D01*
X123703200Y-102059083D01*
X167173196Y-102059083D01*
X167176683Y-102067472D01*
X167737189Y-102627979D01*
X167751132Y-102635592D01*
X167752966Y-102635461D01*
X167759580Y-102631210D01*
X168319878Y-102070911D01*
X168326635Y-102058536D01*
X168320605Y-102050480D01*
X168259804Y-102012118D01*
X168249557Y-102006897D01*
X168071241Y-101935756D01*
X168060213Y-101932489D01*
X167871923Y-101895036D01*
X167860476Y-101893833D01*
X167668520Y-101891320D01*
X167657042Y-101892223D01*
X167467840Y-101924735D01*
X167456723Y-101927713D01*
X167276611Y-101994160D01*
X167266229Y-101999112D01*
X167182794Y-102048750D01*
X167173196Y-102059083D01*
X123703200Y-102059083D01*
X123703200Y-100000000D01*
X142935874Y-100000000D01*
X142955096Y-100146007D01*
X143011453Y-100282063D01*
X143101103Y-100398897D01*
X143217937Y-100488547D01*
X143353993Y-100544904D01*
X143362177Y-100545981D01*
X143362179Y-100545982D01*
X143491812Y-100563048D01*
X143500000Y-100564126D01*
X143508188Y-100563048D01*
X143637821Y-100545982D01*
X143637823Y-100545981D01*
X143646007Y-100544904D01*
X143782063Y-100488547D01*
X143898897Y-100398897D01*
X143988547Y-100282063D01*
X144044904Y-100146007D01*
X144064126Y-100000000D01*
X144061067Y-99976768D01*
X144045982Y-99862179D01*
X144045981Y-99862177D01*
X144044904Y-99853993D01*
X143988547Y-99717937D01*
X143898897Y-99601103D01*
X143782063Y-99511453D01*
X143754413Y-99500000D01*
X147185874Y-99500000D01*
X147186952Y-99508188D01*
X147200643Y-99612179D01*
X147205096Y-99646007D01*
X147261453Y-99782063D01*
X147351103Y-99898897D01*
X147467937Y-99988547D01*
X147603993Y-100044904D01*
X147612177Y-100045981D01*
X147612179Y-100045982D01*
X147741812Y-100063048D01*
X147750000Y-100064126D01*
X147758188Y-100063048D01*
X147887821Y-100045982D01*
X147887823Y-100045981D01*
X147896007Y-100044904D01*
X148032063Y-99988547D01*
X148148897Y-99898897D01*
X148238547Y-99782063D01*
X148251828Y-99750000D01*
X162185874Y-99750000D01*
X162186952Y-99758188D01*
X162200643Y-99862179D01*
X162205096Y-99896007D01*
X162261453Y-100032063D01*
X162351103Y-100148897D01*
X162467937Y-100238547D01*
X162603993Y-100294904D01*
X162612177Y-100295981D01*
X162612179Y-100295982D01*
X162741812Y-100313048D01*
X162750000Y-100314126D01*
X162758188Y-100313048D01*
X162887821Y-100295982D01*
X162887823Y-100295981D01*
X162896007Y-100294904D01*
X163032063Y-100238547D01*
X163148897Y-100148897D01*
X163238547Y-100032063D01*
X163294904Y-99896007D01*
X163299358Y-99862179D01*
X163313048Y-99758188D01*
X163314126Y-99750000D01*
X163300435Y-99646007D01*
X163295982Y-99612179D01*
X163295981Y-99612177D01*
X163294904Y-99603993D01*
X163238547Y-99467937D01*
X163148897Y-99351103D01*
X163032063Y-99261453D01*
X162896007Y-99205096D01*
X162887823Y-99204019D01*
X162887821Y-99204018D01*
X162758188Y-99186952D01*
X162750000Y-99185874D01*
X162741812Y-99186952D01*
X162612179Y-99204018D01*
X162612177Y-99204019D01*
X162603993Y-99205096D01*
X162467937Y-99261453D01*
X162351103Y-99351103D01*
X162261453Y-99467937D01*
X162205096Y-99603993D01*
X162204019Y-99612177D01*
X162204018Y-99612179D01*
X162199565Y-99646007D01*
X162185874Y-99750000D01*
X148251828Y-99750000D01*
X148294904Y-99646007D01*
X148299358Y-99612179D01*
X148313048Y-99508188D01*
X148314126Y-99500000D01*
X148294904Y-99353993D01*
X148238547Y-99217937D01*
X148148897Y-99101103D01*
X148032063Y-99011453D01*
X147896007Y-98955096D01*
X147887823Y-98954019D01*
X147887821Y-98954018D01*
X147758188Y-98936952D01*
X147750000Y-98935874D01*
X147741812Y-98936952D01*
X147612179Y-98954018D01*
X147612177Y-98954019D01*
X147603993Y-98955096D01*
X147467937Y-99011453D01*
X147351103Y-99101103D01*
X147261453Y-99217937D01*
X147205096Y-99353993D01*
X147185874Y-99500000D01*
X143754413Y-99500000D01*
X143646007Y-99455096D01*
X143637823Y-99454019D01*
X143637821Y-99454018D01*
X143508188Y-99436952D01*
X143500000Y-99435874D01*
X143491812Y-99436952D01*
X143362179Y-99454018D01*
X143362177Y-99454019D01*
X143353993Y-99455096D01*
X143217937Y-99511453D01*
X143101103Y-99601103D01*
X143011453Y-99717937D01*
X142955096Y-99853993D01*
X142954019Y-99862177D01*
X142954018Y-99862179D01*
X142938933Y-99976768D01*
X142935874Y-100000000D01*
X123703200Y-100000000D01*
X123703200Y-97500000D01*
X142935874Y-97500000D01*
X142955096Y-97646007D01*
X143011453Y-97782063D01*
X143101103Y-97898897D01*
X143217937Y-97988547D01*
X143353993Y-98044904D01*
X143362177Y-98045981D01*
X143362179Y-98045982D01*
X143491812Y-98063048D01*
X143500000Y-98064126D01*
X143508188Y-98063048D01*
X143637821Y-98045982D01*
X143637823Y-98045981D01*
X143646007Y-98044904D01*
X143782063Y-97988547D01*
X143898897Y-97898897D01*
X143903530Y-97892859D01*
X143965581Y-97858979D01*
X143992361Y-97856100D01*
X147950309Y-97856100D01*
X148018430Y-97876102D01*
X148039404Y-97893005D01*
X148611832Y-98465433D01*
X148624504Y-98481122D01*
X148627324Y-98484222D01*
X148632975Y-98492974D01*
X148641153Y-98499421D01*
X148641154Y-98499422D01*
X148657367Y-98512203D01*
X148661397Y-98515784D01*
X148661480Y-98515686D01*
X148665437Y-98519039D01*
X148669118Y-98522720D01*
X148673350Y-98525744D01*
X148673352Y-98525746D01*
X148683711Y-98533149D01*
X148688456Y-98536712D01*
X148717895Y-98559920D01*
X148717897Y-98559921D01*
X148726075Y-98566368D01*
X148734180Y-98569214D01*
X148741171Y-98574210D01*
X148776462Y-98584764D01*
X148787071Y-98587937D01*
X148792715Y-98589771D01*
X148830447Y-98603021D01*
X148830450Y-98603022D01*
X148837929Y-98605648D01*
X148843148Y-98606100D01*
X148845859Y-98606100D01*
X148848135Y-98606198D01*
X148848585Y-98606333D01*
X148848583Y-98606387D01*
X148848814Y-98606402D01*
X148854751Y-98608177D01*
X148905149Y-98606197D01*
X148910095Y-98606100D01*
X150407639Y-98606100D01*
X150475760Y-98626102D01*
X150496333Y-98642680D01*
X150501103Y-98648897D01*
X150617937Y-98738547D01*
X150753993Y-98794904D01*
X150762177Y-98795981D01*
X150762179Y-98795982D01*
X150891812Y-98813048D01*
X150900000Y-98814126D01*
X150908188Y-98813048D01*
X151037821Y-98795982D01*
X151037823Y-98795981D01*
X151046007Y-98794904D01*
X151182063Y-98738547D01*
X151298897Y-98648897D01*
X151388547Y-98532063D01*
X151444904Y-98396007D01*
X151464126Y-98250000D01*
X151444904Y-98103993D01*
X151388547Y-97967937D01*
X151298897Y-97851103D01*
X151182063Y-97761453D01*
X151046007Y-97705096D01*
X151037823Y-97704019D01*
X151037821Y-97704018D01*
X150908188Y-97686952D01*
X150900000Y-97685874D01*
X150891812Y-97686952D01*
X150762179Y-97704018D01*
X150762177Y-97704019D01*
X150753993Y-97705096D01*
X150617937Y-97761453D01*
X150501103Y-97851103D01*
X150496470Y-97857141D01*
X150434419Y-97891021D01*
X150407639Y-97893900D01*
X149099691Y-97893900D01*
X149031570Y-97873898D01*
X149010596Y-97856995D01*
X148438168Y-97284567D01*
X148425496Y-97268878D01*
X148422676Y-97265778D01*
X148417025Y-97257026D01*
X148392633Y-97237797D01*
X148388603Y-97234216D01*
X148388520Y-97234314D01*
X148384563Y-97230961D01*
X148380882Y-97227280D01*
X148376648Y-97224254D01*
X148366289Y-97216851D01*
X148361544Y-97213288D01*
X148332105Y-97190080D01*
X148332103Y-97190079D01*
X148323925Y-97183632D01*
X148315820Y-97180786D01*
X148308829Y-97175790D01*
X148262938Y-97162066D01*
X148257293Y-97160232D01*
X148219553Y-97146979D01*
X148219550Y-97146978D01*
X148212071Y-97144352D01*
X148206852Y-97143900D01*
X148204141Y-97143900D01*
X148201864Y-97143802D01*
X148201415Y-97143667D01*
X148201417Y-97143613D01*
X148201184Y-97143598D01*
X148195248Y-97141823D01*
X148145385Y-97143782D01*
X148144850Y-97143803D01*
X148139904Y-97143900D01*
X143992361Y-97143900D01*
X143924240Y-97123898D01*
X143903667Y-97107320D01*
X143898897Y-97101103D01*
X143782063Y-97011453D01*
X143646007Y-96955096D01*
X143637823Y-96954019D01*
X143637821Y-96954018D01*
X143508188Y-96936952D01*
X143500000Y-96935874D01*
X143491812Y-96936952D01*
X143362179Y-96954018D01*
X143362177Y-96954019D01*
X143353993Y-96955096D01*
X143217937Y-97011453D01*
X143101103Y-97101103D01*
X143011453Y-97217937D01*
X142955096Y-97353993D01*
X142935874Y-97500000D01*
X123703200Y-97500000D01*
X123703200Y-95000000D01*
X142935874Y-95000000D01*
X142955096Y-95146007D01*
X143011453Y-95282063D01*
X143101103Y-95398897D01*
X143217937Y-95488547D01*
X143353993Y-95544904D01*
X143362177Y-95545981D01*
X143362179Y-95545982D01*
X143491812Y-95563048D01*
X143500000Y-95564126D01*
X143508188Y-95563048D01*
X143637821Y-95545982D01*
X143637823Y-95545981D01*
X143646007Y-95544904D01*
X143782063Y-95488547D01*
X143898897Y-95398897D01*
X143988547Y-95282063D01*
X144044904Y-95146007D01*
X144064126Y-95000000D01*
X144063133Y-94992455D01*
X144083050Y-94924622D01*
X144099953Y-94903648D01*
X144460596Y-94543005D01*
X144522908Y-94508979D01*
X144549691Y-94506100D01*
X146598572Y-94506100D01*
X146618621Y-94508234D01*
X146622811Y-94508432D01*
X146632993Y-94510624D01*
X146663840Y-94506973D01*
X146669215Y-94506656D01*
X146669204Y-94506528D01*
X146674382Y-94506100D01*
X146679584Y-94506100D01*
X146690919Y-94504213D01*
X146697243Y-94503161D01*
X146703115Y-94502326D01*
X146740374Y-94497916D01*
X146740381Y-94497914D01*
X146750722Y-94496690D01*
X146758468Y-94492970D01*
X146766942Y-94491560D01*
X146809109Y-94468808D01*
X146814396Y-94466115D01*
X146850442Y-94448805D01*
X146850445Y-94448803D01*
X146857590Y-94445372D01*
X146861600Y-94442001D01*
X146863538Y-94440063D01*
X146865189Y-94438548D01*
X146865599Y-94438327D01*
X146865637Y-94438369D01*
X146865820Y-94438208D01*
X146871274Y-94435265D01*
X146905519Y-94398219D01*
X146908949Y-94394652D01*
X147660598Y-93643004D01*
X147722910Y-93608979D01*
X147749693Y-93606100D01*
X148257639Y-93606100D01*
X148325760Y-93626102D01*
X148346333Y-93642680D01*
X148351103Y-93648897D01*
X148467937Y-93738547D01*
X148603993Y-93794904D01*
X148612177Y-93795981D01*
X148612179Y-93795982D01*
X148741812Y-93813048D01*
X148750000Y-93814126D01*
X148758188Y-93813048D01*
X148887821Y-93795982D01*
X148887823Y-93795981D01*
X148896007Y-93794904D01*
X149032063Y-93738547D01*
X149148897Y-93648897D01*
X149238547Y-93532063D01*
X149294904Y-93396007D01*
X149314126Y-93250000D01*
X149294904Y-93103993D01*
X149238547Y-92967937D01*
X149148897Y-92851103D01*
X149032063Y-92761453D01*
X148896007Y-92705096D01*
X148887823Y-92704019D01*
X148887821Y-92704018D01*
X148758188Y-92686952D01*
X148750000Y-92685874D01*
X148741812Y-92686952D01*
X148612179Y-92704018D01*
X148612177Y-92704019D01*
X148603993Y-92705096D01*
X148467937Y-92761453D01*
X148351103Y-92851103D01*
X148346470Y-92857141D01*
X148284419Y-92891021D01*
X148257639Y-92893900D01*
X147601427Y-92893900D01*
X147581378Y-92891766D01*
X147577188Y-92891568D01*
X147567006Y-92889376D01*
X147556665Y-92890600D01*
X147536161Y-92893027D01*
X147530783Y-92893344D01*
X147530794Y-92893472D01*
X147525616Y-92893900D01*
X147520416Y-92893900D01*
X147515288Y-92894754D01*
X147515284Y-92894754D01*
X147502739Y-92896842D01*
X147496861Y-92897679D01*
X147478582Y-92899843D01*
X147449277Y-92903311D01*
X147441534Y-92907029D01*
X147433058Y-92908440D01*
X147423897Y-92913383D01*
X147390886Y-92931194D01*
X147385600Y-92933887D01*
X147349558Y-92951195D01*
X147349555Y-92951197D01*
X147342410Y-92954628D01*
X147338400Y-92957999D01*
X147336462Y-92959937D01*
X147334811Y-92961452D01*
X147334401Y-92961673D01*
X147334363Y-92961631D01*
X147334180Y-92961792D01*
X147328726Y-92964735D01*
X147321658Y-92972382D01*
X147321657Y-92972382D01*
X147294481Y-93001781D01*
X147291051Y-93005348D01*
X146539402Y-93756996D01*
X146477090Y-93791021D01*
X146450307Y-93793900D01*
X145943135Y-93793900D01*
X145875014Y-93773898D01*
X145828521Y-93720242D01*
X145818417Y-93649968D01*
X145843171Y-93591198D01*
X145888547Y-93532063D01*
X145944904Y-93396007D01*
X145964126Y-93250000D01*
X145944904Y-93103993D01*
X145888547Y-92967937D01*
X145798897Y-92851103D01*
X145682063Y-92761453D01*
X145546007Y-92705096D01*
X145537823Y-92704019D01*
X145537821Y-92704018D01*
X145408188Y-92686952D01*
X145400000Y-92685874D01*
X145391812Y-92686952D01*
X145262179Y-92704018D01*
X145262177Y-92704019D01*
X145253993Y-92705096D01*
X145117937Y-92761453D01*
X145001103Y-92851103D01*
X144911453Y-92967937D01*
X144855096Y-93103993D01*
X144835874Y-93250000D01*
X144855096Y-93396007D01*
X144911453Y-93532063D01*
X144956829Y-93591198D01*
X144982428Y-93657417D01*
X144968163Y-93726966D01*
X144918562Y-93777761D01*
X144856865Y-93793900D01*
X144401432Y-93793900D01*
X144381371Y-93791765D01*
X144377187Y-93791568D01*
X144367007Y-93789376D01*
X144336160Y-93793027D01*
X144330785Y-93793344D01*
X144330796Y-93793472D01*
X144325618Y-93793900D01*
X144320416Y-93793900D01*
X144309081Y-93795787D01*
X144302757Y-93796839D01*
X144296885Y-93797674D01*
X144259626Y-93802084D01*
X144259619Y-93802086D01*
X144249278Y-93803310D01*
X144241532Y-93807030D01*
X144233058Y-93808440D01*
X144194452Y-93829270D01*
X144190891Y-93831192D01*
X144185604Y-93833885D01*
X144149558Y-93851195D01*
X144149555Y-93851197D01*
X144142410Y-93854628D01*
X144138400Y-93857999D01*
X144136462Y-93859937D01*
X144134811Y-93861452D01*
X144134401Y-93861673D01*
X144134363Y-93861631D01*
X144134180Y-93861792D01*
X144128726Y-93864735D01*
X144121658Y-93872382D01*
X144121657Y-93872382D01*
X144094481Y-93901781D01*
X144091051Y-93905348D01*
X143596350Y-94400048D01*
X143534038Y-94434073D01*
X143507769Y-94436897D01*
X143500000Y-94435874D01*
X143481048Y-94438369D01*
X143362179Y-94454018D01*
X143362177Y-94454019D01*
X143353993Y-94455096D01*
X143217937Y-94511453D01*
X143101103Y-94601103D01*
X143011453Y-94717937D01*
X142955096Y-94853993D01*
X142954019Y-94862177D01*
X142954018Y-94862179D01*
X142942915Y-94946516D01*
X142935874Y-95000000D01*
X123703200Y-95000000D01*
X123703200Y-90750000D01*
X151185874Y-90750000D01*
X151205096Y-90896007D01*
X151261453Y-91032063D01*
X151351103Y-91148897D01*
X151467937Y-91238547D01*
X151603993Y-91294904D01*
X151612177Y-91295981D01*
X151612179Y-91295982D01*
X151741812Y-91313048D01*
X151750000Y-91314126D01*
X151758188Y-91313048D01*
X151887821Y-91295982D01*
X151887823Y-91295981D01*
X151896007Y-91294904D01*
X152032063Y-91238547D01*
X152148897Y-91148897D01*
X152238547Y-91032063D01*
X152294904Y-90896007D01*
X152314126Y-90750000D01*
X158185874Y-90750000D01*
X158205096Y-90896007D01*
X158261453Y-91032063D01*
X158351103Y-91148897D01*
X158467937Y-91238547D01*
X158603993Y-91294904D01*
X158612177Y-91295981D01*
X158612179Y-91295982D01*
X158741812Y-91313048D01*
X158750000Y-91314126D01*
X158758188Y-91313048D01*
X158887821Y-91295982D01*
X158887823Y-91295981D01*
X158896007Y-91294904D01*
X159032063Y-91238547D01*
X159148897Y-91148897D01*
X159238547Y-91032063D01*
X159294904Y-90896007D01*
X159314126Y-90750000D01*
X159294904Y-90603993D01*
X159238547Y-90467937D01*
X159148897Y-90351103D01*
X159032063Y-90261453D01*
X158896007Y-90205096D01*
X158887823Y-90204019D01*
X158887821Y-90204018D01*
X158758188Y-90186952D01*
X158750000Y-90185874D01*
X158741812Y-90186952D01*
X158612179Y-90204018D01*
X158612177Y-90204019D01*
X158603993Y-90205096D01*
X158467937Y-90261453D01*
X158351103Y-90351103D01*
X158261453Y-90467937D01*
X158205096Y-90603993D01*
X158185874Y-90750000D01*
X152314126Y-90750000D01*
X152294904Y-90603993D01*
X152238547Y-90467937D01*
X152148897Y-90351103D01*
X152032063Y-90261453D01*
X151896007Y-90205096D01*
X151887823Y-90204019D01*
X151887821Y-90204018D01*
X151758188Y-90186952D01*
X151750000Y-90185874D01*
X151741812Y-90186952D01*
X151612179Y-90204018D01*
X151612177Y-90204019D01*
X151603993Y-90205096D01*
X151467937Y-90261453D01*
X151351103Y-90351103D01*
X151261453Y-90467937D01*
X151205096Y-90603993D01*
X151185874Y-90750000D01*
X123703200Y-90750000D01*
X123703200Y-88550000D01*
X158385874Y-88550000D01*
X158405096Y-88696007D01*
X158461453Y-88832063D01*
X158551103Y-88948897D01*
X158667937Y-89038547D01*
X158803993Y-89094904D01*
X158812177Y-89095981D01*
X158812179Y-89095982D01*
X158941812Y-89113048D01*
X158950000Y-89114126D01*
X158958188Y-89113048D01*
X159087821Y-89095982D01*
X159087823Y-89095981D01*
X159096007Y-89094904D01*
X159232063Y-89038547D01*
X159348897Y-88948897D01*
X159438547Y-88832063D01*
X159494904Y-88696007D01*
X159514126Y-88550000D01*
X159494904Y-88403993D01*
X159438547Y-88267937D01*
X159348897Y-88151103D01*
X159232063Y-88061453D01*
X159096007Y-88005096D01*
X159087823Y-88004019D01*
X159087821Y-88004018D01*
X158958188Y-87986952D01*
X158950000Y-87985874D01*
X158941812Y-87986952D01*
X158812179Y-88004018D01*
X158812177Y-88004019D01*
X158803993Y-88005096D01*
X158667937Y-88061453D01*
X158551103Y-88151103D01*
X158461453Y-88267937D01*
X158405096Y-88403993D01*
X158385874Y-88550000D01*
X123703200Y-88550000D01*
X123703200Y-84526451D01*
X170029722Y-84526451D01*
X170045569Y-84715171D01*
X170097770Y-84897218D01*
X170100588Y-84902700D01*
X170100589Y-84902704D01*
X170181516Y-85060171D01*
X170181519Y-85060175D01*
X170184337Y-85065659D01*
X170188168Y-85070492D01*
X170298143Y-85209248D01*
X170298147Y-85209253D01*
X170301972Y-85214078D01*
X170446195Y-85336821D01*
X170611512Y-85429214D01*
X170791627Y-85487736D01*
X170979678Y-85510160D01*
X170985813Y-85509688D01*
X170985815Y-85509688D01*
X171162362Y-85496104D01*
X171162366Y-85496103D01*
X171168504Y-85495631D01*
X171174436Y-85493975D01*
X171174440Y-85493974D01*
X171259707Y-85470167D01*
X171350911Y-85444702D01*
X171519952Y-85359313D01*
X171544895Y-85339826D01*
X171664327Y-85246515D01*
X171664328Y-85246514D01*
X171669188Y-85242717D01*
X171792935Y-85099354D01*
X171886480Y-84934686D01*
X171946259Y-84754985D01*
X171951289Y-84715171D01*
X171969553Y-84570597D01*
X171969554Y-84570588D01*
X171969995Y-84567094D01*
X171970373Y-84540000D01*
X171951892Y-84351520D01*
X171949733Y-84344367D01*
X171898936Y-84176120D01*
X171897155Y-84170220D01*
X171808244Y-84003004D01*
X171763706Y-83948395D01*
X171692443Y-83861017D01*
X171692440Y-83861014D01*
X171688548Y-83856242D01*
X171542626Y-83735524D01*
X171537209Y-83732595D01*
X171537206Y-83732593D01*
X171381455Y-83648379D01*
X171381450Y-83648377D01*
X171376035Y-83645449D01*
X171353738Y-83638547D01*
X171201008Y-83591269D01*
X171201005Y-83591268D01*
X171195121Y-83589447D01*
X171188996Y-83588803D01*
X171188995Y-83588803D01*
X171012902Y-83570295D01*
X171012901Y-83570295D01*
X171006774Y-83569651D01*
X170927232Y-83576890D01*
X170824309Y-83586256D01*
X170824306Y-83586257D01*
X170818170Y-83586815D01*
X170812264Y-83588553D01*
X170812260Y-83588554D01*
X170680832Y-83627236D01*
X170636492Y-83640286D01*
X170468659Y-83728027D01*
X170321066Y-83846695D01*
X170199332Y-83991771D01*
X170196369Y-83997160D01*
X170196366Y-83997165D01*
X170120639Y-84134914D01*
X170108096Y-84157729D01*
X170106235Y-84163596D01*
X170106234Y-84163598D01*
X170102262Y-84176120D01*
X170050832Y-84338248D01*
X170029722Y-84526451D01*
X123703200Y-84526451D01*
X123703200Y-81500000D01*
X160685874Y-81500000D01*
X160686952Y-81508188D01*
X160703018Y-81630220D01*
X160705096Y-81646007D01*
X160761453Y-81782063D01*
X160851103Y-81898897D01*
X160967937Y-81988547D01*
X161103993Y-82044904D01*
X161112177Y-82045981D01*
X161112179Y-82045982D01*
X161241812Y-82063048D01*
X161250000Y-82064126D01*
X161258188Y-82063048D01*
X161387821Y-82045982D01*
X161387823Y-82045981D01*
X161396007Y-82044904D01*
X161532063Y-81988547D01*
X161534795Y-81986451D01*
X170029722Y-81986451D01*
X170045569Y-82175171D01*
X170097770Y-82357218D01*
X170100588Y-82362700D01*
X170100589Y-82362704D01*
X170181516Y-82520171D01*
X170181519Y-82520175D01*
X170184337Y-82525659D01*
X170188168Y-82530492D01*
X170298143Y-82669248D01*
X170298147Y-82669253D01*
X170301972Y-82674078D01*
X170446195Y-82796821D01*
X170611512Y-82889214D01*
X170791627Y-82947736D01*
X170979678Y-82970160D01*
X170985813Y-82969688D01*
X170985815Y-82969688D01*
X171162362Y-82956104D01*
X171162366Y-82956103D01*
X171168504Y-82955631D01*
X171174436Y-82953975D01*
X171174440Y-82953974D01*
X171259708Y-82930166D01*
X171350911Y-82904702D01*
X171519952Y-82819313D01*
X171544895Y-82799826D01*
X171664327Y-82706515D01*
X171664328Y-82706514D01*
X171669188Y-82702717D01*
X171792935Y-82559354D01*
X171886480Y-82394686D01*
X171946259Y-82214985D01*
X171951289Y-82175171D01*
X171969553Y-82030597D01*
X171969554Y-82030588D01*
X171969995Y-82027094D01*
X171970373Y-82000000D01*
X171951892Y-81811520D01*
X171949733Y-81804367D01*
X171898936Y-81636120D01*
X171897155Y-81630220D01*
X171832269Y-81508188D01*
X171811140Y-81468450D01*
X171811139Y-81468448D01*
X171808244Y-81463004D01*
X171763706Y-81408395D01*
X171692443Y-81321017D01*
X171692440Y-81321014D01*
X171688548Y-81316242D01*
X171658937Y-81291745D01*
X171547374Y-81199452D01*
X171547375Y-81199452D01*
X171542626Y-81195524D01*
X171537209Y-81192595D01*
X171537206Y-81192593D01*
X171381455Y-81108379D01*
X171381450Y-81108377D01*
X171376035Y-81105449D01*
X171345759Y-81096077D01*
X171201008Y-81051269D01*
X171201005Y-81051268D01*
X171195121Y-81049447D01*
X171188996Y-81048803D01*
X171188995Y-81048803D01*
X171012902Y-81030295D01*
X171012901Y-81030295D01*
X171006774Y-81029651D01*
X170927232Y-81036890D01*
X170824309Y-81046256D01*
X170824306Y-81046257D01*
X170818170Y-81046815D01*
X170812264Y-81048553D01*
X170812260Y-81048554D01*
X170680832Y-81087236D01*
X170636492Y-81100286D01*
X170468659Y-81188027D01*
X170321066Y-81306695D01*
X170317107Y-81311413D01*
X170317106Y-81311414D01*
X170313055Y-81316242D01*
X170199332Y-81451771D01*
X170196369Y-81457160D01*
X170196366Y-81457165D01*
X170120639Y-81594914D01*
X170108096Y-81617729D01*
X170106235Y-81623596D01*
X170106234Y-81623598D01*
X170058385Y-81774438D01*
X170050832Y-81798248D01*
X170029722Y-81986451D01*
X161534795Y-81986451D01*
X161648897Y-81898897D01*
X161738547Y-81782063D01*
X161794904Y-81646007D01*
X161796983Y-81630220D01*
X161813048Y-81508188D01*
X161814126Y-81500000D01*
X161794904Y-81353993D01*
X161738547Y-81217937D01*
X161648897Y-81101103D01*
X161532063Y-81011453D01*
X161396007Y-80955096D01*
X161387823Y-80954019D01*
X161387821Y-80954018D01*
X161258188Y-80936952D01*
X161250000Y-80935874D01*
X161241812Y-80936952D01*
X161112179Y-80954018D01*
X161112177Y-80954019D01*
X161103993Y-80955096D01*
X160967937Y-81011453D01*
X160851103Y-81101103D01*
X160761453Y-81217937D01*
X160705096Y-81353993D01*
X160685874Y-81500000D01*
X123703200Y-81500000D01*
X123703200Y-80750000D01*
X153635874Y-80750000D01*
X153655096Y-80896007D01*
X153711453Y-81032063D01*
X153801103Y-81148897D01*
X153917937Y-81238547D01*
X154053993Y-81294904D01*
X154062177Y-81295981D01*
X154062179Y-81295982D01*
X154191812Y-81313048D01*
X154200000Y-81314126D01*
X154208188Y-81313048D01*
X154337821Y-81295982D01*
X154337823Y-81295981D01*
X154346007Y-81294904D01*
X154482063Y-81238547D01*
X154598897Y-81148897D01*
X154688547Y-81032063D01*
X154744904Y-80896007D01*
X154764126Y-80750000D01*
X154744904Y-80603993D01*
X154688547Y-80467937D01*
X154598897Y-80351103D01*
X154482063Y-80261453D01*
X154346007Y-80205096D01*
X154337823Y-80204019D01*
X154337821Y-80204018D01*
X154208188Y-80186952D01*
X154200000Y-80185874D01*
X154191812Y-80186952D01*
X154062179Y-80204018D01*
X154062177Y-80204019D01*
X154053993Y-80205096D01*
X153917937Y-80261453D01*
X153801103Y-80351103D01*
X153711453Y-80467937D01*
X153655096Y-80603993D01*
X153635874Y-80750000D01*
X123703200Y-80750000D01*
X123703200Y-79446451D01*
X170029722Y-79446451D01*
X170045569Y-79635171D01*
X170097770Y-79817218D01*
X170100588Y-79822700D01*
X170100589Y-79822704D01*
X170181516Y-79980171D01*
X170181519Y-79980175D01*
X170184337Y-79985659D01*
X170188168Y-79990492D01*
X170298143Y-80129248D01*
X170298147Y-80129253D01*
X170301972Y-80134078D01*
X170446195Y-80256821D01*
X170611512Y-80349214D01*
X170791627Y-80407736D01*
X170979678Y-80430160D01*
X170985813Y-80429688D01*
X170985815Y-80429688D01*
X171162362Y-80416104D01*
X171162366Y-80416103D01*
X171168504Y-80415631D01*
X171174436Y-80413975D01*
X171174440Y-80413974D01*
X171259707Y-80390167D01*
X171350911Y-80364702D01*
X171519952Y-80279313D01*
X171544895Y-80259826D01*
X171664327Y-80166515D01*
X171664328Y-80166514D01*
X171669188Y-80162717D01*
X171792935Y-80019354D01*
X171886480Y-79854686D01*
X171946259Y-79674985D01*
X171951289Y-79635171D01*
X171969553Y-79490597D01*
X171969554Y-79490588D01*
X171969995Y-79487094D01*
X171970373Y-79460000D01*
X171951892Y-79271520D01*
X171949733Y-79264367D01*
X171898936Y-79096120D01*
X171897155Y-79090220D01*
X171808244Y-78923004D01*
X171763706Y-78868395D01*
X171692443Y-78781017D01*
X171692440Y-78781014D01*
X171688548Y-78776242D01*
X171542626Y-78655524D01*
X171537209Y-78652595D01*
X171537206Y-78652593D01*
X171381455Y-78568379D01*
X171381450Y-78568377D01*
X171376035Y-78565449D01*
X171353738Y-78558547D01*
X171201008Y-78511269D01*
X171201005Y-78511268D01*
X171195121Y-78509447D01*
X171188996Y-78508803D01*
X171188995Y-78508803D01*
X171012902Y-78490295D01*
X171012901Y-78490295D01*
X171006774Y-78489651D01*
X170927232Y-78496890D01*
X170824309Y-78506256D01*
X170824306Y-78506257D01*
X170818170Y-78506815D01*
X170812264Y-78508553D01*
X170812260Y-78508554D01*
X170680832Y-78547236D01*
X170636492Y-78560286D01*
X170468659Y-78648027D01*
X170321066Y-78766695D01*
X170199332Y-78911771D01*
X170196369Y-78917160D01*
X170196366Y-78917165D01*
X170120639Y-79054914D01*
X170108096Y-79077729D01*
X170106235Y-79083596D01*
X170106234Y-79083598D01*
X170102262Y-79096120D01*
X170050832Y-79258248D01*
X170029722Y-79446451D01*
X123703200Y-79446451D01*
X123703200Y-68494669D01*
X126472001Y-68494669D01*
X126472371Y-68501490D01*
X126477895Y-68552352D01*
X126481521Y-68567604D01*
X126526676Y-68688054D01*
X126535214Y-68703649D01*
X126611715Y-68805724D01*
X126624276Y-68818285D01*
X126726351Y-68894786D01*
X126741946Y-68903324D01*
X126862394Y-68948478D01*
X126877649Y-68952105D01*
X126928514Y-68957631D01*
X126935328Y-68958000D01*
X127907885Y-68958000D01*
X127923124Y-68953525D01*
X127924329Y-68952135D01*
X127926000Y-68944452D01*
X127926000Y-68939884D01*
X128434000Y-68939884D01*
X128438475Y-68955123D01*
X128439865Y-68956328D01*
X128447548Y-68957999D01*
X129424669Y-68957999D01*
X129431490Y-68957629D01*
X129482352Y-68952105D01*
X129497604Y-68948479D01*
X129618054Y-68903324D01*
X129633649Y-68894786D01*
X129735724Y-68818285D01*
X129748285Y-68805724D01*
X129824786Y-68703649D01*
X129833324Y-68688054D01*
X129878478Y-68567606D01*
X129882105Y-68552351D01*
X129887631Y-68501486D01*
X129888000Y-68494672D01*
X129888000Y-67522115D01*
X129883525Y-67506876D01*
X129882135Y-67505671D01*
X129874452Y-67504000D01*
X128452115Y-67504000D01*
X128436876Y-67508475D01*
X128435671Y-67509865D01*
X128434000Y-67517548D01*
X128434000Y-68939884D01*
X127926000Y-68939884D01*
X127926000Y-67522115D01*
X127921525Y-67506876D01*
X127920135Y-67505671D01*
X127912452Y-67504000D01*
X126490116Y-67504000D01*
X126474877Y-67508475D01*
X126473672Y-67509865D01*
X126472001Y-67517548D01*
X126472001Y-68494669D01*
X123703200Y-68494669D01*
X123703200Y-67215587D01*
X131851909Y-67215587D01*
X131852206Y-67220739D01*
X131852206Y-67220743D01*
X131864899Y-67440868D01*
X131864900Y-67440874D01*
X131865197Y-67446027D01*
X131881315Y-67517548D01*
X131904131Y-67618790D01*
X131915942Y-67671202D01*
X131917886Y-67675988D01*
X131917887Y-67675993D01*
X131932556Y-67712118D01*
X132002783Y-67885066D01*
X132123388Y-68081875D01*
X132274516Y-68256343D01*
X132452111Y-68403785D01*
X132651402Y-68520241D01*
X132656222Y-68522081D01*
X132656227Y-68522084D01*
X132775434Y-68567604D01*
X132867038Y-68602584D01*
X132872106Y-68603615D01*
X132872109Y-68603616D01*
X132979874Y-68625541D01*
X133093227Y-68648603D01*
X133098402Y-68648793D01*
X133098404Y-68648793D01*
X133318730Y-68656872D01*
X133318734Y-68656872D01*
X133323894Y-68657061D01*
X133329014Y-68656405D01*
X133329016Y-68656405D01*
X133547718Y-68628389D01*
X133547719Y-68628389D01*
X133552846Y-68627732D01*
X133567422Y-68623359D01*
X133768978Y-68562889D01*
X133768982Y-68562887D01*
X133773933Y-68561402D01*
X133981218Y-68459854D01*
X134064458Y-68400480D01*
X134164931Y-68328813D01*
X134169134Y-68325815D01*
X134235536Y-68259645D01*
X134328975Y-68166531D01*
X134332635Y-68162884D01*
X134467330Y-67975437D01*
X134569600Y-67768507D01*
X134571103Y-67763561D01*
X134635197Y-67552605D01*
X134635198Y-67552599D01*
X134636701Y-67547653D01*
X134666829Y-67318805D01*
X134668511Y-67250000D01*
X134665682Y-67215587D01*
X136931909Y-67215587D01*
X136932206Y-67220739D01*
X136932206Y-67220743D01*
X136944899Y-67440868D01*
X136944900Y-67440874D01*
X136945197Y-67446027D01*
X136961315Y-67517548D01*
X136984131Y-67618790D01*
X136995942Y-67671202D01*
X136997886Y-67675988D01*
X136997887Y-67675993D01*
X137012556Y-67712118D01*
X137082783Y-67885066D01*
X137203388Y-68081875D01*
X137354516Y-68256343D01*
X137532111Y-68403785D01*
X137731402Y-68520241D01*
X137736222Y-68522081D01*
X137736227Y-68522084D01*
X137855434Y-68567604D01*
X137947038Y-68602584D01*
X137952106Y-68603615D01*
X137952109Y-68603616D01*
X138059874Y-68625541D01*
X138173227Y-68648603D01*
X138178402Y-68648793D01*
X138178404Y-68648793D01*
X138398730Y-68656872D01*
X138398734Y-68656872D01*
X138403894Y-68657061D01*
X138409014Y-68656405D01*
X138409016Y-68656405D01*
X138627718Y-68628389D01*
X138627719Y-68628389D01*
X138632846Y-68627732D01*
X138647422Y-68623359D01*
X138848978Y-68562889D01*
X138848982Y-68562887D01*
X138853933Y-68561402D01*
X139061218Y-68459854D01*
X139144458Y-68400480D01*
X139244931Y-68328813D01*
X139249134Y-68325815D01*
X139315536Y-68259645D01*
X139408975Y-68166531D01*
X139412635Y-68162884D01*
X139547330Y-67975437D01*
X139649600Y-67768507D01*
X139651103Y-67763561D01*
X139715197Y-67552605D01*
X139715198Y-67552599D01*
X139716701Y-67547653D01*
X139746829Y-67318805D01*
X139748511Y-67250000D01*
X139745682Y-67215587D01*
X142011909Y-67215587D01*
X142012206Y-67220739D01*
X142012206Y-67220743D01*
X142024899Y-67440868D01*
X142024900Y-67440874D01*
X142025197Y-67446027D01*
X142041315Y-67517548D01*
X142064131Y-67618790D01*
X142075942Y-67671202D01*
X142077886Y-67675988D01*
X142077887Y-67675993D01*
X142092556Y-67712118D01*
X142162783Y-67885066D01*
X142283388Y-68081875D01*
X142434516Y-68256343D01*
X142612111Y-68403785D01*
X142811402Y-68520241D01*
X142816222Y-68522081D01*
X142816227Y-68522084D01*
X142935434Y-68567604D01*
X143027038Y-68602584D01*
X143032106Y-68603615D01*
X143032109Y-68603616D01*
X143139874Y-68625541D01*
X143253227Y-68648603D01*
X143258402Y-68648793D01*
X143258404Y-68648793D01*
X143478730Y-68656872D01*
X143478734Y-68656872D01*
X143483894Y-68657061D01*
X143489014Y-68656405D01*
X143489016Y-68656405D01*
X143707718Y-68628389D01*
X143707719Y-68628389D01*
X143712846Y-68627732D01*
X143727422Y-68623359D01*
X143928978Y-68562889D01*
X143928982Y-68562887D01*
X143933933Y-68561402D01*
X144141218Y-68459854D01*
X144224458Y-68400480D01*
X144324931Y-68328813D01*
X144329134Y-68325815D01*
X144395536Y-68259645D01*
X144488975Y-68166531D01*
X144492635Y-68162884D01*
X144627330Y-67975437D01*
X144729600Y-67768507D01*
X144731103Y-67763561D01*
X144795197Y-67552605D01*
X144795198Y-67552599D01*
X144796701Y-67547653D01*
X144826829Y-67318805D01*
X144828511Y-67250000D01*
X144825682Y-67215587D01*
X147091909Y-67215587D01*
X147092206Y-67220739D01*
X147092206Y-67220743D01*
X147104899Y-67440868D01*
X147104900Y-67440874D01*
X147105197Y-67446027D01*
X147121315Y-67517548D01*
X147144131Y-67618790D01*
X147155942Y-67671202D01*
X147157886Y-67675988D01*
X147157887Y-67675993D01*
X147172556Y-67712118D01*
X147242783Y-67885066D01*
X147363388Y-68081875D01*
X147514516Y-68256343D01*
X147692111Y-68403785D01*
X147891402Y-68520241D01*
X147896222Y-68522081D01*
X147896227Y-68522084D01*
X148015434Y-68567604D01*
X148107038Y-68602584D01*
X148112106Y-68603615D01*
X148112109Y-68603616D01*
X148219874Y-68625541D01*
X148333227Y-68648603D01*
X148338402Y-68648793D01*
X148338404Y-68648793D01*
X148558730Y-68656872D01*
X148558734Y-68656872D01*
X148563894Y-68657061D01*
X148569014Y-68656405D01*
X148569016Y-68656405D01*
X148787718Y-68628389D01*
X148787719Y-68628389D01*
X148792846Y-68627732D01*
X148807422Y-68623359D01*
X149008978Y-68562889D01*
X149008982Y-68562887D01*
X149013933Y-68561402D01*
X149221218Y-68459854D01*
X149304458Y-68400480D01*
X149404931Y-68328813D01*
X149409134Y-68325815D01*
X149475536Y-68259645D01*
X149568975Y-68166531D01*
X149572635Y-68162884D01*
X149707330Y-67975437D01*
X149809600Y-67768507D01*
X149811103Y-67763561D01*
X149875197Y-67552605D01*
X149875198Y-67552599D01*
X149876701Y-67547653D01*
X149906829Y-67318805D01*
X149908511Y-67250000D01*
X149905682Y-67215587D01*
X152171909Y-67215587D01*
X152172206Y-67220739D01*
X152172206Y-67220743D01*
X152184899Y-67440868D01*
X152184900Y-67440874D01*
X152185197Y-67446027D01*
X152201315Y-67517548D01*
X152224131Y-67618790D01*
X152235942Y-67671202D01*
X152237886Y-67675988D01*
X152237887Y-67675993D01*
X152252556Y-67712118D01*
X152322783Y-67885066D01*
X152443388Y-68081875D01*
X152594516Y-68256343D01*
X152772111Y-68403785D01*
X152971402Y-68520241D01*
X152976222Y-68522081D01*
X152976227Y-68522084D01*
X153095434Y-68567604D01*
X153187038Y-68602584D01*
X153192106Y-68603615D01*
X153192109Y-68603616D01*
X153299874Y-68625541D01*
X153413227Y-68648603D01*
X153418402Y-68648793D01*
X153418404Y-68648793D01*
X153638730Y-68656872D01*
X153638734Y-68656872D01*
X153643894Y-68657061D01*
X153649014Y-68656405D01*
X153649016Y-68656405D01*
X153867718Y-68628389D01*
X153867719Y-68628389D01*
X153872846Y-68627732D01*
X153887422Y-68623359D01*
X157651386Y-68623359D01*
X157660099Y-68634879D01*
X157748586Y-68699760D01*
X157756505Y-68704708D01*
X157972877Y-68818547D01*
X157981451Y-68822275D01*
X158212282Y-68902885D01*
X158221291Y-68905299D01*
X158461518Y-68950908D01*
X158470775Y-68951962D01*
X158715107Y-68961563D01*
X158724420Y-68961237D01*
X158967478Y-68934618D01*
X158976655Y-68932917D01*
X159213107Y-68870665D01*
X159221926Y-68867628D01*
X159446584Y-68771107D01*
X159454856Y-68766800D01*
X159662777Y-68638135D01*
X159664620Y-68636796D01*
X159672038Y-68625541D01*
X159665974Y-68615184D01*
X158672812Y-67622022D01*
X158658868Y-67614408D01*
X158657035Y-67614539D01*
X158650420Y-67618790D01*
X157658044Y-68611166D01*
X157651386Y-68623359D01*
X153887422Y-68623359D01*
X154088978Y-68562889D01*
X154088982Y-68562887D01*
X154093933Y-68561402D01*
X154301218Y-68459854D01*
X154384458Y-68400480D01*
X154484931Y-68328813D01*
X154489134Y-68325815D01*
X154555536Y-68259645D01*
X154648975Y-68166531D01*
X154652635Y-68162884D01*
X154787330Y-67975437D01*
X154889600Y-67768507D01*
X154891103Y-67763561D01*
X154955197Y-67552605D01*
X154955198Y-67552599D01*
X154956701Y-67547653D01*
X154986829Y-67318805D01*
X154988511Y-67250000D01*
X154985209Y-67209835D01*
X156948022Y-67209835D01*
X156959754Y-67454064D01*
X156960891Y-67463324D01*
X157008593Y-67703143D01*
X157011082Y-67712118D01*
X157093708Y-67942250D01*
X157097505Y-67950778D01*
X157213234Y-68166160D01*
X157218245Y-68174027D01*
X157275173Y-68250263D01*
X157286431Y-68258712D01*
X157298850Y-68251940D01*
X158287978Y-67262812D01*
X158294356Y-67251132D01*
X159024408Y-67251132D01*
X159024539Y-67252965D01*
X159028790Y-67259580D01*
X160023732Y-68254522D01*
X160036112Y-68261282D01*
X160044453Y-68255038D01*
X160162700Y-68071202D01*
X160167147Y-68063011D01*
X160267572Y-67840076D01*
X160270767Y-67831298D01*
X160337135Y-67595973D01*
X160338993Y-67586844D01*
X160370044Y-67342770D01*
X160370525Y-67336483D01*
X160372706Y-67253160D01*
X160372555Y-67246851D01*
X160370232Y-67215587D01*
X162331909Y-67215587D01*
X162332206Y-67220739D01*
X162332206Y-67220743D01*
X162344899Y-67440868D01*
X162344900Y-67440874D01*
X162345197Y-67446027D01*
X162361315Y-67517548D01*
X162384131Y-67618790D01*
X162395942Y-67671202D01*
X162397886Y-67675988D01*
X162397887Y-67675993D01*
X162412556Y-67712118D01*
X162482783Y-67885066D01*
X162603388Y-68081875D01*
X162754516Y-68256343D01*
X162932111Y-68403785D01*
X163131402Y-68520241D01*
X163136222Y-68522081D01*
X163136227Y-68522084D01*
X163255434Y-68567604D01*
X163347038Y-68602584D01*
X163352106Y-68603615D01*
X163352109Y-68603616D01*
X163459874Y-68625541D01*
X163573227Y-68648603D01*
X163578402Y-68648793D01*
X163578404Y-68648793D01*
X163798730Y-68656872D01*
X163798734Y-68656872D01*
X163803894Y-68657061D01*
X163809014Y-68656405D01*
X163809016Y-68656405D01*
X164027718Y-68628389D01*
X164027719Y-68628389D01*
X164032846Y-68627732D01*
X164047422Y-68623359D01*
X164248978Y-68562889D01*
X164248982Y-68562887D01*
X164253933Y-68561402D01*
X164461218Y-68459854D01*
X164544458Y-68400480D01*
X164644931Y-68328813D01*
X164649134Y-68325815D01*
X164715536Y-68259645D01*
X164808975Y-68166531D01*
X164812635Y-68162884D01*
X164947330Y-67975437D01*
X165049600Y-67768507D01*
X165051103Y-67763561D01*
X165115197Y-67552605D01*
X165115198Y-67552599D01*
X165116701Y-67547653D01*
X165146829Y-67318805D01*
X165148511Y-67250000D01*
X165145682Y-67215587D01*
X167411909Y-67215587D01*
X167412206Y-67220739D01*
X167412206Y-67220743D01*
X167424899Y-67440868D01*
X167424900Y-67440874D01*
X167425197Y-67446027D01*
X167441315Y-67517548D01*
X167464131Y-67618790D01*
X167475942Y-67671202D01*
X167477886Y-67675988D01*
X167477887Y-67675993D01*
X167492556Y-67712118D01*
X167562783Y-67885066D01*
X167683388Y-68081875D01*
X167834516Y-68256343D01*
X168012111Y-68403785D01*
X168211402Y-68520241D01*
X168216222Y-68522081D01*
X168216227Y-68522084D01*
X168335434Y-68567604D01*
X168427038Y-68602584D01*
X168432106Y-68603615D01*
X168432109Y-68603616D01*
X168539874Y-68625541D01*
X168653227Y-68648603D01*
X168658402Y-68648793D01*
X168658404Y-68648793D01*
X168878730Y-68656872D01*
X168878734Y-68656872D01*
X168883894Y-68657061D01*
X168889014Y-68656405D01*
X168889016Y-68656405D01*
X169107718Y-68628389D01*
X169107719Y-68628389D01*
X169112846Y-68627732D01*
X169127422Y-68623359D01*
X169328978Y-68562889D01*
X169328982Y-68562887D01*
X169333933Y-68561402D01*
X169541218Y-68459854D01*
X169624458Y-68400480D01*
X169724931Y-68328813D01*
X169729134Y-68325815D01*
X169795536Y-68259645D01*
X169888975Y-68166531D01*
X169892635Y-68162884D01*
X170027330Y-67975437D01*
X170129600Y-67768507D01*
X170131103Y-67763561D01*
X170195197Y-67552605D01*
X170195198Y-67552599D01*
X170196701Y-67547653D01*
X170226829Y-67318805D01*
X170228511Y-67250000D01*
X170209598Y-67019954D01*
X170153366Y-66796085D01*
X170141423Y-66768617D01*
X170063386Y-66589144D01*
X170063384Y-66589141D01*
X170061326Y-66584407D01*
X169935949Y-66390604D01*
X169907973Y-66359858D01*
X169784080Y-66223702D01*
X169784078Y-66223700D01*
X169780602Y-66219880D01*
X169776551Y-66216681D01*
X169776547Y-66216677D01*
X169603513Y-66080023D01*
X169603509Y-66080021D01*
X169599458Y-66076821D01*
X169397381Y-65965269D01*
X169392512Y-65963545D01*
X169392508Y-65963543D01*
X169184673Y-65889945D01*
X169184669Y-65889944D01*
X169179798Y-65888219D01*
X169174705Y-65887312D01*
X169174702Y-65887311D01*
X168957641Y-65848646D01*
X168957637Y-65848646D01*
X168952553Y-65847740D01*
X168864183Y-65846660D01*
X168726916Y-65844983D01*
X168726914Y-65844983D01*
X168721747Y-65844920D01*
X168595914Y-65864175D01*
X168498690Y-65879052D01*
X168498687Y-65879053D01*
X168493581Y-65879834D01*
X168462647Y-65889945D01*
X168279093Y-65949940D01*
X168279091Y-65949941D01*
X168274180Y-65951546D01*
X168069438Y-66058128D01*
X168065305Y-66061231D01*
X168065302Y-66061233D01*
X167888988Y-66193613D01*
X167884853Y-66196718D01*
X167725381Y-66363595D01*
X167595307Y-66554277D01*
X167498122Y-66763644D01*
X167496743Y-66768617D01*
X167444436Y-66957232D01*
X167436438Y-66986071D01*
X167435890Y-66991199D01*
X167435889Y-66991204D01*
X167412524Y-67209835D01*
X167411909Y-67215587D01*
X165145682Y-67215587D01*
X165129598Y-67019954D01*
X165073366Y-66796085D01*
X165061423Y-66768617D01*
X164983386Y-66589144D01*
X164983384Y-66589141D01*
X164981326Y-66584407D01*
X164855949Y-66390604D01*
X164827973Y-66359858D01*
X164704080Y-66223702D01*
X164704078Y-66223700D01*
X164700602Y-66219880D01*
X164696551Y-66216681D01*
X164696547Y-66216677D01*
X164523513Y-66080023D01*
X164523509Y-66080021D01*
X164519458Y-66076821D01*
X164317381Y-65965269D01*
X164312512Y-65963545D01*
X164312508Y-65963543D01*
X164104673Y-65889945D01*
X164104669Y-65889944D01*
X164099798Y-65888219D01*
X164094705Y-65887312D01*
X164094702Y-65887311D01*
X163877641Y-65848646D01*
X163877637Y-65848646D01*
X163872553Y-65847740D01*
X163784183Y-65846660D01*
X163646916Y-65844983D01*
X163646914Y-65844983D01*
X163641747Y-65844920D01*
X163515914Y-65864175D01*
X163418690Y-65879052D01*
X163418687Y-65879053D01*
X163413581Y-65879834D01*
X163382647Y-65889945D01*
X163199093Y-65949940D01*
X163199091Y-65949941D01*
X163194180Y-65951546D01*
X162989438Y-66058128D01*
X162985305Y-66061231D01*
X162985302Y-66061233D01*
X162808988Y-66193613D01*
X162804853Y-66196718D01*
X162645381Y-66363595D01*
X162515307Y-66554277D01*
X162418122Y-66763644D01*
X162416743Y-66768617D01*
X162364436Y-66957232D01*
X162356438Y-66986071D01*
X162355890Y-66991199D01*
X162355889Y-66991204D01*
X162332524Y-67209835D01*
X162331909Y-67215587D01*
X160370232Y-67215587D01*
X160354321Y-67001486D01*
X160352944Y-66992280D01*
X160298979Y-66753786D01*
X160296255Y-66744875D01*
X160207633Y-66516983D01*
X160203619Y-66508567D01*
X160082284Y-66296276D01*
X160077074Y-66288553D01*
X160045787Y-66248865D01*
X160033863Y-66240395D01*
X160022328Y-66246882D01*
X159032022Y-67237188D01*
X159024408Y-67251132D01*
X158294356Y-67251132D01*
X158295592Y-67248868D01*
X158295461Y-67247035D01*
X158291210Y-67240420D01*
X157296828Y-66246038D01*
X157283520Y-66238771D01*
X157273481Y-66245893D01*
X157268581Y-66251784D01*
X157263168Y-66259373D01*
X157136322Y-66468409D01*
X157132084Y-66476726D01*
X157037529Y-66702214D01*
X157034572Y-66711052D01*
X156974384Y-66948042D01*
X156972763Y-66957232D01*
X156948267Y-67200510D01*
X156948022Y-67209835D01*
X154985209Y-67209835D01*
X154969598Y-67019954D01*
X154913366Y-66796085D01*
X154901423Y-66768617D01*
X154823386Y-66589144D01*
X154823384Y-66589141D01*
X154821326Y-66584407D01*
X154695949Y-66390604D01*
X154667973Y-66359858D01*
X154544080Y-66223702D01*
X154544078Y-66223700D01*
X154540602Y-66219880D01*
X154536551Y-66216681D01*
X154536547Y-66216677D01*
X154363513Y-66080023D01*
X154363509Y-66080021D01*
X154359458Y-66076821D01*
X154157381Y-65965269D01*
X154152512Y-65963545D01*
X154152508Y-65963543D01*
X153944673Y-65889945D01*
X153944669Y-65889944D01*
X153939798Y-65888219D01*
X153934705Y-65887312D01*
X153934702Y-65887311D01*
X153865123Y-65874917D01*
X157649330Y-65874917D01*
X157653903Y-65884693D01*
X158647188Y-66877978D01*
X158661132Y-66885592D01*
X158662965Y-66885461D01*
X158669580Y-66881210D01*
X159662488Y-65888302D01*
X159668872Y-65876612D01*
X159659460Y-65864502D01*
X159533144Y-65776873D01*
X159525116Y-65772145D01*
X159305810Y-65663995D01*
X159297177Y-65660507D01*
X159064288Y-65585958D01*
X159055238Y-65583785D01*
X158813891Y-65544480D01*
X158804602Y-65543668D01*
X158560114Y-65540467D01*
X158550803Y-65541037D01*
X158308522Y-65574010D01*
X158299403Y-65575948D01*
X158064668Y-65644367D01*
X158055915Y-65647639D01*
X157833869Y-65750004D01*
X157825714Y-65754524D01*
X157658468Y-65864175D01*
X157649330Y-65874917D01*
X153865123Y-65874917D01*
X153717641Y-65848646D01*
X153717637Y-65848646D01*
X153712553Y-65847740D01*
X153624183Y-65846660D01*
X153486916Y-65844983D01*
X153486914Y-65844983D01*
X153481747Y-65844920D01*
X153355914Y-65864175D01*
X153258690Y-65879052D01*
X153258687Y-65879053D01*
X153253581Y-65879834D01*
X153222647Y-65889945D01*
X153039093Y-65949940D01*
X153039091Y-65949941D01*
X153034180Y-65951546D01*
X152829438Y-66058128D01*
X152825305Y-66061231D01*
X152825302Y-66061233D01*
X152648988Y-66193613D01*
X152644853Y-66196718D01*
X152485381Y-66363595D01*
X152355307Y-66554277D01*
X152258122Y-66763644D01*
X152256743Y-66768617D01*
X152204436Y-66957232D01*
X152196438Y-66986071D01*
X152195890Y-66991199D01*
X152195889Y-66991204D01*
X152172524Y-67209835D01*
X152171909Y-67215587D01*
X149905682Y-67215587D01*
X149889598Y-67019954D01*
X149833366Y-66796085D01*
X149821423Y-66768617D01*
X149743386Y-66589144D01*
X149743384Y-66589141D01*
X149741326Y-66584407D01*
X149615949Y-66390604D01*
X149587973Y-66359858D01*
X149464080Y-66223702D01*
X149464078Y-66223700D01*
X149460602Y-66219880D01*
X149456551Y-66216681D01*
X149456547Y-66216677D01*
X149283513Y-66080023D01*
X149283509Y-66080021D01*
X149279458Y-66076821D01*
X149077381Y-65965269D01*
X149072512Y-65963545D01*
X149072508Y-65963543D01*
X148864673Y-65889945D01*
X148864669Y-65889944D01*
X148859798Y-65888219D01*
X148854705Y-65887312D01*
X148854702Y-65887311D01*
X148637641Y-65848646D01*
X148637637Y-65848646D01*
X148632553Y-65847740D01*
X148544183Y-65846660D01*
X148406916Y-65844983D01*
X148406914Y-65844983D01*
X148401747Y-65844920D01*
X148275914Y-65864175D01*
X148178690Y-65879052D01*
X148178687Y-65879053D01*
X148173581Y-65879834D01*
X148142647Y-65889945D01*
X147959093Y-65949940D01*
X147959091Y-65949941D01*
X147954180Y-65951546D01*
X147749438Y-66058128D01*
X147745305Y-66061231D01*
X147745302Y-66061233D01*
X147568988Y-66193613D01*
X147564853Y-66196718D01*
X147405381Y-66363595D01*
X147275307Y-66554277D01*
X147178122Y-66763644D01*
X147176743Y-66768617D01*
X147124436Y-66957232D01*
X147116438Y-66986071D01*
X147115890Y-66991199D01*
X147115889Y-66991204D01*
X147092524Y-67209835D01*
X147091909Y-67215587D01*
X144825682Y-67215587D01*
X144809598Y-67019954D01*
X144753366Y-66796085D01*
X144741423Y-66768617D01*
X144663386Y-66589144D01*
X144663384Y-66589141D01*
X144661326Y-66584407D01*
X144535949Y-66390604D01*
X144507973Y-66359858D01*
X144384080Y-66223702D01*
X144384078Y-66223700D01*
X144380602Y-66219880D01*
X144376551Y-66216681D01*
X144376547Y-66216677D01*
X144203513Y-66080023D01*
X144203509Y-66080021D01*
X144199458Y-66076821D01*
X143997381Y-65965269D01*
X143992512Y-65963545D01*
X143992508Y-65963543D01*
X143784673Y-65889945D01*
X143784669Y-65889944D01*
X143779798Y-65888219D01*
X143774705Y-65887312D01*
X143774702Y-65887311D01*
X143557641Y-65848646D01*
X143557637Y-65848646D01*
X143552553Y-65847740D01*
X143464183Y-65846660D01*
X143326916Y-65844983D01*
X143326914Y-65844983D01*
X143321747Y-65844920D01*
X143195914Y-65864175D01*
X143098690Y-65879052D01*
X143098687Y-65879053D01*
X143093581Y-65879834D01*
X143062647Y-65889945D01*
X142879093Y-65949940D01*
X142879091Y-65949941D01*
X142874180Y-65951546D01*
X142669438Y-66058128D01*
X142665305Y-66061231D01*
X142665302Y-66061233D01*
X142488988Y-66193613D01*
X142484853Y-66196718D01*
X142325381Y-66363595D01*
X142195307Y-66554277D01*
X142098122Y-66763644D01*
X142096743Y-66768617D01*
X142044436Y-66957232D01*
X142036438Y-66986071D01*
X142035890Y-66991199D01*
X142035889Y-66991204D01*
X142012524Y-67209835D01*
X142011909Y-67215587D01*
X139745682Y-67215587D01*
X139729598Y-67019954D01*
X139673366Y-66796085D01*
X139661423Y-66768617D01*
X139583386Y-66589144D01*
X139583384Y-66589141D01*
X139581326Y-66584407D01*
X139455949Y-66390604D01*
X139427973Y-66359858D01*
X139304080Y-66223702D01*
X139304078Y-66223700D01*
X139300602Y-66219880D01*
X139296551Y-66216681D01*
X139296547Y-66216677D01*
X139123513Y-66080023D01*
X139123509Y-66080021D01*
X139119458Y-66076821D01*
X138917381Y-65965269D01*
X138912512Y-65963545D01*
X138912508Y-65963543D01*
X138704673Y-65889945D01*
X138704669Y-65889944D01*
X138699798Y-65888219D01*
X138694705Y-65887312D01*
X138694702Y-65887311D01*
X138477641Y-65848646D01*
X138477637Y-65848646D01*
X138472553Y-65847740D01*
X138384183Y-65846660D01*
X138246916Y-65844983D01*
X138246914Y-65844983D01*
X138241747Y-65844920D01*
X138115914Y-65864175D01*
X138018690Y-65879052D01*
X138018687Y-65879053D01*
X138013581Y-65879834D01*
X137982647Y-65889945D01*
X137799093Y-65949940D01*
X137799091Y-65949941D01*
X137794180Y-65951546D01*
X137589438Y-66058128D01*
X137585305Y-66061231D01*
X137585302Y-66061233D01*
X137408988Y-66193613D01*
X137404853Y-66196718D01*
X137245381Y-66363595D01*
X137115307Y-66554277D01*
X137018122Y-66763644D01*
X137016743Y-66768617D01*
X136964436Y-66957232D01*
X136956438Y-66986071D01*
X136955890Y-66991199D01*
X136955889Y-66991204D01*
X136932524Y-67209835D01*
X136931909Y-67215587D01*
X134665682Y-67215587D01*
X134649598Y-67019954D01*
X134593366Y-66796085D01*
X134581423Y-66768617D01*
X134503386Y-66589144D01*
X134503384Y-66589141D01*
X134501326Y-66584407D01*
X134375949Y-66390604D01*
X134347973Y-66359858D01*
X134224080Y-66223702D01*
X134224078Y-66223700D01*
X134220602Y-66219880D01*
X134216551Y-66216681D01*
X134216547Y-66216677D01*
X134043513Y-66080023D01*
X134043509Y-66080021D01*
X134039458Y-66076821D01*
X133837381Y-65965269D01*
X133832512Y-65963545D01*
X133832508Y-65963543D01*
X133624673Y-65889945D01*
X133624669Y-65889944D01*
X133619798Y-65888219D01*
X133614705Y-65887312D01*
X133614702Y-65887311D01*
X133397641Y-65848646D01*
X133397637Y-65848646D01*
X133392553Y-65847740D01*
X133304183Y-65846660D01*
X133166916Y-65844983D01*
X133166914Y-65844983D01*
X133161747Y-65844920D01*
X133035914Y-65864175D01*
X132938690Y-65879052D01*
X132938687Y-65879053D01*
X132933581Y-65879834D01*
X132902647Y-65889945D01*
X132719093Y-65949940D01*
X132719091Y-65949941D01*
X132714180Y-65951546D01*
X132509438Y-66058128D01*
X132505305Y-66061231D01*
X132505302Y-66061233D01*
X132328988Y-66193613D01*
X132324853Y-66196718D01*
X132165381Y-66363595D01*
X132035307Y-66554277D01*
X131938122Y-66763644D01*
X131936743Y-66768617D01*
X131884436Y-66957232D01*
X131876438Y-66986071D01*
X131875890Y-66991199D01*
X131875889Y-66991204D01*
X131852524Y-67209835D01*
X131851909Y-67215587D01*
X123703200Y-67215587D01*
X123703200Y-66977885D01*
X126472000Y-66977885D01*
X126476475Y-66993124D01*
X126477865Y-66994329D01*
X126485548Y-66996000D01*
X127907885Y-66996000D01*
X127923124Y-66991525D01*
X127924329Y-66990135D01*
X127926000Y-66982452D01*
X127926000Y-66977885D01*
X128434000Y-66977885D01*
X128438475Y-66993124D01*
X128439865Y-66994329D01*
X128447548Y-66996000D01*
X129869884Y-66996000D01*
X129885123Y-66991525D01*
X129886328Y-66990135D01*
X129887999Y-66982452D01*
X129887999Y-66005331D01*
X129887629Y-65998510D01*
X129882105Y-65947648D01*
X129878479Y-65932396D01*
X129833324Y-65811946D01*
X129824786Y-65796351D01*
X129748285Y-65694276D01*
X129735724Y-65681715D01*
X129633649Y-65605214D01*
X129618054Y-65596676D01*
X129497606Y-65551522D01*
X129482351Y-65547895D01*
X129431486Y-65542369D01*
X129424672Y-65542000D01*
X128452115Y-65542000D01*
X128436876Y-65546475D01*
X128435671Y-65547865D01*
X128434000Y-65555548D01*
X128434000Y-66977885D01*
X127926000Y-66977885D01*
X127926000Y-65560116D01*
X127921525Y-65544877D01*
X127920135Y-65543672D01*
X127912452Y-65542001D01*
X126935331Y-65542001D01*
X126928510Y-65542371D01*
X126877648Y-65547895D01*
X126862396Y-65551521D01*
X126741946Y-65596676D01*
X126726351Y-65605214D01*
X126624276Y-65681715D01*
X126611715Y-65694276D01*
X126535214Y-65796351D01*
X126526676Y-65811946D01*
X126481522Y-65932394D01*
X126477895Y-65947649D01*
X126472369Y-65998514D01*
X126472000Y-66005328D01*
X126472000Y-66977885D01*
X123703200Y-66977885D01*
X123703200Y-62079200D01*
X123723202Y-62011079D01*
X123776858Y-61964586D01*
X123829200Y-61953200D01*
X173170800Y-61953200D01*
X173238921Y-61973202D01*
G37*
%TD.AperFunction*%
%TD*%
M02*
