%TF.GenerationSoftware,KiCad,Pcbnew,6.0.0*%
%TF.CreationDate,2022-04-16T14:37:20+02:00*%
%TF.ProjectId,cowdin-3a-pwrmon,636f7764-696e-42d3-9361-2d7077726d6f,1*%
%TF.SameCoordinates,Original*%
%TF.FileFunction,Legend,Top*%
%TF.FilePolarity,Positive*%
%FSLAX46Y46*%
G04 Gerber Fmt 4.6, Leading zero omitted, Abs format (unit mm)*
G04 Created by KiCad (PCBNEW 6.0.0) date 2022-04-16 14:37:20*
%MOMM*%
%LPD*%
G01*
G04 APERTURE LIST*
%ADD10C,0.100000*%
%ADD11C,0.101600*%
%ADD12C,0.076200*%
%ADD13C,0.150000*%
%ADD14C,0.027940*%
%ADD15C,0.127000*%
%ADD16C,0.050800*%
%ADD17C,0.120000*%
G04 APERTURE END LIST*
D10*
X123500000Y-133500000D02*
X173500000Y-133500000D01*
X123500000Y-76500000D02*
X173500000Y-76500000D01*
D11*
X142594714Y-100489857D02*
X141832714Y-100489857D01*
X141832714Y-100308428D01*
X141869000Y-100199571D01*
X141941571Y-100127000D01*
X142014142Y-100090714D01*
X142159285Y-100054428D01*
X142268142Y-100054428D01*
X142413285Y-100090714D01*
X142485857Y-100127000D01*
X142558428Y-100199571D01*
X142594714Y-100308428D01*
X142594714Y-100489857D01*
X141832714Y-99836714D02*
X141832714Y-99401285D01*
X142594714Y-99619000D02*
X141832714Y-99619000D01*
X142594714Y-94764142D02*
X142231857Y-95018142D01*
X142594714Y-95199571D02*
X141832714Y-95199571D01*
X141832714Y-94909285D01*
X141869000Y-94836714D01*
X141905285Y-94800428D01*
X141977857Y-94764142D01*
X142086714Y-94764142D01*
X142159285Y-94800428D01*
X142195571Y-94836714D01*
X142231857Y-94909285D01*
X142231857Y-95199571D01*
X142522142Y-97645142D02*
X142558428Y-97681428D01*
X142594714Y-97790285D01*
X142594714Y-97862857D01*
X142558428Y-97971714D01*
X142485857Y-98044285D01*
X142413285Y-98080571D01*
X142268142Y-98116857D01*
X142159285Y-98116857D01*
X142014142Y-98080571D01*
X141941571Y-98044285D01*
X141869000Y-97971714D01*
X141832714Y-97862857D01*
X141832714Y-97790285D01*
X141869000Y-97681428D01*
X141905285Y-97645142D01*
X142594714Y-97318571D02*
X141832714Y-97318571D01*
X142594714Y-96883142D02*
X142159285Y-97209714D01*
X141832714Y-96883142D02*
X142268142Y-97318571D01*
%TO.C,R18*%
X139844714Y-116339857D02*
X139481857Y-116593857D01*
X139844714Y-116775285D02*
X139082714Y-116775285D01*
X139082714Y-116485000D01*
X139119000Y-116412428D01*
X139155285Y-116376142D01*
X139227857Y-116339857D01*
X139336714Y-116339857D01*
X139409285Y-116376142D01*
X139445571Y-116412428D01*
X139481857Y-116485000D01*
X139481857Y-116775285D01*
X139844714Y-115614142D02*
X139844714Y-116049571D01*
X139844714Y-115831857D02*
X139082714Y-115831857D01*
X139191571Y-115904428D01*
X139264142Y-115977000D01*
X139300428Y-116049571D01*
X139409285Y-115178714D02*
X139373000Y-115251285D01*
X139336714Y-115287571D01*
X139264142Y-115323857D01*
X139227857Y-115323857D01*
X139155285Y-115287571D01*
X139119000Y-115251285D01*
X139082714Y-115178714D01*
X139082714Y-115033571D01*
X139119000Y-114961000D01*
X139155285Y-114924714D01*
X139227857Y-114888428D01*
X139264142Y-114888428D01*
X139336714Y-114924714D01*
X139373000Y-114961000D01*
X139409285Y-115033571D01*
X139409285Y-115178714D01*
X139445571Y-115251285D01*
X139481857Y-115287571D01*
X139554428Y-115323857D01*
X139699571Y-115323857D01*
X139772142Y-115287571D01*
X139808428Y-115251285D01*
X139844714Y-115178714D01*
X139844714Y-115033571D01*
X139808428Y-114961000D01*
X139772142Y-114924714D01*
X139699571Y-114888428D01*
X139554428Y-114888428D01*
X139481857Y-114924714D01*
X139445571Y-114961000D01*
X139409285Y-115033571D01*
%TO.C,U1*%
X154919428Y-89582714D02*
X154919428Y-90199571D01*
X154955714Y-90272142D01*
X154992000Y-90308428D01*
X155064571Y-90344714D01*
X155209714Y-90344714D01*
X155282285Y-90308428D01*
X155318571Y-90272142D01*
X155354857Y-90199571D01*
X155354857Y-89582714D01*
X156116857Y-90344714D02*
X155681428Y-90344714D01*
X155899142Y-90344714D02*
X155899142Y-89582714D01*
X155826571Y-89691571D01*
X155754000Y-89764142D01*
X155681428Y-89800428D01*
D12*
%TO.C,U14*%
X141632714Y-112193428D02*
X142249571Y-112193428D01*
X142322142Y-112157142D01*
X142358428Y-112120857D01*
X142394714Y-112048285D01*
X142394714Y-111903142D01*
X142358428Y-111830571D01*
X142322142Y-111794285D01*
X142249571Y-111758000D01*
X141632714Y-111758000D01*
X142394714Y-110996000D02*
X142394714Y-111431428D01*
X142394714Y-111213714D02*
X141632714Y-111213714D01*
X141741571Y-111286285D01*
X141814142Y-111358857D01*
X141850428Y-111431428D01*
X141886714Y-110342857D02*
X142394714Y-110342857D01*
X141596428Y-110524285D02*
X142140714Y-110705714D01*
X142140714Y-110234000D01*
%TO.C,U6*%
X160919428Y-122332714D02*
X160919428Y-122949571D01*
X160955714Y-123022142D01*
X160992000Y-123058428D01*
X161064571Y-123094714D01*
X161209714Y-123094714D01*
X161282285Y-123058428D01*
X161318571Y-123022142D01*
X161354857Y-122949571D01*
X161354857Y-122332714D01*
X162044285Y-122332714D02*
X161899142Y-122332714D01*
X161826571Y-122369000D01*
X161790285Y-122405285D01*
X161717714Y-122514142D01*
X161681428Y-122659285D01*
X161681428Y-122949571D01*
X161717714Y-123022142D01*
X161754000Y-123058428D01*
X161826571Y-123094714D01*
X161971714Y-123094714D01*
X162044285Y-123058428D01*
X162080571Y-123022142D01*
X162116857Y-122949571D01*
X162116857Y-122768142D01*
X162080571Y-122695571D01*
X162044285Y-122659285D01*
X161971714Y-122623000D01*
X161826571Y-122623000D01*
X161754000Y-122659285D01*
X161717714Y-122695571D01*
X161681428Y-122768142D01*
D11*
%TO.C,Q1*%
X134517285Y-117822571D02*
X134481000Y-117895142D01*
X134408428Y-117967714D01*
X134299571Y-118076571D01*
X134263285Y-118149142D01*
X134263285Y-118221714D01*
X134444714Y-118185428D02*
X134408428Y-118258000D01*
X134335857Y-118330571D01*
X134190714Y-118366857D01*
X133936714Y-118366857D01*
X133791571Y-118330571D01*
X133719000Y-118258000D01*
X133682714Y-118185428D01*
X133682714Y-118040285D01*
X133719000Y-117967714D01*
X133791571Y-117895142D01*
X133936714Y-117858857D01*
X134190714Y-117858857D01*
X134335857Y-117895142D01*
X134408428Y-117967714D01*
X134444714Y-118040285D01*
X134444714Y-118185428D01*
X134444714Y-117133142D02*
X134444714Y-117568571D01*
X134444714Y-117350857D02*
X133682714Y-117350857D01*
X133791571Y-117423428D01*
X133864142Y-117496000D01*
X133900428Y-117568571D01*
%TO.C,D1*%
X164144714Y-78462428D02*
X163382714Y-78462428D01*
X163382714Y-78281000D01*
X163419000Y-78172142D01*
X163491571Y-78099571D01*
X163564142Y-78063285D01*
X163709285Y-78027000D01*
X163818142Y-78027000D01*
X163963285Y-78063285D01*
X164035857Y-78099571D01*
X164108428Y-78172142D01*
X164144714Y-78281000D01*
X164144714Y-78462428D01*
X164144714Y-77301285D02*
X164144714Y-77736714D01*
X164144714Y-77519000D02*
X163382714Y-77519000D01*
X163491571Y-77591571D01*
X163564142Y-77664142D01*
X163600428Y-77736714D01*
D13*
%TO.C,P1*%
X147761904Y-64202380D02*
X147761904Y-63202380D01*
X148142857Y-63202380D01*
X148238095Y-63250000D01*
X148285714Y-63297619D01*
X148333333Y-63392857D01*
X148333333Y-63535714D01*
X148285714Y-63630952D01*
X148238095Y-63678571D01*
X148142857Y-63726190D01*
X147761904Y-63726190D01*
X149285714Y-64202380D02*
X148714285Y-64202380D01*
X149000000Y-64202380D02*
X149000000Y-63202380D01*
X148904761Y-63345238D01*
X148809523Y-63440476D01*
X148714285Y-63488095D01*
D12*
%TO.C,U5*%
X165669428Y-122332714D02*
X165669428Y-122949571D01*
X165705714Y-123022142D01*
X165742000Y-123058428D01*
X165814571Y-123094714D01*
X165959714Y-123094714D01*
X166032285Y-123058428D01*
X166068571Y-123022142D01*
X166104857Y-122949571D01*
X166104857Y-122332714D01*
X166830571Y-122332714D02*
X166467714Y-122332714D01*
X166431428Y-122695571D01*
X166467714Y-122659285D01*
X166540285Y-122623000D01*
X166721714Y-122623000D01*
X166794285Y-122659285D01*
X166830571Y-122695571D01*
X166866857Y-122768142D01*
X166866857Y-122949571D01*
X166830571Y-123022142D01*
X166794285Y-123058428D01*
X166721714Y-123094714D01*
X166540285Y-123094714D01*
X166467714Y-123058428D01*
X166431428Y-123022142D01*
%TO.C,U8*%
X145669428Y-122582714D02*
X145669428Y-123199571D01*
X145705714Y-123272142D01*
X145742000Y-123308428D01*
X145814571Y-123344714D01*
X145959714Y-123344714D01*
X146032285Y-123308428D01*
X146068571Y-123272142D01*
X146104857Y-123199571D01*
X146104857Y-122582714D01*
X146576571Y-122909285D02*
X146504000Y-122873000D01*
X146467714Y-122836714D01*
X146431428Y-122764142D01*
X146431428Y-122727857D01*
X146467714Y-122655285D01*
X146504000Y-122619000D01*
X146576571Y-122582714D01*
X146721714Y-122582714D01*
X146794285Y-122619000D01*
X146830571Y-122655285D01*
X146866857Y-122727857D01*
X146866857Y-122764142D01*
X146830571Y-122836714D01*
X146794285Y-122873000D01*
X146721714Y-122909285D01*
X146576571Y-122909285D01*
X146504000Y-122945571D01*
X146467714Y-122981857D01*
X146431428Y-123054428D01*
X146431428Y-123199571D01*
X146467714Y-123272142D01*
X146504000Y-123308428D01*
X146576571Y-123344714D01*
X146721714Y-123344714D01*
X146794285Y-123308428D01*
X146830571Y-123272142D01*
X146866857Y-123199571D01*
X146866857Y-123054428D01*
X146830571Y-122981857D01*
X146794285Y-122945571D01*
X146721714Y-122909285D01*
D11*
%TO.C,D2*%
X135287571Y-88794714D02*
X135287571Y-88032714D01*
X135469000Y-88032714D01*
X135577857Y-88069000D01*
X135650428Y-88141571D01*
X135686714Y-88214142D01*
X135723000Y-88359285D01*
X135723000Y-88468142D01*
X135686714Y-88613285D01*
X135650428Y-88685857D01*
X135577857Y-88758428D01*
X135469000Y-88794714D01*
X135287571Y-88794714D01*
X136013285Y-88105285D02*
X136049571Y-88069000D01*
X136122142Y-88032714D01*
X136303571Y-88032714D01*
X136376142Y-88069000D01*
X136412428Y-88105285D01*
X136448714Y-88177857D01*
X136448714Y-88250428D01*
X136412428Y-88359285D01*
X135977000Y-88794714D01*
X136448714Y-88794714D01*
%TO.C,U2*%
X165669428Y-80432714D02*
X165669428Y-81049571D01*
X165705714Y-81122142D01*
X165742000Y-81158428D01*
X165814571Y-81194714D01*
X165959714Y-81194714D01*
X166032285Y-81158428D01*
X166068571Y-81122142D01*
X166104857Y-81049571D01*
X166104857Y-80432714D01*
X166431428Y-80505285D02*
X166467714Y-80469000D01*
X166540285Y-80432714D01*
X166721714Y-80432714D01*
X166794285Y-80469000D01*
X166830571Y-80505285D01*
X166866857Y-80577857D01*
X166866857Y-80650428D01*
X166830571Y-80759285D01*
X166395142Y-81194714D01*
X166866857Y-81194714D01*
%TO.C,C8*%
X164022142Y-128436897D02*
X164058428Y-128473182D01*
X164094714Y-128582040D01*
X164094714Y-128654611D01*
X164058428Y-128763468D01*
X163985857Y-128836040D01*
X163913285Y-128872325D01*
X163768142Y-128908611D01*
X163659285Y-128908611D01*
X163514142Y-128872325D01*
X163441571Y-128836040D01*
X163369000Y-128763468D01*
X163332714Y-128654611D01*
X163332714Y-128582040D01*
X163369000Y-128473182D01*
X163405285Y-128436897D01*
X163659285Y-128001468D02*
X163623000Y-128074040D01*
X163586714Y-128110325D01*
X163514142Y-128146611D01*
X163477857Y-128146611D01*
X163405285Y-128110325D01*
X163369000Y-128074040D01*
X163332714Y-128001468D01*
X163332714Y-127856325D01*
X163369000Y-127783754D01*
X163405285Y-127747468D01*
X163477857Y-127711182D01*
X163514142Y-127711182D01*
X163586714Y-127747468D01*
X163623000Y-127783754D01*
X163659285Y-127856325D01*
X163659285Y-128001468D01*
X163695571Y-128074040D01*
X163731857Y-128110325D01*
X163804428Y-128146611D01*
X163949571Y-128146611D01*
X164022142Y-128110325D01*
X164058428Y-128074040D01*
X164094714Y-128001468D01*
X164094714Y-127856325D01*
X164058428Y-127783754D01*
X164022142Y-127747468D01*
X163949571Y-127711182D01*
X163804428Y-127711182D01*
X163731857Y-127747468D01*
X163695571Y-127783754D01*
X163659285Y-127856325D01*
D13*
%TO.C,R10*%
X170202380Y-129642857D02*
X169726190Y-129976190D01*
X170202380Y-130214285D02*
X169202380Y-130214285D01*
X169202380Y-129833333D01*
X169250000Y-129738095D01*
X169297619Y-129690476D01*
X169392857Y-129642857D01*
X169535714Y-129642857D01*
X169630952Y-129690476D01*
X169678571Y-129738095D01*
X169726190Y-129833333D01*
X169726190Y-130214285D01*
X170202380Y-128690476D02*
X170202380Y-129261904D01*
X170202380Y-128976190D02*
X169202380Y-128976190D01*
X169345238Y-129071428D01*
X169440476Y-129166666D01*
X169488095Y-129261904D01*
X169202380Y-128071428D02*
X169202380Y-127976190D01*
X169250000Y-127880952D01*
X169297619Y-127833333D01*
X169392857Y-127785714D01*
X169583333Y-127738095D01*
X169821428Y-127738095D01*
X170011904Y-127785714D01*
X170107142Y-127833333D01*
X170154761Y-127880952D01*
X170202380Y-127976190D01*
X170202380Y-128071428D01*
X170154761Y-128166666D01*
X170107142Y-128214285D01*
X170011904Y-128261904D01*
X169821428Y-128309523D01*
X169583333Y-128309523D01*
X169392857Y-128261904D01*
X169297619Y-128214285D01*
X169250000Y-128166666D01*
X169202380Y-128071428D01*
D11*
%TO.C,C9*%
X148772142Y-128436897D02*
X148808428Y-128473182D01*
X148844714Y-128582040D01*
X148844714Y-128654611D01*
X148808428Y-128763468D01*
X148735857Y-128836040D01*
X148663285Y-128872325D01*
X148518142Y-128908611D01*
X148409285Y-128908611D01*
X148264142Y-128872325D01*
X148191571Y-128836040D01*
X148119000Y-128763468D01*
X148082714Y-128654611D01*
X148082714Y-128582040D01*
X148119000Y-128473182D01*
X148155285Y-128436897D01*
X148844714Y-128074040D02*
X148844714Y-127928897D01*
X148808428Y-127856325D01*
X148772142Y-127820040D01*
X148663285Y-127747468D01*
X148518142Y-127711182D01*
X148227857Y-127711182D01*
X148155285Y-127747468D01*
X148119000Y-127783754D01*
X148082714Y-127856325D01*
X148082714Y-128001468D01*
X148119000Y-128074040D01*
X148155285Y-128110325D01*
X148227857Y-128146611D01*
X148409285Y-128146611D01*
X148481857Y-128110325D01*
X148518142Y-128074040D01*
X148554428Y-128001468D01*
X148554428Y-127856325D01*
X148518142Y-127783754D01*
X148481857Y-127747468D01*
X148409285Y-127711182D01*
D13*
%TO.C,C2*%
X134833333Y-84257142D02*
X134785714Y-84304761D01*
X134642857Y-84352380D01*
X134547619Y-84352380D01*
X134404761Y-84304761D01*
X134309523Y-84209523D01*
X134261904Y-84114285D01*
X134214285Y-83923809D01*
X134214285Y-83780952D01*
X134261904Y-83590476D01*
X134309523Y-83495238D01*
X134404761Y-83400000D01*
X134547619Y-83352380D01*
X134642857Y-83352380D01*
X134785714Y-83400000D01*
X134833333Y-83447619D01*
X135214285Y-83447619D02*
X135261904Y-83400000D01*
X135357142Y-83352380D01*
X135595238Y-83352380D01*
X135690476Y-83400000D01*
X135738095Y-83447619D01*
X135785714Y-83542857D01*
X135785714Y-83638095D01*
X135738095Y-83780952D01*
X135166666Y-84352380D01*
X135785714Y-84352380D01*
%TO.C,D3*%
X132502380Y-114388095D02*
X131502380Y-114388095D01*
X131502380Y-114150000D01*
X131550000Y-114007142D01*
X131645238Y-113911904D01*
X131740476Y-113864285D01*
X131930952Y-113816666D01*
X132073809Y-113816666D01*
X132264285Y-113864285D01*
X132359523Y-113911904D01*
X132454761Y-114007142D01*
X132502380Y-114150000D01*
X132502380Y-114388095D01*
X131502380Y-113483333D02*
X131502380Y-112864285D01*
X131883333Y-113197619D01*
X131883333Y-113054761D01*
X131930952Y-112959523D01*
X131978571Y-112911904D01*
X132073809Y-112864285D01*
X132311904Y-112864285D01*
X132407142Y-112911904D01*
X132454761Y-112959523D01*
X132502380Y-113054761D01*
X132502380Y-113340476D01*
X132454761Y-113435714D01*
X132407142Y-113483333D01*
D11*
%TO.C,U13*%
X150332714Y-111443428D02*
X150949571Y-111443428D01*
X151022142Y-111407142D01*
X151058428Y-111370857D01*
X151094714Y-111298285D01*
X151094714Y-111153142D01*
X151058428Y-111080571D01*
X151022142Y-111044285D01*
X150949571Y-111008000D01*
X150332714Y-111008000D01*
X151094714Y-110246000D02*
X151094714Y-110681428D01*
X151094714Y-110463714D02*
X150332714Y-110463714D01*
X150441571Y-110536285D01*
X150514142Y-110608857D01*
X150550428Y-110681428D01*
X150332714Y-109992000D02*
X150332714Y-109520285D01*
X150623000Y-109774285D01*
X150623000Y-109665428D01*
X150659285Y-109592857D01*
X150695571Y-109556571D01*
X150768142Y-109520285D01*
X150949571Y-109520285D01*
X151022142Y-109556571D01*
X151058428Y-109592857D01*
X151094714Y-109665428D01*
X151094714Y-109883142D01*
X151058428Y-109955714D01*
X151022142Y-109992000D01*
D12*
%TO.C,U4*%
X157869428Y-83332714D02*
X157869428Y-83949571D01*
X157905714Y-84022142D01*
X157942000Y-84058428D01*
X158014571Y-84094714D01*
X158159714Y-84094714D01*
X158232285Y-84058428D01*
X158268571Y-84022142D01*
X158304857Y-83949571D01*
X158304857Y-83332714D01*
X158994285Y-83586714D02*
X158994285Y-84094714D01*
X158812857Y-83296428D02*
X158631428Y-83840714D01*
X159103142Y-83840714D01*
D13*
%TO.C,R20*%
X154952380Y-129642857D02*
X154476190Y-129976190D01*
X154952380Y-130214285D02*
X153952380Y-130214285D01*
X153952380Y-129833333D01*
X154000000Y-129738095D01*
X154047619Y-129690476D01*
X154142857Y-129642857D01*
X154285714Y-129642857D01*
X154380952Y-129690476D01*
X154428571Y-129738095D01*
X154476190Y-129833333D01*
X154476190Y-130214285D01*
X154047619Y-129261904D02*
X154000000Y-129214285D01*
X153952380Y-129119047D01*
X153952380Y-128880952D01*
X154000000Y-128785714D01*
X154047619Y-128738095D01*
X154142857Y-128690476D01*
X154238095Y-128690476D01*
X154380952Y-128738095D01*
X154952380Y-129309523D01*
X154952380Y-128690476D01*
X153952380Y-128071428D02*
X153952380Y-127976190D01*
X154000000Y-127880952D01*
X154047619Y-127833333D01*
X154142857Y-127785714D01*
X154333333Y-127738095D01*
X154571428Y-127738095D01*
X154761904Y-127785714D01*
X154857142Y-127833333D01*
X154904761Y-127880952D01*
X154952380Y-127976190D01*
X154952380Y-128071428D01*
X154904761Y-128166666D01*
X154857142Y-128214285D01*
X154761904Y-128261904D01*
X154571428Y-128309523D01*
X154333333Y-128309523D01*
X154142857Y-128261904D01*
X154047619Y-128214285D01*
X154000000Y-128166666D01*
X153952380Y-128071428D01*
D11*
%TO.C,U3*%
X149269428Y-81332714D02*
X149269428Y-81949571D01*
X149305714Y-82022142D01*
X149342000Y-82058428D01*
X149414571Y-82094714D01*
X149559714Y-82094714D01*
X149632285Y-82058428D01*
X149668571Y-82022142D01*
X149704857Y-81949571D01*
X149704857Y-81332714D01*
X149995142Y-81332714D02*
X150466857Y-81332714D01*
X150212857Y-81623000D01*
X150321714Y-81623000D01*
X150394285Y-81659285D01*
X150430571Y-81695571D01*
X150466857Y-81768142D01*
X150466857Y-81949571D01*
X150430571Y-82022142D01*
X150394285Y-82058428D01*
X150321714Y-82094714D01*
X150104000Y-82094714D01*
X150031428Y-82058428D01*
X149995142Y-82022142D01*
%TO.C,U15*%
X158382714Y-108593428D02*
X158999571Y-108593428D01*
X159072142Y-108557142D01*
X159108428Y-108520857D01*
X159144714Y-108448285D01*
X159144714Y-108303142D01*
X159108428Y-108230571D01*
X159072142Y-108194285D01*
X158999571Y-108158000D01*
X158382714Y-108158000D01*
X159144714Y-107396000D02*
X159144714Y-107831428D01*
X159144714Y-107613714D02*
X158382714Y-107613714D01*
X158491571Y-107686285D01*
X158564142Y-107758857D01*
X158600428Y-107831428D01*
X158382714Y-106706571D02*
X158382714Y-107069428D01*
X158745571Y-107105714D01*
X158709285Y-107069428D01*
X158673000Y-106996857D01*
X158673000Y-106815428D01*
X158709285Y-106742857D01*
X158745571Y-106706571D01*
X158818142Y-106670285D01*
X158999571Y-106670285D01*
X159072142Y-106706571D01*
X159108428Y-106742857D01*
X159144714Y-106815428D01*
X159144714Y-106996857D01*
X159108428Y-107069428D01*
X159072142Y-107105714D01*
D13*
%TO.C,P2*%
X147761904Y-146702380D02*
X147761904Y-145702380D01*
X148142857Y-145702380D01*
X148238095Y-145750000D01*
X148285714Y-145797619D01*
X148333333Y-145892857D01*
X148333333Y-146035714D01*
X148285714Y-146130952D01*
X148238095Y-146178571D01*
X148142857Y-146226190D01*
X147761904Y-146226190D01*
X148714285Y-145797619D02*
X148761904Y-145750000D01*
X148857142Y-145702380D01*
X149095238Y-145702380D01*
X149190476Y-145750000D01*
X149238095Y-145797619D01*
X149285714Y-145892857D01*
X149285714Y-145988095D01*
X149238095Y-146130952D01*
X148666666Y-146702380D01*
X149285714Y-146702380D01*
%TO.C,RL1*%
X131702380Y-118071428D02*
X131226190Y-118404761D01*
X131702380Y-118642857D02*
X130702380Y-118642857D01*
X130702380Y-118261904D01*
X130750000Y-118166666D01*
X130797619Y-118119047D01*
X130892857Y-118071428D01*
X131035714Y-118071428D01*
X131130952Y-118119047D01*
X131178571Y-118166666D01*
X131226190Y-118261904D01*
X131226190Y-118642857D01*
X131702380Y-117166666D02*
X131702380Y-117642857D01*
X130702380Y-117642857D01*
X131702380Y-116309523D02*
X131702380Y-116880952D01*
X131702380Y-116595238D02*
X130702380Y-116595238D01*
X130845238Y-116690476D01*
X130940476Y-116785714D01*
X130988095Y-116880952D01*
D11*
%TO.C,U11*%
X126606571Y-90732714D02*
X126606571Y-91349571D01*
X126642857Y-91422142D01*
X126679142Y-91458428D01*
X126751714Y-91494714D01*
X126896857Y-91494714D01*
X126969428Y-91458428D01*
X127005714Y-91422142D01*
X127042000Y-91349571D01*
X127042000Y-90732714D01*
X127804000Y-91494714D02*
X127368571Y-91494714D01*
X127586285Y-91494714D02*
X127586285Y-90732714D01*
X127513714Y-90841571D01*
X127441142Y-90914142D01*
X127368571Y-90950428D01*
X128529714Y-91494714D02*
X128094285Y-91494714D01*
X128312000Y-91494714D02*
X128312000Y-90732714D01*
X128239428Y-90841571D01*
X128166857Y-90914142D01*
X128094285Y-90950428D01*
D12*
%TO.C,U7*%
X150169428Y-122582714D02*
X150169428Y-123199571D01*
X150205714Y-123272142D01*
X150242000Y-123308428D01*
X150314571Y-123344714D01*
X150459714Y-123344714D01*
X150532285Y-123308428D01*
X150568571Y-123272142D01*
X150604857Y-123199571D01*
X150604857Y-122582714D01*
X150895142Y-122582714D02*
X151403142Y-122582714D01*
X151076571Y-123344714D01*
D11*
%TO.C,R3*%
X148094714Y-80127000D02*
X147731857Y-80381000D01*
X148094714Y-80562428D02*
X147332714Y-80562428D01*
X147332714Y-80272142D01*
X147369000Y-80199571D01*
X147405285Y-80163285D01*
X147477857Y-80127000D01*
X147586714Y-80127000D01*
X147659285Y-80163285D01*
X147695571Y-80199571D01*
X147731857Y-80272142D01*
X147731857Y-80562428D01*
X147332714Y-79873000D02*
X147332714Y-79401285D01*
X147623000Y-79655285D01*
X147623000Y-79546428D01*
X147659285Y-79473857D01*
X147695571Y-79437571D01*
X147768142Y-79401285D01*
X147949571Y-79401285D01*
X148022142Y-79437571D01*
X148058428Y-79473857D01*
X148094714Y-79546428D01*
X148094714Y-79764142D01*
X148058428Y-79836714D01*
X148022142Y-79873000D01*
D13*
%TO.C,R40*%
X158202380Y-129642857D02*
X157726190Y-129976190D01*
X158202380Y-130214285D02*
X157202380Y-130214285D01*
X157202380Y-129833333D01*
X157250000Y-129738095D01*
X157297619Y-129690476D01*
X157392857Y-129642857D01*
X157535714Y-129642857D01*
X157630952Y-129690476D01*
X157678571Y-129738095D01*
X157726190Y-129833333D01*
X157726190Y-130214285D01*
X157535714Y-128785714D02*
X158202380Y-128785714D01*
X157154761Y-129023809D02*
X157869047Y-129261904D01*
X157869047Y-128642857D01*
X157202380Y-128071428D02*
X157202380Y-127976190D01*
X157250000Y-127880952D01*
X157297619Y-127833333D01*
X157392857Y-127785714D01*
X157583333Y-127738095D01*
X157821428Y-127738095D01*
X158011904Y-127785714D01*
X158107142Y-127833333D01*
X158154761Y-127880952D01*
X158202380Y-127976190D01*
X158202380Y-128071428D01*
X158154761Y-128166666D01*
X158107142Y-128214285D01*
X158011904Y-128261904D01*
X157821428Y-128309523D01*
X157583333Y-128309523D01*
X157392857Y-128261904D01*
X157297619Y-128214285D01*
X157250000Y-128166666D01*
X157202380Y-128071428D01*
D12*
%TO.C,U12*%
X166906571Y-109232714D02*
X166906571Y-109849571D01*
X166942857Y-109922142D01*
X166979142Y-109958428D01*
X167051714Y-109994714D01*
X167196857Y-109994714D01*
X167269428Y-109958428D01*
X167305714Y-109922142D01*
X167342000Y-109849571D01*
X167342000Y-109232714D01*
X168104000Y-109994714D02*
X167668571Y-109994714D01*
X167886285Y-109994714D02*
X167886285Y-109232714D01*
X167813714Y-109341571D01*
X167741142Y-109414142D01*
X167668571Y-109450428D01*
X168394285Y-109305285D02*
X168430571Y-109269000D01*
X168503142Y-109232714D01*
X168684571Y-109232714D01*
X168757142Y-109269000D01*
X168793428Y-109305285D01*
X168829714Y-109377857D01*
X168829714Y-109450428D01*
X168793428Y-109559285D01*
X168358000Y-109994714D01*
X168829714Y-109994714D01*
%TO.C,U10*%
X146082714Y-116943428D02*
X146699571Y-116943428D01*
X146772142Y-116907142D01*
X146808428Y-116870857D01*
X146844714Y-116798285D01*
X146844714Y-116653142D01*
X146808428Y-116580571D01*
X146772142Y-116544285D01*
X146699571Y-116508000D01*
X146082714Y-116508000D01*
X146844714Y-115746000D02*
X146844714Y-116181428D01*
X146844714Y-115963714D02*
X146082714Y-115963714D01*
X146191571Y-116036285D01*
X146264142Y-116108857D01*
X146300428Y-116181428D01*
X146082714Y-115274285D02*
X146082714Y-115201714D01*
X146119000Y-115129142D01*
X146155285Y-115092857D01*
X146227857Y-115056571D01*
X146373000Y-115020285D01*
X146554428Y-115020285D01*
X146699571Y-115056571D01*
X146772142Y-115092857D01*
X146808428Y-115129142D01*
X146844714Y-115201714D01*
X146844714Y-115274285D01*
X146808428Y-115346857D01*
X146772142Y-115383142D01*
X146699571Y-115419428D01*
X146554428Y-115455714D01*
X146373000Y-115455714D01*
X146227857Y-115419428D01*
X146155285Y-115383142D01*
X146119000Y-115346857D01*
X146082714Y-115274285D01*
D11*
%TO.C,R1*%
X161623000Y-88594714D02*
X161369000Y-88231857D01*
X161187571Y-88594714D02*
X161187571Y-87832714D01*
X161477857Y-87832714D01*
X161550428Y-87869000D01*
X161586714Y-87905285D01*
X161623000Y-87977857D01*
X161623000Y-88086714D01*
X161586714Y-88159285D01*
X161550428Y-88195571D01*
X161477857Y-88231857D01*
X161187571Y-88231857D01*
X162348714Y-88594714D02*
X161913285Y-88594714D01*
X162131000Y-88594714D02*
X162131000Y-87832714D01*
X162058428Y-87941571D01*
X161985857Y-88014142D01*
X161913285Y-88050428D01*
D12*
%TO.C,U9*%
X161332714Y-116830571D02*
X161949571Y-116830571D01*
X162022142Y-116794285D01*
X162058428Y-116758000D01*
X162094714Y-116685428D01*
X162094714Y-116540285D01*
X162058428Y-116467714D01*
X162022142Y-116431428D01*
X161949571Y-116395142D01*
X161332714Y-116395142D01*
X162094714Y-115996000D02*
X162094714Y-115850857D01*
X162058428Y-115778285D01*
X162022142Y-115742000D01*
X161913285Y-115669428D01*
X161768142Y-115633142D01*
X161477857Y-115633142D01*
X161405285Y-115669428D01*
X161369000Y-115705714D01*
X161332714Y-115778285D01*
X161332714Y-115923428D01*
X161369000Y-115996000D01*
X161405285Y-116032285D01*
X161477857Y-116068571D01*
X161659285Y-116068571D01*
X161731857Y-116032285D01*
X161768142Y-115996000D01*
X161804428Y-115923428D01*
X161804428Y-115778285D01*
X161768142Y-115705714D01*
X161731857Y-115669428D01*
X161659285Y-115633142D01*
D13*
%TO.C,R50*%
X142952380Y-129642857D02*
X142476190Y-129976190D01*
X142952380Y-130214285D02*
X141952380Y-130214285D01*
X141952380Y-129833333D01*
X142000000Y-129738095D01*
X142047619Y-129690476D01*
X142142857Y-129642857D01*
X142285714Y-129642857D01*
X142380952Y-129690476D01*
X142428571Y-129738095D01*
X142476190Y-129833333D01*
X142476190Y-130214285D01*
X141952380Y-128738095D02*
X141952380Y-129214285D01*
X142428571Y-129261904D01*
X142380952Y-129214285D01*
X142333333Y-129119047D01*
X142333333Y-128880952D01*
X142380952Y-128785714D01*
X142428571Y-128738095D01*
X142523809Y-128690476D01*
X142761904Y-128690476D01*
X142857142Y-128738095D01*
X142904761Y-128785714D01*
X142952380Y-128880952D01*
X142952380Y-129119047D01*
X142904761Y-129214285D01*
X142857142Y-129261904D01*
X141952380Y-128071428D02*
X141952380Y-127976190D01*
X142000000Y-127880952D01*
X142047619Y-127833333D01*
X142142857Y-127785714D01*
X142333333Y-127738095D01*
X142571428Y-127738095D01*
X142761904Y-127785714D01*
X142857142Y-127833333D01*
X142904761Y-127880952D01*
X142952380Y-127976190D01*
X142952380Y-128071428D01*
X142904761Y-128166666D01*
X142857142Y-128214285D01*
X142761904Y-128261904D01*
X142571428Y-128309523D01*
X142333333Y-128309523D01*
X142142857Y-128261904D01*
X142047619Y-128214285D01*
X142000000Y-128166666D01*
X141952380Y-128071428D01*
D11*
%TO.C,P3*%
X165794714Y-96362428D02*
X165032714Y-96362428D01*
X165032714Y-96072142D01*
X165069000Y-95999571D01*
X165105285Y-95963285D01*
X165177857Y-95927000D01*
X165286714Y-95927000D01*
X165359285Y-95963285D01*
X165395571Y-95999571D01*
X165431857Y-96072142D01*
X165431857Y-96362428D01*
X165032714Y-95673000D02*
X165032714Y-95201285D01*
X165323000Y-95455285D01*
X165323000Y-95346428D01*
X165359285Y-95273857D01*
X165395571Y-95237571D01*
X165468142Y-95201285D01*
X165649571Y-95201285D01*
X165722142Y-95237571D01*
X165758428Y-95273857D01*
X165794714Y-95346428D01*
X165794714Y-95564142D01*
X165758428Y-95636714D01*
X165722142Y-95673000D01*
%TO.C,SW1*%
X169308428Y-79516000D02*
X169344714Y-79407142D01*
X169344714Y-79225714D01*
X169308428Y-79153142D01*
X169272142Y-79116857D01*
X169199571Y-79080571D01*
X169127000Y-79080571D01*
X169054428Y-79116857D01*
X169018142Y-79153142D01*
X168981857Y-79225714D01*
X168945571Y-79370857D01*
X168909285Y-79443428D01*
X168873000Y-79479714D01*
X168800428Y-79516000D01*
X168727857Y-79516000D01*
X168655285Y-79479714D01*
X168619000Y-79443428D01*
X168582714Y-79370857D01*
X168582714Y-79189428D01*
X168619000Y-79080571D01*
X168582714Y-78826571D02*
X169344714Y-78645142D01*
X168800428Y-78500000D01*
X169344714Y-78354857D01*
X168582714Y-78173428D01*
X169344714Y-77484000D02*
X169344714Y-77919428D01*
X169344714Y-77701714D02*
X168582714Y-77701714D01*
X168691571Y-77774285D01*
X168764142Y-77846857D01*
X168800428Y-77919428D01*
%TO.C,R7*%
X126063102Y-100844714D02*
X125809102Y-100481857D01*
X125627674Y-100844714D02*
X125627674Y-100082714D01*
X125917960Y-100082714D01*
X125990531Y-100119000D01*
X126026817Y-100155285D01*
X126063102Y-100227857D01*
X126063102Y-100336714D01*
X126026817Y-100409285D01*
X125990531Y-100445571D01*
X125917960Y-100481857D01*
X125627674Y-100481857D01*
X126317102Y-100082714D02*
X126825102Y-100082714D01*
X126498531Y-100844714D01*
%TO.C,C1*%
X136073000Y-80922142D02*
X136036714Y-80958428D01*
X135927857Y-80994714D01*
X135855285Y-80994714D01*
X135746428Y-80958428D01*
X135673857Y-80885857D01*
X135637571Y-80813285D01*
X135601285Y-80668142D01*
X135601285Y-80559285D01*
X135637571Y-80414142D01*
X135673857Y-80341571D01*
X135746428Y-80269000D01*
X135855285Y-80232714D01*
X135927857Y-80232714D01*
X136036714Y-80269000D01*
X136073000Y-80305285D01*
X136798714Y-80994714D02*
X136363285Y-80994714D01*
X136581000Y-80994714D02*
X136581000Y-80232714D01*
X136508428Y-80341571D01*
X136435857Y-80414142D01*
X136363285Y-80450428D01*
%TO.C,R8*%
X126063102Y-99094714D02*
X125809102Y-98731857D01*
X125627674Y-99094714D02*
X125627674Y-98332714D01*
X125917960Y-98332714D01*
X125990531Y-98369000D01*
X126026817Y-98405285D01*
X126063102Y-98477857D01*
X126063102Y-98586714D01*
X126026817Y-98659285D01*
X125990531Y-98695571D01*
X125917960Y-98731857D01*
X125627674Y-98731857D01*
X126498531Y-98659285D02*
X126425960Y-98623000D01*
X126389674Y-98586714D01*
X126353388Y-98514142D01*
X126353388Y-98477857D01*
X126389674Y-98405285D01*
X126425960Y-98369000D01*
X126498531Y-98332714D01*
X126643674Y-98332714D01*
X126716245Y-98369000D01*
X126752531Y-98405285D01*
X126788817Y-98477857D01*
X126788817Y-98514142D01*
X126752531Y-98586714D01*
X126716245Y-98623000D01*
X126643674Y-98659285D01*
X126498531Y-98659285D01*
X126425960Y-98695571D01*
X126389674Y-98731857D01*
X126353388Y-98804428D01*
X126353388Y-98949571D01*
X126389674Y-99022142D01*
X126425960Y-99058428D01*
X126498531Y-99094714D01*
X126643674Y-99094714D01*
X126716245Y-99058428D01*
X126752531Y-99022142D01*
X126788817Y-98949571D01*
X126788817Y-98804428D01*
X126752531Y-98731857D01*
X126716245Y-98695571D01*
X126643674Y-98659285D01*
%TO.C,R2*%
X142944714Y-80127000D02*
X142581857Y-80381000D01*
X142944714Y-80562428D02*
X142182714Y-80562428D01*
X142182714Y-80272142D01*
X142219000Y-80199571D01*
X142255285Y-80163285D01*
X142327857Y-80127000D01*
X142436714Y-80127000D01*
X142509285Y-80163285D01*
X142545571Y-80199571D01*
X142581857Y-80272142D01*
X142581857Y-80562428D01*
X142255285Y-79836714D02*
X142219000Y-79800428D01*
X142182714Y-79727857D01*
X142182714Y-79546428D01*
X142219000Y-79473857D01*
X142255285Y-79437571D01*
X142327857Y-79401285D01*
X142400428Y-79401285D01*
X142509285Y-79437571D01*
X142944714Y-79873000D01*
X142944714Y-79401285D01*
D14*
%TO.C,agilack-11.5*%
X131959920Y-129998760D02*
X131959920Y-129770160D01*
X132340920Y-123928160D02*
X132340920Y-123648760D01*
X131909120Y-126874560D02*
X131909120Y-126442760D01*
X132340920Y-128627160D02*
X132340920Y-128271560D01*
X133179120Y-121794560D02*
X133179120Y-121540560D01*
X132086920Y-132081560D02*
X132086920Y-131903760D01*
X132848920Y-130532160D02*
X132848920Y-129770160D01*
X132493320Y-128703360D02*
X132493320Y-128347760D01*
X133153720Y-127179360D02*
X133153720Y-126137960D01*
X132290120Y-129998760D02*
X132290120Y-129770160D01*
X132975920Y-124512360D02*
X132975920Y-124232960D01*
X133204520Y-132081560D02*
X133204520Y-131979960D01*
X131985320Y-128449360D02*
X131985320Y-127915960D01*
X132163120Y-128550960D02*
X132163120Y-128195360D01*
X132544120Y-127382560D02*
X132544120Y-127103160D01*
X132417120Y-125375960D02*
X132417120Y-125121960D01*
X132188520Y-128550960D02*
X132188520Y-128195360D01*
X132010720Y-125375960D02*
X132010720Y-125121960D01*
X132137720Y-128525560D02*
X132137720Y-127839760D01*
X133560120Y-131827560D02*
X133560120Y-130176560D01*
X132137720Y-125807760D02*
X132137720Y-125553760D01*
X132747320Y-132081560D02*
X132747320Y-131903760D01*
X132112320Y-128525560D02*
X132112320Y-127839760D01*
X132874320Y-121794560D02*
X132874320Y-121540560D01*
X133229920Y-131522760D02*
X133229920Y-129846360D01*
X133102920Y-129008160D02*
X133102920Y-127865160D01*
X133204520Y-122988360D02*
X133204520Y-122124760D01*
X132086920Y-128500160D02*
X132086920Y-127865160D01*
X132848920Y-127357160D02*
X132848920Y-127026960D01*
X132366320Y-130405160D02*
X132366320Y-130201960D01*
X133255320Y-122886760D02*
X133255320Y-122277160D01*
X133102920Y-121794560D02*
X133102920Y-121540560D01*
X132823520Y-121362760D02*
X132823520Y-121007160D01*
X132366320Y-125807760D02*
X132366320Y-125553760D01*
X133102920Y-132081560D02*
X133102920Y-131903760D01*
X132264720Y-125375960D02*
X132264720Y-125121960D01*
X132874320Y-124461560D02*
X132874320Y-123470960D01*
X132137720Y-131827560D02*
X132137720Y-130328960D01*
X132315520Y-124258360D02*
X132315520Y-124004360D01*
X132010720Y-132081560D02*
X132010720Y-131903760D01*
X132721920Y-132081560D02*
X132721920Y-131903760D01*
X133509320Y-131827560D02*
X133509320Y-130125760D01*
X132696520Y-127915960D02*
X132696520Y-127534960D01*
X132721920Y-125375960D02*
X132721920Y-125121960D01*
X132823520Y-128881160D02*
X132823520Y-128500160D01*
X131629720Y-131878360D02*
X131629720Y-131573560D01*
X132315520Y-123928160D02*
X132315520Y-123674160D01*
X132620320Y-132081560D02*
X132620320Y-131903760D01*
X131782120Y-132030760D02*
X131782120Y-131725960D01*
X132620320Y-130328960D02*
X132620320Y-129770160D01*
X132366320Y-123928160D02*
X132366320Y-123648760D01*
X132620320Y-123826560D02*
X132620320Y-123547160D01*
X132290120Y-123953560D02*
X132290120Y-123674160D01*
X133026720Y-121184960D02*
X133026720Y-120829360D01*
X132493320Y-125807760D02*
X132493320Y-125553760D01*
X132061520Y-132081560D02*
X132061520Y-131903760D01*
X132569520Y-126747560D02*
X132569520Y-126112560D01*
X132721920Y-127890560D02*
X132721920Y-127534960D01*
X132645720Y-132081560D02*
X132645720Y-131903760D01*
X131502720Y-128220760D02*
X131502720Y-128144560D01*
X132188520Y-130227360D02*
X132188520Y-130024160D01*
X133534720Y-127484160D02*
X133534720Y-127103160D01*
X132518720Y-127382560D02*
X132518720Y-127103160D01*
X132340920Y-128093760D02*
X132340920Y-127738160D01*
X133229920Y-131827560D02*
X133229920Y-131675160D01*
X132620320Y-127382560D02*
X132620320Y-127103160D01*
X133102920Y-127712760D02*
X133102920Y-127331760D01*
X132493320Y-131827560D02*
X132493320Y-131294160D01*
X132467920Y-132081560D02*
X132467920Y-131903760D01*
X133026720Y-121794560D02*
X133026720Y-121540560D01*
X131782120Y-128347760D02*
X131782120Y-128017560D01*
X132747320Y-127382560D02*
X132747320Y-127077760D01*
X132772720Y-130963960D02*
X132772720Y-130659160D01*
X131731320Y-128322360D02*
X131731320Y-128042960D01*
X132874320Y-128906560D02*
X132874320Y-127966760D01*
X132899720Y-131192560D02*
X132899720Y-131014760D01*
X132213920Y-124232960D02*
X132213920Y-123699560D01*
X132569520Y-132081560D02*
X132569520Y-131903760D01*
X132239320Y-124232960D02*
X132239320Y-123978960D01*
X133001320Y-131624360D02*
X133001320Y-131446560D01*
X133102920Y-127204760D02*
X133102920Y-126112560D01*
X133077520Y-125375960D02*
X133077520Y-124283760D01*
X132848920Y-128881160D02*
X132848920Y-128500160D01*
X132798120Y-121794560D02*
X132798120Y-121540560D01*
X131934520Y-131802160D02*
X131934520Y-130125760D01*
X133712520Y-127407960D02*
X133712520Y-127026960D01*
X132442520Y-130405160D02*
X132442520Y-130303560D01*
X132975920Y-123216960D02*
X132975920Y-122835960D01*
X132061520Y-123140760D02*
X132061520Y-122175560D01*
X131909120Y-121794560D02*
X131909120Y-121540560D01*
X133280720Y-131573560D02*
X133280720Y-129897160D01*
X131553520Y-131802160D02*
X131553520Y-131497360D01*
X131655120Y-131522760D02*
X131655120Y-129846360D01*
X132366320Y-132081560D02*
X132366320Y-131903760D01*
X133179120Y-131827560D02*
X133179120Y-131624360D01*
X133179120Y-132081560D02*
X133179120Y-131954560D01*
X132315520Y-125375960D02*
X132315520Y-125121960D01*
X132925120Y-121286560D02*
X132925120Y-120930960D01*
X132645720Y-131827560D02*
X132645720Y-131446560D01*
X132950520Y-132081560D02*
X132950520Y-131903760D01*
X133077520Y-127712760D02*
X133077520Y-127357160D01*
X132569520Y-123851960D02*
X132569520Y-123572560D01*
X132086920Y-125375960D02*
X132086920Y-125121960D01*
X132823520Y-127357160D02*
X132823520Y-127052360D01*
X133560120Y-129312960D02*
X133560120Y-127839760D01*
X131858320Y-131725960D02*
X131858320Y-130049560D01*
X132671120Y-130379760D02*
X132671120Y-129770160D01*
X132137720Y-127255560D02*
X132137720Y-126214160D01*
X132544120Y-131040160D02*
X132544120Y-130557560D01*
X132264720Y-123267760D02*
X132264720Y-122937560D01*
X132975920Y-125807760D02*
X132975920Y-125553760D01*
X132442520Y-121794560D02*
X132442520Y-121540560D01*
X133001320Y-131294160D02*
X133001320Y-129770160D01*
X133153720Y-125375960D02*
X133153720Y-124309160D01*
X132544120Y-125807760D02*
X132544120Y-125553760D01*
X132671120Y-123318560D02*
X132671120Y-123039160D01*
X132340920Y-130938560D02*
X132340920Y-130659160D01*
X132594920Y-126747560D02*
X132594920Y-126112560D01*
X132010720Y-123064560D02*
X132010720Y-122150160D01*
X133331520Y-131624360D02*
X133331520Y-129947960D01*
X132290120Y-125375960D02*
X132290120Y-125121960D01*
X132772720Y-125375960D02*
X132772720Y-125121960D01*
X133102920Y-131395760D02*
X133102920Y-129770160D01*
X132594920Y-121794560D02*
X132594920Y-121210360D01*
X132137720Y-125375960D02*
X132137720Y-125121960D01*
X132620320Y-131040160D02*
X132620320Y-130557560D01*
X132442520Y-131014760D02*
X132442520Y-130582960D01*
X133128320Y-123115360D02*
X133128320Y-122150160D01*
X132671120Y-121794560D02*
X132671120Y-121540560D01*
X132874320Y-130582960D02*
X132874320Y-129770160D01*
X133026720Y-123699560D02*
X133026720Y-123394760D01*
X132061520Y-124182160D02*
X132061520Y-123750360D01*
X132417120Y-132081560D02*
X132417120Y-131903760D01*
X132518720Y-130227360D02*
X132518720Y-129770160D01*
X133077520Y-123166160D02*
X133077520Y-122175560D01*
X132798120Y-123293160D02*
X132798120Y-122988360D01*
X132798120Y-132081560D02*
X132798120Y-131903760D01*
X132671120Y-125375960D02*
X132671120Y-125121960D01*
X132848920Y-125375960D02*
X132848920Y-125121960D01*
X132493320Y-128017560D02*
X132493320Y-127636560D01*
X131909120Y-132081560D02*
X131909120Y-131852960D01*
X133331520Y-131827560D02*
X133331520Y-131776760D01*
X131883720Y-128398560D02*
X131883720Y-127966760D01*
X132696520Y-131014760D02*
X132696520Y-130582960D01*
X132798120Y-131827560D02*
X132798120Y-131598960D01*
X132036120Y-132081560D02*
X132036120Y-131903760D01*
X132290120Y-132081560D02*
X132290120Y-131903760D01*
X133229920Y-125807760D02*
X133229920Y-125553760D01*
X132061520Y-128500160D02*
X132061520Y-127865160D01*
X132518720Y-126747560D02*
X132518720Y-126112560D01*
X132950520Y-126366560D02*
X132950520Y-126112560D01*
X131705920Y-131573560D02*
X131705920Y-129897160D01*
X132086920Y-123166160D02*
X132086920Y-122200960D01*
X133306120Y-127611160D02*
X133306120Y-127230160D01*
X132975920Y-131598960D02*
X132975920Y-131421160D01*
X132264720Y-130557560D02*
X132264720Y-130455960D01*
X131680520Y-128296960D02*
X131680520Y-128068360D01*
X132645720Y-124385360D02*
X132645720Y-124131360D01*
X131477320Y-131725960D02*
X131477320Y-129922560D01*
X132036120Y-125807760D02*
X132036120Y-125553760D01*
X132823520Y-125375960D02*
X132823520Y-125121960D01*
X132188520Y-121286560D02*
X132188520Y-120930960D01*
X131985320Y-124156760D02*
X131985320Y-123801160D01*
X133052120Y-131344960D02*
X133052120Y-129770160D01*
X132747320Y-127890560D02*
X132747320Y-127509560D01*
X132442520Y-123318560D02*
X132442520Y-123039160D01*
X133204520Y-125807760D02*
X133204520Y-125553760D01*
X133026720Y-125807760D02*
X133026720Y-125553760D01*
X132290120Y-121362760D02*
X132290120Y-121032560D01*
X132112320Y-121210360D02*
X132112320Y-120880160D01*
X132137720Y-122378760D02*
X132137720Y-122200960D01*
X132315520Y-130024160D02*
X132315520Y-129770160D01*
X131604320Y-128271560D02*
X131604320Y-128093760D01*
X133077520Y-132081560D02*
X133077520Y-131903760D01*
X133052120Y-123699560D02*
X133052120Y-123394760D01*
X131705920Y-131954560D02*
X131705920Y-131649760D01*
X132391720Y-130405160D02*
X132391720Y-130227360D01*
X132620320Y-131243360D02*
X132620320Y-131192560D01*
X133255320Y-125375960D02*
X133255320Y-124334560D01*
X132645720Y-131040160D02*
X132645720Y-130557560D01*
X132848920Y-131141760D02*
X132848920Y-131065560D01*
X132569520Y-131040160D02*
X132569520Y-130557560D01*
X132620320Y-121794560D02*
X132620320Y-121184960D01*
X131756720Y-131624360D02*
X131756720Y-129947960D01*
X132290120Y-127331760D02*
X132290120Y-127001560D01*
X133052120Y-127255560D02*
X133052120Y-126772960D01*
X132569520Y-130278160D02*
X132569520Y-129770160D01*
X132086920Y-125807760D02*
X132086920Y-125553760D01*
X132823520Y-126366560D02*
X132823520Y-126112560D01*
X132671120Y-126747560D02*
X132671120Y-126112560D01*
X133204520Y-127661960D02*
X133204520Y-127280960D01*
X132874320Y-131167160D02*
X132874320Y-131040160D01*
X133534720Y-131827560D02*
X133534720Y-130151160D01*
X133229920Y-132081560D02*
X133229920Y-132005360D01*
X133128320Y-127179360D02*
X133128320Y-126112560D01*
X132061520Y-121159560D02*
X132061520Y-120829360D01*
X133001320Y-126391960D02*
X133001320Y-126112560D01*
X132518720Y-125375960D02*
X132518720Y-125121960D01*
X131985320Y-125807760D02*
X131985320Y-125553760D01*
X133128320Y-132081560D02*
X133128320Y-131903760D01*
X133052120Y-127738160D02*
X133052120Y-127357160D01*
X133280720Y-131827560D02*
X133280720Y-131725960D01*
X132315520Y-121388160D02*
X132315520Y-121057960D01*
X132594920Y-131217960D02*
X132594920Y-131192560D01*
X132696520Y-131827560D02*
X132696520Y-131497360D01*
X132645720Y-130354360D02*
X132645720Y-129770160D01*
X132366320Y-131827560D02*
X132366320Y-131167160D01*
X132798120Y-127865160D02*
X132798120Y-127484160D01*
X132239320Y-125807760D02*
X132239320Y-125553760D01*
X131985320Y-121108760D02*
X131985320Y-120753160D01*
X132594920Y-125807760D02*
X132594920Y-125553760D01*
X133179120Y-121057960D02*
X133179120Y-120702360D01*
X132645720Y-126747560D02*
X132645720Y-126112560D01*
X132366320Y-128068360D02*
X132366320Y-127712760D01*
X133229920Y-125375960D02*
X133229920Y-124334560D01*
X131883720Y-121007160D02*
X131883720Y-120651560D01*
X132594920Y-124359960D02*
X132594920Y-124105960D01*
X132874320Y-126366560D02*
X132874320Y-126112560D01*
X133280720Y-122810560D02*
X133280720Y-122378760D01*
X132264720Y-121337360D02*
X132264720Y-121007160D01*
X132239320Y-131827560D02*
X132239320Y-131014760D01*
X133356920Y-127585760D02*
X133356920Y-127204760D01*
X132899720Y-132081560D02*
X132899720Y-131903760D01*
X132772720Y-127865160D02*
X132772720Y-127509560D01*
X132163120Y-128169960D02*
X132163120Y-127814360D01*
X133153720Y-123064560D02*
X133153720Y-122150160D01*
X132620320Y-128779560D02*
X132620320Y-128398560D01*
X132340920Y-132081560D02*
X132340920Y-131903760D01*
X131680520Y-131548160D02*
X131680520Y-129871760D01*
X132747320Y-121438960D02*
X132747320Y-121083360D01*
X132213920Y-130252760D02*
X132213920Y-130049560D01*
X132417120Y-131827560D02*
X132417120Y-131217960D01*
X132798120Y-130506760D02*
X132798120Y-129770160D01*
X132264720Y-130303560D02*
X132264720Y-130100360D01*
X133306120Y-126874560D02*
X133306120Y-126442760D01*
X132086920Y-121184960D02*
X132086920Y-120854760D01*
X131985320Y-131827560D02*
X131985320Y-130176560D01*
X132975920Y-125375960D02*
X132975920Y-125121960D01*
X133001320Y-123216960D02*
X133001320Y-122785160D01*
X132391720Y-125375960D02*
X132391720Y-125121960D01*
X133052120Y-123166160D02*
X133052120Y-122175560D01*
X131959920Y-128449360D02*
X131959920Y-127915960D01*
X132975920Y-123724960D02*
X132975920Y-123420160D01*
X132239320Y-128144560D02*
X132239320Y-127788960D01*
X132925120Y-126366560D02*
X132925120Y-126112560D01*
X132594920Y-132081560D02*
X132594920Y-131903760D01*
X132163120Y-132081560D02*
X132163120Y-131903760D01*
X132442520Y-128042960D02*
X132442520Y-127661960D01*
X133407720Y-129312960D02*
X133407720Y-127839760D01*
X133204520Y-127103160D02*
X133204520Y-126214160D01*
X131959920Y-121794560D02*
X131959920Y-121540560D01*
X132747320Y-131370360D02*
X132747320Y-131192560D01*
X132239320Y-130278160D02*
X132239320Y-130074960D01*
X132696520Y-126747560D02*
X132696520Y-126112560D01*
X132315520Y-123293160D02*
X132315520Y-122962960D01*
X133153720Y-129033560D02*
X133153720Y-127839760D01*
X132213920Y-125807760D02*
X132213920Y-125553760D01*
X132264720Y-123953560D02*
X132264720Y-123674160D01*
X131883720Y-125375960D02*
X131883720Y-125121960D01*
X133763320Y-127382560D02*
X133763320Y-127001560D01*
X133661720Y-127433360D02*
X133661720Y-127052360D01*
X132772720Y-125807760D02*
X132772720Y-125553760D01*
X132442520Y-121515160D02*
X132442520Y-121184960D01*
X131578920Y-128246160D02*
X131578920Y-128119160D01*
X133102920Y-131725960D02*
X133102920Y-131548160D01*
X132569520Y-128754160D02*
X132569520Y-128373160D01*
X133356920Y-131827560D02*
X133356920Y-131802160D01*
X132442520Y-124309160D02*
X132442520Y-124055160D01*
X132544120Y-131827560D02*
X132544120Y-131344960D01*
X131883720Y-132081560D02*
X131883720Y-131830000D01*
X132366320Y-127357160D02*
X132366320Y-127052360D01*
X131756720Y-128347760D02*
X131756720Y-128017560D01*
X132061520Y-127179360D02*
X132061520Y-126163360D01*
X132798120Y-126366560D02*
X132798120Y-126112560D01*
X132264720Y-128601760D02*
X132264720Y-128246160D01*
X131934520Y-124131360D02*
X131934520Y-123801160D01*
X133356920Y-129312960D02*
X133356920Y-127839760D01*
X132391720Y-121464360D02*
X132391720Y-121134160D01*
X132823520Y-125807760D02*
X132823520Y-125553760D01*
X133077520Y-121134160D02*
X133077520Y-120778560D01*
X131832920Y-129846360D02*
X131832920Y-129770160D01*
X132340920Y-123293160D02*
X132340920Y-122988360D01*
X132899720Y-121794560D02*
X132899720Y-121540560D01*
X132239320Y-130582960D02*
X132239320Y-130430560D01*
X131451920Y-131700560D02*
X131451920Y-129922560D01*
X133128320Y-127687360D02*
X133128320Y-127331760D01*
X133255320Y-131548160D02*
X133255320Y-129871760D01*
X132188520Y-131827560D02*
X132188520Y-130913160D01*
X132036120Y-124156760D02*
X132036120Y-123775760D01*
X132772720Y-127382560D02*
X132772720Y-127077760D01*
X132366320Y-130074960D02*
X132366320Y-129770160D01*
X133433120Y-131725960D02*
X133433120Y-130049560D01*
X132696520Y-128804960D02*
X132696520Y-128423960D01*
X132671120Y-128804960D02*
X132671120Y-128423960D01*
X133382320Y-131675160D02*
X133382320Y-129998760D01*
X132391720Y-121794560D02*
X132391720Y-121540560D01*
X133509320Y-129312960D02*
X133509320Y-127839760D01*
X132036120Y-131827560D02*
X132036120Y-130227360D01*
X132925120Y-125375960D02*
X132925120Y-125121960D01*
X132747320Y-125375960D02*
X132747320Y-125121960D01*
X132239320Y-126290360D02*
X132239320Y-126264960D01*
X133102920Y-121108760D02*
X133102920Y-120753160D01*
X133052120Y-121794560D02*
X133052120Y-121540560D01*
X131985320Y-127077760D02*
X131985320Y-126239560D01*
X132239320Y-121794560D02*
X132239320Y-121540560D01*
X132848920Y-131471960D02*
X132848920Y-131294160D01*
X133306120Y-131598960D02*
X133306120Y-129922560D01*
X131909120Y-128423960D02*
X131909120Y-127941360D01*
X133433120Y-127534960D02*
X133433120Y-127179360D01*
X132036120Y-128474760D02*
X132036120Y-127890560D01*
X132772720Y-130481360D02*
X132772720Y-129770160D01*
X133458520Y-127534960D02*
X133458520Y-127153960D01*
X131909120Y-124131360D02*
X131909120Y-123826560D01*
X132417120Y-128677960D02*
X132417120Y-128296960D01*
X132112320Y-125807760D02*
X132112320Y-125553760D01*
X132213920Y-129922560D02*
X132213920Y-129770160D01*
X132569520Y-123318560D02*
X132569520Y-123039160D01*
X132544120Y-124359960D02*
X132544120Y-124080560D01*
X133356920Y-131649760D02*
X133356920Y-129973360D01*
X133509320Y-127509560D02*
X133509320Y-127128560D01*
X133788720Y-127357160D02*
X133788720Y-126976160D01*
X131909120Y-131776760D02*
X131909120Y-130100360D01*
X132213920Y-130633760D02*
X132213920Y-130405160D01*
X132671120Y-131040160D02*
X132671120Y-130582960D01*
X131934520Y-121057960D02*
X131934520Y-120702360D01*
X132671120Y-131294160D02*
X132671120Y-131192560D01*
X132340920Y-121794560D02*
X132340920Y-121540560D01*
X133407720Y-131700560D02*
X133407720Y-130024160D01*
X132620320Y-125375960D02*
X132620320Y-125121960D01*
X132112320Y-125375960D02*
X132112320Y-125121960D01*
X133026720Y-131649760D02*
X133026720Y-131471960D01*
X132036120Y-121794560D02*
X132036120Y-121540560D01*
X132671120Y-131827560D02*
X132671120Y-131471960D01*
X133255320Y-120981760D02*
X133255320Y-120626160D01*
X132848920Y-121794560D02*
X132848920Y-121540560D01*
X132163120Y-131827560D02*
X132163120Y-130354360D01*
X132747320Y-128830360D02*
X132747320Y-128449360D01*
X131731320Y-131598960D02*
X131731320Y-129922560D01*
X132315520Y-131827560D02*
X132315520Y-131116360D01*
X132950520Y-128931960D02*
X132950520Y-127941360D01*
X132950520Y-127788960D02*
X132950520Y-127407960D01*
X131934520Y-121794560D02*
X131934520Y-121540560D01*
X132442520Y-130151160D02*
X132442520Y-129770160D01*
X132671120Y-132081560D02*
X132671120Y-131903760D01*
X132645720Y-127941360D02*
X132645720Y-127560360D01*
X132925120Y-132081560D02*
X132925120Y-131903760D01*
X132137720Y-121235760D02*
X132137720Y-120905560D01*
X132747320Y-130455960D02*
X132747320Y-129770160D01*
X132264720Y-131827560D02*
X132264720Y-131065560D01*
X132213920Y-128144560D02*
X132213920Y-127788960D01*
X132721920Y-126747560D02*
X132721920Y-126112560D01*
X131959920Y-125807760D02*
X131959920Y-125553760D01*
X132950520Y-131573560D02*
X132950520Y-131395760D01*
X132391720Y-132081560D02*
X132391720Y-131903760D01*
X131705920Y-128322360D02*
X131705920Y-128042960D01*
X132671120Y-127915960D02*
X132671120Y-127560360D01*
X131909120Y-125375960D02*
X131909120Y-125121960D01*
X132544120Y-125375960D02*
X132544120Y-125121960D01*
X132848920Y-123293160D02*
X132848920Y-122962960D01*
X132594920Y-131827560D02*
X132594920Y-131395760D01*
X132518720Y-124334560D02*
X132518720Y-124080560D01*
X132467920Y-128017560D02*
X132467920Y-127661960D01*
X133229920Y-127636560D02*
X133229920Y-127280960D01*
X132036120Y-130074960D02*
X132036120Y-129871760D01*
X132721920Y-121438960D02*
X132721920Y-121108760D01*
X131959920Y-132081560D02*
X131959920Y-131890000D01*
X133102920Y-125375960D02*
X133102920Y-124283760D01*
X133128320Y-123648760D02*
X133128320Y-123369360D01*
X132264720Y-121794560D02*
X132264720Y-121540560D01*
X132188520Y-126391960D02*
X132188520Y-126239560D01*
X132721920Y-127382560D02*
X132721920Y-127103160D01*
X132112320Y-129820960D02*
X132112320Y-129770160D01*
X132315520Y-130354360D02*
X132315520Y-130151160D01*
X132975920Y-126366560D02*
X132975920Y-126112560D01*
X132696520Y-124410760D02*
X132696520Y-123521760D01*
X132366320Y-124283760D02*
X132366320Y-124029760D01*
X132950520Y-131827560D02*
X132950520Y-131725960D01*
X132518720Y-132081560D02*
X132518720Y-131903760D01*
X132874320Y-132081560D02*
X132874320Y-131903760D01*
X133052120Y-132081560D02*
X133052120Y-131903760D01*
X131604320Y-131852960D02*
X131604320Y-131548160D01*
X132925120Y-127788960D02*
X132925120Y-127433360D01*
X132544120Y-128728760D02*
X132544120Y-128373160D01*
X133179120Y-129033560D02*
X133179120Y-127839760D01*
X132671120Y-127382560D02*
X132671120Y-127103160D01*
X132467920Y-131827560D02*
X132467920Y-131268760D01*
X132721920Y-124410760D02*
X132721920Y-123521760D01*
X132493320Y-121794560D02*
X132493320Y-121235760D01*
X133153720Y-121794560D02*
X133153720Y-121540560D01*
X132467920Y-121515160D02*
X132467920Y-121210360D01*
X133001320Y-121210360D02*
X133001320Y-120854760D01*
X132213920Y-121794560D02*
X132213920Y-121540560D01*
X133052120Y-131675160D02*
X133052120Y-131497360D01*
X133001320Y-125375960D02*
X133001320Y-125121960D01*
X132264720Y-132081560D02*
X132264720Y-131903760D01*
X133102920Y-123140760D02*
X133102920Y-122150160D01*
X132239320Y-127306360D02*
X132239320Y-126950760D01*
X133382320Y-129312960D02*
X133382320Y-127839760D01*
X132137720Y-123191560D02*
X132137720Y-122734360D01*
X132163120Y-121261160D02*
X132163120Y-120930960D01*
X132798120Y-131421160D02*
X132798120Y-131243360D01*
X132290120Y-123293160D02*
X132290120Y-122962960D01*
X132340920Y-130379760D02*
X132340920Y-130176560D01*
X132163120Y-125807760D02*
X132163120Y-125553760D01*
X132493320Y-130201960D02*
X132493320Y-129770160D01*
X131604320Y-131471960D02*
X131604320Y-129770160D01*
X131985320Y-125375960D02*
X131985320Y-125121960D01*
X132442520Y-131827560D02*
X132442520Y-131243360D01*
X133204520Y-125375960D02*
X133204520Y-124309160D01*
X132696520Y-123318560D02*
X132696520Y-123039160D01*
X132340920Y-124283760D02*
X132340920Y-124029760D01*
X132518720Y-128728760D02*
X132518720Y-128347760D01*
X132290120Y-124258360D02*
X132290120Y-124004360D01*
X132569520Y-127966760D02*
X132569520Y-127611160D01*
X133229920Y-121007160D02*
X133229920Y-120651560D01*
X133229920Y-122962960D02*
X133229920Y-122200960D01*
X133433120Y-129312960D02*
X133433120Y-127839760D01*
X132163120Y-129871760D02*
X132163120Y-129770160D01*
X132620320Y-123318560D02*
X132620320Y-123039160D01*
X132848920Y-131827560D02*
X132848920Y-131624360D01*
X132442520Y-125807760D02*
X132442520Y-125553760D01*
X132213920Y-123242360D02*
X132213920Y-122886760D01*
X133001320Y-127763560D02*
X133001320Y-127382560D01*
X132442520Y-127382560D02*
X132442520Y-127077760D01*
X133153720Y-132081560D02*
X133153720Y-131929160D01*
X132391720Y-125807760D02*
X132391720Y-125553760D01*
X132645720Y-131268760D02*
X132645720Y-131192560D01*
X133052120Y-125807760D02*
X133052120Y-125553760D01*
X132975920Y-128957360D02*
X132975920Y-127915960D01*
X132975920Y-127763560D02*
X132975920Y-127407960D01*
X132391720Y-128652560D02*
X132391720Y-128296960D01*
X133280720Y-126950760D02*
X133280720Y-126366560D01*
X132188520Y-121794560D02*
X132188520Y-121540560D01*
X131909120Y-122886760D02*
X131909120Y-122251760D01*
X132874320Y-121311960D02*
X132874320Y-120956360D01*
X132823520Y-131116360D02*
X132823520Y-131090960D01*
X131756720Y-132005360D02*
X131756720Y-131700560D01*
X132798120Y-130913160D02*
X132798120Y-130684560D01*
X132518720Y-123877360D02*
X132518720Y-123597960D01*
X131578920Y-131827560D02*
X131578920Y-131522760D01*
X132798120Y-125807760D02*
X132798120Y-125553760D01*
X131832920Y-128373160D02*
X131832920Y-127992160D01*
X132493320Y-130405160D02*
X132493320Y-130354360D01*
X132772720Y-121794560D02*
X132772720Y-121540560D01*
X132975920Y-127306360D02*
X132975920Y-126925360D01*
X132721920Y-131014760D02*
X132721920Y-130608360D01*
X132798120Y-124436160D02*
X132798120Y-123496360D01*
X133128320Y-125807760D02*
X133128320Y-125553760D01*
X133534720Y-129312960D02*
X133534720Y-127839760D01*
X133585520Y-127458760D02*
X133585520Y-127077760D01*
X133179120Y-131471960D02*
X133179120Y-129795560D01*
X132823520Y-127839760D02*
X132823520Y-127484160D01*
X132467920Y-125807760D02*
X132467920Y-125553760D01*
X132290120Y-130532160D02*
X132290120Y-130481360D01*
X132442520Y-125375960D02*
X132442520Y-125121960D01*
X132645720Y-123318560D02*
X132645720Y-123039160D01*
X132417120Y-131014760D02*
X132417120Y-130582960D01*
X132848920Y-125807760D02*
X132848920Y-125553760D01*
X131883720Y-122810560D02*
X131883720Y-122353360D01*
X133026720Y-126417360D02*
X133026720Y-126112560D01*
X132493320Y-125375960D02*
X132493320Y-125121960D01*
X133585520Y-129312960D02*
X133585520Y-127839760D01*
X133280720Y-127611160D02*
X133280720Y-127255560D01*
X133026720Y-127280960D02*
X133026720Y-126849160D01*
X132467920Y-131040160D02*
X132467920Y-130582960D01*
X132620320Y-126747560D02*
X132620320Y-126112560D01*
X132290120Y-128601760D02*
X132290120Y-128246160D01*
X132264720Y-129973360D02*
X132264720Y-129770160D01*
X133179120Y-127661960D02*
X133179120Y-127306360D01*
X131883720Y-121794560D02*
X131883720Y-121540560D01*
X132518720Y-125807760D02*
X132518720Y-125553760D01*
X132315520Y-130887760D02*
X132315520Y-130709960D01*
X132544120Y-127992160D02*
X132544120Y-127611160D01*
X132391720Y-123318560D02*
X132391720Y-123013760D01*
X133407720Y-127560360D02*
X133407720Y-127179360D01*
X132874320Y-131497360D02*
X132874320Y-131319560D01*
X132899720Y-123267760D02*
X132899720Y-122912160D01*
X133560120Y-127484160D02*
X133560120Y-127103160D01*
X133026720Y-128982760D02*
X133026720Y-127890560D01*
X132518720Y-127992160D02*
X132518720Y-127636560D01*
X132366320Y-123293160D02*
X132366320Y-122988360D01*
X131807520Y-129846360D02*
X131807520Y-129770160D01*
X132137720Y-129846360D02*
X132137720Y-129770160D01*
X131959920Y-127026960D02*
X131959920Y-126290360D01*
X133331520Y-127585760D02*
X133331520Y-127230160D01*
X132493320Y-123318560D02*
X132493320Y-123039160D01*
X132874320Y-123267760D02*
X132874320Y-122937560D01*
X132417120Y-123318560D02*
X132417120Y-123013760D01*
X132315520Y-130506760D02*
X132315520Y-130481360D01*
X131655120Y-131903760D02*
X131655120Y-131598960D01*
X131680520Y-131929160D02*
X131680520Y-131624360D01*
X132671120Y-125807760D02*
X132671120Y-125553760D01*
X132772720Y-121413560D02*
X132772720Y-121057960D01*
X133001320Y-123699560D02*
X133001320Y-123420160D01*
X132137720Y-130176560D02*
X132137720Y-129973360D01*
X132544120Y-132081560D02*
X132544120Y-131903760D01*
X133610920Y-127458760D02*
X133610920Y-127077760D01*
X132721920Y-125807760D02*
X132721920Y-125553760D01*
X132366320Y-125375960D02*
X132366320Y-125121960D01*
X133458520Y-131751360D02*
X133458520Y-130074960D01*
X133483920Y-129312960D02*
X133483920Y-127839760D01*
X132874320Y-131827560D02*
X132874320Y-131649760D01*
X132696520Y-127382560D02*
X132696520Y-127103160D01*
X132112320Y-127230160D02*
X132112320Y-126188760D01*
X131985320Y-123039160D02*
X131985320Y-122150160D01*
X133229920Y-123623360D02*
X133229920Y-123343960D01*
X132696520Y-121794560D02*
X132696520Y-121540560D01*
X132772720Y-126366560D02*
X132772720Y-126112560D01*
X133153720Y-131446560D02*
X133153720Y-129770160D01*
X132061520Y-121794560D02*
X132061520Y-121540560D01*
X133255320Y-127026960D02*
X133255320Y-126290360D01*
X133229920Y-127077760D02*
X133229920Y-126239560D01*
X132925120Y-131827560D02*
X132925120Y-131700560D01*
X132671120Y-123826560D02*
X132671120Y-123547160D01*
X132772720Y-131395760D02*
X132772720Y-131217960D01*
X131782120Y-131649760D02*
X131782120Y-129973360D01*
X132315520Y-125807760D02*
X132315520Y-125553760D01*
X132340920Y-121413560D02*
X132340920Y-121083360D01*
X131553520Y-128246160D02*
X131553520Y-128119160D01*
X131731320Y-131979960D02*
X131731320Y-131675160D01*
X133077520Y-127230160D02*
X133077520Y-126112560D01*
X132213920Y-126341160D02*
X132213920Y-126239560D01*
X132925120Y-121794560D02*
X132925120Y-121540560D01*
X131578920Y-131446560D02*
X131578920Y-129770160D01*
X132391720Y-124309160D02*
X132391720Y-124029760D01*
X131934520Y-132081560D02*
X131934520Y-131870000D01*
X132366320Y-121438960D02*
X132366320Y-121108760D01*
X131959920Y-122988360D02*
X131959920Y-122150160D01*
X132772720Y-131827560D02*
X132772720Y-131573560D01*
X133179120Y-125375960D02*
X133179120Y-124309160D01*
X131528120Y-131776760D02*
X131528120Y-131471960D01*
X132721920Y-131344960D02*
X132721920Y-131192560D01*
X132620320Y-124385360D02*
X132620320Y-124105960D01*
X132391720Y-123902760D02*
X132391720Y-123648760D01*
X133128320Y-131421160D02*
X133128320Y-129770160D01*
X132696520Y-131319560D02*
X132696520Y-131192560D01*
X132696520Y-130405160D02*
X132696520Y-129770160D01*
X133204520Y-121794560D02*
X133204520Y-121540560D01*
X132188520Y-125807760D02*
X132188520Y-125553760D01*
X132798120Y-125375960D02*
X132798120Y-125121960D01*
X132569520Y-125807760D02*
X132569520Y-125553760D01*
X132975920Y-131268760D02*
X132975920Y-129770160D01*
X132925120Y-131217960D02*
X132925120Y-130938560D01*
X132417120Y-130405160D02*
X132417120Y-130252760D01*
X132645720Y-121794560D02*
X132645720Y-121540560D01*
X132721920Y-128830360D02*
X132721920Y-128449360D01*
X131629720Y-128271560D02*
X131629720Y-128093760D01*
X132696520Y-132081560D02*
X132696520Y-131903760D01*
X133077520Y-123674160D02*
X133077520Y-123394760D01*
X132721920Y-131827560D02*
X132721920Y-131522760D01*
X132925120Y-128931960D02*
X132925120Y-127941360D01*
X132137720Y-121794560D02*
X132137720Y-121540560D01*
X133204520Y-123623360D02*
X133204520Y-123343960D01*
X132010720Y-127103160D02*
X132010720Y-126188760D01*
X132823520Y-131827560D02*
X132823520Y-131598960D01*
X132112320Y-124182160D02*
X132112320Y-123750360D01*
X132290120Y-130328960D02*
X132290120Y-130125760D01*
X132645720Y-125375960D02*
X132645720Y-125121960D01*
X133204520Y-131827560D02*
X133204520Y-131649760D01*
X132594920Y-123318560D02*
X132594920Y-123039160D01*
X132950520Y-131243360D02*
X132950520Y-130862360D01*
X132798120Y-121388160D02*
X132798120Y-121032560D01*
X132899720Y-128906560D02*
X132899720Y-127966760D01*
X132493320Y-127382560D02*
X132493320Y-127103160D01*
X133153720Y-131776760D02*
X133153720Y-131598960D01*
X133077520Y-125807760D02*
X133077520Y-125553760D01*
X132315520Y-132081560D02*
X132315520Y-131903760D01*
X133026720Y-131319560D02*
X133026720Y-129770160D01*
X133077520Y-131700560D02*
X133077520Y-131522760D01*
X132823520Y-130506760D02*
X132823520Y-129770160D01*
X132366320Y-121794560D02*
X132366320Y-121540560D01*
X132544120Y-130252760D02*
X132544120Y-129770160D01*
X132290120Y-125807760D02*
X132290120Y-125553760D01*
X132467920Y-128703360D02*
X132467920Y-128322360D01*
X132594920Y-123851960D02*
X132594920Y-123572560D01*
X132544120Y-121794560D02*
X132544120Y-121261160D01*
X132950520Y-127306360D02*
X132950520Y-126950760D01*
X131934520Y-125807760D02*
X131934520Y-125553760D01*
X132848920Y-121337360D02*
X132848920Y-120981760D01*
X133026720Y-123191560D02*
X133026720Y-122708960D01*
X133128320Y-129033560D02*
X133128320Y-127839760D01*
X131985320Y-121794560D02*
X131985320Y-121540560D01*
X133077520Y-121794560D02*
X133077520Y-121540560D01*
X132010720Y-130049560D02*
X132010720Y-129846360D01*
X132823520Y-121794560D02*
X132823520Y-121540560D01*
X132950520Y-121261160D02*
X132950520Y-120905560D01*
X132594920Y-128754160D02*
X132594920Y-128398560D01*
X132899720Y-131522760D02*
X132899720Y-131344960D01*
X132925120Y-127331760D02*
X132925120Y-126976160D01*
X132594920Y-131040160D02*
X132594920Y-130557560D01*
X132086920Y-131827560D02*
X132086920Y-130278160D01*
X132239320Y-123953560D02*
X132239320Y-123699560D01*
X133153720Y-121083360D02*
X133153720Y-120727760D01*
X132950520Y-130760760D02*
X132950520Y-129770160D01*
X132899720Y-131827560D02*
X132899720Y-131675160D01*
X132645720Y-127382560D02*
X132645720Y-127103160D01*
X132493320Y-132081560D02*
X132493320Y-131903760D01*
X132417120Y-121489760D02*
X132417120Y-121159560D01*
X132188520Y-128169960D02*
X132188520Y-127814360D01*
X132925120Y-123724960D02*
X132925120Y-123445560D01*
X132112320Y-132081560D02*
X132112320Y-131903760D01*
X132163120Y-126493560D02*
X132163120Y-126214160D01*
X132061520Y-131827560D02*
X132061520Y-130252760D01*
X132747320Y-124436160D02*
X132747320Y-123521760D01*
X132290120Y-128119160D02*
X132290120Y-127763560D01*
X132950520Y-121794560D02*
X132950520Y-121540560D01*
X133052120Y-125375960D02*
X133052120Y-124258360D01*
X133052120Y-126493560D02*
X133052120Y-126112560D01*
X133153720Y-127687360D02*
X133153720Y-127306360D01*
X131426520Y-131675160D02*
X131426520Y-129922560D01*
X133128320Y-121108760D02*
X133128320Y-120727760D01*
X132137720Y-132081560D02*
X132137720Y-131903760D01*
X133229920Y-121794560D02*
X133229920Y-121540560D01*
X132264720Y-128119160D02*
X132264720Y-127763560D01*
X133102920Y-125807760D02*
X133102920Y-125553760D01*
X132112320Y-130151160D02*
X132112320Y-129947960D01*
X132544120Y-123851960D02*
X132544120Y-123572560D01*
X132671120Y-121489760D02*
X132671120Y-121159560D01*
X132772720Y-128855760D02*
X132772720Y-128474760D01*
X133483920Y-131776760D02*
X133483920Y-130100360D01*
X133179120Y-125807760D02*
X133179120Y-125553760D01*
X131832920Y-131700560D02*
X131832920Y-130024160D01*
X133001320Y-124512360D02*
X133001320Y-124232960D01*
X132467920Y-127382560D02*
X132467920Y-127103160D01*
X133255320Y-121794560D02*
X133255320Y-121540560D01*
X132620320Y-127941360D02*
X132620320Y-127585760D01*
X132823520Y-124461560D02*
X132823520Y-123470960D01*
X132823520Y-130836960D02*
X132823520Y-130786160D01*
X132315520Y-127357160D02*
X132315520Y-127026960D01*
X132163120Y-127255560D02*
X132163120Y-126798360D01*
X133128320Y-131751360D02*
X133128320Y-131573560D01*
X132391720Y-130989360D02*
X132391720Y-130608360D01*
X132747320Y-121794560D02*
X132747320Y-121540560D01*
X132874320Y-125375960D02*
X132874320Y-125121960D01*
X132264720Y-125807760D02*
X132264720Y-125553760D01*
X133255320Y-123597960D02*
X133255320Y-123318560D01*
X131350320Y-131598960D02*
X131350320Y-129922560D01*
X132721920Y-123318560D02*
X132721920Y-123013760D01*
X132569520Y-121794560D02*
X132569520Y-121235760D01*
X132721920Y-121794560D02*
X132721920Y-121540560D01*
X132493320Y-124334560D02*
X132493320Y-124080560D01*
X132010720Y-121794560D02*
X132010720Y-121540560D01*
X132239320Y-129947960D02*
X132239320Y-129770160D01*
X132036120Y-125375960D02*
X132036120Y-125121960D01*
X132874320Y-127357160D02*
X132874320Y-127026960D01*
X133026720Y-127738160D02*
X133026720Y-127382560D01*
X133204520Y-121032560D02*
X133204520Y-120676960D01*
X131883720Y-125807760D02*
X131883720Y-125553760D01*
X133636320Y-127433360D02*
X133636320Y-127052360D01*
X131858320Y-128398560D02*
X131858320Y-127966760D01*
X132086920Y-130125760D02*
X132086920Y-129922560D01*
X132417120Y-130125760D02*
X132417120Y-129770160D01*
X133255320Y-125807760D02*
X133255320Y-125553760D01*
X132518720Y-121794560D02*
X132518720Y-121261160D01*
X132315520Y-121794560D02*
X132315520Y-121540560D01*
X132899720Y-125807760D02*
X132899720Y-125553760D01*
X133052120Y-128982760D02*
X133052120Y-127890560D01*
X132010720Y-128474760D02*
X132010720Y-127890560D01*
X132163120Y-123216960D02*
X132163120Y-122785160D01*
X132696520Y-125807760D02*
X132696520Y-125553760D01*
X132239320Y-121337360D02*
X132239320Y-120981760D01*
X132036120Y-127153960D02*
X132036120Y-126163360D01*
X132899720Y-127331760D02*
X132899720Y-127001560D01*
X132366320Y-128652560D02*
X132366320Y-128271560D01*
X132645720Y-125807760D02*
X132645720Y-125553760D01*
X132061520Y-125807760D02*
X132061520Y-125553760D01*
X132747320Y-123318560D02*
X132747320Y-123013760D01*
X133128320Y-121794560D02*
X133128320Y-121540560D01*
X131934520Y-128423960D02*
X131934520Y-127941360D01*
X132340920Y-131827560D02*
X132340920Y-131141760D01*
X133001320Y-128957360D02*
X133001320Y-127915960D01*
X131934520Y-129973360D02*
X131934520Y-129770160D01*
X132188520Y-124232960D02*
X132188520Y-123724960D01*
X132848920Y-127839760D02*
X132848920Y-127458760D01*
X132925120Y-125807760D02*
X132925120Y-125553760D01*
X132950520Y-125807760D02*
X132950520Y-125553760D01*
X132391720Y-127357160D02*
X132391720Y-127077760D01*
X132188520Y-132081560D02*
X132188520Y-131903760D01*
X132620320Y-131827560D02*
X132620320Y-131421160D01*
X132188520Y-123242360D02*
X132188520Y-122835960D01*
X132975920Y-132081560D02*
X132975920Y-131903760D01*
X133153720Y-123648760D02*
X133153720Y-123369360D01*
X132163120Y-124207560D02*
X132163120Y-123724960D01*
X132163120Y-122302560D02*
X132163120Y-122226360D01*
X132747320Y-125807760D02*
X132747320Y-125553760D01*
X132340920Y-125375960D02*
X132340920Y-125121960D01*
X132925120Y-130659160D02*
X132925120Y-129770160D01*
X132772720Y-123318560D02*
X132772720Y-123013760D01*
X132086920Y-121794560D02*
X132086920Y-121540560D01*
X132747320Y-131827560D02*
X132747320Y-131548160D01*
X131934520Y-126976160D02*
X131934520Y-126366560D01*
X133001320Y-131827560D02*
X133001320Y-131776760D01*
X132417120Y-128042960D02*
X132417120Y-127687360D01*
X132417120Y-124309160D02*
X132417120Y-124055160D01*
X132086920Y-124182160D02*
X132086920Y-123750360D01*
X132747320Y-130989360D02*
X132747320Y-130608360D01*
X131655120Y-128296960D02*
X131655120Y-128068360D01*
X132848920Y-132081560D02*
X132848920Y-131903760D01*
X131883720Y-129922560D02*
X131883720Y-129770160D01*
X133128320Y-125375960D02*
X133128320Y-124283760D01*
X132645720Y-128779560D02*
X132645720Y-128398560D01*
X132544120Y-123318560D02*
X132544120Y-123039160D01*
X132061520Y-130100360D02*
X132061520Y-129897160D01*
X131629720Y-131497360D02*
X131629720Y-129820960D01*
X132950520Y-123724960D02*
X132950520Y-123445560D01*
X132620320Y-125807760D02*
X132620320Y-125553760D01*
X132645720Y-123826560D02*
X132645720Y-123547160D01*
X133052120Y-121159560D02*
X133052120Y-120803960D01*
X132086920Y-127204760D02*
X132086920Y-126163360D01*
X132569520Y-131827560D02*
X132569520Y-131370360D01*
X132823520Y-131446560D02*
X132823520Y-131268760D01*
X132721920Y-130430560D02*
X132721920Y-129770160D01*
X133001320Y-127280960D02*
X133001320Y-126899960D01*
X131959920Y-131827560D02*
X131959920Y-130151160D01*
X131959920Y-121083360D02*
X131959920Y-120727760D01*
X131909120Y-125807760D02*
X131909120Y-125553760D01*
X132518720Y-131827560D02*
X132518720Y-131319560D01*
X132188520Y-130709960D02*
X132188520Y-130379760D01*
X132010720Y-131827560D02*
X132010720Y-130201960D01*
X132213920Y-125375960D02*
X132213920Y-125121960D01*
X132645720Y-121515160D02*
X132645720Y-121184960D01*
X131477320Y-128195360D02*
X131477320Y-128169960D01*
X132899720Y-121286560D02*
X132899720Y-120956360D01*
X131883720Y-124105960D02*
X131883720Y-123826560D01*
X132163120Y-125375960D02*
X132163120Y-125121960D01*
X132010720Y-121134160D02*
X132010720Y-120778560D01*
X133255320Y-127636560D02*
X133255320Y-127255560D01*
X131858320Y-129897160D02*
X131858320Y-129770160D01*
X132340920Y-127357160D02*
X132340920Y-127052360D01*
X131985320Y-130024160D02*
X131985320Y-129820960D01*
X132239320Y-132081560D02*
X132239320Y-131903760D01*
X132213920Y-131827560D02*
X132213920Y-130989360D01*
X132518720Y-131040160D02*
X132518720Y-130557560D01*
X132239320Y-128576360D02*
X132239320Y-128220760D01*
X133001320Y-125807760D02*
X133001320Y-125553760D01*
X132213920Y-128576360D02*
X132213920Y-128220760D01*
X132544120Y-126747560D02*
X132544120Y-126112560D01*
X131401120Y-131649760D02*
X131401120Y-129922560D01*
X132112320Y-121794560D02*
X132112320Y-121540560D01*
X132518720Y-123318560D02*
X132518720Y-123039160D01*
X132010720Y-125807760D02*
X132010720Y-125553760D01*
X132899720Y-127814360D02*
X132899720Y-127433360D01*
X132036120Y-121159560D02*
X132036120Y-120803960D01*
X133026720Y-124537760D02*
X133026720Y-124258360D01*
X132518720Y-130405160D02*
X132518720Y-130379760D01*
X133001320Y-121794560D02*
X133001320Y-121540560D01*
X132264720Y-124258360D02*
X132264720Y-124004360D01*
X132975920Y-121235760D02*
X132975920Y-120880160D01*
X132772720Y-124436160D02*
X132772720Y-123496360D01*
X132975920Y-131827560D02*
X132975920Y-131751360D01*
X132747320Y-126366560D02*
X132747320Y-126112560D01*
X133026720Y-122378760D02*
X133026720Y-122200960D01*
X131375720Y-131624360D02*
X131375720Y-129922560D01*
X133483920Y-127509560D02*
X133483920Y-127128560D01*
X131832920Y-132081560D02*
X131832920Y-131776760D01*
X132975920Y-121794560D02*
X132975920Y-121540560D01*
X132950520Y-123242360D02*
X132950520Y-122861360D01*
X132442520Y-123902760D02*
X132442520Y-123623360D01*
X132798120Y-128855760D02*
X132798120Y-128474760D01*
X133458520Y-129312960D02*
X133458520Y-127839760D01*
X132874320Y-127814360D02*
X132874320Y-127458760D01*
X131985320Y-132081560D02*
X131985320Y-131903760D01*
X131959920Y-125375960D02*
X131959920Y-125121960D01*
X131807520Y-131675160D02*
X131807520Y-129998760D01*
X132848920Y-126366560D02*
X132848920Y-126112560D01*
X132823520Y-132081560D02*
X132823520Y-131903760D01*
X132366320Y-130963960D02*
X132366320Y-130633760D01*
X131909120Y-129947960D02*
X131909120Y-129770160D01*
X132163120Y-121794560D02*
X132163120Y-121540560D01*
X132569520Y-124359960D02*
X132569520Y-124105960D01*
X131502720Y-131751360D02*
X131502720Y-131446560D01*
X133001320Y-122302560D02*
X133001320Y-122200960D01*
X133382320Y-127560360D02*
X133382320Y-127204760D01*
X132671120Y-124410760D02*
X132671120Y-124131360D01*
X132442520Y-128677960D02*
X132442520Y-128322360D01*
X132290120Y-121794560D02*
X132290120Y-121540560D01*
X131959920Y-124131360D02*
X131959920Y-123801160D01*
X132315520Y-128093760D02*
X132315520Y-127738160D01*
X132467920Y-123877360D02*
X132467920Y-123623360D01*
X132213920Y-121311960D02*
X132213920Y-120956360D01*
X132264720Y-127331760D02*
X132264720Y-126976160D01*
X132417120Y-123902760D02*
X132417120Y-123623360D01*
X132290120Y-131827560D02*
X132290120Y-131090960D01*
X132493320Y-123877360D02*
X132493320Y-123597960D01*
X132594920Y-127382560D02*
X132594920Y-127103160D01*
X132391720Y-131827560D02*
X132391720Y-131192560D01*
X133737920Y-127382560D02*
X133737920Y-127001560D01*
X132467920Y-124334560D02*
X132467920Y-124055160D01*
X132467920Y-130405160D02*
X132467920Y-130328960D01*
X132569520Y-127382560D02*
X132569520Y-127103160D01*
X132950520Y-125375960D02*
X132950520Y-125121960D01*
X132417120Y-125807760D02*
X132417120Y-125553760D01*
X133001320Y-132081560D02*
X133001320Y-131903760D01*
X132188520Y-125375960D02*
X132188520Y-125121960D01*
X132391720Y-130100360D02*
X132391720Y-129770160D01*
X133687120Y-127407960D02*
X133687120Y-127026960D01*
X132925120Y-124486960D02*
X132925120Y-124207560D01*
X132188520Y-129897160D02*
X132188520Y-129770160D01*
X132137720Y-124207560D02*
X132137720Y-123724960D01*
X131909120Y-121032560D02*
X131909120Y-120676960D01*
X133077520Y-131370360D02*
X133077520Y-129770160D01*
X132594920Y-130303560D02*
X132594920Y-129770160D01*
X133255320Y-131827560D02*
X133255320Y-131700560D01*
X132163120Y-130201960D02*
X132163120Y-129998760D01*
X132467920Y-130176560D02*
X132467920Y-129770160D01*
X132036120Y-123115360D02*
X132036120Y-122175560D01*
X132340920Y-125807760D02*
X132340920Y-125553760D01*
X132874320Y-125807760D02*
X132874320Y-125553760D01*
X132594920Y-127966760D02*
X132594920Y-127585760D01*
X133179120Y-123039160D02*
X133179120Y-122124760D01*
X132010720Y-124156760D02*
X132010720Y-123775760D01*
X132188520Y-127280960D02*
X132188520Y-126874560D01*
X132417120Y-121794560D02*
X132417120Y-121540560D01*
X132899720Y-125375960D02*
X132899720Y-125121960D01*
X132696520Y-121464360D02*
X132696520Y-121134160D01*
X132213920Y-127306360D02*
X132213920Y-126899960D01*
X132925120Y-123267760D02*
X132925120Y-122886760D01*
X131807520Y-132056160D02*
X131807520Y-131751360D01*
X132569520Y-125375960D02*
X132569520Y-125121960D01*
X132899720Y-130608360D02*
X132899720Y-129770160D01*
X133306120Y-131827560D02*
X133306120Y-131751360D01*
X132950520Y-124512360D02*
X132950520Y-124232960D01*
X132467920Y-123318560D02*
X132467920Y-123039160D01*
X132899720Y-124486960D02*
X132899720Y-123445560D01*
X131934520Y-125375960D02*
X131934520Y-125121960D01*
X132848920Y-124461560D02*
X132848920Y-123470960D01*
X132442520Y-132081560D02*
X132442520Y-131903760D01*
X131528120Y-128220760D02*
X131528120Y-128144560D01*
X132467920Y-125375960D02*
X132467920Y-125121960D01*
X132112320Y-123166160D02*
X132112320Y-122200960D01*
X133179120Y-123648760D02*
X133179120Y-123343960D01*
X132696520Y-125375960D02*
X132696520Y-125121960D01*
X132493320Y-131040160D02*
X132493320Y-130557560D01*
X132391720Y-128068360D02*
X132391720Y-127687360D01*
X132772720Y-132081560D02*
X132772720Y-131903760D01*
X131858320Y-132081560D02*
X131858320Y-131800000D01*
X132213920Y-132081560D02*
X132213920Y-131903760D01*
X132823520Y-123293160D02*
X132823520Y-122988360D01*
X133179120Y-127128560D02*
X133179120Y-126163360D01*
X131324920Y-131573560D02*
X131324920Y-129922560D01*
X132467920Y-121794560D02*
X132467920Y-121540560D01*
X132417120Y-127382560D02*
X132417120Y-127077760D01*
X133204520Y-131497360D02*
X133204520Y-129820960D01*
X132239320Y-123267760D02*
X132239320Y-122912160D01*
X131934520Y-122937560D02*
X131934520Y-122200960D01*
X131807520Y-128373160D02*
X131807520Y-127992160D01*
X132798120Y-127357160D02*
X132798120Y-127077760D01*
X133026720Y-125375960D02*
X133026720Y-125121960D01*
X132112320Y-131827560D02*
X132112320Y-130303560D01*
X133102920Y-123674160D02*
X133102920Y-123369360D01*
X132315520Y-128627160D02*
X132315520Y-128246160D01*
X132061520Y-125375960D02*
X132061520Y-125121960D01*
X132899720Y-126366560D02*
X132899720Y-126112560D01*
X133153720Y-125807760D02*
X133153720Y-125553760D01*
X132239320Y-125375960D02*
X132239320Y-125121960D01*
X133077520Y-129008160D02*
X133077520Y-127865160D01*
X132925120Y-131548160D02*
X132925120Y-131370360D01*
X132594920Y-125375960D02*
X132594920Y-125121960D01*
X132340920Y-130049560D02*
X132340920Y-129770160D01*
X133026720Y-132081560D02*
X133026720Y-131903760D01*
X131883720Y-131751360D02*
X131883720Y-130074960D01*
%TO.C,ohw_logo*%
X137581700Y-124567200D02*
X138318300Y-124567200D01*
X136286300Y-125507000D02*
X139613700Y-125507000D01*
X136438700Y-127615200D02*
X137607100Y-127615200D01*
X138572300Y-126573800D02*
X140299500Y-126573800D01*
X136311700Y-124999000D02*
X136845100Y-124999000D01*
X138572300Y-126726200D02*
X140299500Y-126726200D01*
X136362500Y-127716800D02*
X137581700Y-127716800D01*
X139029500Y-128250200D02*
X139689900Y-128250200D01*
X139131100Y-124922800D02*
X139512100Y-124922800D01*
X136311700Y-126040400D02*
X137835700Y-126040400D01*
X136438700Y-125761000D02*
X139435900Y-125761000D01*
X136260900Y-125481600D02*
X139613700Y-125481600D01*
X136362500Y-128402600D02*
X136794300Y-128402600D01*
X136311700Y-126065800D02*
X137759500Y-126065800D01*
X139486700Y-128631200D02*
X139537500Y-128631200D01*
X139435900Y-128580400D02*
X139588300Y-128580400D01*
X136286300Y-126091200D02*
X137683300Y-126091200D01*
X138470700Y-127996200D02*
X139816900Y-127996200D01*
X138343700Y-126167400D02*
X139639100Y-126167400D01*
X136260900Y-127107200D02*
X137505500Y-127107200D01*
X136362500Y-127437400D02*
X137683300Y-127437400D01*
X138394500Y-127107200D02*
X139639100Y-127107200D01*
X138318300Y-127615200D02*
X139562900Y-127615200D01*
X138445300Y-127031000D02*
X139664500Y-127031000D01*
X138191300Y-127234200D02*
X139613700Y-127234200D01*
X137200700Y-128301000D02*
X137378500Y-128301000D01*
X139080300Y-128301000D02*
X139639100Y-128301000D01*
X137530900Y-124872000D02*
X138343700Y-124872000D01*
X136133900Y-128047000D02*
X137454700Y-128047000D01*
X136083100Y-126269000D02*
X137454700Y-126269000D01*
X136362500Y-125634000D02*
X139512100Y-125634000D01*
X135600500Y-126751600D02*
X137327700Y-126751600D01*
X136311700Y-127285000D02*
X137734100Y-127285000D01*
X137556300Y-124821200D02*
X138343700Y-124821200D01*
X138572300Y-126599200D02*
X140299500Y-126599200D01*
X136159300Y-125151400D02*
X137048300Y-125151400D01*
X138191300Y-127310400D02*
X139588300Y-127310400D01*
X138572300Y-128250200D02*
X138826300Y-128250200D01*
X136413300Y-125684800D02*
X139461300Y-125684800D01*
X136184700Y-127970800D02*
X137480100Y-127970800D01*
X138521500Y-128123200D02*
X139791500Y-128123200D01*
X136133900Y-127056400D02*
X137480100Y-127056400D01*
X138572300Y-126650000D02*
X140299500Y-126650000D01*
X137607100Y-124414800D02*
X138292900Y-124414800D01*
X136210100Y-125405400D02*
X139664500Y-125405400D01*
X139410500Y-128555000D02*
X139613700Y-128555000D01*
X136108500Y-128097800D02*
X137454700Y-128097800D01*
X138927900Y-125049800D02*
X139639100Y-125049800D01*
X136235500Y-127920000D02*
X137505500Y-127920000D01*
X138546900Y-126472200D02*
X140274100Y-126472200D01*
X138292900Y-127539000D02*
X139512100Y-127539000D01*
X138445300Y-127970800D02*
X139816900Y-127970800D01*
X138216700Y-127335800D02*
X139562900Y-127335800D01*
X138445300Y-127920000D02*
X139766100Y-127920000D01*
X138496100Y-126954800D02*
X140096300Y-126954800D01*
X138572300Y-126777000D02*
X140299500Y-126777000D01*
X138242100Y-127437400D02*
X139537500Y-127437400D01*
X139207300Y-124872000D02*
X139435900Y-124872000D01*
X136260900Y-127132600D02*
X137556300Y-127132600D01*
X135625900Y-126446800D02*
X137353100Y-126446800D01*
X136260900Y-125049800D02*
X136921300Y-125049800D01*
X136260900Y-125456200D02*
X139639100Y-125456200D01*
X135600500Y-126624600D02*
X137327700Y-126624600D01*
X138546900Y-126853200D02*
X140274100Y-126853200D01*
X138445300Y-127945400D02*
X139791500Y-127945400D01*
X136235500Y-125075200D02*
X136946700Y-125075200D01*
X139207300Y-128428000D02*
X139664500Y-128428000D01*
X138572300Y-126624600D02*
X140299500Y-126624600D01*
X138546900Y-126878600D02*
X140274100Y-126878600D01*
X136311700Y-125532400D02*
X139588300Y-125532400D01*
X136387900Y-128529600D02*
X136641900Y-128529600D01*
X139181900Y-128402600D02*
X139664500Y-128402600D01*
X138521500Y-126421400D02*
X140274100Y-126421400D01*
X138496100Y-126980200D02*
X139943900Y-126980200D01*
X136387900Y-128504200D02*
X136667300Y-128504200D01*
X136387900Y-124922800D02*
X136743500Y-124922800D01*
X139308900Y-128478800D02*
X139639100Y-128478800D01*
X138267500Y-126116600D02*
X139613700Y-126116600D01*
X138978700Y-125024400D02*
X139613700Y-125024400D01*
X135600500Y-126726200D02*
X137327700Y-126726200D01*
X135625900Y-126827800D02*
X137353100Y-126827800D01*
X138546900Y-126446800D02*
X140274100Y-126446800D01*
X138546900Y-126827800D02*
X140299500Y-126827800D01*
X136413300Y-127666000D02*
X137607100Y-127666000D01*
X138419900Y-127056400D02*
X139664500Y-127056400D01*
X137581700Y-124643400D02*
X138318300Y-124643400D01*
X136108500Y-128072400D02*
X137454700Y-128072400D01*
X139385100Y-128529600D02*
X139613700Y-128529600D01*
X136159300Y-125329200D02*
X139740700Y-125329200D01*
X138318300Y-127158000D02*
X139639100Y-127158000D01*
X136159300Y-128021600D02*
X137480100Y-128021600D01*
X135625900Y-126929400D02*
X137378500Y-126929400D01*
X136337100Y-125989600D02*
X139562900Y-125989600D01*
X136260900Y-127158000D02*
X137581700Y-127158000D01*
X138521500Y-128148600D02*
X139766100Y-128148600D01*
X138572300Y-126700800D02*
X140299500Y-126700800D01*
X138419900Y-126243600D02*
X139994700Y-126243600D01*
X136286300Y-126142000D02*
X137607100Y-126142000D01*
X136337100Y-127767600D02*
X137556300Y-127767600D01*
X135625900Y-126370600D02*
X137403900Y-126370600D01*
X138140500Y-126065800D02*
X139588300Y-126065800D01*
X137124500Y-128275600D02*
X137378500Y-128275600D01*
X136337100Y-127386600D02*
X137708700Y-127386600D01*
X136438700Y-125735600D02*
X139435900Y-125735600D01*
X137530900Y-124922800D02*
X138369100Y-124922800D01*
X135625900Y-126497600D02*
X137353100Y-126497600D01*
X135625900Y-126523000D02*
X137353100Y-126523000D01*
X138445300Y-126269000D02*
X140147100Y-126269000D01*
X136337100Y-125583200D02*
X139537500Y-125583200D01*
X136362500Y-127742200D02*
X137581700Y-127742200D01*
X136362500Y-125913400D02*
X139537500Y-125913400D01*
X136210100Y-127945400D02*
X137505500Y-127945400D01*
X135625900Y-126548400D02*
X137327700Y-126548400D01*
X138292900Y-126142000D02*
X139613700Y-126142000D01*
X136006900Y-127031000D02*
X137454700Y-127031000D01*
X135625900Y-126421400D02*
X137378500Y-126421400D01*
X138521500Y-126904000D02*
X140274100Y-126904000D01*
X136286300Y-127818400D02*
X137556300Y-127818400D01*
X138445300Y-126294400D02*
X140248700Y-126294400D01*
X138470700Y-126319800D02*
X140248700Y-126319800D01*
X136133900Y-125278400D02*
X139766100Y-125278400D01*
X137607100Y-124541800D02*
X138292900Y-124541800D01*
X136286300Y-127259600D02*
X137734100Y-127259600D01*
X136362500Y-124948200D02*
X136768900Y-124948200D01*
X136260900Y-128301000D02*
X136946700Y-128301000D01*
X135651300Y-126345200D02*
X137403900Y-126345200D01*
X138546900Y-128224800D02*
X138902500Y-128224800D01*
X138191300Y-127285000D02*
X139588300Y-127285000D01*
X138953300Y-128224800D02*
X139715300Y-128224800D01*
X136235500Y-126243600D02*
X137480100Y-126243600D01*
X138826300Y-125126000D02*
X139715300Y-125126000D01*
X139054900Y-128275600D02*
X139664500Y-128275600D01*
X135600500Y-126700800D02*
X137327700Y-126700800D01*
X138572300Y-126675400D02*
X140299500Y-126675400D01*
X138242100Y-127412000D02*
X139537500Y-127412000D01*
X137581700Y-124592600D02*
X138318300Y-124592600D01*
X138394500Y-126218200D02*
X139867700Y-126218200D01*
X136362500Y-128453400D02*
X136718100Y-128453400D01*
X138394500Y-127843800D02*
X139715300Y-127843800D01*
X138496100Y-128097800D02*
X139816900Y-128097800D01*
X137530900Y-124948200D02*
X138369100Y-124948200D01*
X139359700Y-128504200D02*
X139639100Y-128504200D01*
X138496100Y-128047000D02*
X139842300Y-128047000D01*
X135778300Y-126319800D02*
X137429300Y-126319800D01*
X138572300Y-126548400D02*
X140274100Y-126548400D01*
X138343700Y-127666000D02*
X139588300Y-127666000D01*
X136362500Y-128478800D02*
X136692700Y-128478800D01*
X135625900Y-126573800D02*
X137327700Y-126573800D01*
X136438700Y-127589800D02*
X137632500Y-127589800D01*
X136184700Y-128224800D02*
X137403900Y-128224800D01*
X137607100Y-124491000D02*
X138292900Y-124491000D01*
X138267500Y-127488200D02*
X139512100Y-127488200D01*
X136184700Y-125126000D02*
X137022900Y-125126000D01*
X136362500Y-128428000D02*
X136743500Y-128428000D01*
X136286300Y-127843800D02*
X137530900Y-127843800D01*
X136362500Y-125608600D02*
X139537500Y-125608600D01*
X138496100Y-126345200D02*
X140274100Y-126345200D01*
X136108500Y-128123200D02*
X137429300Y-128123200D01*
X137607100Y-124465600D02*
X138292900Y-124465600D01*
X136514900Y-128656600D02*
X136591100Y-128656600D01*
X135600500Y-126675400D02*
X137327700Y-126675400D01*
X136464100Y-124872000D02*
X136667300Y-124872000D01*
X136438700Y-127564400D02*
X137632500Y-127564400D01*
X139156500Y-124897400D02*
X139486700Y-124897400D01*
X136387900Y-125888000D02*
X139512100Y-125888000D01*
X138267500Y-127513600D02*
X139486700Y-127513600D01*
X137784900Y-124338600D02*
X138038900Y-124338600D01*
X136413300Y-124897400D02*
X136692700Y-124897400D01*
X138572300Y-128301000D02*
X138724700Y-128301000D01*
X138267500Y-127462800D02*
X139512100Y-127462800D01*
X136438700Y-125786400D02*
X139461300Y-125786400D01*
X136133900Y-125202200D02*
X139766100Y-125202200D01*
X139105700Y-128351800D02*
X139664500Y-128351800D01*
X136159300Y-128199400D02*
X137403900Y-128199400D01*
X135625900Y-126853200D02*
X137353100Y-126853200D01*
X138496100Y-128072400D02*
X139842300Y-128072400D01*
X136108500Y-128148600D02*
X137429300Y-128148600D01*
X137556300Y-124795800D02*
X138343700Y-124795800D01*
X136235500Y-127894600D02*
X137505500Y-127894600D01*
X137607100Y-124516400D02*
X138292900Y-124516400D01*
X136210100Y-128250200D02*
X137403900Y-128250200D01*
X138343700Y-127691400D02*
X139613700Y-127691400D01*
X138292900Y-127183400D02*
X139639100Y-127183400D01*
X137429300Y-124999000D02*
X138470700Y-124999000D01*
X136184700Y-125380000D02*
X139689900Y-125380000D01*
X138343700Y-127132600D02*
X139639100Y-127132600D01*
X136387900Y-127691400D02*
X137581700Y-127691400D01*
X139105700Y-128326400D02*
X139664500Y-128326400D01*
X138572300Y-126802400D02*
X140299500Y-126802400D01*
X136286300Y-127234200D02*
X137708700Y-127234200D01*
X135727500Y-126980200D02*
X137429300Y-126980200D01*
X137505500Y-124973600D02*
X138369100Y-124973600D01*
X136438700Y-127640600D02*
X137607100Y-127640600D01*
X137530900Y-124846600D02*
X138343700Y-124846600D01*
X138521500Y-128174000D02*
X139740700Y-128174000D01*
X137226100Y-125075200D02*
X138673900Y-125075200D01*
X138470700Y-128021600D02*
X139842300Y-128021600D01*
X137251500Y-128326400D02*
X137353100Y-128326400D01*
X138318300Y-127589800D02*
X139537500Y-127589800D01*
X135854500Y-127005600D02*
X137429300Y-127005600D01*
X139156500Y-128377200D02*
X139664500Y-128377200D01*
X138572300Y-126751600D02*
X140299500Y-126751600D01*
X137607100Y-124440200D02*
X138292900Y-124440200D01*
X136489500Y-128631200D02*
X136591100Y-128631200D01*
X136108500Y-125227600D02*
X139766100Y-125227600D01*
X138369100Y-126192800D02*
X139715300Y-126192800D01*
X136311700Y-125557800D02*
X139562900Y-125557800D01*
X138242100Y-127208800D02*
X139613700Y-127208800D01*
X135625900Y-126396000D02*
X137378500Y-126396000D01*
X136464100Y-128605800D02*
X136616500Y-128605800D01*
X138546900Y-126497600D02*
X140274100Y-126497600D01*
X137556300Y-124745000D02*
X138343700Y-124745000D01*
X136210100Y-125100600D02*
X136972100Y-125100600D01*
X139054900Y-124973600D02*
X139562900Y-124973600D01*
X137073700Y-125151400D02*
X139740700Y-125151400D01*
X138343700Y-127716800D02*
X139639100Y-127716800D01*
X136337100Y-124973600D02*
X136794300Y-124973600D01*
X137556300Y-124719600D02*
X138343700Y-124719600D01*
X135625900Y-126472200D02*
X137353100Y-126472200D01*
X136235500Y-127081800D02*
X137505500Y-127081800D01*
X136413300Y-127513600D02*
X137657900Y-127513600D01*
X138597700Y-128326400D02*
X138673900Y-128326400D01*
X139258100Y-128453400D02*
X139664500Y-128453400D01*
X136286300Y-126116600D02*
X137632500Y-126116600D01*
X138064300Y-126040400D02*
X139588300Y-126040400D01*
X136260900Y-127869200D02*
X137530900Y-127869200D01*
X136311700Y-128351800D02*
X136870500Y-128351800D01*
X138419900Y-127081800D02*
X139664500Y-127081800D01*
X136260900Y-127183400D02*
X137607100Y-127183400D01*
X138572300Y-128275600D02*
X138775500Y-128275600D01*
X136260900Y-126218200D02*
X137505500Y-126218200D01*
X136133900Y-125303800D02*
X139740700Y-125303800D01*
X136260900Y-126192800D02*
X137530900Y-126192800D01*
X136184700Y-125354600D02*
X139715300Y-125354600D01*
X137556300Y-124770400D02*
X138343700Y-124770400D01*
X136438700Y-128580400D02*
X136616500Y-128580400D01*
X139461300Y-128605800D02*
X139562900Y-128605800D01*
X135930700Y-126294400D02*
X137454700Y-126294400D01*
X137530900Y-124897400D02*
X138369100Y-124897400D01*
X136286300Y-128326400D02*
X136895900Y-128326400D01*
X138597700Y-128351800D02*
X138623100Y-128351800D01*
X136337100Y-127361200D02*
X137708700Y-127361200D01*
X138572300Y-126523000D02*
X140274100Y-126523000D01*
X137302300Y-128351800D02*
X137353100Y-128351800D01*
X136159300Y-127996200D02*
X137480100Y-127996200D01*
X138369100Y-127742200D02*
X139639100Y-127742200D01*
X138191300Y-127259600D02*
X139613700Y-127259600D01*
X135625900Y-126878600D02*
X137378500Y-126878600D01*
X136387900Y-127462800D02*
X137657900Y-127462800D01*
X138292900Y-127564400D02*
X139512100Y-127564400D01*
X139283500Y-124821200D02*
X139385100Y-124821200D01*
X136514900Y-124821200D02*
X136591100Y-124821200D01*
X138394500Y-127818400D02*
X139689900Y-127818400D01*
X136413300Y-125837200D02*
X139486700Y-125837200D01*
X137353100Y-125024400D02*
X138546900Y-125024400D01*
X137276900Y-125049800D02*
X138597700Y-125049800D01*
X136286300Y-127208800D02*
X137657900Y-127208800D01*
X136413300Y-125811800D02*
X139486700Y-125811800D01*
X136387900Y-125862600D02*
X139512100Y-125862600D01*
X138470700Y-127005600D02*
X139766100Y-127005600D01*
X137556300Y-124694200D02*
X138318300Y-124694200D01*
X136387900Y-127488200D02*
X137657900Y-127488200D01*
X135625900Y-126904000D02*
X137378500Y-126904000D01*
X137632500Y-124364000D02*
X138267500Y-124364000D01*
X136286300Y-125024400D02*
X136870500Y-125024400D01*
X136489500Y-124846600D02*
X136616500Y-124846600D01*
X138419900Y-127894600D02*
X139740700Y-127894600D01*
X138546900Y-128199400D02*
X139740700Y-128199400D01*
X135600500Y-126599200D02*
X137327700Y-126599200D01*
X138902500Y-125075200D02*
X139664500Y-125075200D01*
X138394500Y-127793000D02*
X139689900Y-127793000D01*
X136260900Y-126167400D02*
X137556300Y-126167400D01*
X136108500Y-125253000D02*
X139766100Y-125253000D01*
X138216700Y-127386600D02*
X139562900Y-127386600D01*
X138216700Y-126091200D02*
X139613700Y-126091200D01*
X137175300Y-125100600D02*
X138724700Y-125100600D01*
X136311700Y-127793000D02*
X137556300Y-127793000D01*
X136413300Y-125710200D02*
X139461300Y-125710200D01*
X136235500Y-125430800D02*
X139664500Y-125430800D01*
X135600500Y-126802400D02*
X137353100Y-126802400D01*
X137581700Y-124668800D02*
X138318300Y-124668800D01*
X138419900Y-127869200D02*
X139740700Y-127869200D01*
X136362500Y-127412000D02*
X137683300Y-127412000D01*
X138521500Y-126929400D02*
X140248700Y-126929400D01*
X137632500Y-124389400D02*
X138267500Y-124389400D01*
X136133900Y-128174000D02*
X137429300Y-128174000D01*
X136311700Y-127310400D02*
X137734100Y-127310400D01*
X137581700Y-124618000D02*
X138318300Y-124618000D01*
X138318300Y-127640600D02*
X139588300Y-127640600D01*
X138216700Y-127361200D02*
X139562900Y-127361200D01*
X138496100Y-126370600D02*
X140274100Y-126370600D01*
X135625900Y-126954800D02*
X137403900Y-126954800D01*
X136337100Y-125964200D02*
X139562900Y-125964200D01*
X135600500Y-126777000D02*
X137327700Y-126777000D01*
X139080300Y-124948200D02*
X139537500Y-124948200D01*
X136311700Y-126015000D02*
X139562900Y-126015000D01*
X136311700Y-127335800D02*
X137708700Y-127335800D01*
X136133900Y-125176800D02*
X139740700Y-125176800D01*
X138521500Y-126396000D02*
X140274100Y-126396000D01*
X138877100Y-125100600D02*
X139689900Y-125100600D01*
X139004100Y-124999000D02*
X139588300Y-124999000D01*
X136362500Y-125938800D02*
X139537500Y-125938800D01*
X136387900Y-125659400D02*
X139486700Y-125659400D01*
X137124500Y-125126000D02*
X138775500Y-125126000D01*
X136413300Y-127539000D02*
X137632500Y-127539000D01*
X136337100Y-128377200D02*
X136819700Y-128377200D01*
X135600500Y-126650000D02*
X137327700Y-126650000D01*
X139232700Y-124846600D02*
X139410500Y-124846600D01*
X138369100Y-127767600D02*
X139664500Y-127767600D01*
X136235500Y-128275600D02*
X136997500Y-128275600D01*
X136413300Y-128555000D02*
X136641900Y-128555000D01*
D15*
%TO.C,R18*%
X138357000Y-112290000D02*
X138357000Y-110639000D01*
X140643000Y-108861000D02*
X140643000Y-107210000D01*
X138357000Y-107210000D02*
X138357000Y-108861000D01*
X140643000Y-112290000D02*
X138357000Y-112290000D01*
X140643000Y-107210000D02*
X138357000Y-107210000D01*
X140643000Y-110639000D02*
X140643000Y-112290000D01*
D16*
%TO.C,L1*%
X140553040Y-93349680D02*
X138612480Y-93349680D01*
X140553040Y-103550320D02*
X138612480Y-103550320D01*
X140553040Y-103550320D02*
X141553800Y-102549560D01*
X132546960Y-103550320D02*
X131546200Y-102549560D01*
X140553040Y-93349680D02*
X141553800Y-94350440D01*
X132546960Y-103550320D02*
X134487520Y-103550320D01*
X131546200Y-93349680D02*
X134487520Y-93349680D01*
X131546200Y-93349680D02*
X131546200Y-102549560D01*
X141553800Y-102549560D02*
X141553800Y-94350440D01*
D11*
%TO.C,U1*%
X151293760Y-93000000D02*
X150500000Y-93000000D01*
X150500000Y-103000000D02*
X151293760Y-103000000D01*
X160500000Y-93793760D02*
X160500000Y-93000000D01*
X160500000Y-93000000D02*
X159706240Y-93000000D01*
X150500000Y-93000000D02*
X150500000Y-93793760D01*
X150500000Y-102206240D02*
X150500000Y-103000000D01*
X160500000Y-103000000D02*
X159706240Y-103000000D01*
X160500000Y-102206240D02*
X160500000Y-103000000D01*
X152011919Y-101750000D02*
G75*
G03*
X152011919Y-101750000I-261919J0D01*
G01*
D15*
%TO.C,C7*%
X163115000Y-119857000D02*
X164385000Y-119857000D01*
X164385000Y-119857000D02*
X164385000Y-122143000D01*
X163115000Y-122143000D02*
X163115000Y-119857000D01*
X164385000Y-122143000D02*
X163115000Y-122143000D01*
%TO.C,C13*%
X139893000Y-106385000D02*
X137607000Y-106385000D01*
X137607000Y-106385000D02*
X137607000Y-105115000D01*
X137607000Y-105115000D02*
X139893000Y-105115000D01*
X139893000Y-105115000D02*
X139893000Y-106385000D01*
%TO.C,R17*%
X151115000Y-117643000D02*
X151115000Y-115357000D01*
X152385000Y-117643000D02*
X151115000Y-117643000D01*
X152385000Y-115357000D02*
X152385000Y-117643000D01*
X151115000Y-115357000D02*
X152385000Y-115357000D01*
%TO.C,R51*%
X143135000Y-126643000D02*
X141865000Y-126643000D01*
X141865000Y-126643000D02*
X141865000Y-124357000D01*
X143135000Y-124357000D02*
X143135000Y-126643000D01*
X141865000Y-124357000D02*
X143135000Y-124357000D01*
%TO.C,R15*%
X171643000Y-107615000D02*
X171643000Y-108885000D01*
X169357000Y-107615000D02*
X171643000Y-107615000D01*
X171643000Y-108885000D02*
X169357000Y-108885000D01*
X169357000Y-108885000D02*
X169357000Y-107615000D01*
%TO.C,C11*%
X153685000Y-78857000D02*
X153685000Y-81143000D01*
X152415000Y-81143000D02*
X152415000Y-78857000D01*
X152415000Y-78857000D02*
X153685000Y-78857000D01*
X153685000Y-81143000D02*
X152415000Y-81143000D01*
D11*
%TO.C,U14*%
X142750000Y-111375000D02*
X144750000Y-111375000D01*
X142750000Y-112625000D02*
X142750000Y-111375000D01*
X144750000Y-111375000D02*
X144750000Y-112625000D01*
X143242000Y-112625000D02*
X142750000Y-112312500D01*
X144750000Y-112625000D02*
X142750000Y-112625000D01*
D15*
%TO.C,U6*%
X159738000Y-119166500D02*
X161262000Y-119166500D01*
X161262000Y-119166500D02*
X161262000Y-121770000D01*
X159738000Y-119992000D02*
X160246000Y-119230000D01*
X159738000Y-121770000D02*
X159738000Y-119166500D01*
X161262000Y-121770000D02*
X159738000Y-121770000D01*
%TO.C,Q1*%
X136119000Y-119274000D02*
X136119000Y-116226000D01*
X136881000Y-116226000D02*
X136881000Y-119274000D01*
X136881000Y-119274000D02*
X136119000Y-119274000D01*
X136119000Y-116226000D02*
X136881000Y-116226000D01*
%TO.C,R16*%
X168635000Y-110607000D02*
X168635000Y-112893000D01*
X168635000Y-112893000D02*
X167365000Y-112893000D01*
X167365000Y-112893000D02*
X167365000Y-110607000D01*
X167365000Y-110607000D02*
X168635000Y-110607000D01*
%TO.C,D1*%
X164726000Y-78881000D02*
X164726000Y-78119000D01*
X164726000Y-78119000D02*
X167774000Y-78119000D01*
X167774000Y-78119000D02*
X167774000Y-78881000D01*
X167774000Y-78881000D02*
X164726000Y-78881000D01*
%TO.C,C6*%
X147865000Y-119857000D02*
X149135000Y-119857000D01*
X149135000Y-119857000D02*
X149135000Y-122143000D01*
X147865000Y-122143000D02*
X147865000Y-119857000D01*
X149135000Y-122143000D02*
X147865000Y-122143000D01*
D17*
%TO.C,P1*%
X171360000Y-73100000D02*
X171360000Y-61750000D01*
X125640000Y-61750000D02*
X125640000Y-73100000D01*
D10*
X171360000Y-61750000D02*
X125640000Y-61750000D01*
D17*
X125640000Y-73100000D02*
X171360000Y-73100000D01*
D15*
%TO.C,C16*%
X160893000Y-89015000D02*
X160893000Y-90285000D01*
X158607000Y-90285000D02*
X158607000Y-89015000D01*
X158607000Y-89015000D02*
X160893000Y-89015000D01*
X160893000Y-90285000D02*
X158607000Y-90285000D01*
%TO.C,R4*%
X155635000Y-86643000D02*
X154365000Y-86643000D01*
X155635000Y-84357000D02*
X155635000Y-86643000D01*
X154365000Y-84357000D02*
X155635000Y-84357000D01*
X154365000Y-86643000D02*
X154365000Y-84357000D01*
%TO.C,C22*%
X148143000Y-94365000D02*
X148143000Y-95635000D01*
X148143000Y-95635000D02*
X145857000Y-95635000D01*
X145857000Y-94365000D02*
X148143000Y-94365000D01*
X145857000Y-95635000D02*
X145857000Y-94365000D01*
%TO.C,C18*%
X145857000Y-96115000D02*
X148143000Y-96115000D01*
X148143000Y-97385000D02*
X145857000Y-97385000D01*
X148143000Y-96115000D02*
X148143000Y-97385000D01*
X145857000Y-97385000D02*
X145857000Y-96115000D01*
%TO.C,R43*%
X159115000Y-115357000D02*
X160385000Y-115357000D01*
X160385000Y-117643000D02*
X159115000Y-117643000D01*
X160385000Y-115357000D02*
X160385000Y-117643000D01*
X159115000Y-117643000D02*
X159115000Y-115357000D01*
%TO.C,U5*%
X166238000Y-121833500D02*
X166238000Y-119230000D01*
X167762000Y-121833500D02*
X166238000Y-121833500D01*
X167762000Y-119230000D02*
X167762000Y-121833500D01*
X167762000Y-121008000D02*
X167254000Y-121770000D01*
X166238000Y-119230000D02*
X167762000Y-119230000D01*
%TO.C,C5*%
X126865000Y-94357000D02*
X128135000Y-94357000D01*
X128135000Y-96643000D02*
X126865000Y-96643000D01*
X128135000Y-94357000D02*
X128135000Y-96643000D01*
X126865000Y-96643000D02*
X126865000Y-94357000D01*
%TO.C,U8*%
X144488000Y-121770000D02*
X144488000Y-119166500D01*
X144488000Y-119992000D02*
X144996000Y-119230000D01*
X146012000Y-119166500D02*
X146012000Y-121770000D01*
X146012000Y-121770000D02*
X144488000Y-121770000D01*
X144488000Y-119166500D02*
X146012000Y-119166500D01*
%TO.C,R5*%
X126615000Y-86857000D02*
X127885000Y-86857000D01*
X127885000Y-86857000D02*
X127885000Y-89143000D01*
X127885000Y-89143000D02*
X126615000Y-89143000D01*
X126615000Y-89143000D02*
X126615000Y-86857000D01*
%TO.C,R41*%
X158135000Y-124357000D02*
X158135000Y-126643000D01*
X156865000Y-126643000D02*
X156865000Y-124357000D01*
X158135000Y-126643000D02*
X156865000Y-126643000D01*
X156865000Y-124357000D02*
X158135000Y-124357000D01*
D13*
%TO.C,D2*%
X134200000Y-89100000D02*
X134200000Y-89500000D01*
X138800000Y-89500000D02*
X138800000Y-89100000D01*
X134200000Y-91900000D02*
X138800000Y-91900000D01*
X138800000Y-91900000D02*
X138800000Y-91500000D01*
X138800000Y-89100000D02*
X134200000Y-89100000D01*
X134200000Y-91900000D02*
X134200000Y-91500000D01*
X135700000Y-91900000D02*
X135700000Y-89100000D01*
D15*
%TO.C,U2*%
X164091000Y-84492000D02*
X164091000Y-85508000D01*
X168917000Y-83095000D02*
X163583000Y-83095000D01*
X164091000Y-85508000D02*
X163583000Y-85508000D01*
X163583000Y-86778000D02*
X163583000Y-86905000D01*
X163583000Y-83095000D02*
X163583000Y-86778000D01*
X163583000Y-84492000D02*
X164091000Y-84492000D01*
X168917000Y-83095000D02*
X168917000Y-86905000D01*
X163583000Y-86905000D02*
X168917000Y-86905000D01*
%TO.C,C8*%
X162988000Y-123476000D02*
X164512000Y-123476000D01*
X164512000Y-125508000D02*
X164512000Y-126524000D01*
X162988000Y-126524000D02*
X162988000Y-125508000D01*
X162988000Y-124492000D02*
X162988000Y-123476000D01*
X164512000Y-126524000D02*
X162988000Y-126524000D01*
X164512000Y-123476000D02*
X164512000Y-124492000D01*
%TO.C,C12*%
X134893000Y-86365000D02*
X134893000Y-87635000D01*
X134893000Y-87635000D02*
X132607000Y-87635000D01*
X132607000Y-87635000D02*
X132607000Y-86365000D01*
X132607000Y-86365000D02*
X134893000Y-86365000D01*
D13*
%TO.C,R10*%
X165750000Y-130000000D02*
X165750000Y-127000000D01*
X168250000Y-130000000D02*
X168250000Y-127010000D01*
D15*
%TO.C,C9*%
X147738000Y-126524000D02*
X147738000Y-125508000D01*
X147738000Y-124492000D02*
X147738000Y-123476000D01*
X147738000Y-123476000D02*
X149262000Y-123476000D01*
X149262000Y-125508000D02*
X149262000Y-126524000D01*
X149262000Y-126524000D02*
X147738000Y-126524000D01*
X149262000Y-123476000D02*
X149262000Y-124492000D01*
%TO.C,R6*%
X129643000Y-92615000D02*
X129643000Y-93885000D01*
X127357000Y-93885000D02*
X127357000Y-92615000D01*
X129643000Y-93885000D02*
X127357000Y-93885000D01*
X127357000Y-92615000D02*
X129643000Y-92615000D01*
D13*
%TO.C,C2*%
X132679000Y-85441000D02*
X133441000Y-84679000D01*
X125440000Y-80234000D02*
X125440000Y-82266000D01*
X125821000Y-83155000D02*
X125821000Y-79345000D01*
X126075000Y-78964000D02*
X126075000Y-83536000D01*
X133441000Y-84679000D02*
X133441000Y-77821000D01*
X132679000Y-77059000D02*
X125059000Y-77059000D01*
X132552000Y-80869000D02*
X132552000Y-81631000D01*
X125059000Y-77059000D02*
X125059000Y-85441000D01*
X133441000Y-77821000D02*
X132679000Y-77059000D01*
X125567000Y-82647000D02*
X125567000Y-79853000D01*
X132933000Y-81250000D02*
X132171000Y-81250000D01*
X125948000Y-83282000D02*
X125948000Y-79218000D01*
X125059000Y-85441000D02*
X132679000Y-85441000D01*
X125694000Y-79599000D02*
X125694000Y-82901000D01*
X133187000Y-81250000D02*
G75*
G03*
X133187000Y-81250000I-3937000J0D01*
G01*
D15*
%TO.C,R22*%
X154893000Y-122365000D02*
X154893000Y-123635000D01*
X154893000Y-123635000D02*
X152607000Y-123635000D01*
X152607000Y-123635000D02*
X152607000Y-122365000D01*
X152607000Y-122365000D02*
X154893000Y-122365000D01*
D13*
%TO.C,D3*%
X130850000Y-108000000D02*
X130850000Y-111540000D01*
X132258000Y-109682500D02*
X131242000Y-109682500D01*
X131369000Y-110317500D02*
X131750000Y-109682500D01*
X132650000Y-108000000D02*
X132650000Y-111540000D01*
X131750000Y-110317500D02*
X131750000Y-110698500D01*
X132131000Y-110317500D02*
X131369000Y-110317500D01*
X131750000Y-109682500D02*
X132131000Y-110317500D01*
X131750000Y-109301500D02*
X131750000Y-109682500D01*
D11*
%TO.C,U13*%
X147000000Y-111500000D02*
X147000000Y-108500000D01*
X147000000Y-108500000D02*
X150000000Y-108500000D01*
X150000000Y-108500000D02*
X150000000Y-111500000D01*
X150000000Y-111500000D02*
X147000000Y-111500000D01*
D15*
%TO.C,R14*%
X145857000Y-92135000D02*
X145857000Y-90865000D01*
X145857000Y-90865000D02*
X148143000Y-90865000D01*
X148143000Y-92135000D02*
X145857000Y-92135000D01*
X148143000Y-90865000D02*
X148143000Y-92135000D01*
%TO.C,U4*%
X156730000Y-85488000D02*
X159333500Y-85488000D01*
X158508000Y-85488000D02*
X159270000Y-85996000D01*
X156730000Y-87012000D02*
X156730000Y-85488000D01*
X159333500Y-87012000D02*
X156730000Y-87012000D01*
X159333500Y-85488000D02*
X159333500Y-87012000D01*
%TO.C,R13*%
X165965000Y-115357000D02*
X167235000Y-115357000D01*
X167235000Y-117643000D02*
X165965000Y-117643000D01*
X165965000Y-117643000D02*
X165965000Y-115357000D01*
X167235000Y-115357000D02*
X167235000Y-117643000D01*
%TO.C,R12*%
X170393000Y-123635000D02*
X168107000Y-123635000D01*
X170393000Y-122365000D02*
X170393000Y-123635000D01*
X168107000Y-123635000D02*
X168107000Y-122365000D01*
X168107000Y-122365000D02*
X170393000Y-122365000D01*
%TO.C,C10*%
X163135000Y-81143000D02*
X161865000Y-81143000D01*
X161865000Y-81143000D02*
X161865000Y-78857000D01*
X161865000Y-78857000D02*
X163135000Y-78857000D01*
X163135000Y-78857000D02*
X163135000Y-81143000D01*
D13*
%TO.C,R20*%
X150500000Y-130000000D02*
X150500000Y-127000000D01*
X153000000Y-130000000D02*
X153000000Y-127010000D01*
D15*
%TO.C,C24*%
X171643000Y-117615000D02*
X171643000Y-118885000D01*
X169357000Y-117615000D02*
X171643000Y-117615000D01*
X169357000Y-118885000D02*
X169357000Y-117615000D01*
X171643000Y-118885000D02*
X169357000Y-118885000D01*
D13*
%TO.C,U3*%
X145250000Y-82700000D02*
X151750000Y-82700000D01*
X145250000Y-87300000D02*
X145250000Y-82700000D01*
X151750000Y-82700000D02*
X151750000Y-87300000D01*
X151750000Y-87300000D02*
X145250000Y-87300000D01*
D15*
%TO.C,U15*%
X161095000Y-111667000D02*
X164778000Y-111667000D01*
X162492000Y-111667000D02*
X162492000Y-111159000D01*
X164778000Y-111667000D02*
X164905000Y-111667000D01*
X161095000Y-106333000D02*
X161095000Y-111667000D01*
X163508000Y-111159000D02*
X163508000Y-111667000D01*
X164905000Y-111667000D02*
X164905000Y-106333000D01*
X161095000Y-106333000D02*
X164905000Y-106333000D01*
X162492000Y-111159000D02*
X163508000Y-111159000D01*
%TO.C,R53*%
X143865000Y-117643000D02*
X143865000Y-115357000D01*
X145135000Y-115357000D02*
X145135000Y-117643000D01*
X145135000Y-117643000D02*
X143865000Y-117643000D01*
X143865000Y-115357000D02*
X145135000Y-115357000D01*
D17*
%TO.C,P2*%
X125640000Y-136900000D02*
X125640000Y-148250000D01*
D10*
X125640000Y-148250000D02*
X171360000Y-148250000D01*
D17*
X171360000Y-148250000D02*
X171360000Y-136900000D01*
X171360000Y-136900000D02*
X125640000Y-136900000D01*
D13*
%TO.C,RL1*%
X130000000Y-104500000D02*
X125000000Y-104500000D01*
X130000000Y-104500000D02*
X130000000Y-132500000D01*
X130000000Y-132500000D02*
X125000000Y-132500000D01*
X125000000Y-104500000D02*
X125000000Y-132500000D01*
D15*
%TO.C,R23*%
X154135000Y-115357000D02*
X154135000Y-117643000D01*
X152865000Y-115357000D02*
X154135000Y-115357000D01*
X152865000Y-117643000D02*
X152865000Y-115357000D01*
X154135000Y-117643000D02*
X152865000Y-117643000D01*
%TO.C,C25*%
X172135000Y-104857000D02*
X172135000Y-107143000D01*
X172135000Y-107143000D02*
X170865000Y-107143000D01*
X170865000Y-104857000D02*
X172135000Y-104857000D01*
X170865000Y-107143000D02*
X170865000Y-104857000D01*
%TO.C,R11*%
X169365000Y-124357000D02*
X170635000Y-124357000D01*
X170635000Y-124357000D02*
X170635000Y-126643000D01*
X170635000Y-126643000D02*
X169365000Y-126643000D01*
X169365000Y-126643000D02*
X169365000Y-124357000D01*
%TO.C,C23*%
X169357000Y-117135000D02*
X169357000Y-115865000D01*
X169357000Y-115865000D02*
X171643000Y-115865000D01*
X171643000Y-115865000D02*
X171643000Y-117135000D01*
X171643000Y-117135000D02*
X169357000Y-117135000D01*
%TO.C,R21*%
X155135000Y-124357000D02*
X155135000Y-126643000D01*
X153865000Y-126643000D02*
X153865000Y-124357000D01*
X153865000Y-124357000D02*
X155135000Y-124357000D01*
X155135000Y-126643000D02*
X153865000Y-126643000D01*
D16*
%TO.C,U11*%
X132003680Y-87496320D02*
X131932560Y-87496320D01*
X132003680Y-90503680D02*
X132003680Y-87496320D01*
X128996320Y-87496320D02*
X129067440Y-87496320D01*
X132003680Y-90503680D02*
X131932560Y-90503680D01*
X128996320Y-90503680D02*
X128996320Y-87496320D01*
X128996320Y-90503680D02*
X129067440Y-90503680D01*
D15*
%TO.C,U7*%
X150988000Y-119230000D02*
X152512000Y-119230000D01*
X150988000Y-121833500D02*
X150988000Y-119230000D01*
X152512000Y-121008000D02*
X152004000Y-121770000D01*
X152512000Y-121833500D02*
X150988000Y-121833500D01*
X152512000Y-119230000D02*
X152512000Y-121833500D01*
%TO.C,R42*%
X159393000Y-123635000D02*
X157107000Y-123635000D01*
X157107000Y-123635000D02*
X157107000Y-122365000D01*
X159393000Y-122365000D02*
X159393000Y-123635000D01*
X157107000Y-122365000D02*
X159393000Y-122365000D01*
%TO.C,R3*%
X145488000Y-79492000D02*
X145488000Y-78476000D01*
X147012000Y-78476000D02*
X147012000Y-79492000D01*
X145488000Y-78476000D02*
X147012000Y-78476000D01*
X147012000Y-80508000D02*
X147012000Y-81524000D01*
X145488000Y-81524000D02*
X145488000Y-80508000D01*
X147012000Y-81524000D02*
X145488000Y-81524000D01*
%TO.C,C28*%
X164143000Y-104615000D02*
X164143000Y-105885000D01*
X164143000Y-105885000D02*
X161857000Y-105885000D01*
X161857000Y-104615000D02*
X164143000Y-104615000D01*
X161857000Y-105885000D02*
X161857000Y-104615000D01*
%TO.C,C15*%
X163357000Y-100385000D02*
X163357000Y-99115000D01*
X163357000Y-99115000D02*
X165643000Y-99115000D01*
X165643000Y-100385000D02*
X163357000Y-100385000D01*
X165643000Y-99115000D02*
X165643000Y-100385000D01*
%TO.C,C21*%
X132385000Y-104357000D02*
X132385000Y-106643000D01*
X132385000Y-106643000D02*
X131115000Y-106643000D01*
X131115000Y-106643000D02*
X131115000Y-104357000D01*
X131115000Y-104357000D02*
X132385000Y-104357000D01*
D13*
%TO.C,R40*%
X161750000Y-127000000D02*
X161750000Y-130000000D01*
X159250000Y-127000000D02*
X159250000Y-129990000D01*
D15*
%TO.C,U12*%
X171008000Y-110988000D02*
X171770000Y-111496000D01*
X169230000Y-112512000D02*
X169230000Y-110988000D01*
X171833500Y-112512000D02*
X169230000Y-112512000D01*
X171833500Y-110988000D02*
X171833500Y-112512000D01*
X169230000Y-110988000D02*
X171833500Y-110988000D01*
%TO.C,U10*%
X149008000Y-115738000D02*
X149770000Y-116246000D01*
X147230000Y-117262000D02*
X147230000Y-115738000D01*
X149833500Y-115738000D02*
X149833500Y-117262000D01*
X149833500Y-117262000D02*
X147230000Y-117262000D01*
X147230000Y-115738000D02*
X149833500Y-115738000D01*
%TO.C,R1*%
X160607000Y-82460000D02*
X162893000Y-82460000D01*
X160607000Y-84111000D02*
X160607000Y-82460000D01*
X160607000Y-85889000D02*
X160607000Y-87540000D01*
X160607000Y-87540000D02*
X162893000Y-87540000D01*
X162893000Y-87540000D02*
X162893000Y-85889000D01*
X162893000Y-82460000D02*
X162893000Y-84111000D01*
%TO.C,U9*%
X162480000Y-117262000D02*
X162480000Y-115738000D01*
X165083500Y-115738000D02*
X165083500Y-117262000D01*
X164258000Y-115738000D02*
X165020000Y-116246000D01*
X165083500Y-117262000D02*
X162480000Y-117262000D01*
X162480000Y-115738000D02*
X165083500Y-115738000D01*
%TO.C,R52*%
X142107000Y-122365000D02*
X144393000Y-122365000D01*
X142107000Y-123635000D02*
X142107000Y-122365000D01*
X144393000Y-122365000D02*
X144393000Y-123635000D01*
X144393000Y-123635000D02*
X142107000Y-123635000D01*
%TO.C,C19*%
X148143000Y-98885000D02*
X145857000Y-98885000D01*
X148143000Y-97615000D02*
X148143000Y-98885000D01*
X145857000Y-98885000D02*
X145857000Y-97615000D01*
X145857000Y-97615000D02*
X148143000Y-97615000D01*
%TO.C,C4*%
X130135000Y-94357000D02*
X130135000Y-96643000D01*
X130135000Y-96643000D02*
X128865000Y-96643000D01*
X128865000Y-96643000D02*
X128865000Y-94357000D01*
X128865000Y-94357000D02*
X130135000Y-94357000D01*
%TO.C,C29*%
X164143000Y-113635000D02*
X161857000Y-113635000D01*
X164143000Y-112365000D02*
X164143000Y-113635000D01*
X161857000Y-113635000D02*
X161857000Y-112365000D01*
X161857000Y-112365000D02*
X164143000Y-112365000D01*
D13*
%TO.C,R50*%
X144000000Y-127000000D02*
X144000000Y-129990000D01*
X146500000Y-127000000D02*
X146500000Y-130000000D01*
D15*
%TO.C,R9*%
X148143000Y-93885000D02*
X145857000Y-93885000D01*
X145857000Y-93885000D02*
X145857000Y-92615000D01*
X148143000Y-92615000D02*
X148143000Y-93885000D01*
X145857000Y-92615000D02*
X148143000Y-92615000D01*
D17*
%TO.C,P3*%
X166460000Y-95460000D02*
X166460000Y-100540000D01*
X166460000Y-95460000D02*
X166750000Y-95460000D01*
X171540000Y-100540000D02*
X171250000Y-100540000D01*
X171250000Y-95460000D02*
X171540000Y-95460000D01*
X171540000Y-95460000D02*
X171540000Y-100540000D01*
X166460000Y-100540000D02*
X166750000Y-100540000D01*
D13*
%TO.C,SW1*%
X172250000Y-87000000D02*
X169750000Y-87000000D01*
X169750000Y-87000000D02*
X169750000Y-77000000D01*
X172250000Y-77000000D02*
X172250000Y-87000000D01*
X169750000Y-77000000D02*
X172250000Y-77000000D01*
D15*
%TO.C,R7*%
X127357000Y-101135000D02*
X127357000Y-99865000D01*
X129643000Y-99865000D02*
X129643000Y-101135000D01*
X127357000Y-99865000D02*
X129643000Y-99865000D01*
X129643000Y-101135000D02*
X127357000Y-101135000D01*
%TO.C,C3*%
X124865000Y-86857000D02*
X126135000Y-86857000D01*
X124865000Y-89143000D02*
X124865000Y-86857000D01*
X126135000Y-86857000D02*
X126135000Y-89143000D01*
X126135000Y-89143000D02*
X124865000Y-89143000D01*
%TO.C,C27*%
X168635000Y-106357000D02*
X168635000Y-108643000D01*
X167365000Y-106357000D02*
X168635000Y-106357000D01*
X167365000Y-108643000D02*
X167365000Y-106357000D01*
X168635000Y-108643000D02*
X167365000Y-108643000D01*
%TO.C,C1*%
X134460000Y-77107000D02*
X134460000Y-79393000D01*
X136111000Y-77107000D02*
X134460000Y-77107000D01*
X139540000Y-79393000D02*
X137889000Y-79393000D01*
X137889000Y-77107000D02*
X139540000Y-77107000D01*
X139540000Y-77107000D02*
X139540000Y-79393000D01*
X134460000Y-79393000D02*
X136111000Y-79393000D01*
D11*
%TO.C,C14*%
X133350000Y-106850000D02*
X134150000Y-106850000D01*
X133350000Y-114150000D02*
X134150000Y-114150000D01*
X137650000Y-106850000D02*
X137650000Y-114150000D01*
X137650000Y-114150000D02*
X136850000Y-114150000D01*
X133350000Y-114150000D02*
X133350000Y-106850000D01*
X137650000Y-106850000D02*
X136850000Y-106850000D01*
D15*
%TO.C,C17*%
X149857000Y-90135000D02*
X149857000Y-88865000D01*
X152143000Y-90135000D02*
X149857000Y-90135000D01*
X149857000Y-88865000D02*
X152143000Y-88865000D01*
X152143000Y-88865000D02*
X152143000Y-90135000D01*
%TO.C,R8*%
X129643000Y-98115000D02*
X129643000Y-99385000D01*
X127357000Y-99385000D02*
X127357000Y-98115000D01*
X127357000Y-98115000D02*
X129643000Y-98115000D01*
X129643000Y-99385000D02*
X127357000Y-99385000D01*
%TO.C,R2*%
X144762000Y-81524000D02*
X143238000Y-81524000D01*
X143238000Y-81524000D02*
X143238000Y-80508000D01*
X143238000Y-78476000D02*
X144762000Y-78476000D01*
X143238000Y-79492000D02*
X143238000Y-78476000D01*
X144762000Y-80508000D02*
X144762000Y-81524000D01*
X144762000Y-78476000D02*
X144762000Y-79492000D01*
%TO.C,L2*%
X170385000Y-104857000D02*
X170385000Y-107143000D01*
X169115000Y-107143000D02*
X169115000Y-104857000D01*
X170385000Y-107143000D02*
X169115000Y-107143000D01*
X169115000Y-104857000D02*
X170385000Y-104857000D01*
%TO.C,C20*%
X154857000Y-107285000D02*
X154857000Y-106015000D01*
X157143000Y-107285000D02*
X154857000Y-107285000D01*
X154857000Y-106015000D02*
X157143000Y-106015000D01*
X157143000Y-106015000D02*
X157143000Y-107285000D01*
%TO.C,C26*%
X169357000Y-114115000D02*
X171643000Y-114115000D01*
X171643000Y-114115000D02*
X171643000Y-115385000D01*
X169357000Y-115385000D02*
X169357000Y-114115000D01*
X171643000Y-115385000D02*
X169357000Y-115385000D01*
%TD*%
M02*
