%TF.GenerationSoftware,KiCad,Pcbnew,6.0.0*%
%TF.CreationDate,2022-04-16T14:37:20+02:00*%
%TF.ProjectId,cowdin-3a-pwrmon,636f7764-696e-42d3-9361-2d7077726d6f,1*%
%TF.SameCoordinates,Original*%
%TF.FileFunction,Paste,Top*%
%TF.FilePolarity,Positive*%
%FSLAX46Y46*%
G04 Gerber Fmt 4.6, Leading zero omitted, Abs format (unit mm)*
G04 Created by KiCad (PCBNEW 6.0.0) date 2022-04-16 14:37:20*
%MOMM*%
%LPD*%
G01*
G04 APERTURE LIST*
%ADD10R,2.032000X1.524000*%
%ADD11R,3.560000X1.780000*%
%ADD12R,0.300000X1.524000*%
%ADD13R,1.524000X0.300000*%
%ADD14R,1.143000X0.635000*%
%ADD15R,0.635000X1.143000*%
%ADD16R,0.400000X1.000000*%
%ADD17R,1.000760X0.701040*%
%ADD18R,0.914400X0.914400*%
%ADD19C,1.198880*%
%ADD20R,2.100000X1.800000*%
%ADD21R,0.609600X1.270000*%
%ADD22R,1.397000X0.889000*%
%ADD23R,3.000000X2.000000*%
%ADD24R,3.500120X2.400300*%
%ADD25R,1.220000X0.910000*%
%ADD26R,0.230000X0.930000*%
%ADD27R,0.701040X1.000760*%
%ADD28R,1.300000X1.500000*%
%ADD29R,1.270000X0.609600*%
%ADD30R,0.300000X1.600000*%
%ADD31R,1.880000X1.570000*%
%ADD32R,1.000000X3.100000*%
%ADD33R,1.524000X2.032000*%
%ADD34R,2.500000X2.500000*%
G04 APERTURE END LIST*
D10*
%TO.C,R18*%
X139500000Y-108099000D03*
X139500000Y-111401000D03*
%TD*%
D11*
%TO.C,L1*%
X136550000Y-93750000D03*
X136550000Y-103150000D03*
%TD*%
D12*
%TO.C,U1*%
X151750000Y-103912000D03*
X152250000Y-103912000D03*
X152750000Y-103912000D03*
X153250000Y-103912000D03*
X153750000Y-103912000D03*
X154250000Y-103912000D03*
X154750000Y-103912000D03*
X155250000Y-103912000D03*
X155750000Y-103912000D03*
X156250000Y-103912000D03*
X156750000Y-103912000D03*
X157250000Y-103912000D03*
X157750000Y-103912000D03*
X158250000Y-103912000D03*
X158750000Y-103912000D03*
X159250000Y-103912000D03*
D13*
X161412000Y-101750000D03*
X161412000Y-101250000D03*
X161412000Y-100750000D03*
X161412000Y-100250000D03*
X161412000Y-99750000D03*
X161412000Y-99250000D03*
X161412000Y-98750000D03*
X161412000Y-98250000D03*
X161412000Y-97750000D03*
X161412000Y-97250000D03*
X161412000Y-96750000D03*
X161412000Y-96250000D03*
X161412000Y-95750000D03*
X161412000Y-95250000D03*
X161412000Y-94750000D03*
X161412000Y-94250000D03*
D12*
X159250000Y-92088000D03*
X158750000Y-92088000D03*
X158250000Y-92088000D03*
X157750000Y-92088000D03*
X157250000Y-92088000D03*
X156750000Y-92088000D03*
X156250000Y-92088000D03*
X155750000Y-92088000D03*
X155250000Y-92088000D03*
X154750000Y-92088000D03*
X154250000Y-92088000D03*
X153750000Y-92088000D03*
X153250000Y-92088000D03*
X152750000Y-92088000D03*
X152250000Y-92088000D03*
X151750000Y-92088000D03*
D13*
X149588000Y-94250000D03*
X149588000Y-94750000D03*
X149588000Y-95250000D03*
X149588000Y-95750000D03*
X149588000Y-96250000D03*
X149588000Y-96750000D03*
X149588000Y-97250000D03*
X149588000Y-97750000D03*
X149588000Y-98250000D03*
X149588000Y-98750000D03*
X149588000Y-99250000D03*
X149588000Y-99750000D03*
X149588000Y-100250000D03*
X149588000Y-100750000D03*
X149588000Y-101250000D03*
X149588000Y-101750000D03*
%TD*%
D14*
%TO.C,C7*%
X163750000Y-120238000D03*
X163750000Y-121762000D03*
%TD*%
D15*
%TO.C,C13*%
X137988000Y-105750000D03*
X139512000Y-105750000D03*
%TD*%
D14*
%TO.C,R17*%
X151750000Y-117262000D03*
X151750000Y-115738000D03*
%TD*%
%TO.C,R51*%
X142500000Y-124738000D03*
X142500000Y-126262000D03*
%TD*%
D15*
%TO.C,R15*%
X171262000Y-108250000D03*
X169738000Y-108250000D03*
%TD*%
D14*
%TO.C,C11*%
X153050000Y-80762000D03*
X153050000Y-79238000D03*
%TD*%
D16*
%TO.C,U14*%
X143100000Y-113100000D03*
X143750000Y-113100000D03*
X144400000Y-113100000D03*
X144400000Y-110900000D03*
X143750000Y-110900000D03*
X143100000Y-110900000D03*
%TD*%
D17*
%TO.C,U6*%
X159230000Y-119547500D03*
X159230000Y-120500000D03*
X159230000Y-121452500D03*
X161770000Y-121452500D03*
X161770000Y-119547500D03*
%TD*%
D18*
%TO.C,Q1*%
X137516000Y-118639000D03*
X137516000Y-116861000D03*
X135484000Y-117750000D03*
%TD*%
D14*
%TO.C,R16*%
X168000000Y-110988000D03*
X168000000Y-112512000D03*
%TD*%
D18*
%TO.C,D1*%
X165361000Y-79516000D03*
X167139000Y-79516000D03*
X166250000Y-77484000D03*
%TD*%
D14*
%TO.C,C6*%
X148500000Y-120238000D03*
X148500000Y-121762000D03*
%TD*%
D15*
%TO.C,C16*%
X158988000Y-89650000D03*
X160512000Y-89650000D03*
%TD*%
D14*
%TO.C,R4*%
X155000000Y-86262000D03*
X155000000Y-84738000D03*
%TD*%
D15*
%TO.C,C22*%
X147762000Y-95000000D03*
X146238000Y-95000000D03*
%TD*%
%TO.C,C18*%
X147762000Y-96750000D03*
X146238000Y-96750000D03*
%TD*%
D19*
%TO.C,TP6*%
X143500000Y-92500000D03*
%TD*%
D14*
%TO.C,R43*%
X159750000Y-115738000D03*
X159750000Y-117262000D03*
%TD*%
D17*
%TO.C,U5*%
X168270000Y-121452500D03*
X168270000Y-120500000D03*
X168270000Y-119547500D03*
X165730000Y-119547500D03*
X165730000Y-121452500D03*
%TD*%
D14*
%TO.C,C5*%
X127500000Y-94738000D03*
X127500000Y-96262000D03*
%TD*%
D17*
%TO.C,U8*%
X143980000Y-119547500D03*
X143980000Y-120500000D03*
X143980000Y-121452500D03*
X146520000Y-121452500D03*
X146520000Y-119547500D03*
%TD*%
D14*
%TO.C,R5*%
X127250000Y-87238000D03*
X127250000Y-88762000D03*
%TD*%
%TO.C,R41*%
X157500000Y-124738000D03*
X157500000Y-126262000D03*
%TD*%
D20*
%TO.C,D2*%
X138700000Y-90500000D03*
X134300000Y-90500000D03*
%TD*%
D21*
%TO.C,U2*%
X164345000Y-87667000D03*
X165615000Y-87667000D03*
X166885000Y-87667000D03*
X168155000Y-87667000D03*
X168155000Y-82333000D03*
X166885000Y-82333000D03*
X165615000Y-82333000D03*
X164345000Y-82333000D03*
%TD*%
D22*
%TO.C,C8*%
X163750000Y-125952500D03*
X163750000Y-124047500D03*
%TD*%
D15*
%TO.C,C12*%
X132988000Y-87000000D03*
X134512000Y-87000000D03*
%TD*%
D23*
%TO.C,R10*%
X167000000Y-131450000D03*
X167000000Y-125550000D03*
%TD*%
D22*
%TO.C,C9*%
X148500000Y-125952500D03*
X148500000Y-124047500D03*
%TD*%
D15*
%TO.C,R6*%
X129262000Y-93250000D03*
X127738000Y-93250000D03*
%TD*%
D24*
%TO.C,C2*%
X132501200Y-81250000D03*
X125998800Y-81250000D03*
%TD*%
D15*
%TO.C,R22*%
X152988000Y-123000000D03*
X154512000Y-123000000D03*
%TD*%
D25*
%TO.C,D3*%
X131750000Y-111635000D03*
X131750000Y-108365000D03*
%TD*%
D26*
%TO.C,U13*%
X147525000Y-112450000D03*
X148175000Y-112450000D03*
X148825000Y-112450000D03*
X149475000Y-112450000D03*
X149475000Y-107550000D03*
X148825000Y-107550000D03*
X148175000Y-107550000D03*
X147525000Y-107550000D03*
%TD*%
D15*
%TO.C,R14*%
X147762000Y-91500000D03*
X146238000Y-91500000D03*
%TD*%
D27*
%TO.C,U4*%
X158952500Y-84980000D03*
X158000000Y-84980000D03*
X157047500Y-84980000D03*
X157047500Y-87520000D03*
X158952500Y-87520000D03*
%TD*%
D14*
%TO.C,R13*%
X166600000Y-115738000D03*
X166600000Y-117262000D03*
%TD*%
D15*
%TO.C,R12*%
X168488000Y-123000000D03*
X170012000Y-123000000D03*
%TD*%
D14*
%TO.C,C10*%
X162500000Y-80762000D03*
X162500000Y-79238000D03*
%TD*%
D23*
%TO.C,R20*%
X151750000Y-131450000D03*
X151750000Y-125550000D03*
%TD*%
D15*
%TO.C,C24*%
X171262000Y-118250000D03*
X169738000Y-118250000D03*
%TD*%
D19*
%TO.C,TP5*%
X143500000Y-95000000D03*
%TD*%
%TO.C,TP3*%
X143500000Y-97500000D03*
%TD*%
D28*
%TO.C,U3*%
X144000000Y-83730000D03*
X144000000Y-86270000D03*
X153000000Y-86270000D03*
X153000000Y-83730000D03*
%TD*%
D29*
%TO.C,U15*%
X165667000Y-110905000D03*
X165667000Y-109635000D03*
X165667000Y-108365000D03*
X165667000Y-107095000D03*
X160333000Y-107095000D03*
X160333000Y-108365000D03*
X160333000Y-109635000D03*
X160333000Y-110905000D03*
%TD*%
D14*
%TO.C,R53*%
X144500000Y-115738000D03*
X144500000Y-117262000D03*
%TD*%
%TO.C,R23*%
X153500000Y-115738000D03*
X153500000Y-117262000D03*
%TD*%
%TO.C,C25*%
X171500000Y-106762000D03*
X171500000Y-105238000D03*
%TD*%
%TO.C,R11*%
X170000000Y-124738000D03*
X170000000Y-126262000D03*
%TD*%
D15*
%TO.C,C23*%
X171262000Y-116500000D03*
X169738000Y-116500000D03*
%TD*%
D14*
%TO.C,R21*%
X154500000Y-124738000D03*
X154500000Y-126262000D03*
%TD*%
D30*
%TO.C,U11*%
X131500000Y-86900000D03*
X131000000Y-86900000D03*
X130500000Y-86900000D03*
X130000000Y-86900000D03*
X129500000Y-86900000D03*
X129500000Y-91100000D03*
X130000000Y-91100000D03*
X130500000Y-91100000D03*
X131000000Y-91100000D03*
X131500000Y-91100000D03*
D31*
X130500000Y-89000000D03*
%TD*%
D17*
%TO.C,U7*%
X153020000Y-121452500D03*
X153020000Y-120500000D03*
X153020000Y-119547500D03*
X150480000Y-119547500D03*
X150480000Y-121452500D03*
%TD*%
D15*
%TO.C,R42*%
X159012000Y-123000000D03*
X157488000Y-123000000D03*
%TD*%
D22*
%TO.C,R3*%
X146250000Y-80952500D03*
X146250000Y-79047500D03*
%TD*%
D15*
%TO.C,C28*%
X162238000Y-105250000D03*
X163762000Y-105250000D03*
%TD*%
%TO.C,C15*%
X163738000Y-99750000D03*
X165262000Y-99750000D03*
%TD*%
D14*
%TO.C,C21*%
X131750000Y-106262000D03*
X131750000Y-104738000D03*
%TD*%
D23*
%TO.C,R40*%
X160500000Y-125550000D03*
X160500000Y-131450000D03*
%TD*%
D27*
%TO.C,U12*%
X171452500Y-110480000D03*
X170500000Y-110480000D03*
X169547500Y-110480000D03*
X169547500Y-113020000D03*
X171452500Y-113020000D03*
%TD*%
%TO.C,U10*%
X149452500Y-115230000D03*
X148500000Y-115230000D03*
X147547500Y-115230000D03*
X147547500Y-117770000D03*
X149452500Y-117770000D03*
%TD*%
D10*
%TO.C,R1*%
X161750000Y-86651000D03*
X161750000Y-83349000D03*
%TD*%
D27*
%TO.C,U9*%
X164702500Y-115230000D03*
X163750000Y-115230000D03*
X162797500Y-115230000D03*
X162797500Y-117770000D03*
X164702500Y-117770000D03*
%TD*%
D15*
%TO.C,R52*%
X144012000Y-123000000D03*
X142488000Y-123000000D03*
%TD*%
D19*
%TO.C,TP4*%
X143500000Y-100000000D03*
%TD*%
D15*
%TO.C,C19*%
X147762000Y-98250000D03*
X146238000Y-98250000D03*
%TD*%
D14*
%TO.C,C4*%
X129500000Y-94738000D03*
X129500000Y-96262000D03*
%TD*%
D15*
%TO.C,C29*%
X163762000Y-113000000D03*
X162238000Y-113000000D03*
%TD*%
D23*
%TO.C,R50*%
X145250000Y-125550000D03*
X145250000Y-131450000D03*
%TD*%
D15*
%TO.C,R9*%
X146238000Y-93250000D03*
X147762000Y-93250000D03*
%TD*%
D32*
%TO.C,P3*%
X167730000Y-100700000D03*
X167730000Y-95300000D03*
X170270000Y-100700000D03*
X170270000Y-95300000D03*
%TD*%
D15*
%TO.C,R7*%
X127738000Y-100500000D03*
X129262000Y-100500000D03*
%TD*%
D14*
%TO.C,C3*%
X125500000Y-87238000D03*
X125500000Y-88762000D03*
%TD*%
%TO.C,C27*%
X168000000Y-108262000D03*
X168000000Y-106738000D03*
%TD*%
D33*
%TO.C,C1*%
X135349000Y-78250000D03*
X138651000Y-78250000D03*
%TD*%
D34*
%TO.C,C14*%
X135500000Y-106850000D03*
X135500000Y-114150000D03*
%TD*%
D15*
%TO.C,C17*%
X151762000Y-89500000D03*
X150238000Y-89500000D03*
%TD*%
%TO.C,R8*%
X129262000Y-98750000D03*
X127738000Y-98750000D03*
%TD*%
D22*
%TO.C,R2*%
X144000000Y-80952500D03*
X144000000Y-79047500D03*
%TD*%
D14*
%TO.C,L2*%
X169750000Y-105238000D03*
X169750000Y-106762000D03*
%TD*%
D15*
%TO.C,C20*%
X155238000Y-106650000D03*
X156762000Y-106650000D03*
%TD*%
%TO.C,C26*%
X171262000Y-114750000D03*
X169738000Y-114750000D03*
%TD*%
M02*
